
<svg width="402" height="47" viewBox="0 0 402 47" fill="none" xmlns="http://www.w3.org/2000/svg">
<path d="M387.593 3.7147L402 12.9966L401.967 13.0266V34.0134L387.56 43.2953L386.534 42.5142C385.688 41.9254 384.655 41.6068 383.593 41.6068C382.531 41.6068 381.498 41.9254 380.651 42.5142C380.163 42.8575 379.798 43.3272 379.604 43.8626C379.409 44.3981 379.394 44.9746 379.56 45.5181L380.051 47H21.9271L22.4182 45.5081C22.5905 44.965 22.5784 44.3866 22.3834 43.8499C22.1884 43.3133 21.8199 42.8439 21.3268 42.5043C20.4764 41.9154 19.4399 41.5968 18.3744 41.5968C17.309 41.5968 16.2725 41.9154 15.4221 42.5043L14.418 43.2852L0 33.9734V13.0266L14.3743 3.76482H14.4398L15.2365 4.36556C16.0424 4.96569 17.031 5.32247 18.0666 5.387C19.1022 5.45154 20.1342 5.22065 21.0212 4.726C21.6069 4.40166 22.0587 3.90812 22.3056 3.32278C22.5525 2.73745 22.5806 2.09346 22.3855 1.49189L21.8943 0H380.117L379.625 1.49189C379.458 2.03524 379.472 2.61228 379.667 3.148C379.862 3.68372 380.227 4.15334 380.717 4.49573C381.563 5.08452 382.596 5.4032 383.658 5.4032C384.72 5.4032 385.753 5.08452 386.6 4.49573L387.593 3.7147Z" fill="#3D3D3D"/>
<path d="M125 27L130 33.5H113.5C113.486 32.859 113.298 31.9273 112.957 31.3843C112.616 30.8413 112.071 30.6448 111.5 30.3535C110.929 30.0623 110.14 29.957 109.5 30C108.86 30.043 108.527 30.635 108 31L102 25.5V21L108 16C108.53 16.3564 109.362 16.4648 110 16.5C110.638 16.5352 110.934 16.2959 111.5 16C112.066 15.7041 112.165 16.0439 112.5 15.5C112.835 14.9561 113.49 13.6388 113.5 13H130L125 19.5V27Z" fill="#3D3D3D"/>
<path d="M130.095 33.24L130.772 34.72H111.73L111.97 33.72C112.059 33.3801 112.057 33.0227 111.964 32.6839C111.871 32.3451 111.69 32.0368 111.44 31.79C111.053 31.4184 110.537 31.2109 110 31.2109C109.463 31.2109 108.947 31.4184 108.56 31.79L108.07 32.28L101 26.35V20.43L108.05 14.43L108.54 14.92C108.927 15.2916 109.443 15.499 109.98 15.499C110.517 15.499 111.033 15.2916 111.42 14.92C111.668 14.6742 111.848 14.3675 111.941 14.0306C112.034 13.6938 112.037 13.3384 111.95 13L111.71 12H131L129.803 13.53H113.55C113.54 14.1688 113.358 14.7931 113.022 15.3369C112.687 15.8808 112.211 16.3241 111.645 16.62C111.078 16.9159 110.443 17.0536 109.805 17.0184C109.167 16.9832 108.55 16.7764 108.02 16.42L102.53 21.06V25.56L108 30.35C108.53 29.9935 109.147 29.7868 109.785 29.7516C110.423 29.7164 111.058 29.854 111.625 30.15C112.191 30.4459 112.667 30.8891 113.002 31.433C113.338 31.9768 113.52 32.6011 113.53 33.24H130.095Z" fill="#D7D7D7"/>
<path d="M137.68 38.6299H135.77L132.44 34.47L131.83 33.71L131.22 32.9399L128.72 29.81C128.968 29.4019 129.195 28.9813 129.4 28.55L132.99 32.9399L134.25 34.47L137.68 38.6299Z" fill="#242122"/>
<path d="M137.67 7.72998L134.26 11.87L133.63 12.64L133 13.4L129.44 17.79C129.237 17.3739 129.01 16.9698 128.76 16.58L131.29 13.4L131.9 12.64L132.51 11.87L135.8 7.72998H137.67Z" fill="#242122"/>
<path d="M189.66 19.75V26.59L187.71 29.05C186.893 27.6647 186.385 26.1195 186.22 24.52C186.48 24.4053 186.7 24.2175 186.855 23.9796C187.009 23.7416 187.091 23.4637 187.09 23.18C187.092 22.8973 187.013 22.6199 186.862 22.3806C186.712 22.1414 186.496 21.9503 186.24 21.83C186.419 20.2461 186.933 18.7187 187.75 17.35L189.66 19.75Z" fill="#3D3D3D"/>
<path d="M187.09 29.8199L180.09 38.6299H178.2L186.43 28.6299C186.627 29.0387 186.848 29.436 187.09 29.8199Z" fill="#242122"/>
<path d="M138.86 38.6299H137.68L134.29 34.47L133.03 32.9399L129.44 28.56C129.59 28.24 129.73 27.92 129.85 27.56L134.22 32.91L134.84 33.68L135.46 34.4399L138.86 38.6299Z" fill="#707171"/>
<path d="M138.86 7.72998L135.44 11.87L134.81 12.64L134.18 13.4L129.79 18.74C129.67 18.42 129.53 18.1 129.4 17.79L132.99 13.4L133.62 12.64L134.25 11.87L137.66 7.72998H138.86Z" fill="#707171"/>
<path d="M186.44 28.59L178.21 38.59H177L186 27.59C186.123 27.9331 186.27 28.2673 186.44 28.59V28.59Z" fill="#707171"/>
<path d="M180.94 6H134.94L130.28 11.87L129.67 12.64L129.07 13.4L124.5 19.15V27.2L129.07 32.95L129.68 33.72L130.28 34.48L134.94 40.34H180.94L191.39 27.2V19.15L180.94 6ZM126.21 26.59V19.75L128.12 17.35C128.929 18.7213 129.44 20.2478 129.62 21.83C129.363 21.9498 129.146 22.1406 128.993 22.3797C128.841 22.6188 128.76 22.8965 128.76 23.18C128.761 23.4646 128.845 23.7426 129.001 23.9805C129.157 24.2183 129.379 24.4057 129.64 24.52C129.469 26.1151 128.961 27.6557 128.15 29.04L126.21 26.59ZM180.1 38.59H135.77L132.44 34.47L131.83 33.71L131.22 32.9399L128.72 29.81C128.968 29.4019 129.195 28.9813 129.4 28.55C129.55 28.23 129.69 27.91 129.81 27.55C130.164 26.5825 130.395 25.5747 130.5 24.55C130.842 24.4849 131.152 24.3026 131.374 24.0343C131.597 23.766 131.719 23.4286 131.72 23.08C131.721 22.7308 131.6 22.3924 131.377 22.1237C131.154 21.8551 130.843 21.6733 130.5 21.61C130.384 20.5823 130.135 19.5739 129.76 18.61C129.64 18.29 129.5 17.97 129.37 17.66C129.167 17.2439 128.94 16.8398 128.69 16.45L131.22 13.27L131.83 12.5099L132.44 11.74L135.73 7.59998H180.06L187.06 16.4399C186.812 16.8324 186.588 17.2399 186.39 17.66C186.232 17.9623 186.098 18.2766 185.99 18.6C185.619 19.5652 185.371 20.573 185.25 21.6C184.902 21.6576 184.585 21.837 184.357 22.1063C184.129 22.3755 184.003 22.717 184.003 23.0699C184.003 23.4229 184.129 23.7645 184.357 24.0337C184.585 24.3029 184.902 24.4823 185.25 24.54C185.348 25.5678 185.587 26.5772 185.96 27.54C186.07 27.8821 186.204 28.2162 186.36 28.54C186.553 28.9621 186.77 29.3728 187.01 29.77L180.1 38.59ZM189.66 26.59L187.71 29.05C186.893 27.6647 186.385 26.1195 186.22 24.52C186.48 24.4053 186.7 24.2175 186.855 23.9796C187.009 23.7416 187.091 23.4637 187.09 23.18C187.092 22.8973 187.013 22.6199 186.862 22.3806C186.712 22.1414 186.496 21.9503 186.24 21.83C186.419 20.2461 186.933 18.7187 187.75 17.35L189.66 19.75V26.59Z" fill="#D7D7D7"/>
<path d="M129.64 24.52C129.469 26.1151 128.961 27.6557 128.15 29.04L126.21 26.59V19.75L128.12 17.35C128.929 18.7213 129.44 20.2478 129.62 21.83C129.363 21.9498 129.146 22.1406 128.993 22.3797C128.841 22.6188 128.76 22.8965 128.76 23.18C128.761 23.4646 128.845 23.7426 129.001 23.9805C129.157 24.2183 129.379 24.4057 129.64 24.52V24.52Z" fill="#3D3D3D"/>
<path d="M185.33 24.65C185.428 25.6778 185.667 26.6872 186.04 27.65L177.04 38.65H138.86L135.44 34.47L134.82 33.71L134.2 32.9399L129.83 27.59C130.184 26.6224 130.415 25.6147 130.52 24.59C130.863 24.5249 131.172 24.3425 131.394 24.0743C131.617 23.806 131.739 23.4686 131.74 23.12C131.741 22.7709 131.62 22.4324 131.397 22.1638C131.174 21.8951 130.863 21.7132 130.52 21.65C130.404 20.6223 130.155 19.6139 129.78 18.65L134.17 13.31L134.8 12.55L135.43 11.78L138.84 7.63995H176.98L186.05 18.64C185.679 19.6052 185.431 20.613 185.31 21.64C184.962 21.6976 184.645 21.877 184.417 22.1462C184.189 22.4155 184.063 22.757 184.063 23.11C184.063 23.463 184.189 23.8045 184.417 24.0737C184.645 24.3429 184.962 24.5223 185.31 24.58L185.33 24.65Z" fill="#242122"/>
<path d="M187.14 16.5699C186.892 16.9624 186.668 17.3699 186.47 17.79L178.19 7.72998H180.1L187.14 16.5699Z" fill="#242122"/>
<path d="M186.44 17.79C186.282 18.0923 186.148 18.4066 186.04 18.73L176.97 7.72998H178.16L186.44 17.79Z" fill="#707171"/>
<path d="M221 27L226 33.5H209.5C209.486 32.859 209.298 31.9273 208.957 31.3843C208.616 30.8413 208.071 30.6448 207.5 30.3535C206.929 30.0623 206.14 29.957 205.5 30C204.86 30.043 204.527 30.635 204 31L198 25.5V21L204 16C204.53 16.3564 205.362 16.4648 206 16.5C206.638 16.5352 206.934 16.2959 207.5 16C208.066 15.7041 208.165 16.0439 208.5 15.5C208.835 14.9561 209.49 13.6388 209.5 13H226L221 19.5V27Z" fill="#3D3D3D"/>
<path d="M226.095 33.24L226.772 34.72H207.73L207.97 33.72C208.059 33.3801 208.057 33.0227 207.964 32.6839C207.871 32.3451 207.69 32.0368 207.44 31.79C207.053 31.4184 206.537 31.2109 206 31.2109C205.463 31.2109 204.947 31.4184 204.56 31.79L204.07 32.28L197 26.35V20.43L204.05 14.43L204.54 14.92C204.927 15.2916 205.443 15.499 205.98 15.499C206.517 15.499 207.033 15.2916 207.42 14.92C207.668 14.6742 207.848 14.3675 207.941 14.0306C208.034 13.6938 208.037 13.3384 207.95 13L207.71 12H227L225.803 13.53H209.55C209.54 14.1688 209.358 14.7931 209.022 15.3369C208.687 15.8808 208.211 16.3241 207.645 16.62C207.078 16.9159 206.443 17.0536 205.805 17.0184C205.167 16.9832 204.55 16.7764 204.02 16.42L198.53 21.06V25.56L204 30.35C204.53 29.9935 205.147 29.7868 205.785 29.7516C206.423 29.7164 207.058 29.854 207.625 30.15C208.191 30.4459 208.667 30.8891 209.002 31.433C209.338 31.9768 209.52 32.6011 209.53 33.24H226.095Z" fill="#D7D7D7"/>
<path d="M225.58 24.92C225.373 26.3741 224.884 27.7737 224.14 29.04L223.07 27.6899C224.13 27.0164 224.922 25.9945 225.31 24.8C225.394 24.8523 225.485 24.8927 225.58 24.92V24.92Z" fill="#707171"/>
<path d="M225.57 21.47C225.478 21.5063 225.391 21.5533 225.31 21.61C224.932 20.4045 224.134 19.3751 223.06 18.71L224.11 17.4C224.848 18.6526 225.344 20.0335 225.57 21.47Z" fill="#707171"/>
<path d="M224.33 23.18C224.331 23.5369 224.439 23.8853 224.64 24.18C224.349 25.3747 223.603 26.4083 222.56 27.06L222.16 26.5699V19.73L222.54 19.24C223.063 19.5571 223.518 19.9749 223.879 20.4693C224.239 20.9637 224.498 21.5248 224.64 22.12C224.432 22.4341 224.324 22.8035 224.33 23.18V23.18Z" fill="#3D3D3D"/>
<path d="M237.5 7.72998L234.96 10.47C234.368 10.0414 233.646 9.83112 232.917 9.87488C232.188 9.91864 231.496 10.2137 230.96 10.71L230.04 11.87L228.85 13.4L225.36 17.84C225.17 17.4029 224.946 16.9816 224.69 16.58L227.19 13.4L227.81 12.64L228.42 11.87L231.71 7.72998H237.5Z" fill="#242122"/>
<path d="M281.33 25.04C281.465 25.9875 281.706 26.9168 282.05 27.81L276.33 35.14C276.12 35.34 274.96 36.27 273.14 35.05L272.88 34.87L269.33 38.6299H238.54L235.07 34.9L234.81 35.08C234.373 35.4677 233.815 35.6917 233.231 35.7136C232.648 35.7355 232.075 35.5539 231.61 35.2V35.2L231.07 34.5099L230.48 33.75L229.86 32.98L225.8 27.78C226.15 26.9143 226.385 26.0066 226.5 25.08V25.08C226.952 25.0366 227.368 24.8176 227.66 24.47C227.808 24.301 227.933 24.1126 228.03 23.91C228.11 23.6888 228.151 23.4552 228.15 23.22C228.161 23.1036 228.161 22.9864 228.15 22.87C228.103 22.6458 228.015 22.4322 227.89 22.24C227.832 22.1405 227.765 22.0467 227.69 21.96C227.385 21.6183 226.965 21.4011 226.51 21.35V21.35C226.384 20.4373 226.146 19.5438 225.8 18.6899V18.6899L229.9 13.46L231.09 11.93L231.61 11.27C231.82 11.08 232.99 10.14 234.81 11.37L235.07 11.55L238.54 7.81995H269.33L272.8 11.55L273.06 11.37C274.83 10.16 275.99 11.04 276.22 11.24L282.02 18.6299C281.666 19.5102 281.421 20.4304 281.29 21.37C280.84 21.4279 280.425 21.6441 280.12 21.98C279.961 22.1426 279.839 22.3368 279.76 22.55C279.667 22.768 279.619 23.0029 279.62 23.24C279.621 23.4769 279.669 23.7114 279.76 23.93C279.854 24.13 279.971 24.3181 280.11 24.49C280.431 24.8224 280.868 25.0192 281.33 25.04Z" fill="#242122"/>
<path d="M237.5 38.6299H231.76L228.47 34.47L227.25 32.9399L224.76 29.79C225.011 29.3885 225.234 28.9709 225.43 28.54L228.9 32.9399L230.09 34.47L231.03 35.65C231.559 36.134 232.238 36.4211 232.954 36.463C233.67 36.5049 234.378 36.299 234.96 35.8799L237.5 38.6299Z" fill="#242122"/>
<path d="M283.09 29.8199L276.09 38.6299H270.41L272.97 35.89C273.557 36.3102 274.271 36.514 274.991 36.4666C275.712 36.4192 276.393 36.1235 276.92 35.6299L282.44 28.6299C282.627 29.0422 282.844 29.4399 283.09 29.8199V29.8199Z" fill="#242122"/>
<path d="M225.75 18.65C226.096 19.5038 226.334 20.3973 226.46 21.31V21.31C226.335 20.3973 226.096 19.5037 225.75 18.65V18.65ZM226.45 25.04C226.335 25.9666 226.1 26.8743 225.75 27.74V27.74C226.1 26.8743 226.335 25.9666 226.45 25.04V25.04ZM228.09 22.83C228.101 22.9464 228.101 23.0636 228.09 23.18C228.091 23.4153 228.05 23.6488 227.97 23.87C228.061 23.6514 228.109 23.4169 228.11 23.18C228.119 23.063 228.113 22.9452 228.09 22.83V22.83ZM228 23.83C227.903 24.0326 227.778 24.221 227.63 24.39C227.786 24.2422 227.911 24.0656 228 23.87V23.83Z" fill="#F2F2F3"/>
<path d="M276.92 6H230.92L226.25 11.87L225.64 12.64L225.05 13.4L220.47 19.15V27.2L225.05 32.95L225.66 33.72L226.25 34.48L230.92 40.34H276.92L287.33 27.2V19.15L276.92 6ZM223.07 27.6899L222.6 27.08L222.2 26.59V19.75L222.58 19.2599L223.06 18.66L224.11 17.35C224.849 18.6026 225.344 19.9835 225.57 21.42C225.478 21.4563 225.391 21.5033 225.31 21.56C225.16 21.6314 225.024 21.7297 224.91 21.85C224.82 21.935 224.742 22.0327 224.68 22.14C224.484 22.437 224.376 22.7839 224.37 23.14C224.371 23.4968 224.479 23.8452 224.68 24.14C224.833 24.3927 225.05 24.6 225.31 24.74C225.394 24.7923 225.485 24.8327 225.58 24.86C225.373 26.3141 224.884 27.7137 224.14 28.98L223.07 27.6899ZM225.66 22.23C225.837 22.1195 226.041 22.0606 226.25 22.06C226.353 22.0439 226.457 22.0439 226.56 22.06C226.789 22.1307 226.988 22.2727 227.13 22.4652C227.272 22.6578 227.349 22.8907 227.349 23.1299C227.349 23.3692 227.272 23.6022 227.13 23.7947C226.988 23.9873 226.789 24.1293 226.56 24.2C226.45 24.2147 226.339 24.2147 226.23 24.2C226.026 24.199 225.826 24.1438 225.65 24.04C225.506 23.9506 225.385 23.83 225.294 23.6873C225.203 23.5446 225.145 23.3833 225.125 23.2153C225.105 23.0474 225.123 22.877 225.177 22.7169C225.232 22.5567 225.322 22.4108 225.44 22.29C225.511 22.2617 225.585 22.2415 225.66 22.23V22.23ZM276.08 38.6299H231.76L228.47 34.47L227.25 32.9399L224.76 29.79C225.011 29.3885 225.234 28.9709 225.43 28.54C225.564 28.2824 225.677 28.015 225.77 27.74C226.12 26.8743 226.355 25.9666 226.47 25.04C226.922 24.9966 227.338 24.7776 227.63 24.43C227.778 24.261 227.903 24.0726 228 23.87C228.08 23.6488 228.121 23.4153 228.12 23.18C228.131 23.0636 228.131 22.9464 228.12 22.83C228.073 22.6057 227.985 22.3921 227.86 22.2C227.802 22.1004 227.735 22.0067 227.66 21.92C227.355 21.5783 226.935 21.3612 226.48 21.31V21.31C226.354 20.3973 226.116 19.5038 225.77 18.65V18.65C225.676 18.3803 225.559 18.1193 225.42 17.87C225.23 17.4329 225.006 17.0116 224.75 16.61L227.25 13.43L227.87 12.67L228.48 11.9L231.77 7.75995H276.11L283.11 16.61C282.86 17 282.65 17.39 282.43 17.81C282.33 18.07 282.2 18.33 282.1 18.6C281.743 19.4798 281.494 20.3999 281.36 21.34V21.34C280.91 21.3979 280.495 21.6141 280.19 21.95C280.042 22.1211 279.921 22.3132 279.83 22.52C279.745 22.7401 279.701 22.9739 279.7 23.21C279.702 23.4458 279.746 23.6794 279.83 23.9C279.924 24.1 280.041 24.288 280.18 24.46C280.477 24.8011 280.891 25.0187 281.34 25.0699V25.0699C281.47 26.0185 281.712 26.9483 282.06 27.84C282.156 28.1087 282.273 28.3695 282.41 28.62C282.598 29.0462 282.819 29.4574 283.07 29.85L276.08 38.6299ZM282.18 22.23C282.253 22.2714 282.32 22.3218 282.38 22.3799C282.585 22.5962 282.699 22.8823 282.7 23.18C282.7 23.3703 282.651 23.5574 282.558 23.7236C282.465 23.8899 282.332 24.0297 282.17 24.1299C281.994 24.2338 281.794 24.2891 281.59 24.29C281.474 24.2963 281.357 24.2758 281.25 24.23C281.024 24.1597 280.826 24.0189 280.686 23.8282C280.545 23.6375 280.469 23.4068 280.469 23.17C280.469 22.9331 280.545 22.7025 280.686 22.5118C280.826 22.3211 281.024 22.1803 281.25 22.11C281.401 22.0626 281.561 22.0488 281.718 22.0695C281.875 22.0902 282.026 22.145 282.16 22.23H282.18ZM285.64 26.59L285.27 27.06L284.78 27.66L283.68 29.05C282.955 27.7731 282.474 26.3727 282.26 24.92C282.379 24.8846 282.493 24.8341 282.6 24.77C282.858 24.6003 283.071 24.3704 283.22 24.1C283.383 23.8206 283.469 23.5033 283.47 23.18C283.483 22.8256 283.385 22.476 283.19 22.18C283.125 22.037 283.034 21.908 282.92 21.8C282.827 21.7005 282.719 21.6162 282.6 21.55C282.496 21.4798 282.385 21.4195 282.27 21.37C282.496 19.9335 282.991 18.5526 283.73 17.3L284.8 18.65L285.27 19.24L285.64 19.7V26.59Z" fill="#D7D7D7"/>
<path d="M284.78 27.66L283.68 29.05C282.955 27.7731 282.474 26.3727 282.26 24.92C282.379 24.8846 282.493 24.8341 282.6 24.77C282.958 25.9629 283.731 26.9882 284.78 27.66V27.66Z" fill="#707171"/>
<path d="M285.64 19.75V26.59L285.27 27.06C284.736 26.7323 284.278 26.2957 283.925 25.7787C283.572 25.2618 283.331 24.6761 283.22 24.06C283.383 23.7806 283.469 23.4633 283.47 23.14C283.483 22.7856 283.385 22.4359 283.19 22.14C283.471 20.9254 284.218 19.8697 285.27 19.2L285.64 19.75Z" fill="#3D3D3D"/>
<path d="M284.8 18.7C283.737 19.3659 282.955 20.3973 282.6 21.6C282.496 21.5297 282.385 21.4695 282.27 21.42C282.496 19.9835 282.991 18.6026 283.73 17.35L284.8 18.7Z" fill="#707171"/>
<path d="M283.12 16.58C282.87 16.97 282.66 17.36 282.44 17.78L276.89 10.6899C276.357 10.2124 275.678 9.93055 274.964 9.89056C274.249 9.85058 273.543 10.0549 272.96 10.47L270.4 7.72998H276.09L283.12 16.58Z" fill="#242122"/>
<path d="M227.33 23.18C227.33 23.4194 227.253 23.6523 227.111 23.8449C226.969 24.0375 226.769 24.1795 226.54 24.25C226.43 24.2647 226.319 24.2647 226.21 24.25C226.006 24.2491 225.806 24.1938 225.63 24.09C225.486 24.0006 225.365 23.88 225.274 23.7373C225.183 23.5946 225.125 23.4333 225.105 23.2653C225.085 23.0974 225.103 22.927 225.157 22.7668C225.212 22.6067 225.302 22.4608 225.42 22.34C225.48 22.2818 225.547 22.2314 225.62 22.1899C225.797 22.0794 226.001 22.0206 226.21 22.02C226.313 22.0038 226.417 22.0038 226.52 22.02C226.768 22.0906 226.984 22.2446 227.131 22.4559C227.279 22.6672 227.349 22.923 227.33 23.18V23.18Z" fill="#3D3D3D"/>
<path d="M282.7 23.18C282.7 23.3703 282.651 23.5574 282.558 23.7236C282.465 23.8899 282.332 24.0297 282.17 24.13C281.994 24.2338 281.794 24.2891 281.59 24.29C281.474 24.2963 281.357 24.2758 281.25 24.23C281.024 24.1597 280.826 24.0189 280.686 23.8282C280.545 23.6375 280.469 23.4068 280.469 23.17C280.469 22.9331 280.545 22.7025 280.686 22.5118C280.826 22.3211 281.024 22.1803 281.25 22.11C281.401 22.0626 281.561 22.0488 281.718 22.0695C281.875 22.0903 282.026 22.145 282.16 22.23C282.233 22.2714 282.3 22.3218 282.36 22.38C282.572 22.5931 282.694 22.8796 282.7 23.18V23.18Z" fill="#3D3D3D"/>
<path d="M285.27 19.29C284.218 19.9597 283.472 21.0154 283.19 22.23C283.125 22.087 283.034 21.9579 282.92 21.85C282.827 21.7505 282.719 21.6662 282.6 21.6C282.955 20.3973 283.737 19.3659 284.8 18.7L285.27 19.29Z" fill="#F2F2F3"/>
<path d="M282.44 17.78C282.34 18.04 282.21 18.2999 282.11 18.5699L276.31 11.18C276.08 10.98 274.92 10.1 273.15 11.31L272.89 11.49L269.33 7.72998H270.33L272.89 10.47C273.473 10.0549 274.179 9.85058 274.894 9.89056C275.608 9.93055 276.287 10.2124 276.82 10.6899L282.44 17.78Z" fill="#707171"/>
<path d="M285.27 27.06L284.78 27.66C283.731 26.9882 282.958 25.9629 282.6 24.77C282.858 24.6003 283.071 24.3704 283.22 24.1C283.337 24.709 283.579 25.2868 283.932 25.7966C284.285 26.3063 284.741 26.7367 285.27 27.06V27.06Z" fill="#F2F2F3"/>
<path d="M282.43 28.59L276.91 35.59C276.383 36.0835 275.702 36.3792 274.982 36.4266C274.261 36.474 273.547 36.2702 272.96 35.85L270.4 38.59H269.4L272.88 34.86L273.14 35.04C274.96 36.26 276.14 35.3299 276.33 35.1299L282.09 27.8C282.182 28.0719 282.296 28.336 282.43 28.59V28.59Z" fill="#707171"/>
<path d="M225.33 21.56C225.18 21.6314 225.044 21.7297 224.93 21.85C224.84 21.935 224.762 22.0327 224.7 22.14C224.558 21.5448 224.299 20.9837 223.939 20.4893C223.578 19.9949 223.123 19.577 222.6 19.2599L223.08 18.66C224.154 19.3251 224.953 20.3545 225.33 21.56V21.56Z" fill="#F2F2F3"/>
<path d="M238.55 7.72998L235.08 11.47L234.82 11.29C233 10.06 231.82 10.9999 231.62 11.1899L231.1 11.85L229.91 13.3799L225.79 18.61C225.696 18.3403 225.579 18.0793 225.44 17.83L228.93 13.39L230.12 11.86L231.04 10.7C231.576 10.2037 232.268 9.90863 232.997 9.86487C233.726 9.82111 234.448 10.0314 235.04 10.46L237.58 7.71997L238.55 7.72998Z" fill="#707171"/>
<path d="M225.33 24.8C224.942 25.9945 224.15 27.0164 223.09 27.6899L222.62 27.08C223.663 26.4283 224.409 25.3947 224.7 24.2C224.853 24.4527 225.07 24.6599 225.33 24.8V24.8Z" fill="#F2F2F3"/>
<path d="M238.55 38.6299H237.5L234.96 35.89C234.378 36.309 233.67 36.5149 232.954 36.473C232.238 36.4311 231.559 36.144 231.03 35.66L230.09 34.48L228.9 32.95L225.43 28.55C225.564 28.2924 225.677 28.025 225.77 27.75L229.85 32.95L230.46 33.72L231.06 34.48L231.59 35.17C232.055 35.5239 232.628 35.7055 233.212 35.6836C233.795 35.6617 234.353 35.4378 234.79 35.05L235.05 34.87L238.55 38.6299Z" fill="#707171"/>
<path d="M318 27L323 33.5H306.5C306.486 32.859 306.298 31.9273 305.957 31.3843C305.616 30.8413 305.071 30.6448 304.5 30.3535C303.929 30.0623 303.14 29.957 302.5 30C301.86 30.043 301.527 30.635 301 31L295 25.5V21L301 16C301.53 16.3564 302.362 16.4648 303 16.5C303.638 16.5352 303.934 16.2959 304.5 16C305.066 15.7041 305.165 16.0439 305.5 15.5C305.835 14.9561 306.49 13.6388 306.5 13H323L318 19.5V27Z" fill="#3D3D3D"/>
<path d="M323.095 33.24L323.772 34.72H304.73L304.97 33.72C305.059 33.3801 305.057 33.0227 304.964 32.6839C304.871 32.3451 304.69 32.0368 304.44 31.79C304.053 31.4184 303.537 31.2109 303 31.2109C302.463 31.2109 301.947 31.4184 301.56 31.79L301.07 32.28L294 26.35V20.43L301.05 14.43L301.54 14.92C301.927 15.2916 302.443 15.499 302.98 15.499C303.517 15.499 304.033 15.2916 304.42 14.92C304.668 14.6742 304.848 14.3675 304.941 14.0306C305.034 13.6938 305.037 13.3384 304.95 13L304.71 12H324L322.803 13.53H306.55C306.54 14.1688 306.358 14.7931 306.022 15.3369C305.687 15.8808 305.211 16.3241 304.645 16.62C304.078 16.9159 303.443 17.0536 302.805 17.0184C302.167 16.9832 301.55 16.7764 301.02 16.42L295.53 21.06V25.56L301 30.35C301.53 29.9935 302.147 29.7868 302.785 29.7516C303.423 29.7164 304.058 29.854 304.625 30.15C305.191 30.4459 305.667 30.8891 306.002 31.433C306.338 31.9768 306.52 32.6011 306.53 33.24H323.095Z" fill="#D7D7D7"/>
<path d="M374 6H328L323.33 11.87L322.72 12.64L322.12 13.4L317.5 19.11V27.16L322.07 32.91L322.67 33.68L323.28 34.44L327.95 40.32H373.95L384.39 27.16V19.11L374 6ZM382.71 19.75V22.61L380.21 21.23L380.01 21.13L379.82 21.04C379.703 20.9714 379.574 20.9272 379.44 20.91C379.7 19.6581 380.159 18.4561 380.8 17.35L382.71 19.75ZM382.16 23.19L379.52 24.66L379.32 24.74C379.177 24.7802 379.029 24.8004 378.88 24.8C378.713 24.7995 378.548 24.7725 378.39 24.72C378.079 24.6108 377.81 24.4078 377.62 24.1391C377.43 23.8704 377.327 23.5493 377.327 23.22C377.327 22.8907 377.43 22.5695 377.62 22.3008C377.81 22.0322 378.079 21.8292 378.39 21.72C378.545 21.6675 378.707 21.6406 378.87 21.64C379.019 21.6396 379.167 21.6598 379.31 21.7L379.48 21.75L379.69 21.87L379.8 21.93L382.16 23.19ZM373.16 7.72998L380.16 16.58C379.336 17.8908 378.769 19.3468 378.49 20.87C378.348 20.876 378.209 20.91 378.08 20.97C378.256 19.5085 378.141 18.0265 377.74 16.61C377.055 14.2847 375.801 12.1672 374.09 10.45L374.03 10.39C373.059 9.40607 371.998 8.51545 370.86 7.72998H373.16ZM369.5 7.72998C370.138 8.12482 370.756 8.55207 371.35 9.01001C368.055 7.91139 364.502 7.84852 361.17 8.82996C357.34 9.82996 355.75 9.28997 355.09 8.65997C354.827 8.40955 354.646 8.08535 354.57 7.72998H369.5ZM347.4 7.72998C347.334 8.08099 347.155 8.40074 346.89 8.64001C346.24 9.29001 344.66 9.81996 340.82 8.82996C337.471 7.83663 333.897 7.90652 330.59 9.02997C331.193 8.56313 331.82 8.12918 332.47 7.72998H347.4ZM324.31 13.4L324.93 12.64L325.54 11.87L328.83 7.72998H331.09C330.006 8.48348 329.001 9.34453 328.09 10.3L327.98 10.39C327.856 10.5058 327.739 10.6294 327.63 10.76C327.423 10.9652 327.233 11.1858 327.06 11.42C326.957 11.535 326.861 11.6552 326.77 11.78C326.57 12.04 326.39 12.29 326.22 12.55C326.05 12.81 325.88 13.07 325.73 13.31C325.129 14.3137 324.665 15.3932 324.35 16.52C323.946 17.936 323.834 19.4193 324.02 20.88C323.881 20.8314 323.736 20.7979 323.59 20.78C323.311 19.2568 322.744 17.8008 321.92 16.49L324.31 13.4ZM324.71 23.19C324.709 23.5307 324.6 23.8624 324.399 24.1373C324.198 24.4123 323.915 24.6163 323.59 24.72C323.435 24.7716 323.273 24.7986 323.11 24.8C322.956 24.7995 322.804 24.7724 322.66 24.72C322.61 24.7269 322.56 24.7269 322.51 24.72L319.82 23.23L322.2 21.92L322.36 21.83L322.46 21.76C322.525 21.7354 322.592 21.7154 322.66 21.7C322.807 21.6597 322.958 21.6396 323.11 21.64C323.27 21.6415 323.429 21.6684 323.58 21.72C323.891 21.8229 324.163 22.0194 324.358 22.2825C324.553 22.5456 324.662 22.8625 324.67 23.19H324.71ZM319.27 19.75L321.18 17.35C321.821 18.4561 322.28 19.6581 322.54 20.91C322.399 20.9417 322.261 20.9886 322.13 21.05L321.94 21.14L321.81 21.22L319.27 22.63V19.75ZM319.27 26.59V23.76L321.77 25.15C321.836 25.202 321.91 25.2426 321.99 25.27L322.16 25.36C322.279 25.424 322.407 25.4679 322.54 25.49C322.303 26.7406 321.853 27.9413 321.21 29.04L319.27 26.59ZM328.83 38.59L325.54 34.44L324.93 33.68L324.31 32.91L321.82 29.76C322.645 28.4596 323.202 27.0081 323.46 25.49C323.602 25.4839 323.741 25.45 323.87 25.39C323.713 26.8359 323.832 28.2984 324.22 29.7C324.533 30.8272 324.998 31.9069 325.6 32.91C325.75 33.16 325.9 33.42 326.09 33.68C326.28 33.94 326.44 34.18 326.64 34.44C327.013 34.9469 327.428 35.4219 327.88 35.86C327.88 35.86 327.88 35.86 327.94 35.91C328.899 36.8996 329.954 37.7907 331.09 38.57L328.83 38.59ZM332.47 38.59C331.78 38.16 331.15 37.72 330.59 37.29C333.901 38.3935 337.469 38.4633 340.82 37.49C344.64 36.49 346.24 37.03 346.89 37.65C347.158 37.901 347.34 38.2299 347.41 38.59H332.47ZM353.79 38.59H348.18C348.106 38.0226 347.842 37.4971 347.43 37.1C346.27 35.99 343.97 35.88 340.62 36.75C339.067 37.1661 337.467 37.3812 335.86 37.39C335.299 37.3919 334.738 37.3618 334.18 37.3L333.4 37.2L332.53 37.04L332.01 36.91C331.7 36.83 331.41 36.74 331.15 36.66C331.15 36.66 331.15 36.66 331.09 36.66L330.57 36.48C329.8 36.1903 329.065 35.8146 328.38 35.36V35.36C328.11 35.07 327.85 34.79 327.62 34.5C327.39 34.21 327.2 33.98 327.02 33.74C326.84 33.5 326.65 33.22 326.49 32.97C324.88 30.6362 324.258 27.7605 324.76 24.97C324.99 24.7557 325.173 24.4964 325.298 24.2083C325.424 23.9201 325.488 23.6092 325.488 23.295C325.488 22.9807 325.424 22.6699 325.298 22.3817C325.173 22.0936 324.99 21.8343 324.76 21.62C324.497 20.2216 324.513 18.7849 324.808 17.3929C325.104 16.0009 325.672 14.6812 326.48 13.51C326.64 13.27 326.81 13.01 327.01 12.75C327.21 12.49 327.39 12.24 327.61 11.98C327.847 11.6853 328.1 11.4048 328.37 11.14L328.63 10.97L328.86 10.83C328.949 10.7702 329.043 10.7168 329.14 10.67C329.376 10.5325 329.62 10.409 329.87 10.3C329.906 10.3075 329.944 10.3075 329.98 10.3L330.58 10.06C331 9.91 331.48 9.73998 332.01 9.59998C332.157 9.55177 332.307 9.515 332.46 9.48999C332.574 9.45518 332.691 9.43173 332.81 9.41998C332.81 9.41998 332.81 9.41998 332.81 9.41998L333.38 9.32996C333.62 9.32996 333.88 9.24997 334.14 9.21997C334.705 9.15846 335.272 9.12845 335.84 9.13C337.441 9.13767 339.034 9.35275 340.58 9.76996C343.93 10.64 346.23 10.52 347.39 9.41998C347.803 9.02789 348.068 8.50506 348.14 7.94H353.75C353.822 8.50506 354.087 9.02789 354.5 9.41998C355.68 10.52 357.96 10.64 361.31 9.76996C368.68 7.82996 373.1 10.89 373.55 11.21C378.26 16.11 377.36 20.88 377.17 21.67C376.937 21.887 376.751 22.1503 376.626 22.443C376.5 22.7357 376.437 23.0514 376.44 23.37C376.439 23.6945 376.505 24.0157 376.634 24.3135C376.763 24.6112 376.952 24.879 377.19 25.1C377.42 26.1 378.12 30.74 373.55 35.5C372.864 35.9546 372.13 36.3303 371.36 36.62L370.84 36.8C370.84 36.8 370.84 36.8 370.78 36.8C370.52 36.88 370.23 36.97 369.92 37.05L369.4 37.18L368.53 37.34L367.75 37.44C367.192 37.5018 366.631 37.5318 366.07 37.53C364.462 37.5211 362.863 37.3061 361.31 36.89C357.96 36.02 355.68 36.13 354.5 37.24C354.108 37.611 353.845 38.0983 353.75 38.63L353.79 38.59ZM354.56 38.59C354.631 38.2358 354.813 37.9136 355.08 37.67C355.74 37.03 357.33 36.49 361.17 37.49C364.513 38.4713 368.078 38.4014 371.38 37.29C370.82 37.72 370.19 38.16 369.5 38.59H354.56ZM373.16 38.59H370.88C372.013 37.7984 373.074 36.9083 374.05 35.93L374.11 35.88C375.822 34.1641 377.077 32.0461 377.76 29.72C378.15 28.3222 378.273 26.8632 378.12 25.42C378.245 25.4699 378.376 25.5003 378.51 25.51C378.778 27.0314 379.335 28.4875 380.15 29.8L373.16 38.59ZM382.72 26.59L380.72 29.05C380.079 27.947 379.629 26.7433 379.39 25.49C379.537 25.4555 379.681 25.4087 379.82 25.35L379.99 25.26C380.044 25.2368 380.094 25.2065 380.14 25.17L382.68 23.76L382.72 26.59Z" fill="#D7D7D7"/>
<path d="M347.38 38.63H332.43C331.74 38.2 331.11 37.7499 330.55 37.3299C333.861 38.4333 337.43 38.4996 340.78 37.52C344.61 36.52 346.2 37.07 346.86 37.69C347.122 37.9454 347.303 38.2723 347.38 38.63Z" fill="#707171"/>
<path d="M371.35 37.3299C370.78 37.7499 370.15 38.2 369.47 38.63H354.47C354.543 38.2766 354.725 37.9549 354.99 37.7099C355.65 37.0699 357.24 36.5299 361.08 37.5199C364.44 38.521 368.029 38.4546 371.35 37.3299V37.3299Z" fill="#707171"/>
<path d="M380.11 29.81L373.11 38.63H370.83C371.968 37.8408 373.029 36.9469 374 35.96C374 35.96 374 35.96 374.06 35.96C375.773 34.2428 377.031 32.1256 377.72 29.8C378.108 28.4018 378.227 26.9426 378.07 25.5C378.198 25.551 378.333 25.5813 378.47 25.59C378.744 27.0879 379.3 28.5201 380.11 29.81V29.81Z" fill="#242122"/>
<path d="M382.68 23.76V26.59L380.68 29.05C380.039 27.947 379.589 26.7433 379.35 25.49C379.496 25.4509 379.639 25.4042 379.78 25.35L379.95 25.26C380.004 25.2338 380.055 25.2001 380.1 25.16L382.68 23.76Z" fill="#3D3D3D"/>
<path d="M382.67 19.75V22.61L380.16 21.23L379.96 21.13L379.78 21.03C379.657 20.9706 379.525 20.9301 379.39 20.91C379.649 19.6563 380.112 18.4536 380.76 17.35L382.67 19.75Z" fill="#3D3D3D"/>
<path d="M382.12 23.25L379.47 24.72L379.27 24.8C379.127 24.8402 378.979 24.8604 378.83 24.86C378.663 24.8595 378.498 24.8325 378.34 24.78C378.034 24.6663 377.77 24.4617 377.583 24.1935C377.397 23.9254 377.297 23.6066 377.297 23.28C377.297 22.9534 377.397 22.6346 377.583 22.3665C377.77 22.0983 378.034 21.8936 378.34 21.78C378.495 21.7284 378.657 21.7014 378.82 21.7C378.969 21.6996 379.117 21.7198 379.26 21.76H379.43L379.64 21.88L379.75 21.94L382.12 23.25Z" fill="#707171"/>
<path d="M380.14 16.58C379.319 17.8913 378.755 19.3474 378.48 20.87C378.335 20.876 378.192 20.91 378.06 20.97C378.246 19.5093 378.134 18.026 377.73 16.61C377.041 14.2843 375.783 12.1672 374.07 10.45V10.45C374.07 10.45 374.07 10.45 374.01 10.45C373.039 9.46311 371.978 8.56917 370.84 7.77997H373.12L380.14 16.58Z" fill="#242122"/>
<path d="M371.32 9.01001C368.022 7.9093 364.465 7.84642 361.13 8.82996C357.3 9.82996 355.71 9.28997 355.06 8.65997C354.791 8.41019 354.609 8.08078 354.54 7.71997H369.47C370.14 8.10997 370.75 8.58001 371.32 9.01001Z" fill="#707171"/>
<path d="M347.36 7.78998C347.292 8.14093 347.118 8.46231 346.86 8.70996C346.2 9.34996 344.62 9.88001 340.78 8.89001C337.431 7.89669 333.857 7.96651 330.55 9.08997C331.11 8.65997 331.74 8.21998 332.43 7.78998H347.36Z" fill="#707171"/>
<path d="M322.5 20.91C322.359 20.9431 322.222 20.99 322.09 21.05L321.91 21.14L321.77 21.22L319.23 22.62V19.75L321.14 17.35C321.781 18.4561 322.24 19.6581 322.5 20.91Z" fill="#3D3D3D"/>
<path d="M324.67 23.25C324.67 23.6753 324.502 24.0832 324.202 24.3849C323.902 24.6865 323.495 24.8573 323.07 24.86C322.917 24.8595 322.764 24.8324 322.62 24.78C322.57 24.7857 322.52 24.7857 322.47 24.78L319.78 23.29L322.17 21.98L322.32 21.89L322.43 21.83C322.49 21.7979 322.554 21.7744 322.62 21.76C322.767 21.7204 322.918 21.7003 323.07 21.7C323.23 21.7006 323.389 21.7276 323.54 21.78C323.858 21.876 324.139 22.0696 324.341 22.3333C324.544 22.597 324.659 22.9176 324.67 23.25V23.25Z" fill="#707171"/>
<path d="M322.5 25.49C322.264 26.7379 321.814 27.9356 321.17 29.03L319.23 26.59V23.76L321.74 25.15C321.803 25.2006 321.874 25.2411 321.95 25.27L322.12 25.36C322.242 25.4152 322.369 25.4588 322.5 25.49V25.49Z" fill="#3D3D3D"/>
<path d="M331.05 38.63H328.79L325.5 34.48L324.89 33.72L324.28 32.95L321.78 29.8C322.603 28.4989 323.161 27.0476 323.42 25.53C323.563 25.5254 323.704 25.4878 323.83 25.42C323.678 26.8692 323.797 28.3341 324.18 29.74C324.493 30.8672 324.958 31.947 325.56 32.95C325.71 33.2 325.87 33.46 326.05 33.72C326.23 33.98 326.4 34.22 326.6 34.48C326.979 34.9825 327.393 35.457 327.84 35.9H327.9C328.855 36.9138 329.911 37.8285 331.05 38.63Z" fill="#242122"/>
<path d="M331.05 7.71997C329.971 8.47943 328.966 9.33999 328.05 10.29L327.94 10.39C327.82 10.51 327.7 10.63 327.59 10.76C327.386 10.964 327.196 11.1811 327.02 11.41L326.73 11.78C326.53 12.04 326.35 12.29 326.18 12.55C326.01 12.81 325.84 13.07 325.69 13.31C325.088 14.313 324.623 15.3927 324.31 16.52C323.911 17.9369 323.799 19.4192 323.98 20.88C323.841 20.8314 323.696 20.7979 323.55 20.78C323.271 19.2568 322.704 17.8008 321.88 16.49L324.41 13.31L325.02 12.55L325.63 11.78L328.92 7.63L331.05 7.71997Z" fill="#242122"/>
<path d="M373.58 35.34C372.891 35.7851 372.157 36.1572 371.39 36.45L370.87 36.64H370.81C370.55 36.72 370.26 36.81 369.95 36.88C369.64 36.95 369.62 36.98 369.43 37.02C369.24 37.06 368.87 37.13 368.56 37.17C368.25 37.21 368.06 37.25 367.78 37.28C367.222 37.342 366.661 37.3721 366.1 37.37C364.493 37.3612 362.893 37.1461 361.34 36.73C357.99 35.86 355.71 35.97 354.53 37.08C354.122 37.4799 353.858 38.004 353.78 38.57H348.17C348.096 38.0026 347.832 37.4771 347.42 37.08C346.26 35.97 343.96 35.86 340.61 36.73C339.061 37.1454 337.464 37.3605 335.86 37.37C335.295 37.3721 334.731 37.342 334.17 37.28C333.9 37.28 333.64 37.22 333.39 37.17C333.14 37.12 332.8 37.07 332.52 37.02L332 36.88C331.7 36.81 331.4 36.72 331.14 36.64C331.14 36.64 331.14 36.64 331.08 36.64L330.56 36.45C329.795 36.1609 329.064 35.7886 328.38 35.34V35.34C328.11 35.05 327.85 34.77 327.62 34.48L327.02 33.72C326.82 33.46 326.66 33.2 326.49 32.95C324.874 30.6 324.252 27.7064 324.76 24.9C324.99 24.6857 325.173 24.4264 325.299 24.1382C325.424 23.8501 325.488 23.5392 325.488 23.225C325.488 22.9107 325.424 22.5999 325.299 22.3117C325.173 22.0235 324.99 21.7643 324.76 21.55C324.76 21.55 324.76 21.55 324.76 21.55C324.497 20.1516 324.513 18.7149 324.808 17.3229C325.104 15.9309 325.672 14.6112 326.48 13.44C326.65 13.2 326.81 12.94 327.01 12.68L327.61 11.91C327.847 11.6153 328.1 11.3348 328.37 11.07V11.07L328.63 10.9C328.699 10.8466 328.773 10.7997 328.85 10.76C328.93 10.7 329.02 10.66 329.13 10.59C329.24 10.52 329.57 10.35 329.86 10.23C329.896 10.2393 329.934 10.2393 329.97 10.23L330.57 9.98999C331.042 9.81169 331.522 9.65812 332.01 9.52997C332.154 9.48159 332.301 9.44482 332.45 9.41998L332.8 9.33997L333.37 9.25C333.61 9.25 333.87 9.17001 334.13 9.14001C334.695 9.07851 335.262 9.04844 335.83 9.04999C337.431 9.05765 339.024 9.27279 340.57 9.69C343.92 10.56 346.22 10.44 347.38 9.33997C347.792 8.94284 348.056 8.41738 348.13 7.84998H353.74C353.818 8.41599 354.082 8.94005 354.49 9.33997C355.67 10.44 357.95 10.56 361.3 9.69C368.68 7.75 373.1 10.81 373.54 11.13C378.25 16.02 377.35 20.8 377.17 21.59C376.935 21.8061 376.748 22.069 376.62 22.3618C376.493 22.6545 376.428 22.9707 376.43 23.29C376.429 23.6145 376.495 23.9358 376.624 24.2335C376.753 24.5313 376.942 24.799 377.18 25.02V25.02C377.45 25.94 378.15 30.58 373.58 35.34Z" fill="#242122"/>
<path d="M374.07 10.43L374.01 10.37C374.01 10.37 374.05 10.42 374.07 10.43Z" fill="black"/>
<path d="M31 28L36 34.5H19.5C19.4858 33.859 19.2983 32.9273 18.9573 32.3843C18.6164 31.8413 18.0713 31.6448 17.5001 31.3535C16.9289 31.0623 16.1397 30.957 15.5 31C14.8603 31.043 14.5271 31.635 14 32L8 26.5V22L14.0001 17C14.5303 17.3564 15.3621 17.4648 16.0001 17.5C16.638 17.5352 16.9338 17.2959 17.5001 17C18.0663 16.7041 18.1647 17.0439 18.5001 16.5C18.8354 15.9561 19.4899 14.6388 19.5 14H36L31 20.5V28Z" fill="#3D3D3D"/>
<path d="M36.0945 34.24L36.7716 35.72H17.73L17.97 34.72C18.059 34.3801 18.0568 34.0227 17.9638 33.6839C17.8707 33.3451 17.6901 33.0368 17.44 32.79C17.0527 32.4184 16.5367 32.2109 16 32.2109C15.4633 32.2109 14.9473 32.4184 14.56 32.79L14.07 33.28L7 27.35V21.43L14.05 15.43L14.54 15.92C14.9273 16.2916 15.4433 16.499 15.98 16.499C16.5167 16.499 17.0327 16.2916 17.42 15.92C17.6684 15.6742 17.848 15.3675 17.941 15.0306C18.034 14.6938 18.0371 14.3384 17.95 14L17.71 13H37L35.8025 14.53H19.55C19.5399 15.1688 19.3575 15.7931 19.0222 16.3369C18.6868 16.8808 18.2109 17.3241 17.6447 17.62C17.0784 17.9159 16.4428 18.0536 15.8048 18.0184C15.1669 17.9832 14.5503 17.7764 14.02 17.42L8.53 22.06V26.56L14 31.35C14.5303 30.9935 15.1469 30.7868 15.7849 30.7516C16.4228 30.7164 17.0584 30.854 17.6247 31.15C18.191 31.4459 18.6669 31.8891 19.0022 32.433C19.3375 32.9768 19.5199 33.6011 19.53 34.24H36.0945Z" fill="#D7D7D7"/>
<path d="M31.2 23.17L31.15 23.22V23.13L31.2 23.17Z" fill="white"/>
<path d="M96.32 19.15L85.89 6H39.89L35.22 11.87L34.61 12.64L34.01 13.4L29.44 19.15V27.15L34.01 32.91L34.61 33.67L35.22 34.44L39.89 40.31H85.89L96.33 27.15L96.32 19.15ZM94.61 26.59L85.04 38.59H40.71L37.41 34.4301L36.8 33.66L36.2 32.9L31.15 26.55V19.71L36.2 13.36L36.81 12.6L37.42 11.83L40.71 7.69H85.04L94.61 19.69V26.59Z" fill="#D7D7D7"/>
<path d="M94.61 24.95V26.6L85.05 38.64H83.44L94.61 24.95Z" fill="#242122"/>
<path d="M94.61 19.76V21.4L83.44 7.74005H85.05L94.61 19.76Z" fill="#242122"/>
<path d="M42.62 38.64H40.71L37.41 34.48L36.8 33.71L36.2 32.95L31.15 26.6V24.59L37.98 32.95L38.6 33.71L39.23 34.48L42.62 38.64Z" fill="#242122"/>
<path d="M94.61 22.85V23.4901L82.25 38.64H43.8L40.41 34.48L39.78 33.71L39.17 32.95L31.2 23.17L39.17 13.41L39.79 12.65L40.42 11.88L43.8 7.74005H82.26L94.61 22.85Z" fill="#242122"/>
<path d="M42.61 7.74005L39.21 11.88L38.6 12.65L37.98 13.41L31.15 21.76V19.76L36.2 13.41L36.81 12.65L37.42 11.88L40.71 7.74005H42.61Z" fill="#242122"/>
<path d="M43.8 7.74005L40.42 11.88L39.79 12.65L39.17 13.41L31.2 23.17L31.15 23.13V21.76L37.98 13.41L38.6 12.65L39.21 11.88L42.61 7.74005H43.8Z" fill="#707171"/>
<path d="M31.2 23.17L31.15 23.22V23.13L31.2 23.17Z" fill="black"/>
<path d="M94.61 21.4V22.85L82.26 7.74005H83.44L94.61 21.4Z" fill="#707171"/>
<path d="M43.8 38.64H42.62L39.23 34.48L38.6 33.71L37.98 32.95L31.15 24.59V23.22L31.2 23.17L39.17 32.95L39.78 33.71L40.41 34.48L43.8 38.64Z" fill="#707171"/>
<path d="M31.2 23.17L31.15 23.22V23.13L31.2 23.17Z" fill="black"/>
<path d="M94.61 23.4901V24.95L83.44 38.64H82.25L94.61 23.4901Z" fill="#707171"/>
</svg>
