<svg width="584" height="97" viewBox="0 0 584 97" fill="none" xmlns="http://www.w3.org/2000/svg">
<g id="Iformation dataless">
<g id="backing">
<path id="Vector" d="M2.17 20.75L130.6 10.79L153.6 12.17L131.24 13.44L155.42 15.2L186.1 13.31L156.6 11.42L178.05 9.78L212.9 11.92L236.43 9.78L266.85 12.05L221.22 15.26L227.75 15.74L211.95 16.74L228.37 17.81L275.88 14.88C275.88 14.88 324.96 17.75 324.6 17.75C324.24 17.75 300.7 19 300.7 19L324.3 20.45L300.83 21.87L333.24 24L357.39 22.52L389.14 24.25L332.65 28.57L372.3 31.72L404.68 25.42L430.94 29.58L442.51 27.58L423.92 25.69L445.76 23.42L470.85 25.82L478.26 24.56L505.17 27.21L528.83 27.96L583.31 34.14L550.54 35.65L567.97 37.16L559.84 37.67L577.26 38.49L540.26 42.58L583.26 45.48L543.34 47.75L556.08 49.83L532.23 52.35L546.01 54.35L561.35 56.87L545.49 57.12L533.27 58.12L546.01 61.27L494.46 63.27L574.6 67.89L535.53 69.66L523.96 72.11L547.03 75L513.1 76L527.01 77.83C527.01 77.83 577.65 80.48 577.2 80.6C576.75 80.72 559.78 81.48 559.78 81.48L575.51 82.37L530.85 86L547.49 86.44L552.56 86.88L559.32 87.45L551.71 87.83C551.91 87.83 569.14 88.71 569.14 88.71L544.6 90.08C544.6 90.08 503.2 87.87 502.81 87.87C502.42 87.87 487.01 88.56 487.01 88.56L518.8 90.71L487.86 92.85L438.86 89.7L454.13 88.5L404.93 85.92L357.6 88.82L389.32 90.64L341.22 93.86L315.93 92.22L301.18 93.29L276.08 91.4L251.98 93L276.49 94.63L261.28 95.71L212.01 92.71L251.6 90.33L227.1 88.69L202.45 90.2C202.45 90.2 187.69 89 187.04 89.2C186.39 89.4 178.4 89.83 178.4 89.83L146.74 87.83L154.54 87.2L147.07 87L170.79 85.49L114.37 82.2L162.02 79.2L130.1 77.2L154.1 75.88L146.6 75.33L165.14 74C165.14 74 147.72 70.92 146.81 71L105.86 73.9L81.48 72.49L106.31 68.08L57.69 72L39.36 69.34L54.76 65.34L2.76 62.63L29.15 60.49L5.75 59.67L35.98 54.5L4.12 50.37L32.73 45.71L60.35 44.71L19.27 43.71L40.85 42L51.51 38.53L0.160004 36.13L49.11 32.53L17.11 31.08L72.11 28.31L25.51 25.79L55.74 23.52L1.07 21.63L7.79 20.89L2.17 20.75Z" fill="#3D3D3D"/>
<path id="Vector_2" d="M58.03 86.92L88.11 85C88.11 85 139.11 87.86 138.47 87.86C137.83 87.86 106.74 90 106.74 90L58.03 86.92Z" fill="#3D3D3D"/>
<path id="Vector_3" d="M163.69 91.46L186.69 90.46C186.69 90.46 211.05 91.98 210.79 91.89C210.53 91.8 187.21 93.41 187.21 93.41L163.69 91.46Z" fill="#3D3D3D"/>
<path id="Vector_4" d="M292.91 95C293.52 94.83 308.08 94 308.08 94L323.77 95L308.34 96.35L292.91 95Z" fill="#3D3D3D"/>
<path id="Vector_5" d="M358.7 93.98L389.21 92.47L406.71 93.98L429.68 92.05L453.78 93.65L406.24 96.67L389.55 95.16L381.32 96.34L358.7 93.98Z" fill="#3D3D3D"/>
<path id="Vector_6" d="M390.25 88.61L405.76 88.02L420.67 88.61L405.46 90.45L390.25 88.61Z" fill="#3D3D3D"/>
<path id="Vector_7" d="M563.76 85.83L570.44 84.99C570.44 84.99 578.84 85.58 578.58 85.83C578.32 86.08 569.4 86.76 569.4 86.76L563.76 85.83Z" fill="#3D3D3D"/>
<path id="Vector_8" d="M325.6 21.44C325.6 21.44 356.67 19.36 356.93 19.44C357.19 19.52 372.6 20.44 372.6 20.44L358.88 21.76L340.81 22.65L325.6 21.44Z" fill="#3D3D3D"/>
</g>
<path id="Vector_9" d="M63.47 4.91001C63.2427 6.98309 63.3168 9.07817 63.69 11.13C63.69 11.13 61.61 9.66001 59.34 8.41001C57.9947 7.49551 56.8929 6.26665 56.13 4.83001C55.65 4.00001 55.36 3.38 55.36 3.38C54.467 4.31168 53.8816 5.49515 53.6831 6.77034C53.4846 8.04554 53.6824 9.35094 54.25 10.51C51.6162 9.84448 48.8512 9.9067 46.25 10.69C55.57 16.59 50.62 17.07 45.25 19.53C39.88 21.99 39.49 25.05 39.49 25.05C45.91 23.05 48.49 25.62 48.49 25.62C45.04 28.82 48.12 33.81 48.12 33.81C51.48 40.03 59.8 42.68 67.24 43.81C71.8421 44.4686 76.4962 44.6896 81.14 44.47L64.14 49.57L48.9 53.24C48.9 53.24 33.77 51.67 28.22 39.29C22.67 26.91 32.37 17.19 31.39 16.52C30.41 15.85 29.29 17.27 29.17 17.41C33.39 5.73 46.1 5.86001 46.61 4.62001C47.12 3.38001 44.1 3.3 44.1 3.3C57.01 -0.809995 63.47 4.91001 63.47 4.91001Z" fill="white"/>
<path id="Vector_10" d="M175.64 68.65C175.592 68.799 175.58 68.9571 175.604 69.1117C175.628 69.2662 175.689 69.4129 175.78 69.54C176 69.85 181.29 77.32 188.18 77.32C189.756 77.3169 191.308 76.929 192.7 76.19C193.3 75.82 193.87 75.45 194.37 75.11C197.384 73.2282 200.21 71.0616 202.81 68.64L175.64 68.65Z" fill="#181818"/>
<path id="Vector_11" d="M6 44.88V81.66L42.01 77.11V40.33L6 44.88Z" fill="#181818"/>
<path id="Vector_12" d="M6 44.88V81.66L42.01 77.11V40.33L6 44.88Z" stroke="white" stroke-width="1.38" stroke-miterlimit="10"/>
<path id="Vector_13" d="M6.78 78.93L42.01 74.1M6.78 47.34L42.01 43.01L6.78 47.34Z" stroke="white" stroke-width="0.75" stroke-miterlimit="10"/>
<path id="Vector_14" d="M42.01 40.33L17.44 36.82V73.6L42.01 77.11V40.33Z" fill="#181818"/>
<path id="Vector_15" d="M42.01 40.33L17.44 36.82V73.6L42.01 77.11V40.33Z" stroke="white" stroke-width="1.38" stroke-miterlimit="10"/>
<path id="Vector_16" d="M239.66 73.59C177.01 84.59 80.09 62.59 17.44 73.59V36.82C80.09 25.82 177.01 47.82 239.66 36.82V73.59Z" fill="#1D1D1D" stroke="#E2E2E2" stroke-width="1.8" stroke-miterlimit="10"/>
<path id="Vector_17" d="M239.66 73.59C177.01 84.59 80.09 62.59 17.44 73.59V36.82C80.09 25.82 177.01 47.82 239.66 36.82V73.59Z" stroke="white" stroke-width="1.38" stroke-miterlimit="10"/>
<path id="Vector_18" d="M240.63 70.04C240.63 70.04 219.83 78.54 124.3 70.37C56.74 64.6 23.01 69.66 17.84 70.54M239.66 39.68C239.66 39.68 219.5 47.57 124.01 39.39C56.53 33.62 22.84 38.68 17.63 39.56L239.66 39.68Z" stroke="white" stroke-width="0.75" stroke-miterlimit="10"/>
<path id="Vector_19" d="M558.01 25.51H239.56V84.98H558.01V25.51Z" fill="#1D1D1D"/>
<path id="Vector_20" d="M558.01 25.51H239.56V84.98H558.01V25.51Z" stroke="white" stroke-width="1.25" stroke-miterlimit="10"/>
<path id="Vector_21" d="M237.44 19.32V91.19C237.937 89.9065 238.658 88.7214 239.57 87.69V22.82C238.66 21.7893 237.942 20.6039 237.45 19.32" fill="#181818"/>
<path id="Vector_22" d="M237.44 19.32V91.19C237.937 89.9065 238.658 88.7214 239.57 87.69V22.82C238.656 21.7901 237.935 20.6047 237.44 19.32V19.32Z" stroke="white" stroke-width="1.25" stroke-miterlimit="10"/>
<path id="Vector_23" d="M560.14 19.32V91.19C559.648 89.9061 558.93 88.7207 558.02 87.69V22.82C558.936 21.7917 559.657 20.6058 560.15 19.32" fill="#231F20"/>
<path id="Vector_24" d="M560.14 19.32V91.19C559.648 89.9061 558.93 88.7207 558.02 87.69V22.82C558.932 21.7909 559.65 20.6051 560.14 19.32Z" fill="#181818" stroke="white" stroke-width="1.25" stroke-miterlimit="10"/>
<path id="Vector_25" d="M535.8 25.51C530.04 26.6086 524.201 27.2406 518.34 27.4H279.24C273.379 27.2406 267.54 26.6086 261.78 25.51M261.78 84.98C267.54 83.8814 273.379 83.2494 279.24 83.09H518.34C524.201 83.2494 530.04 83.8814 535.8 84.98H261.78Z" stroke="white" stroke-width="0.75" stroke-miterlimit="10"/>
<path id="Vector_26" d="M76.31 20.45C77.3226 20.8535 78.2362 21.4706 78.9887 22.2592C79.7411 23.0479 80.3146 23.9896 80.67 25.02C77.78 24.94 76.92 22.79 76.31 20.45Z" fill="#231F20"/>
<path id="Vector_27" d="M234.89 78.53C234.24 75.13 231.76 69.53 226.95 66.66C222.95 64.25 219.5 64.77 219.49 63.57C219.49 62.04 223.91 62.57 223.91 62.57C219.11 59.91 212.22 63.16 211.23 61.64C210.65 60.73 214.44 59.44 214.44 59.44C208.58 59.24 201.66 62.16 198.89 64.8C205.89 62.54 215.72 63.8 220.25 67.57C218.33 66.5518 216.266 65.8303 214.13 65.43C206.19 63.89 197.36 66.17 192.05 68.31C188.354 69.5324 184.805 71.1625 181.47 73.17C177.47 75.4 170.19 77.47 165.23 75.44C165.23 75.44 173 87.95 182.54 83.6C183.24 83.22 183.91 82.83 184.54 82.45C188.263 80.3574 191.77 77.9022 195.01 75.12C199.39 72.1946 204.174 69.9241 209.21 68.38C210.668 67.9624 212.197 67.8534 213.7 68.06C217.47 68.55 220.7 70.89 221.83 73.68C224.74 73.19 232.13 75.55 234.9 78.53" fill="white"/>
<path id="Vector_28" d="M69.59 33.65C68.79 29.47 62.82 28.76 59.75 30.65C61.0018 27.8743 63.2872 25.6965 66.12 24.58C64.6363 24.049 63.1155 23.6278 61.57 23.32C63.57 21.86 68.38 20.77 70.84 20.97C70.3579 20.837 69.8665 20.74 69.37 20.68L69.84 17.96C69.57 15.69 67.44 13.08 64.9 11.51C63.64 8.03 64.9 1.69 66.61 0C65.73 9.19 79.01 14.77 81.63 21.49C80.17 15.75 74.01 11.97 71.13 8.49C70.7706 7.25486 70.6801 5.95703 70.8647 4.68397C71.0493 3.4109 71.5046 2.1922 72.2 1.11C71.7 7.19 78.37 12.19 81.91 15.73C86.09 19.87 87.2 23.47 86.52 26.37C87.1165 26.4996 87.6443 26.8447 88.0022 27.3392C88.3602 27.8337 88.5232 28.4428 88.46 29.05C89.1484 28.8518 89.7878 28.5119 90.3372 28.0521C90.8865 27.5923 91.3337 27.0228 91.65 26.38C92.19 30.95 89.27 35.66 86.13 37.01C86.3806 36.3859 86.4699 35.7087 86.3895 35.0411C86.3091 34.3734 86.0616 33.7367 85.67 33.19C84.33 31.52 80.38 31.38 79.04 31.43C79.04 31.43 80.76 29.13 80.14 27.93C79.39 26.43 71.64 26.85 68.14 27.93C69.8076 27.8996 71.4691 28.1393 73.06 28.64C72.49 29.41 70.97 32.64 71.96 33.64C72.8 34.51 73.96 33.22 74.14 33.05C74.03 33.37 72.86 36.64 73.67 37.47C74.48 38.3 76.38 37.79 76.38 37.79C75.13 40.58 70.57 42.39 67.38 42.29C68.8773 41.6361 70.0783 40.4494 70.75 38.96C69.5167 39.3498 68.2145 39.4725 66.93 39.32C67.8821 38.7367 68.6388 37.8829 69.1036 36.8677C69.5685 35.8525 69.7204 34.7219 69.54 33.62L69.59 33.65ZM80.62 24.99C80.2646 23.9596 79.6911 23.0179 78.9387 22.2292C78.1863 21.4406 77.2726 20.8235 76.26 20.42C76.87 22.76 77.72 24.91 80.62 24.99Z" fill="white"/>
<path id="Vector_29" d="M53.01 16.53C53.53 14.76 50.01 11.62 48.64 11.01C51.1653 10.8791 53.6939 11.1939 56.11 11.94C55.4773 10.9005 55.0812 9.73448 54.9499 8.5247C54.8186 7.31492 54.9552 6.09105 55.35 4.94C57.88 11.34 67.61 12.66 69.86 17.94L69.39 20.66C65.55 20.18 59.88 21.29 57.02 24.35C58.5638 24.5024 60.0882 24.8107 61.57 25.27C57.24 25.89 51.28 29.58 49.49 31.36C50.02 28.96 50.78 26.95 50.24 25.49C49.48 23.43 46.94 22.49 41.82 23.36C45.34 20.19 52.45 18.33 53.01 16.53Z" fill="white"/>
<path id="Vector_30" d="M24.55 32.73L25.55 34.9C24.16 35.13 22.6 40.44 22.6 40.44C19.05 38.44 22.04 32.12 22.04 32.12L24.55 32.73Z" fill="white"/>
<path id="Vector_31" d="M249.07 46.09H551.47" stroke="#4A4949" stroke-width="0.25"/>
<path id="Vector_32" d="M249.07 71.67H551.47" stroke="#4A4949" stroke-width="0.25"/>
<path id="Vector_33" d="M15.01 33.9C15.01 33.9 15.22 40.2 15.89 40.76L18.34 41.76L18.41 43.91C18.41 43.91 14.03 42.56 13.67 40.91C13.3561 39.059 13.1358 37.1932 13.01 35.32C13.5143 34.6518 14.2129 34.1558 15.01 33.9Z" fill="white"/>
<path id="Vector_34" d="M16.82 31.82C17.6942 31.1998 18.6413 30.6893 19.64 30.3L21.26 31.69L20.42 31.93C20.42 31.93 18.87 36.84 19.5 38.87L20.5 41.71C20.5 41.71 17.19 41.07 16.68 39.85C16.68 39.85 15.62 34.33 16.8 31.85" fill="white"/>
<path id="DNDlogo" d="M175.64 31.6C175.617 31.8653 175.539 32.1227 175.409 32.3552C175.28 32.5878 175.102 32.7902 174.888 32.949C174.675 33.1078 174.43 33.2195 174.17 33.2765C173.91 33.3336 173.641 33.3348 173.38 33.28C173.58 33.4384 173.815 33.5472 174.065 33.5976C174.315 33.648 174.574 33.6385 174.82 33.57C174.528 33.8854 174.157 34.1168 173.746 34.2399C173.334 34.3631 172.897 34.3734 172.48 34.27C172.097 34.1657 171.756 33.9452 171.503 33.639C171.251 33.3328 171.099 32.9558 171.07 32.56C170.973 32.6533 170.896 32.7651 170.844 32.8888C170.791 33.0125 170.764 33.1456 170.764 33.28C170.764 33.4144 170.791 33.5475 170.844 33.6712C170.896 33.7949 170.973 33.9067 171.07 34C170.814 33.9218 170.584 33.7737 170.408 33.5723C170.231 33.3709 170.114 33.1242 170.07 32.86C169.99 32.27 170.33 31.61 169.7 31.08C169.32 30.76 168.75 30.3 168.38 30.02C167.61 29.43 167.9 29.02 167.73 28.69C167.56 28.36 167.27 28.32 167.08 28.1C166.993 28.0012 166.939 27.8782 166.925 27.7476C166.911 27.617 166.937 27.4852 167 27.37C166.991 27.4961 167.028 27.6211 167.106 27.7209C167.184 27.8206 167.296 27.888 167.42 27.91C167.7 28 167.94 27.91 168.19 28.06C168.44 28.21 168.34 28.67 168.55 28.82C168.76 28.97 169.22 28.82 169.63 29.09L171.34 30.46C171.449 30.5869 171.6 30.6711 171.765 30.6977C171.93 30.7243 172.1 30.6917 172.243 30.6056C172.387 30.5194 172.495 30.3853 172.55 30.2269C172.604 30.0686 172.601 29.8961 172.54 29.74C172.711 29.837 172.857 29.9737 172.965 30.1387C173.072 30.3037 173.139 30.4922 173.158 30.6882C173.178 30.8842 173.15 31.082 173.077 31.2651C173.005 31.4481 172.889 31.611 172.74 31.74C173.3 31.86 174.32 31.62 174.32 30.83C174.299 30.6184 174.211 30.419 174.069 30.2607C173.927 30.1025 173.738 29.9936 173.53 29.95C173.784 29.9107 174.043 29.9239 174.292 29.9888C174.541 30.0537 174.774 30.1688 174.976 30.3272C175.178 30.4856 175.346 30.6838 175.469 30.9096C175.592 31.1354 175.667 31.384 175.69 31.64L175.64 31.6ZM163.55 25.64C163.62 25.38 163.07 24.92 162.87 24.83C163.25 24.7992 163.633 24.8365 164 24.94C163.9 24.7867 163.834 24.6131 163.808 24.4317C163.782 24.2502 163.797 24.0653 163.85 23.89C164.26 24.89 165.73 25 166.09 25.79C166.034 25.587 165.937 25.3977 165.805 25.2341C165.672 25.0706 165.507 24.9364 165.32 24.84C165.231 24.5519 165.203 24.2485 165.238 23.949C165.272 23.6495 165.368 23.3604 165.52 23.1C165.43 24.48 167.46 25.26 167.88 26.26C167.63 25.41 166.69 24.86 166.24 24.35C166.181 24.1665 166.161 23.9724 166.184 23.7808C166.206 23.5892 166.27 23.4048 166.37 23.24C166.32 24.16 167.37 24.88 167.9 25.39C168.43 25.9 168.73 26.53 168.64 26.97C168.73 26.9891 168.81 27.0402 168.865 27.1137C168.92 27.1873 168.947 27.2783 168.94 27.37C169.043 27.336 169.138 27.2812 169.219 27.2089C169.3 27.1366 169.365 27.0485 169.41 26.95C169.451 27.2665 169.399 27.588 169.26 27.8756C169.122 28.1631 168.903 28.4043 168.63 28.57C168.666 28.4754 168.677 28.373 168.661 28.273C168.645 28.173 168.603 28.0789 168.54 28C168.33 27.75 167.74 27.75 167.54 27.76C167.54 27.76 167.79 27.41 167.69 27.23C167.59 27.05 166.4 27.1 165.88 27.29C166.133 27.2754 166.386 27.3024 166.63 27.37C166.54 27.49 166.33 27.99 166.49 28.13C166.65 28.27 166.81 28.03 166.81 28.03C166.81 28.03 166.63 28.57 166.76 28.7C166.89 28.83 167.17 28.7 167.17 28.7C167.027 28.9196 166.832 29.0998 166.601 29.2239C166.37 29.348 166.112 29.412 165.85 29.41C166.07 29.3054 166.244 29.124 166.34 28.9C166.153 28.9624 165.956 28.9863 165.76 28.97C165.902 28.8789 166.013 28.7472 166.079 28.592C166.145 28.4368 166.163 28.2654 166.13 28.1C165.99 27.48 165.13 27.4 164.64 27.7C164.811 27.2778 165.142 26.94 165.56 26.76C165.339 26.6835 165.111 26.6267 164.88 26.59C165.28 26.3404 165.739 26.2022 166.21 26.19C165.845 26.1137 165.466 26.1257 165.106 26.2248C164.746 26.3239 164.415 26.5074 164.14 26.76C164.373 26.7771 164.604 26.8139 164.83 26.87C164.165 27.0563 163.555 27.3992 163.05 27.87C163.145 27.587 163.173 27.2855 163.13 26.99C163.01 26.68 162.62 26.55 161.85 26.71C162.37 26.21 163.43 25.9 163.5 25.62L163.55 25.64ZM167.94 26.95L167.87 26.72C167.804 26.5426 167.7 26.3818 167.565 26.2488C167.43 26.1158 167.268 26.0138 167.09 25.95L166.76 25.83L166.86 26.15C166.94 26.43 167.09 26.95 167.7 26.95H167.94ZM144.8 27.67C144.789 28.1897 144.673 28.7018 144.458 29.1754C144.244 29.649 143.936 30.0743 143.553 30.4256C143.17 30.777 142.72 31.0471 142.229 31.2197C141.739 31.3923 141.219 31.4639 140.7 31.43C140.181 31.4765 139.659 31.4145 139.165 31.248C138.672 31.0814 138.219 30.8139 137.835 30.4626C137.45 30.1112 137.143 29.6837 136.933 29.2072C136.723 28.7307 136.615 28.2157 136.615 27.695C136.615 27.1743 136.723 26.6593 136.933 26.1828C137.143 25.7063 137.45 25.2788 137.835 24.9274C138.219 24.5761 138.672 24.3086 139.165 24.142C139.659 23.9755 140.181 23.9135 140.7 23.96C141.216 23.9234 141.735 23.9913 142.224 24.1595C142.713 24.3278 143.164 24.593 143.549 24.9394C143.933 25.2857 144.244 25.706 144.462 26.1752C144.681 26.6443 144.802 27.1527 144.82 27.67H144.8ZM142.66 27.67C142.683 27.4016 142.647 27.1315 142.554 26.8785C142.462 26.6254 142.315 26.3957 142.125 26.2052C141.934 26.0147 141.705 25.8682 141.452 25.7757C141.199 25.6833 140.928 25.6472 140.66 25.67C140.4 25.6582 140.141 25.703 139.9 25.8012C139.658 25.8994 139.442 26.0487 139.264 26.2388C139.086 26.4289 138.952 26.6553 138.87 26.9024C138.788 27.1495 138.761 27.4114 138.79 27.67C138.763 27.9332 138.794 28.1991 138.881 28.4491C138.967 28.6992 139.107 28.9273 139.291 29.1177C139.475 29.3081 139.698 29.4562 139.945 29.5515C140.191 29.6469 140.456 29.6873 140.72 29.67C140.981 29.6761 141.24 29.6279 141.481 29.5285C141.722 29.429 141.94 29.2806 142.12 29.0925C142.301 28.9044 142.44 28.6808 142.53 28.4359C142.619 28.191 142.657 27.9302 142.64 27.67H142.66ZM106.55 27.67C106.553 28.493 106.278 29.2929 105.77 29.94C105.538 30.217 105.265 30.4565 104.96 30.65C104.212 31.1328 103.329 31.364 102.44 31.31H98.52L98.69 31.21L99.4 30.81C99.61 30.68 99.7 30.56 99.7 30.11V25.9C99.7 25.44 99.57 25.31 99.39 25.18C99.1216 25.0164 98.8892 24.8 98.707 24.5438C98.5248 24.2877 98.3965 23.9972 98.33 23.69V23.58L98.43 23.64C98.6415 23.7666 98.8707 23.861 99.11 23.92C99.8281 24.0262 100.555 24.063 101.28 24.03H102.78C103.421 24.0305 104.054 24.1776 104.63 24.46C105.218 24.7524 105.711 25.2053 106.053 25.7662C106.394 26.3272 106.57 26.9733 106.56 27.63L106.55 27.67ZM104.38 27.63C104.415 27.3875 104.395 27.1402 104.322 26.9064C104.249 26.6725 104.124 26.458 103.957 26.2787C103.791 26.0993 103.586 25.9596 103.358 25.8698C103.13 25.7801 102.884 25.7425 102.64 25.76H101.8V29.49H102.64C102.883 29.5072 103.128 29.4698 103.355 29.3806C103.582 29.2914 103.786 29.1527 103.953 28.9744C104.12 28.7962 104.245 28.5831 104.318 28.3505C104.392 28.1179 104.413 27.8717 104.38 27.63ZM156.38 26.63L156.08 26.56C155.37 26.4 154.9 26.27 154.9 25.97C154.897 25.9274 154.904 25.8847 154.919 25.8449C154.935 25.8052 154.959 25.7693 154.99 25.74C155.205 25.5886 155.468 25.5211 155.73 25.55H155.96C156.753 25.6424 157.512 25.9274 158.17 26.38L158.01 24.25H157.87L157.53 24.16C157.081 24.0624 156.627 23.989 156.17 23.94H155.73C154.06 23.94 153.09 24.7 152.98 26.09C152.956 26.4332 153.028 26.7764 153.187 27.0816C153.345 27.3868 153.585 27.6423 153.88 27.82C154.492 28.1289 155.136 28.3703 155.8 28.54H155.93C156.29 28.65 156.71 28.87 156.65 29.29C156.65 29.51 156.54 29.74 155.85 29.74H155.52C154.916 29.6396 154.351 29.373 153.89 28.97H153.83L153.45 28.69L153.06 28.41L153.22 31.12H153.36L153.7 31.2C153.95 31.2 154.78 31.39 155.2 31.42H155.61C157.44 31.42 158.61 30.54 158.68 29.18C158.75 27.82 157.94 27.02 156.38 26.64V26.63ZM134.57 29.52H132.87V28.46H134.46C134.649 28.4265 134.841 28.4265 135.03 28.46C135.13 28.5122 135.216 28.5876 135.28 28.68L135.36 28.79V26.52H135.3C135.24 26.5557 135.176 26.5859 135.11 26.61C134.956 26.6473 134.794 26.6473 134.64 26.61H132.88V25.79H134.65C134.793 25.7708 134.938 25.7803 135.077 25.8181C135.216 25.8559 135.347 25.9211 135.46 26.01L135.89 26.33L135.66 24.04H129.66L129.82 24.13C129.82 24.13 130.24 24.37 130.48 24.53C130.72 24.69 130.8 24.78 130.8 25.25V30.08C130.8 30.56 130.72 30.64 130.49 30.78C130.26 30.92 129.79 31.18 129.78 31.18L129.61 31.28H135.83L136.39 28.86C136.39 28.86 135.89 29.21 135.74 29.3C135.384 29.4884 134.98 29.5651 134.58 29.52H134.57ZM122.92 24.04H118.67L118.83 24.13L119.49 24.53C119.72 24.68 119.8 24.78 119.8 25.25V27L116.67 24H111.74C111.631 24.0039 111.524 24.0348 111.43 24.09H111.38V24.14L111.56 24.38C111.619 24.4757 111.647 24.5876 111.64 24.7V28.39C111.64 29.17 111.27 29.56 110.51 29.56C110.349 29.5791 110.185 29.5605 110.032 29.5056C109.879 29.4508 109.741 29.3612 109.629 29.2439C109.516 29.1266 109.433 28.9848 109.384 28.8297C109.336 28.6746 109.324 28.5104 109.35 28.35V24.76C109.348 24.6481 109.375 24.5377 109.43 24.44L109.61 24.2V24.15C109.516 24.0948 109.409 24.0639 109.3 24.06H106.15L106.31 24.15L106.97 24.55C107.2 24.7 107.28 24.8 107.28 25.27V28.27C107.261 28.7907 107.343 29.3101 107.52 29.8C107.647 30.0697 107.828 30.3112 108.05 30.51C108.381 30.8204 108.771 31.061 109.197 31.2173C109.624 31.3737 110.077 31.4426 110.53 31.42C111.138 31.4731 111.749 31.3435 112.283 31.0478C112.818 30.7521 113.252 30.3037 113.53 29.76C113.712 29.3029 113.791 28.8111 113.76 28.32V25.32C113.76 24.85 113.84 24.75 114.07 24.6L114.52 24.33C114.65 24.41 114.81 24.51 114.93 24.6C115.05 24.69 115.25 24.91 115.25 25.38V30.15C115.25 30.62 115.16 30.72 114.94 30.85L114.23 31.25L114.06 31.35H118.32L118.15 31.25C118.15 31.25 117.67 30.99 117.45 30.85C117.23 30.71 117.14 30.61 117.14 30.15V27.19L121.69 31.5V25.25C121.69 24.78 121.77 24.69 122.01 24.53C122.25 24.37 122.72 24.13 122.73 24.13L122.92 24.04ZM153.29 24.04H149.01L149.17 24.13C149.17 24.13 149.58 24.37 149.82 24.53C150.06 24.69 150.14 24.78 150.14 25.25V27L147 24H144.51L144.66 24.09C144.66 24.09 145.04 24.33 145.26 24.49C145.48 24.65 145.58 24.8 145.58 25.27V30.04C145.58 30.51 145.5 30.61 145.28 30.74L144.57 31.14L144.4 31.24H148.66L148.49 31.14C148.49 31.14 148.01 30.88 147.78 30.74C147.55 30.6 147.47 30.5 147.47 30.04V27.19L152.01 31.51V25.25C152.01 24.78 152.09 24.69 152.32 24.53C152.55 24.37 153.03 24.13 153.04 24.13L153.29 24.04ZM129.62 30.86C129.62 30.86 129.51 30.71 129.45 30.61C129.39 30.51 129.35 30.45 129.35 30.16V28.19C129.35 27.9 129.35 27.84 129.44 27.75L129.61 27.51H129.56C129.464 27.4579 129.359 27.4271 129.25 27.42H126.06L126.22 27.51L126.9 27.91C127.11 28.04 127.21 28.18 127.21 28.61V29.68C126.96 29.7515 126.7 29.7852 126.44 29.78C126.172 29.8123 125.901 29.7823 125.646 29.6923C125.392 29.6023 125.162 29.4547 124.974 29.2611C124.786 29.0674 124.646 28.833 124.563 28.5761C124.481 28.3192 124.46 28.0467 124.5 27.78C124.468 27.5096 124.497 27.2354 124.587 26.9782C124.676 26.7209 124.822 26.4871 125.015 26.2946C125.207 26.1021 125.441 25.9557 125.698 25.8666C125.955 25.7774 126.23 25.7478 126.5 25.78C127.445 25.7793 128.362 26.1002 129.1 26.69V26.59L128.87 24.5V24.34H128.71H128.56C128.126 24.2321 127.685 24.1552 127.24 24.11C127.022 24.0761 126.801 24.0594 126.58 24.06H126.46C125.94 24.0134 125.416 24.0756 124.921 24.2427C124.427 24.4097 123.972 24.6779 123.587 25.0302C123.202 25.3825 122.894 25.8111 122.684 26.2889C122.473 26.7666 122.364 27.2829 122.364 27.805C122.364 28.3271 122.473 28.8434 122.684 29.3211C122.894 29.7989 123.202 30.2275 123.587 30.5798C123.972 30.9321 124.427 31.2003 124.921 31.3673C125.416 31.5344 125.94 31.5966 126.46 31.55C127.034 31.5386 127.605 31.4817 128.17 31.38H128.39C128.67 31.31 128.96 31.24 129.25 31.15L129.61 31.04L129.62 30.86ZM185.41 27.64C185.413 28.463 185.138 29.2629 184.63 29.91C184.398 30.187 184.125 30.4265 183.82 30.62C183.069 31.1042 182.182 31.3355 181.29 31.28H177.38L177.54 31.18L178.25 30.78C178.47 30.65 178.56 30.53 178.56 30.08V25.9C178.56 25.44 178.43 25.31 178.24 25.18C177.973 25.0154 177.743 24.7985 177.563 24.5424C177.382 24.2864 177.255 23.9964 177.19 23.69V23.58L177.28 23.64C177.497 23.7634 177.729 23.8576 177.97 23.92C178.688 24.0265 179.415 24.0634 180.14 24.03H181.64C182.278 24.0292 182.908 24.1764 183.48 24.46C184.071 24.7501 184.567 25.2021 184.91 25.7634C185.254 26.3247 185.431 26.972 185.42 27.63L185.41 27.64ZM183.24 27.63C183.275 27.3875 183.255 27.1402 183.182 26.9064C183.109 26.6725 182.984 26.458 182.817 26.2787C182.651 26.0993 182.446 25.9596 182.218 25.8698C181.99 25.7801 181.744 25.7425 181.5 25.76H180.66V29.49H181.5C181.743 29.5072 181.988 29.4698 182.215 29.3806C182.442 29.2914 182.646 29.1527 182.813 28.9744C182.98 28.7962 183.105 28.5831 183.178 28.3505C183.252 28.1179 183.273 27.8717 183.24 27.63ZM226.73 26.63L226.43 26.56C225.72 26.4 225.25 26.27 225.25 25.97C225.246 25.9263 225.253 25.8824 225.27 25.8421C225.288 25.8019 225.315 25.7668 225.35 25.74C225.559 25.5838 225.821 25.5156 226.08 25.55H226.32C227.11 25.6444 227.865 25.9292 228.52 26.38L228.4 24.24H228.25L227.91 24.15C227.458 24.0518 227 23.9783 226.54 23.93H226.01C224.34 23.93 223.36 24.69 223.26 26.08C223.236 26.4232 223.308 26.7664 223.467 27.0716C223.625 27.3768 223.865 27.6323 224.16 27.81C224.769 28.1188 225.409 28.3603 226.07 28.53H226.2C226.57 28.64 226.99 28.86 226.93 29.28C226.93 29.5 226.81 29.73 226.13 29.73H225.8C225.193 29.6298 224.625 29.3633 224.16 28.96H224.1L223.73 28.68L223.34 28.4L223.49 31.11H223.64L224.01 31.19C224.26 31.19 225.09 31.38 225.51 31.41H225.92C227.74 31.41 228.92 30.53 228.98 29.17C229.04 27.81 228.24 27.01 226.68 26.63H226.73ZM215.11 27.63C215.102 28.151 214.987 28.6649 214.774 29.1403C214.561 29.6157 214.253 30.0428 213.87 30.3955C213.486 30.7482 213.035 31.0191 212.543 31.1918C212.052 31.3645 211.53 31.4353 211.01 31.4C210.497 31.4376 209.982 31.369 209.497 31.1986C209.012 31.0282 208.567 30.7595 208.191 30.4095C207.814 30.0595 207.514 29.6355 207.308 29.1642C207.103 28.6928 206.997 28.1842 206.997 27.67C206.997 27.1558 207.103 26.6472 207.308 26.1758C207.514 25.7045 207.814 25.2805 208.191 24.9305C208.567 24.5805 209.012 24.3118 209.497 24.1414C209.982 23.971 210.497 23.9024 211.01 23.94C211.527 23.902 212.045 23.9689 212.536 24.1366C213.026 24.3043 213.477 24.5695 213.861 24.9161C214.246 25.2627 214.557 25.6835 214.775 26.1534C214.993 26.6232 215.114 27.1323 215.13 27.65L215.11 27.63ZM212.98 27.65C212.997 27.3852 212.956 27.1199 212.861 26.8722C212.766 26.6246 212.618 26.4005 212.428 26.2153C212.238 26.03 212.01 25.8881 211.761 25.7991C211.511 25.7102 211.244 25.6764 210.98 25.7C210.719 25.6867 210.459 25.7304 210.216 25.8279C209.974 25.9255 209.756 26.0745 209.577 26.2648C209.398 26.4551 209.263 26.6821 209.181 26.9299C209.098 27.1777 209.071 27.4405 209.1 27.7C209.075 27.9637 209.107 28.2298 209.195 28.4798C209.283 28.7298 209.424 28.9578 209.608 29.148C209.793 29.3382 210.016 29.486 210.263 29.5813C210.511 29.6766 210.776 29.7171 211.04 29.7C211.301 29.7061 211.56 29.6579 211.801 29.5585C212.042 29.459 212.26 29.3106 212.44 29.1225C212.621 28.9344 212.76 28.7108 212.85 28.4659C212.939 28.221 212.977 27.9602 212.96 27.7L212.98 27.65ZM199.73 30.85L200.37 31.33H196.45L196.93 30.87C197.003 30.8142 197.054 30.7339 197.072 30.6438C197.09 30.5537 197.075 30.4599 197.03 30.38C197.03 30.38 196.96 30.21 196.91 30.06H194.21C194.21 30.2 194.12 30.32 194.09 30.38C193.98 30.64 194 30.72 194.15 30.86C194.3 31 194.73 31.33 194.73 31.33H190.62L188.73 29.13C188.599 28.9279 188.425 28.7572 188.22 28.63H188.11V30.18C188.11 30.63 188.2 30.72 188.42 30.88C188.706 31.0649 189.003 31.2319 189.31 31.38H184.93C184.93 31.38 185.6 31.02 185.8 30.88C186 30.74 186.11 30.64 186.11 30.18V25.26C186.11 24.81 186.01 24.67 185.8 24.54L185.14 24.14L184.98 24.05H188.55C189.001 24.029 189.453 24.0762 189.89 24.19C190.32 24.2924 190.702 24.5386 190.973 24.8878C191.244 25.2369 191.387 25.6681 191.38 26.11C191.387 26.5267 191.257 26.934 191.01 27.27C190.832 27.5279 190.595 27.7403 190.32 27.89C191.11 28.89 191.73 29.66 192.11 30.06L194.38 24.78C194.38 24.78 194.38 24.71 194.38 24.68C194.38 24.65 194.38 24.6 194.27 24.5L193.74 24.04H196.69L199.17 30.1C199.212 30.1992 199.266 30.2932 199.33 30.38C199.443 30.5448 199.585 30.6873 199.75 30.8L199.73 30.85ZM189.33 26.1C189.33 25.73 189.08 25.48 188.33 25.48H188.08V27.19H188.32C188.8 27.19 189.32 27.09 189.32 26.12L189.33 26.1ZM196.32 28.31L195.64 26.53L194.91 28.31H196.32ZM223.63 24.06H219.38L219.54 24.15L220.2 24.55C220.43 24.7 220.51 24.8 220.51 25.27V27.02L217.38 24.02H214.88L215.03 24.11C215.03 24.11 215.42 24.35 215.64 24.51C215.86 24.67 215.96 24.82 215.96 25.29V30.06C215.96 30.53 215.87 30.63 215.65 30.76L214.94 31.16L214.77 31.26H219.01L218.84 31.16C218.84 31.16 218.36 30.9 218.14 30.76C217.92 30.62 217.83 30.52 217.83 30.06V27.19L222.38 31.5V25.25C222.38 24.78 222.46 24.69 222.7 24.53C222.94 24.37 223.41 24.13 223.42 24.13L223.63 24.06ZM206.4 30.57C206.312 30.4338 206.277 30.2704 206.3 30.11V28.19C206.3 27.89 206.3 27.84 206.39 27.75C206.48 27.66 206.56 27.51 206.56 27.51V27.46C206.461 27.4178 206.357 27.3876 206.25 27.37H203.01L203.17 27.47L203.85 27.87C204.06 28 204.16 28.14 204.16 28.57V29.63C203.911 29.7099 203.651 29.7471 203.39 29.74C203.123 29.7728 202.851 29.7429 202.597 29.6529C202.343 29.5629 202.114 29.4151 201.926 29.2212C201.739 29.0273 201.6 28.7925 201.519 28.5355C201.438 28.2785 201.418 28.0061 201.46 27.74C201.427 27.4739 201.455 27.2038 201.54 26.9497C201.626 26.6956 201.768 26.464 201.955 26.272C202.142 26.08 202.37 25.9325 202.622 25.8404C202.874 25.7483 203.143 25.714 203.41 25.74C204.354 25.7348 205.271 26.0524 206.01 26.64L205.78 24.54V24.39H205.63H205.47C205.035 24.2839 204.594 24.2038 204.15 24.15C203.93 24.1328 203.71 24.1328 203.49 24.15H203.37C202.85 24.1034 202.326 24.1656 201.831 24.3327C201.337 24.4997 200.882 24.7679 200.497 25.1202C200.112 25.4725 199.804 25.9011 199.594 26.3789C199.383 26.8566 199.274 27.3729 199.274 27.895C199.274 28.4171 199.383 28.9334 199.594 29.4111C199.804 29.8889 200.112 30.3175 200.497 30.6698C200.882 31.0221 201.337 31.2903 201.831 31.4573C202.326 31.6244 202.85 31.6866 203.37 31.64C203.944 31.625 204.516 31.5648 205.08 31.46H205.3H205.35C205.63 31.4 205.92 31.33 206.21 31.24L206.57 31.13V31.07C206.57 31.07 206.46 30.93 206.4 30.83V30.57ZM173.17 26.56C172.424 26.6745 171.709 26.9402 171.069 27.3409C170.43 27.7415 169.879 28.2687 169.45 28.89C169.591 28.9324 169.723 29.0001 169.84 29.09C169.99 29.2 170.21 29.38 170.44 29.57C170.768 28.8427 171.203 28.1686 171.73 27.57C172.002 27.2684 172.37 27.0706 172.771 27.0104C173.172 26.9502 173.582 27.0314 173.93 27.24C174.601 26.8416 175.39 26.6929 176.16 26.82C175.6 26.2211 174.829 25.8627 174.01 25.82C173.25 25.82 172.82 26.18 172.71 26.02C172.6 25.86 173.22 25.5 173.22 25.5C172.32 25.5 171.67 26.56 171.4 26.43C171.13 26.3 171.64 25.86 171.64 25.86C170.875 26.3152 170.292 27.0222 169.99 27.86C170.384 27.4064 170.873 27.0457 171.423 26.8036C171.973 26.5615 172.569 26.4442 173.17 26.46V26.56ZM168.26 30.6C168.042 31.0082 167.733 31.3605 167.357 31.6294C166.98 31.8983 166.547 32.0764 166.09 32.15C164.46 32.15 163.65 29.93 165.46 28.1C165.245 28.0426 165.017 28.0676 164.82 28.17L164.02 28.84L164.25 27.75C164.246 27.7134 164.246 27.6765 164.25 27.64C163.908 27.8044 163.592 28.0165 163.31 28.27L162.58 29.04L162.65 27.96L162.7 27.72C162.744 27.5741 162.764 27.4222 162.76 27.27H162.71C162.346 27.5258 162.039 27.8526 161.805 28.2307C161.571 28.6089 161.416 29.0304 161.35 29.47C161.436 29.3464 161.549 29.2439 161.68 29.17C161.78 29.17 161.87 29.17 161.77 29.47C161.506 30.1552 161.443 30.902 161.59 31.6216C161.737 32.3412 162.088 33.0035 162.6 33.53C162.6 33.53 162.41 33.06 162.52 32.91C162.63 32.76 162.65 32.84 162.76 32.91C162.87 32.98 162.91 33.1 162.99 33.2C163.132 33.3618 163.289 33.5091 163.46 33.64C164.066 34.0486 164.779 34.2711 165.51 34.28C166.353 34.2666 167.173 34.0104 167.874 33.5421C168.575 33.0738 169.125 32.4134 169.46 31.64L169.37 31.53C169.04 31.25 168.57 30.87 168.21 30.6H168.26ZM163.35 24.6C163.32 24.3684 163.34 24.1329 163.41 23.91L163.72 22.96L164.12 23.88C164.267 24.1541 164.494 24.3772 164.77 24.52C164.736 24.0849 164.812 23.6484 164.99 23.25C164.973 23.096 164.989 22.9402 165.035 22.7923C165.081 22.6444 165.157 22.5076 165.258 22.3904C165.36 22.2732 165.484 22.178 165.624 22.1109C165.763 22.0437 165.915 22.006 166.07 22C167.07 22 167.39 23.22 166.91 24.1C167.166 24.4279 167.458 24.7264 167.78 24.99L168.08 25.26L168.15 25.34C168.604 24.7653 168.879 24.0698 168.94 23.34C168.943 22.9905 168.875 22.644 168.74 22.3218C168.604 21.9995 168.404 21.7083 168.153 21.4658C167.901 21.2234 167.602 21.0349 167.275 20.9118C166.948 20.7887 166.599 20.7337 166.25 20.75C165.796 20.6989 165.337 20.7486 164.905 20.8955C164.473 21.0424 164.078 21.283 163.75 21.6C163.474 21.8695 163.264 22.1996 163.138 22.564C163.011 22.9284 162.971 23.3173 163.02 23.7C163.045 24.0402 163.158 24.3678 163.35 24.65" fill="white"/>
</g>
</svg>
