<svg id="Layer_1" data-name="Layer 1" xmlns="http://www.w3.org/2000/svg" viewBox="0 0 331.47 344.24">
  <defs>
    <style>
      .cls-1 {
        fill: #e2e2e2;
      }
    </style>
  </defs>
  <path class="cls-1" d="M181.39,117.7c66.33-12.46,123.32,50.65,105.1,115.37-8.57,29.75-35.62,49.27-45.19,78.53a7.31,7.31,0,0,1-6.91,5c-3.65,0-7.31,0-11-.05a7.29,7.29,0,0,1-7-9.21c4.05-14.56,12.19-28.22,20.36-40.74,7.57-11.16,18.17-20.36,22.71-33.37a3.12,3.12,0,0,1,.15-.39c13.15-29.69-.69-70.07-30.72-83.22a7,7,0,0,1-.86-.44,34.42,34.42,0,0,0-13.15-5.2,7.56,7.56,0,0,1-1.05-.23c-43.32-13.44-89.63,27.57-82,72.52a3.81,3.81,0,0,1,.07.59c1.28,19.86,15.61,34.56,27.1,49.44a7.18,7.18,0,0,1,.48.7c7.66,12.66,16,25.95,19.9,40.39a7.3,7.3,0,0,1-7,9.16c-3.71,0-7.43.06-11.14,0a7.32,7.32,0,0,1-6.87-4.95c-8-23.37-25.88-41.12-38.56-61.89a6.23,6.23,0,0,1-.39-.72c-11.8-24.4-12.12-52.93-2-77.95l1.27-2.48a1.25,1.25,0,0,0,.11-.39,6.29,6.29,0,0,1,.69-2.12C129.54,141.66,152.71,122.16,181.39,117.7Z" transform="translate(-32.74 -39.1)"/>
  <path class="cls-1" d="M234,366.67c-4.05,5.14-6.74,11.41-11.72,15.83-14.4,1.77-29.21.1-43.74.72-9.6.28-11.84-11.36-17.34-17.19-8-9.17-4.38-21.77-4.86-32.91,27.8.71,55.7-.55,83.42.44C238.61,345,242.5,357.35,234,366.67Z" transform="translate(-32.74 -39.1)"/>
  <path class="cls-1" d="M152.72,215.88c-9.47-6.22-3.64-19.69-.58-28.16,5.51-12.88,16.43-22,29.25-27.19,29.76-10.21,29.74,12.75,16.51,14.2-14.9-.23-28.67,10-32,24.72-2.31,5.87,0,13-6.57,16.48C157.14,216,154.93,216.58,152.72,215.88Z" transform="translate(-32.74 -39.1)"/>
  <rect class="cls-1" x="52.47" y="131.61" width="17.32" height="60.54" rx="8.66" transform="translate(-144.34 112.42) rotate(-65.88)"/>
  <rect class="cls-1" x="100.57" y="67.01" width="17.32" height="60.54" rx="8.66" transform="translate(-69.77 59.89) rotate(-42.36)"/>
  <rect class="cls-1" x="327.17" y="121.78" width="17.32" height="60.54" rx="8.66" transform="translate(301.56 481.59) rotate(-114.12)"/>
  <rect class="cls-1" x="279.08" y="57.17" width="17.32" height="60.54" rx="8.66" transform="translate(408.69 306.82) rotate(-137.64)"/>
  <rect class="cls-1" x="151.5" width="17.32" height="60.54" rx="8.66"/>
</svg>
