<svg width="190" height="466" viewBox="0 0 190 466" fill="none" xmlns="http://www.w3.org/2000/svg">
<path d="M189.13 458.335V7.2254C189.13 6.6454 189.13 6.0654 189.13 5.4754C189.149 5.14896 189.09 4.82271 188.958 4.52362C188.826 4.22454 188.624 3.9612 188.37 3.7554C187.54 2.9954 186.74 2.1854 185.93 1.4154C184.23 -0.214599 184.68 0.0453971 182.41 0.00539713H7.94999C7.47999 0.00539713 7.00999 0.00539713 6.53999 0.00539713C6.20617 -0.0183005 5.87142 0.0362606 5.5624 0.164729C5.25338 0.293198 4.97862 0.492025 4.75998 0.745395C3.95998 1.5454 3.12998 2.3054 2.32998 3.0954C0.639984 4.7254 0.899985 4.3054 0.869985 6.4854V458.565C0.869985 459.015 0.869985 459.475 0.869985 459.925C0.844271 460.254 0.900199 460.584 1.03279 460.886C1.16539 461.188 1.37054 461.452 1.62998 461.655C2.52944 462.437 3.38413 463.268 4.18999 464.145C4.56208 464.619 5.05401 464.985 5.61487 465.205C6.17572 465.424 6.78512 465.49 7.37999 465.395C7.58304 465.38 7.78693 465.38 7.98998 465.395H182.06C182.53 465.395 183 465.395 183.47 465.395C183.804 465.417 184.138 465.361 184.446 465.233C184.755 465.105 185.03 464.907 185.25 464.655C185.9 464.005 186.6 463.375 187.25 462.725C189.5 460.505 189.13 461.385 189.13 458.335ZM185.19 461.975C184.96 462.215 184.7 462.425 184.48 462.665C184.241 462.956 183.933 463.182 183.583 463.32C183.233 463.458 182.853 463.505 182.48 463.455C182.01 463.455 181.53 463.455 181.06 463.455H8.84999C5.90999 463.455 6.71999 463.795 4.47998 461.675C4.34752 461.531 4.20731 461.394 4.05998 461.265C3.62225 460.972 3.27885 460.558 3.07123 460.073C2.86362 459.589 2.80067 459.055 2.88998 458.535C2.91124 458.202 2.91124 457.868 2.88998 457.535C2.88998 307.675 2.88998 157.809 2.88998 7.9354C2.88998 4.6554 2.44999 5.6954 4.88999 3.2354C5.16999 2.9554 5.46998 2.6754 5.75998 2.4054C5.92375 2.23628 6.12181 2.10416 6.34086 2.01792C6.55991 1.93168 6.79488 1.89332 7.02999 1.9054C7.49999 1.9054 7.96999 1.9054 8.44999 1.9054H181.6C181.93 1.9054 182.27 1.9054 182.6 1.9054C182.933 1.87064 183.269 1.91299 183.583 2.02918C183.897 2.14537 184.18 2.33227 184.41 2.5754C185.1 3.2954 185.83 3.9754 186.56 4.6554C186.755 4.83037 186.909 5.04703 187.009 5.28936C187.11 5.53169 187.154 5.79349 187.14 6.0554C187.14 6.6354 187.14 7.2154 187.14 7.8054V232.705C187.14 307.665 187.14 382.632 187.14 457.605C187.1 460.615 187.48 459.715 185.19 461.975Z" fill="#3D3D3D"/>
<path d="M184.6 461.025C184.36 461.255 184.11 461.475 183.88 461.705C183.698 461.903 183.474 462.058 183.225 462.16C182.977 462.262 182.709 462.308 182.44 462.295C181.97 462.295 181.44 462.295 181.03 462.295H9.02999C6.47999 462.295 7.17999 462.625 5.02999 460.625C4.72633 460.379 4.48677 460.063 4.33178 459.705C4.17679 459.346 4.11098 458.955 4.13999 458.565C4.13999 458.045 4.13999 457.565 4.13999 456.995V8.56539C4.17001 8.10922 4.17001 7.65157 4.13999 7.1954C4.0824 6.67704 4.16095 6.15262 4.36787 5.67387C4.5748 5.19513 4.90297 4.77861 5.31999 4.46539C7.07999 2.87539 6.60999 3.08539 8.84999 3.07539H181.44C183.75 3.07539 183.96 3.17539 185.44 4.81539C185.991 5.38642 186.293 6.15227 186.28 6.9454C186.28 7.3954 186.28 7.84539 186.28 8.31539V457.125C186.26 459.665 186.6 459.085 184.6 461.025Z" fill="#3D3D3D"/>
<path d="M51.6 18.8054L52.09 18.4154V14.1154C52.0954 12.5151 51.4675 10.9776 50.3434 9.83851C49.2193 8.69943 47.6903 8.05124 46.09 8.0354H15.98C14.3798 8.05124 12.8507 8.69943 11.7266 9.83851C10.6025 10.9776 9.97465 12.5151 9.98001 14.1154V18.4154L10.47 18.8054C11.2981 19.4477 11.9799 20.2591 12.47 21.1854C11.5171 23.404 10.9652 25.7741 10.84 28.1854C10.6426 28.2836 10.4764 28.4347 10.3598 28.6219C10.2433 28.8091 10.181 29.0249 10.18 29.2454C10.1806 29.4647 10.2428 29.6794 10.3594 29.8651C10.4761 30.0507 10.6427 30.1998 10.84 30.2954C10.9642 32.7069 11.5161 35.0771 12.47 37.2954C11.9825 38.2235 11.3003 39.0353 10.47 39.6754L9.98001 40.0854V50.4454H52.12V40.1254L51.63 39.7154C50.7998 39.0753 50.1175 38.2635 49.63 37.3354C50.5787 35.1159 51.1272 32.746 51.25 30.3354C51.4489 30.24 51.6168 30.0904 51.7343 29.9037C51.8518 29.7171 51.9142 29.501 51.9142 29.2804C51.9142 29.0598 51.8518 28.8437 51.7343 28.6571C51.6168 28.4704 51.4489 28.3208 51.25 28.2254C51.1316 25.8142 50.583 23.4435 49.63 21.2254C50.1032 20.2853 50.7755 19.4595 51.6 18.8054V18.8054ZM11.87 30.2254C12.0383 30.119 12.1763 29.9712 12.2709 29.7961C12.3654 29.6209 12.4134 29.4244 12.41 29.2254C12.4174 29.0257 12.3712 28.8277 12.2763 28.6518C12.1813 28.476 12.0411 28.3288 11.87 28.2254C11.9547 26.3338 12.3256 24.4659 12.97 22.6854C13.105 23.2388 13.1755 23.8058 13.18 24.3754V34.0054C13.1755 34.575 13.105 35.1421 12.97 35.6954C12.3325 33.9372 11.9617 32.0934 11.87 30.2254V30.2254ZM49.5 43.1054C49.5 43.1054 49.5 47.8454 43.13 47.8454H18.93C12.61 47.8454 12.56 43.1054 12.56 43.1054V41.3554C13.5808 40.4373 14.3968 39.3146 14.9551 38.0603C15.5133 36.8061 15.8012 35.4483 15.8 34.0754V24.4454C15.8062 23.0755 15.5246 21.7196 14.9733 20.4655C14.4221 19.2114 13.6135 18.0871 12.6 17.1654V15.4154C12.6 15.4154 12.65 10.6754 18.97 10.6754H43.17C49.5 10.6754 49.54 15.4154 49.54 15.4154V17.1654C48.5192 18.0835 47.7032 19.2062 47.145 20.4605C46.5867 21.7147 46.2988 23.0725 46.3 24.4454V34.0754C46.2988 35.4483 46.5867 36.8061 47.145 38.0603C47.7032 39.3146 48.5192 40.4373 49.54 41.3554L49.5 43.1054ZM50.19 28.2954C50.0204 28.4003 49.8813 28.5478 49.7865 28.7233C49.6918 28.8988 49.6447 29.0961 49.65 29.2954C49.6437 29.4949 49.6903 29.6926 49.7851 29.8682C49.88 30.0439 50.0197 30.1913 50.19 30.2954C50.0989 32.1854 49.7317 34.0518 49.1 35.8354C48.9601 35.283 48.8895 34.7153 48.89 34.1454V24.5154C48.8895 23.9455 48.9601 23.3778 49.1 22.8254C49.7251 24.5867 50.0922 26.4291 50.19 28.2954V28.2954Z" fill="#E2E2E2"/>
<path d="M46.26 24.4454V34.0754C46.2588 35.4483 46.5467 36.806 47.1049 38.0603C47.6632 39.3146 48.4792 40.4373 49.5 41.3554V43.1054C49.5 43.1054 49.5 47.8454 43.13 47.8454H18.93C12.61 47.8454 12.56 43.1054 12.56 43.1054V41.3554C13.5808 40.4373 14.3968 39.3146 14.9551 38.0603C15.5133 36.806 15.8012 35.4483 15.8 34.0754V24.4454C15.8062 23.0755 15.5246 21.7196 14.9733 20.4655C14.4221 19.2114 13.6135 18.0871 12.6 17.1654V15.4154C12.6 15.4154 12.65 10.6754 18.97 10.6754H43.17C49.5 10.6754 49.54 15.4154 49.54 15.4154V17.1654C48.5119 18.0798 47.6884 19.2009 47.1232 20.4554C46.558 21.7099 46.2639 23.0695 46.26 24.4454V24.4454Z" fill="#242122"/>
<path d="M114.93 18.8054L115.43 18.4154V14.1154C115.435 12.5151 114.807 10.9776 113.683 9.83851C112.559 8.69943 111.03 8.05124 109.43 8.0354H79.28C77.6797 8.05124 76.1507 8.69943 75.0266 9.83851C73.9025 10.9776 73.2746 12.5151 73.28 14.1154V18.4154L73.77 18.8054C74.5981 19.4477 75.2799 20.2591 75.77 21.1854C74.8171 23.404 74.2652 25.7741 74.14 28.1854C73.9426 28.2836 73.7763 28.4347 73.6598 28.6219C73.5433 28.8091 73.481 29.0249 73.48 29.2454C73.4806 29.4647 73.5427 29.6794 73.6594 29.8651C73.7761 30.0507 73.9426 30.1998 74.14 30.2954C74.2641 32.7069 74.8161 35.0771 75.77 37.2954C75.2825 38.2235 74.6003 39.0353 73.77 39.6754L73.28 40.0854V50.4454H115.47V40.1254L114.97 39.7154C114.14 39.0753 113.458 38.2635 112.97 37.3354C113.919 35.1159 114.467 32.746 114.59 30.3354C114.792 30.243 114.964 30.0944 115.084 29.9074C115.204 29.7203 115.268 29.5027 115.268 29.2804C115.268 29.0581 115.204 28.8405 115.084 28.6534C114.964 28.4664 114.792 28.3178 114.59 28.2254C114.472 25.8142 113.923 23.4435 112.97 21.2254C113.44 20.2863 114.109 19.4606 114.93 18.8054V18.8054ZM75.17 30.2254C75.3382 30.119 75.4763 29.9712 75.5709 29.7961C75.6654 29.6209 75.7133 29.4244 75.71 29.2254C75.7174 29.0257 75.6712 28.8277 75.5763 28.6518C75.4813 28.476 75.341 28.3288 75.17 28.2254C75.2547 26.3338 75.6256 24.4659 76.27 22.6854C76.405 23.2388 76.4754 23.8058 76.48 24.3754V34.0054C76.4754 34.575 76.405 35.1421 76.27 35.6954C75.6324 33.9372 75.2617 32.0934 75.17 30.2254V30.2254ZM112.8 43.1054C112.8 43.1054 112.8 47.8454 106.43 47.8454H82.23C75.91 47.8454 75.86 43.1054 75.86 43.1054V41.3554C76.8808 40.4373 77.6968 39.3146 78.2551 38.0603C78.8133 36.8061 79.1012 35.4483 79.1 34.0754V24.4454C79.1012 23.0725 78.8133 21.7147 78.2551 20.4605C77.6968 19.2062 76.8808 18.0835 75.86 17.1654V15.4154C75.86 15.4154 75.86 10.6754 82.23 10.6754H106.43C112.76 10.6754 112.8 15.4154 112.8 15.4154V17.1654C111.779 18.0835 110.963 19.2062 110.405 20.4605C109.847 21.7147 109.559 23.0725 109.56 24.4454V34.0754C109.559 35.4483 109.847 36.8061 110.405 38.0603C110.963 39.3146 111.779 40.4373 112.8 41.3554V43.1054ZM113.49 28.2954C113.32 28.4003 113.181 28.5478 113.087 28.7233C112.992 28.8988 112.945 29.0961 112.95 29.2954C112.944 29.4949 112.99 29.6926 113.085 29.8682C113.18 30.0439 113.32 30.1913 113.49 30.2954C113.399 32.1854 113.032 34.0518 112.4 35.8354C112.26 35.283 112.19 34.7153 112.19 34.1454V24.5154C112.19 23.9455 112.26 23.3778 112.4 22.8254C113.025 24.5867 113.392 26.4291 113.49 28.2954V28.2954Z" fill="#E2E2E2"/>
<path d="M109.6 24.4454V34.0754C109.599 35.4483 109.887 36.806 110.445 38.0603C111.003 39.3146 111.819 40.4373 112.84 41.3554V43.1054C112.84 43.1054 112.84 47.8454 106.47 47.8454H82.23C75.91 47.8454 75.86 43.1054 75.86 43.1054V41.3554C76.8808 40.4373 77.6968 39.3146 78.255 38.0603C78.8133 36.806 79.1012 35.4483 79.1 34.0754V24.4454C79.1012 23.0725 78.8133 21.7147 78.255 20.4604C77.6968 19.2062 76.8808 18.0835 75.86 17.1654V15.4154C75.86 15.4154 75.86 10.6754 82.23 10.6754H106.43C112.76 10.6754 112.8 15.4154 112.8 15.4154V17.1654C111.786 18.0871 110.978 19.2114 110.427 20.4655C109.875 21.7196 109.594 23.0755 109.6 24.4454V24.4454Z" fill="#242122"/>
<path d="M177.49 18.8054L177.99 18.4154V14.1154C177.995 12.5151 177.367 10.9776 176.243 9.83851C175.119 8.69943 173.59 8.05124 171.99 8.0354H141.84C140.24 8.05124 138.711 8.69943 137.587 9.83851C136.463 10.9776 135.835 12.5151 135.84 14.1154V18.4154L136.34 18.8054C137.163 19.4535 137.843 20.2635 138.34 21.1854C137.384 23.4035 136.829 25.7735 136.7 28.1854C136.503 28.2836 136.336 28.4347 136.22 28.6219C136.103 28.8091 136.041 29.0249 136.04 29.2454C136.041 29.4647 136.103 29.6794 136.219 29.8651C136.336 30.0507 136.503 30.1998 136.7 30.2954C136.828 32.7075 137.383 35.0777 138.34 37.2954C137.846 38.2191 137.165 39.0296 136.34 39.6754L135.84 40.0854V50.4454H178.03V40.1254L177.53 39.7154C176.718 39.0701 176.053 38.2586 175.58 37.3354C176.529 35.1159 177.077 32.746 177.2 30.3354C177.402 30.243 177.574 30.0944 177.694 29.9074C177.814 29.7203 177.878 29.5027 177.878 29.2804C177.878 29.0581 177.814 28.8405 177.694 28.6534C177.574 28.4664 177.402 28.3178 177.2 28.2254C177.082 25.8142 176.533 23.4435 175.58 21.2254C176.036 20.2911 176.687 19.4658 177.49 18.8054ZM137.74 30.2254C137.907 30.1177 138.044 29.9695 138.138 29.7947C138.233 29.6199 138.281 29.4241 138.28 29.2254C138.285 29.026 138.238 28.8288 138.143 28.6533C138.049 28.4778 137.91 28.3303 137.74 28.2254C137.826 26.3348 138.193 24.4677 138.83 22.6854C138.97 23.2378 139.04 23.8055 139.04 24.3754V34.0054C139.04 34.5753 138.97 35.143 138.83 35.6954C138.2 33.9354 137.833 32.0923 137.74 30.2254ZM175.37 43.1054C175.37 43.1054 175.32 47.8454 168.99 47.8454H144.8C138.47 47.8454 138.43 43.1054 138.43 43.1054V41.3554C139.447 40.4352 140.261 39.3119 140.817 38.0579C141.373 36.804 141.661 35.4473 141.66 34.0754V24.4454C141.661 23.0736 141.373 21.7168 140.817 20.4629C140.261 19.2089 139.447 18.0856 138.43 17.1654V15.4154C138.43 15.4154 138.43 10.6754 144.8 10.6754H168.99C175.32 10.6754 175.37 15.4154 175.37 15.4154V17.1654C174.349 18.0835 173.533 19.2062 172.975 20.4605C172.417 21.7147 172.129 23.0725 172.13 24.4454V34.0754C172.129 35.4483 172.417 36.8061 172.975 38.0603C173.533 39.3146 174.349 40.4373 175.37 41.3554V43.1054ZM176.05 28.2954C175.88 28.4003 175.741 28.5478 175.647 28.7233C175.552 28.8988 175.505 29.0961 175.51 29.2954C175.504 29.4949 175.55 29.6926 175.645 29.8682C175.74 30.0439 175.88 30.1913 176.05 30.2954C175.959 32.1854 175.592 34.0518 174.96 35.8354C174.825 35.2821 174.755 34.715 174.75 34.1454V24.5154C174.755 23.9458 174.825 23.3788 174.96 22.8254C175.585 24.5867 175.952 26.4291 176.05 28.2954V28.2954Z" fill="#E2E2E2"/>
<path d="M172.13 24.4454V34.0754C172.129 35.4483 172.417 36.806 172.975 38.0603C173.533 39.3146 174.349 40.4373 175.37 41.3554V43.1054C175.37 43.1054 175.32 47.8454 168.99 47.8454H144.8C138.47 47.8454 138.43 43.1054 138.43 43.1054V41.3554C139.447 40.4352 140.261 39.3119 140.817 38.0579C141.373 36.804 141.661 35.4472 141.66 34.0754V24.4454C141.661 23.0735 141.373 21.7168 140.817 20.4629C140.261 19.2089 139.447 18.0856 138.43 17.1654V15.4154C138.43 15.4154 138.43 10.6754 144.8 10.6754H168.99C175.32 10.6754 175.37 15.4154 175.37 15.4154V17.1654C174.349 18.0835 173.533 19.2062 172.975 20.4604C172.417 21.7147 172.129 23.0725 172.13 24.4454V24.4454Z" fill="#242122"/>
<path d="M30.72 403.855H17.5C17.353 403.855 17.2092 403.812 17.0865 403.731C16.9639 403.65 16.8678 403.534 16.8103 403.399C16.7527 403.263 16.7363 403.114 16.7629 402.97C16.7895 402.825 16.8581 402.691 16.96 402.585L18.96 400.505C19.218 400.234 19.5283 400.018 19.872 399.871C20.2157 399.723 20.5859 399.646 20.96 399.645H24.96C25.277 399.646 25.5842 399.755 25.83 399.955L30.72 403.855Z" fill="#707171" stroke="#E2E2E2" stroke-width="1.8" stroke-miterlimit="10"/>
<path d="M68.76 403.855H56.38L59.6 400.225C59.7513 400.053 59.9374 399.915 60.146 399.821C60.3546 399.726 60.5809 399.676 60.81 399.675H67.24C67.3631 399.681 67.4801 399.731 67.57 399.815L69.57 401.925C69.7156 402.089 69.8119 402.29 69.8479 402.506C69.8838 402.722 69.858 402.944 69.7733 403.146C69.6885 403.348 69.5484 403.521 69.3691 403.647C69.1898 403.772 68.9787 403.845 68.76 403.855Z" fill="#707171" stroke="#E2E2E2" stroke-width="1.8" stroke-miterlimit="10"/>
<path d="M73.6 406.275V446.225C73.5972 446.416 73.5539 446.604 73.4728 446.776C73.3918 446.949 73.2749 447.102 73.13 447.225L71.71 448.445C71.4656 448.657 71.1534 448.774 70.83 448.775H16.24C15.9074 448.772 15.5875 448.647 15.34 448.425L14.84 447.975C14.4369 447.607 14.1176 447.157 13.9037 446.655C13.6898 446.153 13.5862 445.611 13.6 445.065L13.75 406.145C13.7512 406.021 13.8015 405.903 13.89 405.815L15.38 404.275C15.5082 404.14 15.6634 404.032 15.8356 403.96C16.0078 403.887 16.1932 403.852 16.38 403.855H28.98C29.2889 403.857 29.5882 403.963 29.83 404.155L35.9 408.995C36.3158 409.412 36.8099 409.743 37.354 409.967C37.8981 410.192 38.4813 410.307 39.07 410.305H48.2C49.3881 410.304 50.5277 409.833 51.37 408.995L57.84 404.125C58.0793 403.954 58.3655 403.859 58.66 403.855H70.89C71.0765 403.853 71.2616 403.889 71.4336 403.961C71.6057 404.034 71.761 404.141 71.89 404.275L73.48 405.945C73.5221 405.989 73.5545 406.041 73.5752 406.098C73.5959 406.154 73.6043 406.215 73.6 406.275Z" fill="#1D1D1D" stroke="#E2E2E2" stroke-width="1.8" stroke-miterlimit="10"/>
<path d="M67.89 448.715L67.15 449.355C66.9017 449.567 66.5864 449.684 66.26 449.685H20.31C19.3596 449.679 18.4448 449.323 17.74 448.685V448.685C17.5322 448.502 17.3853 448.26 17.319 447.991C17.2527 447.721 17.2703 447.438 17.3692 447.18C17.4682 446.921 17.6439 446.698 17.8728 446.542C18.1017 446.386 18.3729 446.303 18.65 446.305H67C67.2824 446.3 67.5595 446.383 67.7928 446.542C68.026 446.701 68.2039 446.929 68.3018 447.194C68.3996 447.459 68.4125 447.748 68.3388 448.02C68.265 448.293 68.1081 448.536 67.89 448.715V448.715Z" fill="#707171" stroke="#E2E2E2" stroke-width="1.8" stroke-miterlimit="10"/>
<path d="M60.8 398.225C62.36 399.865 62.14 400.855 60.33 402.225L58.13 403.885L51.3 409.025C50.454 409.864 49.3112 410.335 48.12 410.335H38.99C38.4014 410.336 37.8186 410.221 37.2746 409.996C36.7307 409.771 36.2364 409.441 35.82 409.025L29.38 403.885L26.79 401.825C25.26 400.605 24.91 400.065 25.97 398.435L28.51 395.325C29.0056 394.837 29.674 394.564 30.37 394.565H56.6C57.2912 394.563 57.9558 394.832 58.45 395.315L60.8 398.225Z" fill="#3A3A3A" stroke="#E2E2E2" stroke-width="1.8" stroke-miterlimit="10"/>
<path d="M91.8 394.915H165.11C165.661 394.916 166.19 395.135 166.58 395.525C166.58 395.525 167.75 396.705 167.46 396.405" stroke="#E2E2E2" stroke-width="1.8" stroke-miterlimit="10"/>
<path d="M96.04 394.915C96.26 394.915 96.27 395.155 96.1 395.295C94.35 396.775 86.34 397.045 83.4 397.075C72.97 397.175 80.3 399.525 64.4 399.665C68.07 399.275 73.84 399.585 73.87 394.955L96.04 394.915Z" stroke="#E2E2E2" stroke-width="1.8" stroke-miterlimit="10"/>
<path d="M64.38 399.665H64.37" stroke="#E2E2E2" stroke-width="1.8" stroke-miterlimit="10"/>
<path d="M83.1065 434.014L82.9368 433.844C81.9566 432.864 80.3674 432.864 79.3871 433.844L79.2174 434.014C78.2372 434.994 78.2372 436.583 79.2174 437.564L79.3871 437.733C80.3674 438.714 81.9566 438.714 82.9368 437.733L83.1065 437.564C84.0867 436.583 84.0867 434.994 83.1065 434.014Z" fill="#4D4B4B" stroke="#E2E2E2" stroke-width="0.5" stroke-miterlimit="10"/>
<path d="M91.5828 434.01L91.4131 433.841C90.4329 432.86 88.8436 432.86 87.8634 433.841L87.6937 434.01C86.7135 434.99 86.7135 436.58 87.6937 437.56L87.8634 437.73C88.8436 438.71 90.4329 438.71 91.4131 437.73L91.5828 437.56C92.563 436.58 92.563 434.99 91.5828 434.01Z" fill="#4D4B4B" stroke="#E2E2E2" stroke-width="0.5" stroke-miterlimit="10"/>
<path d="M106.88 432.805H95.36V438.975H106.88V432.805Z" fill="#5C5C5C"/>
<path d="M83.1021 426.038L82.9324 425.869C81.9522 424.888 80.363 424.888 79.3828 425.869L79.213 426.038C78.2328 427.019 78.2329 428.608 79.2131 429.588L79.3828 429.758C80.363 430.738 81.9522 430.738 82.9324 429.758L83.1022 429.588C84.0824 428.608 84.0824 427.019 83.1021 426.038Z" fill="#4D4B4B" stroke="#E2E2E2" stroke-width="0.5" stroke-miterlimit="10"/>
<path d="M91.5784 426.045L91.4087 425.875C90.4285 424.895 88.8393 424.895 87.859 425.875L87.6893 426.045C86.7091 427.025 86.7091 428.614 87.6893 429.594L87.859 429.764C88.8393 430.744 90.4285 430.744 91.4087 429.764L91.5784 429.594C92.5586 428.614 92.5586 427.025 91.5784 426.045Z" fill="#4D4B4B" stroke="#E2E2E2" stroke-width="0.5" stroke-miterlimit="10"/>
<path d="M106.88 424.635H95.36V430.805H106.88V424.635Z" fill="#5C5C5C"/>
<path d="M83.1049 418.066L82.9352 417.896C81.955 416.916 80.3657 416.916 79.3855 417.896L79.2158 418.066C78.2356 419.046 78.2356 420.635 79.2158 421.615L79.3855 421.785C80.3657 422.765 81.955 422.765 82.9352 421.785L83.1049 421.615C84.0851 420.635 84.0851 419.046 83.1049 418.066Z" fill="#4D4B4B" stroke="#E2E2E2" stroke-width="0.5" stroke-miterlimit="10"/>
<path d="M91.5811 418.062L91.4114 417.892C90.4312 416.912 88.842 416.912 87.8618 417.892L87.6921 418.062C86.7118 419.042 86.7118 420.631 87.692 421.612L87.8618 421.781C88.842 422.762 90.4312 422.762 91.4114 421.781L91.5811 421.612C92.5613 420.631 92.5614 419.042 91.5811 418.062Z" fill="#4D4B4B" stroke="#E2E2E2" stroke-width="0.5" stroke-miterlimit="10"/>
<path d="M106.88 416.655H95.36V422.825H106.88V416.655Z" fill="#5C5C5C"/>
<path d="M83.1076 410.083L82.9379 409.913C81.9576 408.933 80.3684 408.933 79.3882 409.913L79.2185 410.083C78.2383 411.063 78.2383 412.652 79.2185 413.633L79.3882 413.802C80.3684 414.783 81.9576 414.783 82.9379 413.802L83.1076 413.633C84.0878 412.652 84.0878 411.063 83.1076 410.083Z" fill="#4D4B4B" stroke="#E2E2E2" stroke-width="0.5" stroke-miterlimit="10"/>
<path d="M91.5838 410.079L91.4141 409.909C90.4339 408.929 88.8447 408.929 87.8644 409.909L87.6947 410.079C86.7145 411.059 86.7145 412.649 87.6947 413.629L87.8644 413.799C88.8447 414.779 90.4339 414.779 91.4141 413.799L91.5838 413.629C92.564 412.649 92.564 411.059 91.5838 410.079Z" fill="#4D4B4B" stroke="#E2E2E2" stroke-width="0.5" stroke-miterlimit="10"/>
<path d="M106.88 408.675H95.36V414.845H106.88V408.675Z" fill="#5C5C5C"/>
<path d="M87.9306 403.419L85.7457 401.234C85.4879 400.976 85.0701 400.976 84.8123 401.234L82.6273 403.419C82.3696 403.676 82.3696 404.094 82.6274 404.352L84.8123 406.537C85.0701 406.795 85.4879 406.795 85.7457 406.537L87.9307 404.352C88.1884 404.094 88.1884 403.676 87.9306 403.419Z" fill="#4D4B4B" stroke="#E2E2E2" stroke-width="0.5" stroke-miterlimit="10"/>
<path d="M106.88 400.695H95.36V406.865H106.88V400.695Z" fill="#5C5C5C"/>
<path d="M31.03 340.035H17.81C17.663 340.033 17.5199 339.987 17.3981 339.905C17.2763 339.822 17.1811 339.706 17.1239 339.571C17.0667 339.435 17.0501 339.286 17.0761 339.142C17.102 338.997 17.1694 338.863 17.27 338.755L19.27 336.685C19.5294 336.416 19.8399 336.202 20.1833 336.054C20.5268 335.906 20.8962 335.829 21.27 335.825H25.27C25.5817 335.829 25.8837 335.934 26.13 336.125L31.03 340.035Z" fill="#707171" stroke="#E2E2E2" stroke-width="1.8" stroke-miterlimit="10"/>
<path d="M69.07 340.035H56.69L59.93 336.375C60.0785 336.203 60.2627 336.064 60.4698 335.969C60.6769 335.874 60.9022 335.825 61.13 335.825H67.6C67.6617 335.825 67.7228 335.837 67.7795 335.861C67.8363 335.885 67.8875 335.921 67.93 335.965L69.93 338.075C70.0878 338.241 70.1931 338.45 70.2327 338.675C70.2723 338.9 70.2443 339.132 70.1524 339.342C70.0605 339.551 69.9087 339.729 69.7161 339.852C69.5235 339.976 69.2987 340.039 69.07 340.035V340.035Z" fill="#707171" stroke="#E2E2E2" stroke-width="1.8" stroke-miterlimit="10"/>
<path d="M73.91 342.455V382.355C73.9066 382.546 73.863 382.733 73.782 382.906C73.701 383.078 73.5844 383.231 73.44 383.355L72.03 384.565C71.783 384.78 71.4668 384.897 71.14 384.895H16.6C16.2653 384.897 15.9416 384.776 15.69 384.555L15.19 384.105C14.7744 383.749 14.4405 383.307 14.211 382.81C13.9815 382.313 13.8618 381.773 13.86 381.225L14.01 342.305C14.0112 342.181 14.0616 342.063 14.15 341.975L15.6 340.455C15.7282 340.32 15.8834 340.212 16.0556 340.14C16.2278 340.067 16.4132 340.032 16.6 340.035H29.29C29.5997 340.033 29.9006 340.139 30.14 340.335L36.21 345.165C36.6246 345.584 37.1183 345.917 37.6625 346.143C38.2067 346.37 38.7905 346.486 39.38 346.485H48.51C49.1008 346.485 49.6858 346.369 50.2315 346.142C50.7772 345.916 51.2729 345.584 51.69 345.165L58.16 340.305C58.3947 340.132 58.6782 340.038 58.97 340.035H71.21C71.3966 340.032 71.5819 340.068 71.754 340.141C71.9261 340.213 72.0814 340.32 72.21 340.455L73.8 342.115C73.88 342.21 73.9195 342.332 73.91 342.455V342.455Z" fill="#1D1D1D" stroke="#E2E2E2" stroke-width="1.8" stroke-miterlimit="10"/>
<path d="M68.2 384.895L67.46 385.535C67.2147 385.744 66.9023 385.858 66.58 385.855H20.6C19.6525 385.849 18.7408 385.493 18.04 384.855V384.855C17.8311 384.674 17.6828 384.433 17.6152 384.165C17.5476 383.897 17.564 383.615 17.6622 383.356C17.7604 383.098 17.9356 382.875 18.1641 382.72C18.3927 382.564 18.6635 382.482 18.94 382.485H67.32C67.6016 382.482 67.8771 382.566 68.1088 382.726C68.3404 382.886 68.5167 383.114 68.6133 383.379C68.7099 383.643 68.722 383.931 68.6479 384.203C68.5739 384.475 68.4174 384.717 68.2 384.895V384.895Z" fill="#707171" stroke="#E2E2E2" stroke-width="1.8" stroke-miterlimit="10"/>
<path d="M61.12 334.385C62.67 336.025 62.45 337.015 60.65 338.385L58.44 340.045L51.6 345.165C51.1829 345.584 50.6872 345.916 50.1416 346.142C49.5959 346.369 49.0108 346.485 48.42 346.485H39.31C38.7188 346.488 38.1332 346.372 37.5872 346.145C37.0412 345.919 36.5458 345.586 36.13 345.165L29.69 340.035L27.1 337.965C25.57 336.755 25.22 336.215 26.29 334.585L28.82 331.475C29.3168 330.989 29.9845 330.716 30.68 330.715H56.95C57.6441 330.713 58.3116 330.982 58.81 331.465L61.12 334.385Z" fill="#3A3A3A" stroke="#E2E2E2" stroke-width="1.8" stroke-miterlimit="10"/>
<path d="M92.12 331.095H165.42C165.971 331.096 166.5 331.315 166.89 331.705L167.77 332.585" stroke="#E2E2E2" stroke-width="1.8" stroke-miterlimit="10"/>
<path d="M96.35 331.095C96.57 331.095 96.58 331.325 96.41 331.475C94.66 332.955 86.65 333.225 83.71 333.255C73.28 333.355 80.61 335.705 64.71 335.835C68.38 335.455 74.15 335.765 74.18 331.125L96.35 331.095Z" stroke="#E2E2E2" stroke-width="1.8" stroke-miterlimit="10"/>
<path d="M64.69 335.835H64.68" stroke="#E2E2E2" stroke-width="1.8" stroke-miterlimit="10"/>
<path d="M83.1082 378.322L82.9385 378.153C81.9583 377.172 80.369 377.172 79.3888 378.153L79.2191 378.322C78.2389 379.303 78.2389 380.892 79.2191 381.872L79.3888 382.042C80.369 383.022 81.9583 383.022 82.9385 382.042L83.1082 381.872C84.0884 380.892 84.0884 379.303 83.1082 378.322Z" fill="#4D4B4B" stroke="#E2E2E2" stroke-width="0.5" stroke-miterlimit="10"/>
<path d="M91.5915 378.326L91.4218 378.156C90.4416 377.176 88.8523 377.176 87.8721 378.156L87.7024 378.326C86.7222 379.306 86.7222 380.895 87.7024 381.875L87.8721 382.045C88.8523 383.025 90.4416 383.025 91.4218 382.045L91.5915 381.875C92.5717 380.895 92.5717 379.306 91.5915 378.326Z" fill="#4D4B4B" stroke="#E2E2E2" stroke-width="0.5" stroke-miterlimit="10"/>
<path d="M106.88 377.015H95.36V383.185H106.88V377.015Z" fill="#5C5C5C"/>
<path d="M83.1109 370.35L82.9412 370.18C81.961 369.2 80.3718 369.2 79.3915 370.18L79.2218 370.35C78.2416 371.33 78.2416 372.919 79.2218 373.899L79.3915 374.069C80.3718 375.049 81.961 375.049 82.9412 374.069L83.1109 373.899C84.0911 372.919 84.0911 371.33 83.1109 370.35Z" fill="#4D4B4B" stroke="#E2E2E2" stroke-width="0.5" stroke-miterlimit="10"/>
<path d="M91.5943 370.353L91.4246 370.183C90.4443 369.203 88.8551 369.203 87.8749 370.183L87.7052 370.353C86.725 371.333 86.725 372.922 87.7052 373.903L87.8749 374.072C88.8551 375.053 90.4443 375.053 91.4246 374.072L91.5943 373.903C92.5745 372.922 92.5745 371.333 91.5943 370.353Z" fill="#4D4B4B" stroke="#E2E2E2" stroke-width="0.5" stroke-miterlimit="10"/>
<path d="M106.88 369.235H95.36V375.405H106.88V369.235Z" fill="#5C5C5C"/>
<path d="M83.1136 362.367L82.9439 362.197C81.9637 361.217 80.3745 361.217 79.3942 362.197L79.2245 362.367C78.2443 363.347 78.2443 364.936 79.2245 365.917L79.3942 366.086C80.3745 367.066 81.9637 367.067 82.9439 366.086L83.1136 365.917C84.0938 364.936 84.0938 363.347 83.1136 362.367Z" fill="#4D4B4B" stroke="#E2E2E2" stroke-width="0.5" stroke-miterlimit="10"/>
<path d="M91.5969 362.37L91.4272 362.2C90.447 361.22 88.8578 361.22 87.8776 362.2L87.7079 362.37C86.7276 363.35 86.7277 364.94 87.7079 365.92L87.8776 366.09C88.8578 367.07 90.447 367.07 91.4272 366.09L91.597 365.92C92.5772 364.94 92.5772 363.35 91.5969 362.37Z" fill="#4D4B4B" stroke="#E2E2E2" stroke-width="0.5" stroke-miterlimit="10"/>
<path d="M106.88 361.065H95.36V367.235H106.88V361.065Z" fill="#5C5C5C"/>
<path d="M83.1093 354.391L82.9396 354.221C81.9594 353.241 80.3701 353.241 79.3899 354.221L79.2202 354.391C78.24 355.371 78.24 356.961 79.2202 357.941L79.3899 358.111C80.3701 359.091 81.9594 359.091 82.9396 358.111L83.1093 357.941C84.0895 356.961 84.0895 355.371 83.1093 354.391Z" fill="#4D4B4B" stroke="#E2E2E2" stroke-width="0.5" stroke-miterlimit="10"/>
<path d="M91.5926 354.405L91.4229 354.235C90.4427 353.255 88.8535 353.255 87.8732 354.235L87.7035 354.405C86.7233 355.385 86.7233 356.974 87.7035 357.954L87.8732 358.124C88.8535 359.104 90.4427 359.104 91.4229 358.124L91.5926 357.954C92.5728 356.974 92.5728 355.385 91.5926 354.405Z" fill="#4D4B4B" stroke="#E2E2E2" stroke-width="0.5" stroke-miterlimit="10"/>
<path d="M106.88 353.085H95.36V359.255H106.88V353.085Z" fill="#5C5C5C"/>
<path d="M83.112 346.419L82.9423 346.249C81.962 345.269 80.3728 345.269 79.3926 346.249L79.2229 346.419C78.2427 347.399 78.2427 348.988 79.2229 349.968L79.3926 350.138C80.3728 351.118 81.962 351.118 82.9423 350.138L83.112 349.968C84.0922 348.988 84.0922 347.399 83.112 346.419Z" fill="#4D4B4B" stroke="#E2E2E2" stroke-width="0.5" stroke-miterlimit="10"/>
<path d="M91.5953 346.422L91.4256 346.252C90.4454 345.272 88.8561 345.272 87.8759 346.252L87.7062 346.422C86.726 347.402 86.726 348.991 87.7062 349.972L87.8759 350.141C88.8561 351.121 90.4454 351.121 91.4256 350.141L91.5953 349.972C92.5755 348.991 92.5755 347.402 91.5953 346.422Z" fill="#4D4B4B" stroke="#E2E2E2" stroke-width="0.5" stroke-miterlimit="10"/>
<path d="M106.88 345.115H95.36V351.285H106.88V345.115Z" fill="#5C5C5C"/>
<path d="M87.9492 339.744L85.7642 337.559C85.5065 337.302 85.0886 337.302 84.8309 337.559L82.6459 339.744C82.3881 340.002 82.3881 340.42 82.6459 340.678L84.8309 342.863C85.0886 343.12 85.5065 343.12 85.7642 342.863L87.9492 340.678C88.2069 340.42 88.2069 340.002 87.9492 339.744Z" fill="#4D4B4B" stroke="#E2E2E2" stroke-width="0.5" stroke-miterlimit="10"/>
<path d="M106.88 337.135H95.36V343.305H106.88V337.135Z" fill="#5C5C5C"/>
<path d="M30.75 275.595H17.53C17.3821 275.595 17.2377 275.551 17.1144 275.469C16.9911 275.387 16.8943 275.271 16.836 275.135C16.7776 275 16.7601 274.85 16.7857 274.704C16.8113 274.558 16.8788 274.423 16.98 274.315L18.98 272.245C19.2394 271.976 19.5499 271.762 19.8933 271.614C20.2367 271.466 20.6062 271.389 20.98 271.385H24.98C25.2949 271.388 25.6003 271.494 25.85 271.685L30.75 275.595Z" fill="#707171" stroke="#E2E2E2" stroke-width="1.8" stroke-miterlimit="10"/>
<path d="M68.79 275.595H56.41L59.6 271.925C59.753 271.756 59.9397 271.621 60.148 271.528C60.3564 271.435 60.5818 271.386 60.81 271.385H67.23C67.3551 271.387 67.4755 271.433 67.57 271.515L69.57 273.625C69.7224 273.787 69.8256 273.989 69.8674 274.208C69.9092 274.426 69.888 274.652 69.8061 274.858C69.7243 275.065 69.5852 275.244 69.4053 275.375C69.2253 275.505 69.0119 275.582 68.79 275.595Z" fill="#707171" stroke="#E2E2E2" stroke-width="1.8" stroke-miterlimit="10"/>
<path d="M73.6 278.005V317.915C73.596 318.107 73.5511 318.295 73.4683 318.467C73.3855 318.64 73.2668 318.793 73.12 318.915L71.71 320.125C71.4617 320.337 71.1464 320.454 70.82 320.455H16.27C15.9386 320.456 15.6186 320.335 15.37 320.115L14.86 319.665C14.4537 319.299 14.1289 318.852 13.9066 318.353C13.6844 317.853 13.5697 317.312 13.57 316.765L13.72 277.855C13.7195 277.793 13.7326 277.731 13.7585 277.674C13.7844 277.617 13.8225 277.566 13.87 277.525L15.35 275.975C15.4809 275.844 15.6368 275.74 15.8085 275.669C15.9803 275.599 16.1644 275.564 16.35 275.565H29.01C29.3179 275.564 29.6173 275.666 29.86 275.855L35.92 280.695C36.337 281.113 36.8328 281.444 37.3787 281.669C37.9245 281.894 38.5096 282.008 39.1 282.005H48.22C48.8104 282.008 49.3955 281.894 49.9414 281.669C50.4872 281.444 50.983 281.113 51.4 280.695L57.87 275.835C58.1061 275.657 58.3944 275.562 58.69 275.565H70.92C71.1064 275.564 71.2911 275.601 71.463 275.673C71.6349 275.745 71.7903 275.852 71.92 275.985L73.5 277.645C73.5433 277.694 73.5749 277.751 73.5922 277.814C73.6096 277.876 73.6123 277.942 73.6 278.005V278.005Z" fill="#1D1D1D" stroke="#E2E2E2" stroke-width="1.8" stroke-miterlimit="10"/>
<path d="M67.92 320.455L67.18 321.085C66.9317 321.297 66.6163 321.414 66.29 321.415H20.34C19.3896 321.409 18.4748 321.053 17.77 320.415V320.415C17.5658 320.231 17.4222 319.99 17.3582 319.722C17.2941 319.455 17.3126 319.175 17.4111 318.918C17.5097 318.661 17.6836 318.441 17.9102 318.285C18.1367 318.129 18.4051 318.046 18.68 318.045H67.03C67.3124 318.04 67.5894 318.123 67.8227 318.282C68.056 318.441 68.2339 318.669 68.3317 318.934C68.4296 319.199 68.4425 319.488 68.3687 319.76C68.2949 320.033 68.1381 320.276 67.92 320.455V320.455Z" fill="#707171" stroke="#E2E2E2" stroke-width="1.8" stroke-miterlimit="10"/>
<path d="M60.83 269.945C62.39 271.585 62.17 272.575 60.36 273.945L58.16 275.605L51.32 280.735C50.9042 281.152 50.41 281.483 49.8659 281.707C49.3219 281.932 48.7387 282.047 48.15 282.045H39.02C38.4296 282.048 37.8445 281.934 37.2986 281.709C36.7527 281.484 36.2569 281.153 35.84 280.735L29.41 275.605L26.81 273.535C25.29 272.325 24.94 271.785 26 270.155L28.53 267.035C29.0217 266.529 29.6941 266.238 30.4 266.225H56.67C57.3608 266.225 58.0246 266.494 58.52 266.975L60.83 269.945Z" fill="#3A3A3A" stroke="#E2E2E2" stroke-width="1.8" stroke-miterlimit="10"/>
<path d="M91.83 266.645H165.14C165.684 266.64 166.208 266.849 166.6 267.225L167.48 268.105" stroke="#E2E2E2" stroke-width="1.8" stroke-miterlimit="10"/>
<path d="M96.07 266.645C96.29 266.645 96.29 266.885 96.07 267.035C94.33 268.515 86.31 268.785 83.38 268.805C72.94 268.905 80.27 271.265 64.38 271.395C68.04 271.015 73.81 271.325 73.84 266.685L96.07 266.645Z" stroke="#E2E2E2" stroke-width="1.8" stroke-miterlimit="10"/>
<path d="M64.41 271.395H64.4" stroke="#E2E2E2" stroke-width="1.8" stroke-miterlimit="10"/>
<path d="M82.8093 317.101L82.6396 316.931C81.6594 315.951 80.0701 315.951 79.0899 316.931L78.9202 317.101C77.94 318.081 77.94 319.671 78.9202 320.651L79.0899 320.82C80.0701 321.801 81.6594 321.801 82.6396 320.82L82.8093 320.651C83.7895 319.671 83.7895 318.081 82.8093 317.101Z" fill="#4D4B4B" stroke="#E2E2E2" stroke-width="0.5" stroke-miterlimit="10"/>
<path d="M91.2956 317.097L91.1258 316.928C90.1456 315.947 88.5564 315.947 87.5762 316.928L87.4065 317.097C86.4263 318.078 86.4262 319.667 87.4065 320.647L87.5762 320.817C88.5564 321.797 90.1456 321.797 91.1258 320.817L91.2955 320.647C92.2758 319.667 92.2758 318.078 91.2956 317.097Z" fill="#4D4B4B" stroke="#E2E2E2" stroke-width="0.5" stroke-miterlimit="10"/>
<path d="M106.92 315.595H95.4V321.765H106.92V315.595Z" fill="#5C5C5C"/>
<path d="M82.818 309.552L82.6483 309.383C81.668 308.403 80.0788 308.403 79.0986 309.383L78.9289 309.552C77.9487 310.533 77.9486 312.122 78.9289 313.102L79.0986 313.272C80.0788 314.252 81.668 314.252 82.6483 313.272L82.818 313.102C83.7982 312.122 83.7982 310.533 82.818 309.552Z" fill="#4D4B4B" stroke="#E2E2E2" stroke-width="0.5" stroke-miterlimit="10"/>
<path d="M91.2942 309.549L91.1245 309.379C90.1443 308.399 88.555 308.399 87.5748 309.379L87.4051 309.549C86.4249 310.529 86.4249 312.118 87.4051 313.098L87.5748 313.268C88.555 314.248 90.1443 314.248 91.1245 313.268L91.2942 313.098C92.2744 312.118 92.2744 310.529 91.2942 309.549Z" fill="#4D4B4B" stroke="#E2E2E2" stroke-width="0.5" stroke-miterlimit="10"/>
<path d="M106.92 308.055H95.4V314.225H106.92V308.055Z" fill="#5C5C5C"/>
<path d="M82.9303 302.016L82.7606 301.846C81.7803 300.866 80.1911 300.866 79.2109 301.846L79.0412 302.016C78.061 302.996 78.061 304.585 79.0412 305.565L79.2109 305.735C80.1911 306.715 81.7803 306.715 82.7606 305.735L82.9303 305.565C83.9105 304.585 83.9105 302.996 82.9303 302.016Z" fill="#4D4B4B" stroke="#E2E2E2" stroke-width="0.5" stroke-miterlimit="10"/>
<path d="M91.4135 302.019L91.2438 301.849C90.2636 300.869 88.6744 300.869 87.6941 301.849L87.5245 302.019C86.5442 302.999 86.5442 304.588 87.5244 305.569L87.6941 305.738C88.6744 306.719 90.2636 306.719 91.2438 305.738L91.4135 305.569C92.3937 304.588 92.3938 302.999 91.4135 302.019Z" fill="#4D4B4B" stroke="#E2E2E2" stroke-width="0.5" stroke-miterlimit="10"/>
<path d="M106.92 300.525H95.4V306.695H106.92V300.525Z" fill="#5C5C5C"/>
<path d="M82.9279 294.738L82.7582 294.568C81.778 293.588 80.1888 293.588 79.2086 294.568L79.0389 294.738C78.0586 295.718 78.0586 297.307 79.0388 298.288L79.2086 298.457C80.1888 299.438 81.778 299.438 82.7582 298.457L82.9279 298.288C83.9082 297.307 83.9082 295.718 82.9279 294.738Z" fill="#4D4B4B" stroke="#E2E2E2" stroke-width="0.5" stroke-miterlimit="10"/>
<path d="M91.4113 294.741L91.2416 294.572C90.2614 293.591 88.6722 293.591 87.692 294.572L87.5223 294.741C86.542 295.722 86.542 297.311 87.5222 298.291L87.692 298.461C88.6722 299.441 90.2614 299.441 91.2416 298.461L91.4113 298.291C92.3916 297.311 92.3916 295.722 91.4113 294.741Z" fill="#4D4B4B" stroke="#E2E2E2" stroke-width="0.5" stroke-miterlimit="10"/>
<path d="M106.92 292.925H95.4V299.095H106.92V292.925Z" fill="#5C5C5C"/>
<path d="M82.9244 287.082L82.7547 286.912C81.7745 285.932 80.1852 285.932 79.205 286.912L79.0353 287.082C78.0551 288.062 78.0551 289.651 79.0353 290.631L79.205 290.801C80.1852 291.781 81.7745 291.781 82.7547 290.801L82.9244 290.631C83.9046 289.651 83.9046 288.062 82.9244 287.082Z" fill="#4D4B4B" stroke="#E2E2E2" stroke-width="0.5" stroke-miterlimit="10"/>
<path d="M91.4177 287.085L91.248 286.915C90.2678 285.935 88.6786 285.935 87.6984 286.915L87.5287 287.085C86.5484 288.065 86.5484 289.654 87.5287 290.635L87.6984 290.804C88.6786 291.784 90.2678 291.784 91.248 290.804L91.4177 290.635C92.398 289.654 92.398 288.065 91.4177 287.085Z" fill="#4D4B4B" stroke="#E2E2E2" stroke-width="0.5" stroke-miterlimit="10"/>
<path d="M106.92 285.575H95.4V291.745H106.92V285.575Z" fill="#5C5C5C"/>
<path d="M82.9813 279.549L82.8116 279.38C81.8314 278.4 80.2422 278.4 79.262 279.38L79.0923 279.549C78.112 280.53 78.112 282.119 79.0923 283.099L79.262 283.269C80.2422 284.249 81.8314 284.249 82.8116 283.269L82.9813 283.099C83.9616 282.119 83.9616 280.53 82.9813 279.549Z" fill="#4D4B4B" stroke="#E2E2E2" stroke-width="0.5" stroke-miterlimit="10"/>
<path d="M91.4676 279.546L91.2979 279.376C90.3177 278.396 88.7284 278.396 87.7482 279.376L87.5785 279.546C86.5983 280.526 86.5983 282.115 87.5785 283.095L87.7482 283.265C88.7284 284.245 90.3177 284.245 91.2979 283.265L91.4676 283.095C92.4478 282.115 92.4478 280.526 91.4676 279.546Z" fill="#4D4B4B" stroke="#E2E2E2" stroke-width="0.5" stroke-miterlimit="10"/>
<path d="M106.92 278.045H95.4V284.215H106.92V278.045Z" fill="#5C5C5C"/>
<path d="M87.8231 273.497L85.6381 271.312C85.3804 271.054 84.9625 271.054 84.7048 271.312L82.5198 273.497C82.2621 273.754 82.262 274.172 82.5198 274.43L84.7048 276.615C84.9625 276.873 85.3804 276.873 85.6381 276.615L87.8231 274.43C88.0808 274.172 88.0808 273.754 87.8231 273.497Z" fill="#4D4B4B" stroke="#E2E2E2" stroke-width="0.5" stroke-miterlimit="10"/>
<path d="M106.53 270.685H95.01V276.855H106.53V270.685Z" fill="#5C5C5C"/>
<path d="M29.73 211.225H16.51C16.3609 211.227 16.2147 211.185 16.0899 211.103C15.9651 211.021 15.8675 210.904 15.8096 210.767C15.7516 210.63 15.7359 210.478 15.7645 210.332C15.7931 210.185 15.8646 210.051 15.97 209.945L17.97 207.875C18.228 207.604 18.5382 207.389 18.882 207.241C19.2257 207.093 19.5958 207.016 19.97 207.015H23.97C24.2851 207.017 24.591 207.122 24.84 207.315L29.73 211.225Z" fill="#707171" stroke="#E2E2E2" stroke-width="1.8" stroke-miterlimit="10"/>
<path d="M67.77 211.225H55.39L58.6 207.565C58.7513 207.393 58.9374 207.255 59.146 207.161C59.3546 207.066 59.5809 207.016 59.81 207.015H66.24C66.3642 207.017 66.4828 207.067 66.57 207.155L68.6 209.225C68.7699 209.387 68.8868 209.596 68.9353 209.826C68.9838 210.055 68.9617 210.294 68.8718 210.51C68.782 210.727 68.6286 210.911 68.4319 211.039C68.2352 211.167 68.0044 211.232 67.77 211.225V211.225Z" fill="#707171" stroke="#E2E2E2" stroke-width="1.8" stroke-miterlimit="10"/>
<path d="M72.6 213.645V253.545C72.5966 253.736 72.553 253.923 72.472 254.096C72.391 254.268 72.2744 254.421 72.13 254.545L70.71 255.765C70.4647 255.975 70.1523 256.088 69.83 256.085H15.25C14.9186 256.086 14.5985 255.965 14.35 255.745L13.85 255.295C13.4406 254.934 13.113 254.489 12.8889 253.99C12.6647 253.492 12.5492 252.952 12.55 252.405L12.7 213.485C12.7049 213.36 12.7588 213.242 12.85 213.155L14.33 211.615C14.4586 211.48 14.6138 211.373 14.786 211.301C14.9581 211.228 15.1433 211.193 15.33 211.195H27.99C28.2997 211.193 28.6006 211.299 28.84 211.495L34.9 216.335C35.7447 217.176 36.8884 217.647 38.08 217.645H47.21C48.3982 217.644 49.5377 217.174 50.38 216.335L56.85 211.465C57.0884 211.292 57.3752 211.198 57.67 211.195H69.9C70.0866 211.193 70.2716 211.229 70.4437 211.301C70.6157 211.374 70.771 211.481 70.9 211.615L72.49 213.275C72.5335 213.326 72.5658 213.385 72.5847 213.449C72.6037 213.512 72.6089 213.58 72.6 213.645V213.645Z" fill="#1D1D1D" stroke="#E2E2E2" stroke-width="1.8" stroke-miterlimit="10"/>
<path d="M66.9 256.085L66.16 256.725C65.9107 256.934 65.5953 257.048 65.27 257.045H19.32C18.3696 257.039 17.4548 256.683 16.75 256.045V256.045C16.5459 255.861 16.4023 255.62 16.3382 255.352C16.2742 255.085 16.2926 254.805 16.3912 254.548C16.4897 254.291 16.6637 254.071 16.8902 253.915C17.1167 253.759 17.3851 253.676 17.66 253.675H66.01C66.2924 253.67 66.5695 253.753 66.8027 253.912C67.036 254.071 67.2139 254.299 67.3118 254.564C67.4096 254.829 67.4225 255.118 67.3487 255.391C67.275 255.663 67.1181 255.906 66.9 256.085V256.085Z" fill="#707171" stroke="#E2E2E2" stroke-width="1.8" stroke-miterlimit="10"/>
<path d="M59.81 205.575C61.37 207.215 61.15 208.205 59.34 209.575L57.14 211.225L50.3 216.365C49.8835 216.781 49.3892 217.111 48.8453 217.336C48.3014 217.561 47.7185 217.676 47.13 217.675H38C37.4114 217.676 36.8286 217.561 36.2846 217.336C35.7407 217.111 35.2464 216.781 34.83 216.365L28.39 211.225L25.8 209.155C24.27 207.945 23.92 207.405 24.98 205.775L27.52 202.665C28.0156 202.177 28.684 201.904 29.38 201.905H55.65C56.3413 201.903 57.0058 202.172 57.5 202.655L59.81 205.575Z" fill="#3A3A3A" stroke="#E2E2E2" stroke-width="1.8" stroke-miterlimit="10"/>
<path d="M90.81 202.285H164.12C164.671 202.286 165.2 202.505 165.59 202.895L166.47 203.775" stroke="#E2E2E2" stroke-width="1.8" stroke-miterlimit="10"/>
<path d="M95.05 202.285C95.27 202.285 95.28 202.515 95.11 202.665C93.36 204.145 85.35 204.415 82.41 204.445C71.97 204.545 79.31 206.895 63.41 207.035C67.08 206.645 72.85 206.955 72.88 202.315L95.05 202.285Z" stroke="#E2E2E2" stroke-width="1.8" stroke-miterlimit="10"/>
<path d="M63.39 207.035H63.38" stroke="#E2E2E2" stroke-width="1.8" stroke-miterlimit="10"/>
<path d="M83.0451 217.451L82.8754 217.281C81.8952 216.301 80.306 216.301 79.3257 217.281L79.156 217.451C78.1758 218.431 78.1758 220.02 79.156 221L79.3257 221.17C80.306 222.15 81.8952 222.15 82.8754 221.17L83.0451 221C84.0253 220.02 84.0253 218.431 83.0451 217.451Z" fill="#4D4B4B" stroke="#E2E2E2" stroke-width="0.5" stroke-miterlimit="10"/>
<path d="M91.5407 217.562L91.371 217.392C90.3908 216.412 88.8015 216.412 87.8213 217.392L87.6516 217.562C86.6714 218.542 86.6714 220.131 87.6516 221.111L87.8213 221.281C88.8015 222.261 90.3908 222.261 91.371 221.281L91.5407 221.111C92.5209 220.131 92.5209 218.542 91.5407 217.562Z" fill="#4D4B4B" stroke="#E2E2E2" stroke-width="0.5" stroke-miterlimit="10"/>
<path d="M106.98 216.255H95.46V222.425H106.98V216.255Z" fill="#5C5C5C"/>
<path d="M87.8782 210.776L85.6933 208.591C85.4355 208.334 85.0176 208.334 84.7599 208.591L82.5749 210.776C82.3172 211.034 82.3172 211.452 82.5749 211.71L84.7599 213.895C85.0176 214.152 85.4355 214.152 85.6933 213.895L87.8782 211.71C88.136 211.452 88.136 211.034 87.8782 210.776Z" fill="#4D4B4B" stroke="#E2E2E2" stroke-width="0.5" stroke-miterlimit="10"/>
<path d="M106.98 208.165H95.46V214.335H106.98V208.165Z" fill="#5C5C5C"/>
<path d="M31.03 147.615H17.81C17.663 147.613 17.5199 147.567 17.3981 147.485C17.2763 147.402 17.1811 147.286 17.1239 147.151C17.0667 147.015 17.0501 146.866 17.0761 146.722C17.102 146.577 17.1694 146.443 17.27 146.335L19.27 144.265C19.5294 143.996 19.8399 143.782 20.1833 143.634C20.5268 143.486 20.8962 143.409 21.27 143.405H25.27C25.5817 143.409 25.8837 143.514 26.13 143.705L31.03 147.615Z" fill="#707171" stroke="#E2E2E2" stroke-width="1.8" stroke-miterlimit="10"/>
<path d="M69.07 147.615H56.69L59.93 143.955C60.0785 143.783 60.2627 143.644 60.4698 143.549C60.6769 143.454 60.9022 143.405 61.13 143.405H67.6C67.6617 143.405 67.7228 143.417 67.7795 143.441C67.8363 143.465 67.8875 143.501 67.93 143.545L69.93 145.655C70.0878 145.821 70.1931 146.03 70.2327 146.255C70.2723 146.48 70.2443 146.712 70.1524 146.922C70.0605 147.131 69.9087 147.309 69.7161 147.432C69.5235 147.556 69.2987 147.619 69.07 147.615Z" fill="#707171" stroke="#E2E2E2" stroke-width="1.8" stroke-miterlimit="10"/>
<path d="M73.91 150.035V189.935C73.9066 190.126 73.863 190.313 73.782 190.486C73.701 190.658 73.5844 190.811 73.44 190.935L72.03 192.225C71.7798 192.433 71.4649 192.546 71.14 192.545H16.6C16.2653 192.547 15.9416 192.426 15.69 192.205L15.19 191.755C14.7804 191.394 14.4533 190.949 14.2307 190.451C14.0081 189.952 13.8953 189.411 13.9 188.865L14.05 149.945C14.0512 149.821 14.1015 149.703 14.19 149.615L15.6 148.035C15.7282 147.9 15.8834 147.792 16.0556 147.72C16.2278 147.647 16.4132 147.612 16.6 147.615H29.29C29.5997 147.613 29.9006 147.719 30.14 147.915L36.21 152.755C36.6264 153.171 37.1207 153.501 37.6646 153.726C38.2086 153.951 38.7914 154.066 39.38 154.065H48.51C49.7012 154.065 50.844 153.594 51.69 152.755L58.16 147.885C58.3946 147.712 58.6782 147.618 58.97 147.615H71.21C71.3966 147.612 71.5819 147.648 71.754 147.721C71.9261 147.793 72.0814 147.9 72.21 148.035L73.8 149.695C73.88 149.79 73.9195 149.912 73.91 150.035V150.035Z" fill="#1D1D1D" stroke="#E2E2E2" stroke-width="1.8" stroke-miterlimit="10"/>
<path d="M68.2 192.475L67.46 193.115C67.2147 193.324 66.9023 193.438 66.58 193.435H20.6C19.6525 193.429 18.7408 193.073 18.04 192.435V192.435C17.8311 192.254 17.6828 192.013 17.6152 191.745C17.5476 191.477 17.564 191.195 17.6622 190.936C17.7604 190.678 17.9356 190.455 18.1641 190.3C18.3927 190.144 18.6635 190.062 18.94 190.065H67.32C67.6016 190.062 67.8771 190.146 68.1088 190.306C68.3404 190.466 68.5167 190.694 68.6133 190.959C68.7099 191.223 68.722 191.511 68.6479 191.783C68.5739 192.055 68.4174 192.297 68.2 192.475V192.475Z" fill="#707171" stroke="#E2E2E2" stroke-width="1.8" stroke-miterlimit="10"/>
<path d="M61.12 141.965C62.67 143.605 62.45 144.595 60.65 145.965L58.44 147.625L51.6 152.755C50.754 153.594 49.6112 154.065 48.42 154.065H39.31C38.7199 154.067 38.1353 153.952 37.5896 153.727C37.044 153.502 36.548 153.172 36.13 152.755L29.69 147.615L27.1 145.545C25.57 144.335 25.22 143.795 26.29 142.165L28.82 139.055C29.3168 138.569 29.9845 138.296 30.68 138.295H56.95C57.6441 138.293 58.3116 138.562 58.81 139.045L61.12 141.965Z" fill="#3A3A3A" stroke="#E2E2E2" stroke-width="1.8" stroke-miterlimit="10"/>
<path d="M92.12 138.675H165.42C165.971 138.676 166.5 138.895 166.89 139.285L167.77 140.165" stroke="#E2E2E2" stroke-width="1.8" stroke-miterlimit="10"/>
<path d="M96.35 138.675C96.57 138.675 96.58 138.905 96.41 139.055C94.66 140.535 86.65 140.805 83.71 140.835C73.28 140.935 80.61 143.285 64.71 143.425C68.38 143.035 74.15 143.345 74.18 138.705L96.35 138.675Z" stroke="#E2E2E2" stroke-width="1.8" stroke-miterlimit="10"/>
<path d="M83.0917 178.011L82.922 177.841C81.9418 176.861 80.3525 176.861 79.3723 177.841L79.2026 178.011C78.2224 178.991 78.2224 180.58 79.2026 181.56L79.3723 181.73C80.3525 182.71 81.9418 182.71 82.922 181.73L83.0917 181.56C84.0719 180.58 84.0719 178.991 83.0917 178.011Z" fill="#4D4B4B" stroke="#E2E2E2" stroke-width="0.5" stroke-miterlimit="10"/>
<path d="M91.575 178.014L91.4053 177.844C90.4251 176.864 88.8359 176.864 87.8556 177.844L87.6859 178.014C86.7057 178.994 86.7057 180.583 87.6859 181.564L87.8556 181.733C88.8359 182.714 90.4251 182.714 91.4053 181.733L91.575 181.564C92.5552 180.583 92.5553 178.994 91.575 178.014Z" fill="#4D4B4B" stroke="#E2E2E2" stroke-width="0.5" stroke-miterlimit="10"/>
<path d="M106.98 176.705H95.46V182.875H106.98V176.705Z" fill="#5C5C5C"/>
<path d="M83.1646 169.941L82.9949 169.771C82.0147 168.791 80.4255 168.791 79.4452 169.771L79.2755 169.941C78.2953 170.921 78.2953 172.51 79.2755 173.49L79.4452 173.66C80.4255 174.64 82.0147 174.64 82.9949 173.66L83.1646 173.49C84.1448 172.51 84.1449 170.921 83.1646 169.941Z" fill="#4D4B4B" stroke="#E2E2E2" stroke-width="0.5" stroke-miterlimit="10"/>
<path d="M91.6579 169.944L91.4882 169.774C90.508 168.794 88.9187 168.794 87.9385 169.774L87.7688 169.944C86.7886 170.924 86.7886 172.514 87.7688 173.494L87.9385 173.664C88.9187 174.644 90.508 174.644 91.4882 173.663L91.6579 173.494C92.6381 172.514 92.6381 170.924 91.6579 169.944Z" fill="#4D4B4B" stroke="#E2E2E2" stroke-width="0.5" stroke-miterlimit="10"/>
<path d="M106.98 168.455H95.46V174.625H106.98V168.455Z" fill="#5C5C5C"/>
<path d="M83.2824 161.793L83.1127 161.623C82.1325 160.643 80.5432 160.643 79.563 161.623L79.3933 161.793C78.4131 162.773 78.4131 164.362 79.3933 165.342L79.563 165.512C80.5432 166.492 82.1325 166.492 83.1127 165.512L83.2824 165.342C84.2626 164.362 84.2626 162.773 83.2824 161.793Z" fill="#4D4B4B" stroke="#E2E2E2" stroke-width="0.5" stroke-miterlimit="10"/>
<path d="M91.7686 161.789L91.5989 161.619C90.6187 160.639 89.0295 160.639 88.0493 161.619L87.8796 161.789C86.8993 162.769 86.8993 164.358 87.8795 165.339L88.0493 165.508C89.0295 166.489 90.6187 166.489 91.5989 165.508L91.7686 165.339C92.7489 164.358 92.7489 162.769 91.7686 161.789Z" fill="#4D4B4B" stroke="#E2E2E2" stroke-width="0.5" stroke-miterlimit="10"/>
<path d="M106.98 160.485H95.46V166.655H106.98V160.485Z" fill="#5C5C5C"/>
<path d="M83.2851 153.81L83.1154 153.64C82.1351 152.66 80.5459 152.66 79.5657 153.64L79.396 153.81C78.4158 154.79 78.4158 156.379 79.396 157.36L79.5657 157.529C80.5459 158.51 82.1351 158.51 83.1154 157.529L83.2851 157.36C84.2653 156.379 84.2653 154.79 83.2851 153.81Z" fill="#4D4B4B" stroke="#E2E2E2" stroke-width="0.5" stroke-miterlimit="10"/>
<path d="M91.7713 153.806L91.6016 153.637C90.6214 152.656 89.0322 152.656 88.052 153.637L87.8822 153.806C86.902 154.786 86.902 156.376 87.8823 157.356L88.052 157.526C89.0322 158.506 90.6214 158.506 91.6016 157.526L91.7713 157.356C92.7516 156.376 92.7515 154.786 91.7713 153.806Z" fill="#4D4B4B" stroke="#E2E2E2" stroke-width="0.5" stroke-miterlimit="10"/>
<path d="M106.98 152.505H95.46V158.675H106.98V152.505Z" fill="#5C5C5C"/>
<path d="M88.1182 147.146L85.9332 144.961C85.6755 144.703 85.2576 144.703 84.9999 144.961L82.8149 147.146C82.5572 147.404 82.5572 147.821 82.8149 148.079L84.9999 150.264C85.2576 150.522 85.6755 150.522 85.9332 150.264L88.1182 148.079C88.3759 147.821 88.3759 147.404 88.1182 147.146Z" fill="#4D4B4B" stroke="#E2E2E2" stroke-width="0.5" stroke-miterlimit="10"/>
<path d="M106.98 144.525H95.46V150.695H106.98V144.525Z" fill="#5C5C5C"/>
<path d="M30.69 85.0054H17.47C17.3209 85.0073 17.1746 84.9647 17.0499 84.883C16.9251 84.8014 16.8275 84.6844 16.7695 84.547C16.7116 84.4096 16.6959 84.2581 16.7245 84.1117C16.753 83.9654 16.8246 83.8309 16.93 83.7254L18.93 81.6554C19.1894 81.3862 19.4999 81.1715 19.8433 81.0238C20.1867 80.8762 20.5562 80.7985 20.93 80.7954H24.93C25.2451 80.7968 25.551 80.9023 25.8 81.0954L30.69 85.0054Z" fill="#707171" stroke="#E2E2E2" stroke-width="1.8" stroke-miterlimit="10"/>
<path d="M68.73 85.0054H56.35L59.6 81.3454C59.7513 81.1734 59.9374 81.0354 60.146 80.9406C60.3546 80.8458 60.5809 80.7963 60.81 80.7954H67.24C67.3642 80.7966 67.4828 80.847 67.57 80.9354L69.57 83.0454C69.7265 83.2098 69.8314 83.4165 69.8716 83.6399C69.9118 83.8634 69.8856 84.0937 69.7962 84.3024C69.7068 84.511 69.5581 84.6888 69.3685 84.8138C69.179 84.9388 68.957 85.0054 68.73 85.0054Z" fill="#707171" stroke="#E2E2E2" stroke-width="1.8" stroke-miterlimit="10"/>
<path d="M73.6 87.4254V127.325C73.5966 127.516 73.553 127.703 73.472 127.876C73.391 128.048 73.2745 128.201 73.13 128.325L71.71 129.535C71.4681 129.751 71.1542 129.869 70.83 129.865H16.22C15.8853 129.867 15.5616 129.746 15.31 129.525L14.81 129.075C14.4055 128.719 14.0814 128.28 13.859 127.789C13.6366 127.298 13.5211 126.765 13.52 126.225L13.67 87.3054C13.6713 87.1812 13.7216 87.0626 13.81 86.9754L15.3 85.4354C15.4282 85.2996 15.5834 85.192 15.7556 85.1197C15.9278 85.0474 16.1133 85.0118 16.3 85.0154H28.95C29.2598 85.0125 29.5607 85.1187 29.8 85.3154L35.87 90.1454C36.2846 90.5644 36.7784 90.8969 37.3226 91.1235C37.8668 91.3501 38.4505 91.4663 39.04 91.4654H48.17C48.7593 91.4652 49.3428 91.3485 49.8868 91.1219C50.4309 90.8954 50.9247 90.5635 51.34 90.1454L57.81 85.2854C58.0471 85.1094 58.3347 85.0147 58.63 85.0154H70.87C71.0567 85.0124 71.2419 85.0483 71.4141 85.1205C71.5862 85.1928 71.7414 85.3 71.87 85.4354L73.46 87.0954C73.5485 87.1826 73.5988 87.3012 73.6 87.4254V87.4254Z" fill="#1D1D1D" stroke="#E2E2E2" stroke-width="1.8" stroke-miterlimit="10"/>
<path d="M67.86 129.865L67.12 130.505C66.8738 130.713 66.562 130.826 66.24 130.825H20.24C19.2896 130.819 18.3748 130.463 17.67 129.825V129.825C17.4658 129.641 17.3223 129.4 17.2582 129.132C17.1941 128.865 17.2126 128.585 17.3111 128.328C17.4097 128.071 17.5837 127.851 17.8102 127.695C18.0367 127.539 18.3051 127.456 18.58 127.455H66.98C67.2615 127.452 67.5371 127.536 67.7688 127.696C68.0004 127.856 68.1767 128.084 68.2733 128.349C68.3698 128.613 68.3819 128.901 68.3079 129.173C68.2339 129.444 68.0774 129.686 67.86 129.865V129.865Z" fill="#707171" stroke="#E2E2E2" stroke-width="1.8" stroke-miterlimit="10"/>
<path d="M60.78 79.3554C62.33 80.9954 62.11 81.9854 60.3 83.3554L58.1 85.0154L51.27 90.1454C50.8529 90.5638 50.3572 90.8958 49.8116 91.1223C49.2659 91.3488 48.6808 91.4654 48.09 91.4654H38.97C38.3788 91.4676 37.7932 91.352 37.2472 91.1254C36.7012 90.8988 36.2058 90.5656 35.79 90.1454L29.35 85.0154L26.76 82.9454C25.23 81.7354 24.88 81.1954 25.94 79.5654L28.48 76.4554C28.9756 75.9668 29.6441 75.6937 30.34 75.6954H56.6C57.2915 75.6915 57.9565 75.961 58.45 76.4454L60.78 79.3554Z" fill="#3A3A3A" stroke="#E2E2E2" stroke-width="1.8" stroke-miterlimit="10"/>
<path d="M91.77 76.0654H165.08C165.632 76.0658 166.16 76.2852 166.55 76.6754L167.43 77.5554" stroke="#E2E2E2" stroke-width="1.8" stroke-miterlimit="10"/>
<path d="M96.01 76.0654C96.23 76.0654 96.24 76.2954 96.07 76.4454C94.32 77.9254 86.31 78.1954 83.37 78.2254C72.94 78.3254 80.27 80.6754 64.37 80.8054C68.04 80.4254 73.81 80.7354 73.84 76.0954L96.01 76.0654Z" stroke="#E2E2E2" stroke-width="1.8" stroke-miterlimit="10"/>
<path d="M83.0549 91.2649L82.8852 91.0952C81.905 90.1149 80.3157 90.1149 79.3355 91.0951L79.1658 91.2649C78.1856 92.2451 78.1856 93.8343 79.1658 94.8145L79.3355 94.9842C80.3157 95.9644 81.905 95.9645 82.8852 94.9842L83.0549 94.8145C84.0351 93.8343 84.0351 92.2451 83.0549 91.2649Z" fill="#4D4B4B" stroke="#E2E2E2" stroke-width="0.5" stroke-miterlimit="10"/>
<path d="M91.5482 91.2782L91.3785 91.1085C90.3983 90.1283 88.8091 90.1283 87.8289 91.1085L87.6592 91.2782C86.6789 92.2584 86.6789 93.8477 87.6592 94.8279L87.8289 94.9976C88.8091 95.9778 90.3983 95.9778 91.3785 94.9976L91.5482 94.8279C92.5285 93.8477 92.5285 92.2584 91.5482 91.2782Z" fill="#4D4B4B" stroke="#E2E2E2" stroke-width="0.5" stroke-miterlimit="10"/>
<path d="M106.87 89.9654H95.35V96.1354H106.87V89.9654Z" fill="#5C5C5C"/>
<path d="M87.8951 84.5936L85.7101 82.4086C85.4523 82.1509 85.0345 82.1509 84.7767 82.4086L82.5918 84.5936C82.334 84.8513 82.334 85.2692 82.5918 85.5269L84.7767 87.7119C85.0345 87.9697 85.4523 87.9697 85.7101 87.7119L87.8951 85.5269C88.1528 85.2692 88.1528 84.8513 87.8951 84.5936Z" fill="#4D4B4B" stroke="#E2E2E2" stroke-width="0.5" stroke-miterlimit="10"/>
<path d="M106.87 81.9754H95.35V88.1454H106.87V81.9754Z" fill="#5C5C5C"/>
</svg>
