
<svg width="200" height="464" viewBox="0 0 200 464" fill="none" xmlns="http://www.w3.org/2000/svg">
<g clip-path="url(#clip0)">
<path d="M199.98 456.91V5.45C200.004 5.10585 199.939 4.76136 199.79 4.45C199.648 4.15044 199.435 3.88972 199.17 3.69C198.29 2.93 197.44 2.12 196.58 1.36C194.77 -0.270004 195.25 -0.0100035 192.84 -0.0500035H6.03C5.68915 -0.0671932 5.34848 -0.0126861 5.03 0.109996C4.68916 0.239882 4.3841 0.448969 4.14 0.719996C3.29 1.54 2.41 2.29 1.54 3.08C-0.24 4.72 0.0400001 4.29 0.0100001 6.46V458.46C-0.0265474 458.803 0.0322839 459.149 0.18 459.46C0.323199 459.762 0.539796 460.023 0.81 460.22C1.76954 460.998 2.6812 461.832 3.54 462.72C3.95047 463.176 4.47007 463.52 5.05 463.72C5.64669 463.943 6.29069 464.008 6.92 463.91H193.92C194.261 463.927 194.602 463.873 194.92 463.75C195.243 463.627 195.534 463.432 195.77 463.18C196.47 462.53 197.21 461.9 197.9 461.25C200.37 459.08 199.98 459.96 199.98 456.91ZM195.79 460.54C195.55 460.78 195.27 460.99 195.04 461.23C194.77 461.532 194.425 461.756 194.04 461.88C193.667 462.022 193.266 462.07 192.87 462.02H8.48C5.36 462.02 6.22 462.36 3.84 460.24C3.70068 460.099 3.5538 459.965 3.4 459.84C2.96104 459.546 2.61434 459.133 2.4 458.65C2.17549 458.17 2.10561 457.632 2.2 457.11C2.23059 456.777 2.23059 456.443 2.2 456.11V7.91C2.2 4.64 1.74 5.67 4.33 3.22C4.62 2.94 4.94 2.66 5.25 2.39C5.42584 2.2188 5.63765 2.08898 5.87 2.01C6.08374 1.92799 6.31109 1.88727 6.54 1.89H193.04C193.379 1.86352 193.719 1.90779 194.04 2.02C194.372 2.12799 194.673 2.31304 194.92 2.56C195.66 3.28 196.43 3.96 197.21 4.64C197.413 4.81065 197.574 5.02635 197.68 5.27C197.79 5.50731 197.839 5.76888 197.82 6.03V456.19C197.82 459.19 198.22 458.29 195.79 460.54Z" fill="#3D3D3D"/>
<path d="M195.16 459.6L194.4 460.27C194.207 460.472 193.971 460.629 193.71 460.73C193.443 460.833 193.156 460.877 192.87 460.86H8.66999C5.96999 460.86 6.66999 461.19 4.42999 459.2C4.10865 458.959 3.85115 458.643 3.67999 458.28C3.51974 457.922 3.451 457.531 3.47999 457.14V8.53C3.50998 8.07716 3.50998 7.62284 3.47999 7.17C3.41859 6.6509 3.50164 6.12492 3.71999 5.65C3.94152 5.16871 4.28655 4.75468 4.71999 4.45C6.58999 2.86 6.08999 3.07 8.46999 3.06H191.81C194.26 3.06 194.48 3.16 196.06 4.8C196.345 5.07403 196.571 5.40345 196.724 5.76803C196.877 6.1326 196.954 6.52462 196.95 6.92V455.72C196.93 458.24 197.29 457.66 195.16 459.6Z" fill="#3D3D3D"/>
<path d="M53.89 18.72L54.41 18.33V14.07C54.407 13.2682 54.2395 12.4755 53.9179 11.741C53.5962 11.0066 53.1272 10.3459 52.54 9.79999C51.3127 8.6551 49.6984 8.0158 48.02 8.00999H16.02C14.3551 8.02387 12.7561 8.66274 11.54 9.79999C10.955 10.3472 10.4882 11.0083 10.1684 11.7426C9.84849 12.477 9.68229 13.269 9.67999 14.07V18.35L10.2 18.74C11.0737 19.37 11.8004 20.182 12.33 21.12C11.318 23.3237 10.7311 25.6986 10.6 28.12C10.3921 28.2159 10.2153 28.3684 10.09 28.56C9.96661 28.7432 9.9007 28.9591 9.9007 29.18C9.9007 29.4009 9.96661 29.6168 10.09 29.8C10.2186 29.9862 10.3947 30.1347 10.6 30.23C10.7337 32.651 11.3205 35.0254 12.33 37.23C11.8003 38.1651 11.0735 38.9738 10.2 39.6L9.67999 40.01V50.28H54.44V40L53.92 39.59C53.0518 38.9608 52.3289 38.1526 51.8 37.22C52.8065 35.0149 53.3899 32.6404 53.52 30.22C53.7253 30.1247 53.9013 29.9762 54.03 29.79C54.1583 29.6085 54.2281 29.3922 54.23 29.17C54.2282 28.9447 54.1585 28.7251 54.03 28.54C53.9013 28.3538 53.7253 28.2053 53.52 28.11C53.3899 25.6896 52.8065 23.3151 51.8 21.11C52.3158 20.1717 53.0288 19.3563 53.89 18.72V18.72ZM11.69 30.13C11.8663 30.0239 12.0139 29.8763 12.12 29.7C12.2226 29.5283 12.2714 29.3297 12.26 29.13C12.2714 28.9303 12.2226 28.7317 12.12 28.56C12.0167 28.3816 11.8684 28.2333 11.69 28.13C11.7802 26.239 12.1753 24.375 12.86 22.61C13.0032 23.162 13.0771 23.7297 13.08 24.3V33.9C13.0764 34.4669 13.0025 35.0312 12.86 35.58C12.1839 33.8367 11.789 31.9971 11.69 30.13V30.13ZM51.69 42.97C51.69 42.97 51.69 47.69 44.93 47.69H19.19C12.48 47.69 12.42 42.97 12.42 42.97V41.22C13.4981 40.3248 14.3682 39.2055 14.97 37.94C15.5632 36.69 15.8706 35.3236 15.87 33.94V24.34C15.8736 22.9583 15.5731 21.5927 14.99 20.34C14.3889 19.0794 13.5305 17.9587 12.47 17.05V15.36C12.47 15.36 12.52 10.64 19.23 10.64H44.94C51.66 10.64 51.7 15.36 51.7 15.36V17.11C50.6276 18.0082 49.7613 19.1269 49.16 20.39C48.5671 21.6401 48.2597 23.0064 48.26 24.39V33.99C48.2594 35.3736 48.5668 36.74 49.16 37.99C49.7613 39.253 50.6276 40.3717 51.7 41.27L51.69 42.97ZM52.42 28.2C52.2443 28.3036 52.0994 28.452 52 28.63C51.9004 28.8034 51.8487 29.0001 51.85 29.2C51.8386 29.3997 51.8874 29.5983 51.99 29.77C52.0961 29.9463 52.2437 30.0939 52.42 30.2C52.3173 32.0903 51.9191 33.9529 51.24 35.72C51.0894 35.1726 51.012 34.6077 51.01 34.04V24.43C51.0094 23.8522 51.0867 23.277 51.24 22.72C51.9022 24.4769 52.29 26.3251 52.39 28.2H52.42Z" fill="#E2E2E2"/>
<path d="M48.22 24.37V33.97C48.2146 35.3541 48.5223 36.7216 49.12 37.97C49.7213 39.233 50.5876 40.3518 51.66 41.25V43C51.66 43 51.66 47.72 44.9 47.72H19.19C12.48 47.72 12.42 43 12.42 43V41.22C13.4981 40.3248 14.3682 39.2055 14.97 37.94C15.5632 36.69 15.8706 35.3236 15.87 33.94V24.34C15.8736 22.9583 15.5732 21.5927 14.99 20.34C14.389 19.0794 13.5305 17.9587 12.47 17.05V15.36C12.47 15.36 12.52 10.64 19.23 10.64H44.94C51.66 10.64 51.7 15.36 51.7 15.36V17.11C50.6217 18.0075 49.7487 19.126 49.14 20.39C48.5383 21.6307 48.2239 22.9911 48.22 24.37V24.37Z" fill="#242122"/>
<path d="M121.16 18.72L121.69 18.33V14.07C121.69 13.2696 121.525 12.4779 121.207 11.7435C120.889 11.0091 120.424 10.3477 119.84 9.79999C118.613 8.6551 116.998 8.0158 115.32 8.00999H83.32C81.6441 8.01335 80.0321 8.65317 78.81 9.79999C78.2251 10.3472 77.7583 11.0083 77.4384 11.7426C77.1185 12.477 76.9523 13.269 76.95 14.07V18.35L77.47 18.74C78.3195 19.3792 79.0248 20.1901 79.54 21.12C78.525 23.3232 77.9347 25.698 77.8 28.12C77.5938 28.2185 77.4177 28.3704 77.29 28.56C77.1666 28.7432 77.1007 28.9591 77.1007 29.18C77.1007 29.4009 77.1666 29.6168 77.29 29.8C77.4211 29.984 77.5965 30.1319 77.8 30.23C77.9371 32.6516 78.5273 35.026 79.54 37.23C79.0075 38.1631 78.2812 38.9712 77.41 39.6L76.89 40.01V50.28H121.7V40L121.17 39.59C120.302 38.9608 119.579 38.1526 119.05 37.22C120.057 35.0149 120.64 32.6404 120.77 30.22C120.98 30.1284 121.161 29.9794 121.29 29.79C121.42 29.6074 121.489 29.3889 121.489 29.165C121.489 28.941 121.42 28.7226 121.29 28.54C121.161 28.3506 120.98 28.2016 120.77 28.11C120.64 25.6896 120.057 23.3151 119.05 21.11C119.573 20.171 120.293 19.3558 121.16 18.72V18.72ZM78.93 30.13C79.1034 30.0236 79.2477 29.8759 79.35 29.7C79.4529 29.528 79.5049 29.3304 79.5 29.13C79.5114 28.9303 79.4626 28.7317 79.36 28.56C79.2567 28.3816 79.1085 28.2333 78.93 28.13C79.0203 26.239 79.4153 24.375 80.1 22.61C80.2383 23.163 80.3121 23.7301 80.32 24.3V33.9C80.3115 34.4666 80.2377 35.0303 80.1 35.58C79.424 33.8367 79.029 31.9971 78.93 30.13V30.13ZM118.93 42.97C118.93 42.97 118.93 47.69 112.16 47.69H86.43C79.71 47.69 79.66 42.97 79.66 42.97V41.22C80.7353 40.3221 81.605 39.2035 82.21 37.94C82.8001 36.6893 83.1041 35.3229 83.1 33.94V24.34C83.1038 22.9571 82.7998 21.5908 82.21 20.34C81.605 19.0765 80.7353 17.9579 79.66 17.06V15.36C79.66 15.36 79.66 10.64 86.43 10.64H112.13C118.86 10.64 118.9 15.36 118.9 15.36V17.11C117.825 18.0079 116.955 19.1265 116.35 20.39C115.76 21.6408 115.456 23.0071 115.46 24.39V33.99C115.456 35.3729 115.76 36.7393 116.35 37.99C116.955 39.2535 117.825 40.3721 118.9 41.27L118.93 42.97ZM119.66 28.2C119.482 28.3033 119.333 28.4516 119.23 28.63C119.138 28.8059 119.09 29.0015 119.09 29.2C119.09 29.3985 119.138 29.5941 119.23 29.77C119.333 29.9484 119.482 30.0967 119.66 30.2C119.554 32.0908 119.152 33.9534 118.47 35.72C118.328 35.1712 118.254 34.6069 118.25 34.04V24.43C118.254 23.8631 118.328 23.2988 118.47 22.75C119.137 24.4954 119.529 26.3341 119.63 28.2H119.66Z" fill="#E2E2E2"/>
<path d="M115.54 24.37V33.97C115.535 35.3541 115.842 36.7216 116.44 37.97C117.041 39.233 117.908 40.3518 118.98 41.25V43C118.98 43 118.98 47.72 112.21 47.72H86.43C79.71 47.72 79.66 43 79.66 43V41.22C80.7353 40.3221 81.605 39.2035 82.21 37.94C82.8001 36.6893 83.1041 35.3229 83.1 33.94V24.34C83.1038 22.9572 82.7997 21.5908 82.21 20.34C81.605 19.0765 80.7353 17.9579 79.66 17.06V15.36C79.66 15.36 79.66 10.64 86.43 10.64H112.13C118.86 10.64 118.9 15.36 118.9 15.36V17.11C117.833 18.0121 116.973 19.1344 116.38 20.4C115.805 21.6435 115.518 23.0004 115.54 24.37V24.37Z" fill="#242122"/>
<path d="M187.61 18.72L188.14 18.33V14.07C188.14 13.2696 187.975 12.4779 187.657 11.7435C187.339 11.0091 186.874 10.3477 186.29 9.79999C185.063 8.6551 183.448 8.0158 181.77 8.00999H149.77C148.094 8.01535 146.483 8.65488 145.26 9.79999C144.675 10.3472 144.208 11.0083 143.888 11.7426C143.568 12.477 143.402 13.269 143.4 14.07V18.35L143.93 18.74C144.797 19.3779 145.522 20.1882 146.06 21.12C145.04 23.3215 144.45 25.6973 144.32 28.12C144.112 28.2159 143.935 28.3684 143.81 28.56C143.68 28.7405 143.61 28.9574 143.61 29.18C143.61 29.4026 143.68 29.6195 143.81 29.8C143.939 29.9862 144.115 30.1347 144.32 30.23C144.452 32.6523 145.043 35.0276 146.06 37.23C145.522 38.1588 144.796 38.9658 143.93 39.6L143.4 40.01V50.28H188.22V40L187.68 39.59C186.806 38.9614 186.076 38.1534 185.54 37.22C186.546 35.0149 187.13 32.6404 187.26 30.22C187.473 30.1286 187.657 29.9797 187.79 29.79C187.914 29.6052 187.981 29.3876 187.981 29.165C187.981 28.9423 187.914 28.7248 187.79 28.54C187.657 28.3503 187.473 28.2014 187.26 28.11C187.139 25.6883 186.555 23.3122 185.54 21.11C186.051 20.1744 186.757 19.3594 187.61 18.72V18.72ZM145.39 30.13C145.563 30.0236 145.708 29.8759 145.81 29.7C145.913 29.528 145.965 29.3304 145.96 29.13C145.971 28.9303 145.923 28.7317 145.82 28.56C145.717 28.3816 145.568 28.2333 145.39 28.13C145.478 26.2407 145.867 24.3774 146.54 22.61C146.688 23.1611 146.762 23.7294 146.76 24.3V33.9C146.761 34.4673 146.687 35.0322 146.54 35.58C145.875 33.8343 145.487 31.9955 145.39 30.13V30.13ZM185.39 42.97C185.39 42.97 185.31 47.72 178.54 47.72H152.89C146.17 47.72 146.12 43 146.12 43V41.22C147.192 40.3217 148.059 39.203 148.66 37.94C149.25 36.6893 149.554 35.3229 149.55 33.94V24.34C149.554 22.9571 149.25 21.5908 148.66 20.34C148.059 19.0769 147.192 17.9582 146.12 17.06V15.36C146.12 15.36 146.12 10.64 152.89 10.64H178.54C185.27 10.64 185.32 15.36 185.32 15.36V17.11C184.248 18.0082 183.381 19.1269 182.78 20.39C182.183 21.6385 181.875 23.0059 181.88 24.39V33.99C181.875 35.3741 182.182 36.7416 182.78 37.99C183.381 39.253 184.248 40.3717 185.32 41.27L185.39 42.97ZM186.11 28.2C185.932 28.3033 185.783 28.4516 185.68 28.63C185.588 28.8059 185.54 29.0015 185.54 29.2C185.54 29.3985 185.588 29.5941 185.68 29.77C185.783 29.9484 185.932 30.0967 186.11 30.2C186.009 32.0915 185.607 33.9548 184.92 35.72C184.782 35.1703 184.709 34.6066 184.7 34.04V24.43C184.709 23.8634 184.782 23.2997 184.92 22.75C185.587 24.4954 185.979 26.3341 186.08 28.2H186.11Z" fill="#E2E2E2"/>
<path d="M181.92 24.37V33.97C181.915 35.3541 182.222 36.7216 182.82 37.97C183.421 39.233 184.288 40.3518 185.36 41.25V43C185.36 43 185.31 47.72 178.54 47.72H152.89C146.17 47.72 146.12 43 146.12 43V41.22C147.192 40.3218 148.059 39.203 148.66 37.94C149.25 36.6893 149.554 35.3229 149.55 33.94V24.34C149.554 22.9572 149.25 21.5908 148.66 20.34C148.059 19.077 147.192 17.9582 146.12 17.06V15.36C146.12 15.36 146.12 10.64 152.89 10.64H178.54C185.27 10.64 185.32 15.36 185.32 15.36V17.11C184.248 18.0082 183.381 19.127 182.78 20.39C182.199 21.6357 181.905 22.9957 181.92 24.37V24.37Z" fill="#242122"/>
<path d="M31.71 402.6H17.71C17.5552 402.6 17.4032 402.559 17.27 402.48C17.1433 402.4 17.0426 402.286 16.98 402.15C16.9189 402.015 16.9015 401.865 16.9301 401.719C16.9588 401.574 17.0322 401.441 17.14 401.34L19.26 399.26C19.5501 398.988 19.8896 398.774 20.26 398.63C20.6288 398.482 21.0227 398.408 21.42 398.41H25.67C25.9851 398.421 26.2892 398.529 26.54 398.72L31.71 402.6Z" fill="#707171" stroke="#E2E2E2" stroke-width="1.8" stroke-miterlimit="10"/>
<path d="M72.12 402.6H58.97L62.39 398.98C62.5554 398.81 62.7525 398.674 62.97 398.58C63.1953 398.487 63.4365 398.44 63.68 398.44H70.54C70.6735 398.439 70.8024 398.489 70.9 398.58L73.02 400.68C73.1735 400.841 73.2776 401.042 73.32 401.26C73.3528 401.477 73.3251 401.698 73.24 401.9C73.1453 402.103 72.9965 402.276 72.81 402.4C72.6025 402.528 72.3639 402.597 72.12 402.6V402.6Z" fill="#707171" stroke="#E2E2E2" stroke-width="1.8" stroke-miterlimit="10"/>
<path d="M77.26 405.02V444.84C77.2572 445.031 77.2128 445.218 77.13 445.39C77.0414 445.565 76.9151 445.719 76.76 445.84L75.25 447.06C74.9855 447.27 74.6574 447.382 74.32 447.38H16.32C15.9731 447.382 15.6366 447.262 15.37 447.04L14.84 446.59C14.4158 446.227 14.0747 445.777 13.84 445.27C13.6222 444.783 13.5196 444.253 13.54 443.72L13.7 404.92C13.698 404.857 13.7105 404.795 13.7365 404.737C13.7625 404.68 13.8014 404.63 13.85 404.59L15.43 403.05C15.569 402.917 15.7318 402.812 15.91 402.74C16.0938 402.664 16.2912 402.627 16.49 402.63H29.87C30.1932 402.638 30.5066 402.742 30.77 402.93L37.22 407.72C38.1299 408.571 39.3341 409.037 40.58 409.02H50.28C51.5261 409.022 52.7279 408.558 53.65 407.72L60.54 402.87C60.7989 402.7 61.1004 402.607 61.41 402.6H74.41C74.6084 402.601 74.805 402.638 74.99 402.71C75.1693 402.78 75.3327 402.885 75.47 403.02L77.13 404.72C77.1774 404.759 77.2123 404.811 77.23 404.87C77.2537 404.916 77.2641 404.968 77.26 405.02V405.02Z" fill="#1D1D1D" stroke="#E2E2E2" stroke-width="1.8" stroke-miterlimit="10"/>
<path d="M71.2 447.32L70.41 447.96C70.1266 448.186 69.772 448.303 69.41 448.29H20.66C19.6598 448.293 18.6915 447.938 17.93 447.29C17.7109 447.116 17.5536 446.876 17.4815 446.606C17.4095 446.336 17.4265 446.05 17.53 445.79C17.6405 445.529 17.8292 445.309 18.07 445.16C18.3138 445.001 18.599 444.918 18.89 444.92H70.25C70.5472 444.918 70.8388 445.001 71.09 445.16C71.3364 445.312 71.5261 445.54 71.63 445.81C71.7246 446.075 71.7246 446.365 71.63 446.63C71.5628 446.899 71.4124 447.141 71.2 447.32V447.32Z" fill="#707171" stroke="#E2E2E2" stroke-width="1.8" stroke-miterlimit="10"/>
<path d="M63.66 396.99C65.32 398.63 65.09 399.61 63.17 400.99L60.83 402.64L53.54 407.72C52.6179 408.558 51.4161 409.022 50.17 409.02H40.54C39.9182 409.023 39.3012 408.911 38.72 408.69C38.1458 408.456 37.6202 408.117 37.17 407.69L30.33 402.56L27.54 400.58C25.91 399.36 25.54 398.82 26.67 397.2L29.37 394.1C29.9138 393.598 30.6303 393.326 31.37 393.34H59.2C59.9373 393.329 60.6514 393.597 61.2 394.09L63.66 396.99Z" fill="#3A3A3A" stroke="#E2E2E2" stroke-width="1.8" stroke-miterlimit="10"/>
<path d="M96.59 393.72H174.46C175.039 393.716 175.597 393.934 176.02 394.33L176.96 395.21" stroke="#E2E2E2" stroke-width="1.8" stroke-miterlimit="10"/>
<path d="M101.1 393.72C101.33 393.72 101.34 393.96 101.16 394.1C99.3 395.57 90.79 395.84 87.67 395.87C76.59 395.97 84.38 398.32 67.49 398.46C71.39 398.07 77.49 398.38 77.55 393.76L101.1 393.72Z" stroke="#E2E2E2" stroke-width="1.8" stroke-miterlimit="10"/>
<path d="M87.36 432.72L87.18 432.55C86.6665 432.076 85.9936 431.813 85.295 431.813C84.5964 431.813 83.9235 432.076 83.41 432.55L83.23 432.72C82.9845 432.945 82.7884 433.218 82.6542 433.523C82.5201 433.828 82.4508 434.157 82.4508 434.49C82.4508 434.823 82.5201 435.152 82.6542 435.457C82.7884 435.762 82.9845 436.035 83.23 436.26L83.41 436.43C83.9266 436.897 84.5984 437.156 85.295 437.156C85.9916 437.156 86.6634 436.897 87.18 436.43L87.36 436.26C87.6055 436.035 87.8016 435.762 87.9358 435.457C88.0699 435.152 88.1392 434.823 88.1392 434.49C88.1392 434.157 88.0699 433.828 87.9358 433.523C87.8016 433.218 87.6055 432.945 87.36 432.72V432.72Z" fill="#4D4B4B" stroke="#E2E2E2" stroke-width="0.5" stroke-miterlimit="10"/>
<path d="M96.36 432.66L96.18 432.5C95.6665 432.026 94.9936 431.763 94.295 431.763C93.5964 431.763 92.9235 432.026 92.41 432.5L92.23 432.66C91.9845 432.885 91.7884 433.158 91.6542 433.463C91.5201 433.768 91.4508 434.097 91.4508 434.43C91.4508 434.763 91.5201 435.092 91.6542 435.397C91.7884 435.702 91.9845 435.975 92.23 436.2L92.41 436.37C92.9235 436.844 93.5964 437.107 94.295 437.107C94.9936 437.107 95.6665 436.844 96.18 436.37L96.36 436.2C96.6055 435.975 96.8016 435.702 96.9358 435.397C97.0699 435.092 97.1392 434.763 97.1392 434.43C97.1392 434.097 97.0699 433.768 96.9358 433.463C96.8016 433.158 96.6055 432.885 96.36 432.66V432.66Z" fill="#4D4B4B" stroke="#E2E2E2" stroke-width="0.5" stroke-miterlimit="10"/>
<path d="M112.61 431.46H100.37V437.61H112.61V431.46Z" fill="#5C5C5C"/>
<path d="M87.35 424.72L87.17 424.55C86.6565 424.076 85.9836 423.813 85.285 423.813C84.5864 423.813 83.9135 424.076 83.4 424.55L83.22 424.72C82.9745 424.945 82.7784 425.218 82.6442 425.523C82.5101 425.828 82.4408 426.157 82.4408 426.49C82.4408 426.823 82.5101 427.152 82.6442 427.457C82.7784 427.762 82.9745 428.035 83.22 428.26L83.4 428.43C83.9166 428.897 84.5884 429.156 85.285 429.156C85.9816 429.156 86.6534 428.897 87.17 428.43L87.35 428.26C87.5955 428.035 87.7916 427.762 87.9258 427.457C88.0599 427.152 88.1292 426.823 88.1292 426.49C88.1292 426.157 88.0599 425.828 87.9258 425.523C87.7916 425.218 87.5955 424.945 87.35 424.72V424.72Z" fill="#4D4B4B" stroke="#E2E2E2" stroke-width="0.5" stroke-miterlimit="10"/>
<path d="M96.36 424.72L96.18 424.56C95.6665 424.086 94.9936 423.823 94.295 423.823C93.5964 423.823 92.9235 424.086 92.41 424.56L92.23 424.72C91.9845 424.945 91.7884 425.218 91.6542 425.523C91.5201 425.828 91.4508 426.157 91.4508 426.49C91.4508 426.823 91.5201 427.152 91.6542 427.457C91.7884 427.762 91.9845 428.035 92.23 428.26L92.41 428.43C92.9235 428.904 93.5964 429.167 94.295 429.167C94.9936 429.167 95.6665 428.904 96.18 428.43L96.36 428.26C96.6055 428.035 96.8016 427.762 96.9358 427.457C97.0699 427.152 97.1392 426.823 97.1392 426.49C97.1392 426.157 97.0699 425.828 96.9358 425.523C96.8016 425.218 96.6055 424.945 96.36 424.72V424.72Z" fill="#4D4B4B" stroke="#E2E2E2" stroke-width="0.5" stroke-miterlimit="10"/>
<path d="M112.61 423.32H100.37V429.47H112.61V423.32Z" fill="#5C5C5C"/>
<path d="M87.36 416.77L87.18 416.6C86.6665 416.126 85.9936 415.863 85.295 415.863C84.5964 415.863 83.9235 416.126 83.41 416.6L83.23 416.77C82.9817 416.993 82.7832 417.266 82.6472 417.571C82.5113 417.876 82.4411 418.206 82.4411 418.54C82.4411 418.874 82.5113 419.204 82.6472 419.509C82.7832 419.814 82.9817 420.087 83.23 420.31L83.41 420.48C83.9266 420.947 84.5984 421.206 85.295 421.206C85.9916 421.206 86.6634 420.947 87.18 420.48L87.36 420.31C87.6055 420.085 87.8016 419.812 87.9358 419.507C88.0699 419.202 88.1392 418.873 88.1392 418.54C88.1392 418.207 88.0699 417.878 87.9358 417.573C87.8016 417.268 87.6055 416.995 87.36 416.77V416.77Z" fill="#4D4B4B" stroke="#E2E2E2" stroke-width="0.5" stroke-miterlimit="10"/>
<path d="M96.36 416.77L96.18 416.6C95.6665 416.126 94.9936 415.863 94.295 415.863C93.5964 415.863 92.9235 416.126 92.41 416.6L92.23 416.77C91.9845 416.995 91.7884 417.268 91.6542 417.573C91.5201 417.878 91.4508 418.207 91.4508 418.54C91.4508 418.873 91.5201 419.202 91.6542 419.507C91.7884 419.812 91.9845 420.085 92.23 420.31L92.41 420.47C92.9235 420.944 93.5964 421.207 94.295 421.207C94.9936 421.207 95.6665 420.944 96.18 420.47L96.36 420.31C96.6055 420.085 96.8016 419.812 96.9358 419.507C97.0699 419.202 97.1392 418.873 97.1392 418.54C97.1392 418.207 97.0699 417.878 96.9358 417.573C96.8016 417.268 96.6055 416.995 96.36 416.77V416.77Z" fill="#4D4B4B" stroke="#E2E2E2" stroke-width="0.5" stroke-miterlimit="10"/>
<path d="M112.61 415.36H100.37V421.51H112.61V415.36Z" fill="#5C5C5C"/>
<path d="M87.36 408.81L87.18 408.64C86.6634 408.173 85.9916 407.914 85.295 407.914C84.5984 407.914 83.9266 408.173 83.41 408.64L83.23 408.81C82.9845 409.035 82.7884 409.308 82.6542 409.613C82.5201 409.918 82.4508 410.247 82.4508 410.58C82.4508 410.913 82.5201 411.242 82.6542 411.547C82.7884 411.852 82.9845 412.125 83.23 412.35L83.41 412.52C83.9235 412.994 84.5964 413.257 85.295 413.257C85.9936 413.257 86.6665 412.994 87.18 412.52L87.36 412.35C87.6055 412.125 87.8016 411.852 87.9358 411.547C88.0699 411.242 88.1392 410.913 88.1392 410.58C88.1392 410.247 88.0699 409.918 87.9358 409.613C87.8016 409.308 87.6055 409.035 87.36 408.81V408.81Z" fill="#4D4B4B" stroke="#E2E2E2" stroke-width="0.5" stroke-miterlimit="10"/>
<path d="M96.36 408.81L96.18 408.64C95.6665 408.166 94.9936 407.903 94.295 407.903C93.5964 407.903 92.9235 408.166 92.41 408.64L92.23 408.81C91.9845 409.035 91.7884 409.308 91.6542 409.613C91.5201 409.918 91.4508 410.247 91.4508 410.58C91.4508 410.913 91.5201 411.242 91.6542 411.547C91.7884 411.852 91.9845 412.125 92.23 412.35L92.41 412.52C92.9266 412.987 93.5984 413.246 94.295 413.246C94.9916 413.246 95.6634 412.987 96.18 412.52L96.36 412.35C96.6055 412.125 96.8016 411.852 96.9358 411.547C97.0699 411.242 97.1392 410.913 97.1392 410.58C97.1392 410.247 97.0699 409.918 96.9358 409.613C96.8016 409.308 96.6055 409.035 96.36 408.81V408.81Z" fill="#4D4B4B" stroke="#E2E2E2" stroke-width="0.5" stroke-miterlimit="10"/>
<path d="M112.61 407.41H100.37V413.56H112.61V407.41Z" fill="#5C5C5C"/>
<path d="M92.48 402.17L90.16 399.99C90.0246 399.863 89.8458 399.792 89.66 399.792C89.4742 399.792 89.2954 399.863 89.16 399.99L86.84 402.17C86.7767 402.23 86.7264 402.302 86.6919 402.382C86.6575 402.462 86.6397 402.548 86.6397 402.635C86.6397 402.722 86.6575 402.808 86.6919 402.888C86.7264 402.968 86.7767 403.04 86.84 403.1L89.16 405.28C89.2975 405.403 89.4755 405.471 89.66 405.471C89.8445 405.471 90.0225 405.403 90.16 405.28L92.48 403.1C92.546 403.042 92.5988 402.97 92.635 402.89C92.6712 402.81 92.6899 402.723 92.6899 402.635C92.6899 402.547 92.6712 402.46 92.635 402.38C92.5988 402.3 92.546 402.228 92.48 402.17V402.17Z" fill="#4D4B4B" stroke="#E2E2E2" stroke-width="0.5" stroke-miterlimit="10"/>
<path d="M112.61 399.45H100.37V405.6H112.61V399.45Z" fill="#5C5C5C"/>
<path d="M32.04 338.98H18.04C17.8841 338.978 17.7318 338.933 17.6 338.85C17.4733 338.771 17.3726 338.656 17.31 338.52C17.2496 338.385 17.2322 338.235 17.26 338.09C17.2914 337.943 17.3642 337.807 17.47 337.7L19.54 335.64C19.8302 335.368 20.1696 335.154 20.54 335.01C20.9095 334.864 21.3026 334.786 21.7 334.78H25.94C26.27 334.785 26.5908 334.889 26.86 335.08L32.04 338.98Z" fill="#707171" stroke="#E2E2E2" stroke-width="1.8" stroke-miterlimit="10"/>
<path d="M72.45 338.98H59.3L62.74 335.33C62.8992 335.157 63.0935 335.021 63.31 334.93C63.5299 334.831 63.7686 334.779 64.01 334.78H70.89C70.953 334.771 71.017 334.771 71.08 334.78C71.1388 334.804 71.1929 334.838 71.24 334.88L73.36 336.99C73.5266 337.148 73.6387 337.354 73.68 337.58C73.7317 337.806 73.7035 338.043 73.6 338.25C73.5001 338.462 73.3401 338.639 73.14 338.76C72.9335 338.893 72.6954 338.969 72.45 338.98V338.98Z" fill="#707171" stroke="#E2E2E2" stroke-width="1.8" stroke-miterlimit="10"/>
<path d="M77.59 341.39V381.17C77.5888 381.362 77.5407 381.551 77.45 381.72C77.3625 381.893 77.2399 382.047 77.09 382.17L75.59 383.37C75.325 383.587 74.9923 383.704 74.65 383.7H16.72C16.3569 383.709 16.0024 383.588 15.72 383.36L15.19 382.91C14.765 382.56 14.4234 382.119 14.19 381.62C13.9446 381.129 13.8146 380.589 13.81 380.04L13.97 341.24C13.9797 341.116 14.0328 340.999 14.12 340.91L15.66 339.4C15.8006 339.262 15.9671 339.153 16.15 339.08C16.3355 339.011 16.5322 338.977 16.73 338.98H30.19C30.5182 338.976 30.8383 339.082 31.1 339.28L37.54 344.09C38.4532 344.945 39.6592 345.417 40.91 345.41H50.61C51.2356 345.409 51.8557 345.293 52.44 345.07C53.0151 344.837 53.541 344.498 53.99 344.07L60.86 339.23C61.1133 339.056 61.4128 338.962 61.72 338.96H74.72C74.9189 338.956 75.1164 338.993 75.3 339.07C75.4813 339.136 75.6454 339.242 75.78 339.38L77.47 341.03C77.515 341.078 77.5491 341.135 77.5698 341.197C77.5905 341.259 77.5974 341.325 77.59 341.39V341.39Z" fill="#1D1D1D" stroke="#E2E2E2" stroke-width="1.8" stroke-miterlimit="10"/>
<path d="M71.54 383.72L70.76 384.36C70.4925 384.571 70.1607 384.684 69.82 384.68H20.96C19.9643 384.675 19.0019 384.321 18.24 383.68C18.0237 383.501 17.8668 383.26 17.79 382.99C17.7213 382.725 17.7388 382.445 17.84 382.19C17.9499 381.926 18.1385 381.703 18.38 381.55C18.6267 381.399 18.9106 381.319 19.2 381.32H70.59C70.8872 381.318 71.1788 381.401 71.43 381.56C71.6689 381.717 71.8539 381.944 71.96 382.21C72.0546 382.475 72.0546 382.765 71.96 383.03C71.8955 383.298 71.7487 383.54 71.54 383.72V383.72Z" fill="#707171" stroke="#E2E2E2" stroke-width="1.8" stroke-miterlimit="10"/>
<path d="M64 333.35C65.65 334.98 65.42 335.97 63.51 337.35L61.16 339L53.89 344.1C53.4427 344.53 52.9163 344.87 52.34 345.1C51.7556 345.323 51.1356 345.439 50.51 345.44H40.84C40.2141 345.442 39.5933 345.327 39.01 345.1C38.4316 344.874 37.9045 344.534 37.46 344.1L30.62 338.99L27.87 336.93C26.24 335.72 25.87 335.18 27.01 333.56L29.7 330.46C30.2438 329.958 30.9603 329.686 31.7 329.7H59.54C60.2761 329.696 60.9879 329.963 61.54 330.45L64 333.35Z" fill="#3A3A3A" stroke="#E2E2E2" stroke-width="1.8" stroke-miterlimit="10"/>
<path d="M96.93 330.07H174.79C175.369 330.066 175.927 330.284 176.35 330.68L177.29 331.55" stroke="#E2E2E2" stroke-width="1.8" stroke-miterlimit="10"/>
<path d="M101.43 330.07C101.66 330.07 101.67 330.3 101.49 330.45C99.63 331.92 91.12 332.19 88 332.22C76.92 332.32 84.71 334.66 67.82 334.79C71.72 334.41 77.82 334.72 77.88 330.1L101.43 330.07Z" stroke="#E2E2E2" stroke-width="1.8" stroke-miterlimit="10"/>
<path d="M87.36 377.15L87.18 376.98C86.6665 376.506 85.9936 376.243 85.295 376.243C84.5964 376.243 83.9235 376.506 83.41 376.98L83.23 377.15C82.9845 377.375 82.7884 377.648 82.6542 377.953C82.5201 378.258 82.4508 378.587 82.4508 378.92C82.4508 379.253 82.5201 379.582 82.6542 379.887C82.7884 380.192 82.9845 380.465 83.23 380.69L83.41 380.86C83.9266 381.327 84.5984 381.586 85.295 381.586C85.9916 381.586 86.6634 381.327 87.18 380.86L87.36 380.69C87.6055 380.465 87.8016 380.192 87.9358 379.887C88.0699 379.582 88.1392 379.253 88.1392 378.92C88.1392 378.587 88.0699 378.258 87.9358 377.953C87.8016 377.648 87.6055 377.375 87.36 377.15V377.15Z" fill="#4D4B4B" stroke="#E2E2E2" stroke-width="0.5" stroke-miterlimit="10"/>
<path d="M96.37 377.15L96.19 376.98C95.6734 376.513 95.0016 376.254 94.305 376.254C93.6084 376.254 92.9366 376.513 92.42 376.98L92.24 377.15C91.9944 377.375 91.7984 377.648 91.6642 377.953C91.5301 378.258 91.4608 378.587 91.4608 378.92C91.4608 379.253 91.5301 379.582 91.6642 379.887C91.7984 380.192 91.9944 380.465 92.24 380.69L92.42 380.86C92.9334 381.334 93.6064 381.597 94.305 381.597C95.0036 381.597 95.6765 381.334 96.19 380.86L96.37 380.69C96.6155 380.465 96.8116 380.192 96.9457 379.887C97.0799 379.582 97.1492 379.253 97.1492 378.92C97.1492 378.587 97.0799 378.258 96.9457 377.953C96.8116 377.648 96.6155 377.375 96.37 377.15V377.15Z" fill="#4D4B4B" stroke="#E2E2E2" stroke-width="0.5" stroke-miterlimit="10"/>
<path d="M112.61 375.85H100.37V382H112.61V375.85Z" fill="#5C5C5C"/>
<path d="M87.36 369.2L87.18 369.03C86.6634 368.563 85.9916 368.304 85.295 368.304C84.5984 368.304 83.9266 368.563 83.41 369.03L83.23 369.2C82.9845 369.425 82.7884 369.698 82.6542 370.003C82.5201 370.308 82.4508 370.637 82.4508 370.97C82.4508 371.303 82.5201 371.632 82.6542 371.937C82.7884 372.242 82.9845 372.515 83.23 372.74L83.41 372.91C83.9235 373.384 84.5964 373.647 85.295 373.647C85.9936 373.647 86.6665 373.384 87.18 372.91L87.36 372.74C87.6055 372.515 87.8016 372.242 87.9358 371.937C88.0699 371.632 88.1392 371.303 88.1392 370.97C88.1392 370.637 88.0699 370.308 87.9358 370.003C87.8016 369.698 87.6055 369.425 87.36 369.2V369.2Z" fill="#4D4B4B" stroke="#E2E2E2" stroke-width="0.5" stroke-miterlimit="10"/>
<path d="M96.37 369.2L96.19 369.04C95.6765 368.566 95.0036 368.303 94.305 368.303C93.6064 368.303 92.9334 368.566 92.42 369.04L92.24 369.2C91.9944 369.425 91.7984 369.698 91.6642 370.003C91.5301 370.308 91.4608 370.637 91.4608 370.97C91.4608 371.303 91.5301 371.632 91.6642 371.937C91.7984 372.242 91.9944 372.515 92.24 372.74L92.42 372.91C92.9334 373.384 93.6064 373.647 94.305 373.647C95.0036 373.647 95.6765 373.384 96.19 372.91L96.37 372.74C96.6183 372.517 96.8168 372.244 96.9528 371.939C97.0887 371.634 97.1589 371.304 97.1589 370.97C97.1589 370.636 97.0887 370.306 96.9528 370.001C96.8168 369.696 96.6183 369.423 96.37 369.2V369.2Z" fill="#4D4B4B" stroke="#E2E2E2" stroke-width="0.5" stroke-miterlimit="10"/>
<path d="M112.61 368.09H100.37V374.24H112.61V368.09Z" fill="#5C5C5C"/>
<path d="M87.37 361.24L87.19 361.07C86.6734 360.603 86.0016 360.344 85.305 360.344C84.6084 360.344 83.9366 360.603 83.42 361.07L83.23 361.24C82.9845 361.465 82.7884 361.738 82.6542 362.043C82.5201 362.348 82.4508 362.677 82.4508 363.01C82.4508 363.343 82.5201 363.672 82.6542 363.977C82.7884 364.282 82.9845 364.555 83.23 364.78L83.42 364.95C83.9335 365.424 84.6064 365.687 85.305 365.687C86.0036 365.687 86.6765 365.424 87.19 364.95L87.37 364.78C87.6155 364.555 87.8116 364.282 87.9458 363.977C88.0799 363.672 88.1492 363.343 88.1492 363.01C88.1492 362.677 88.0799 362.348 87.9458 362.043C87.8116 361.738 87.6155 361.465 87.37 361.24V361.24Z" fill="#4D4B4B" stroke="#E2E2E2" stroke-width="0.5" stroke-miterlimit="10"/>
<path d="M96.38 361.25L96.2 361.08C95.6865 360.606 95.0136 360.343 94.315 360.343C93.6164 360.343 92.9435 360.606 92.43 361.08L92.25 361.25C92.0017 361.473 91.8031 361.746 91.6672 362.051C91.5313 362.356 91.4611 362.686 91.4611 363.02C91.4611 363.354 91.5313 363.684 91.6672 363.989C91.8031 364.294 92.0017 364.567 92.25 364.79L92.43 364.95C92.9435 365.424 93.6164 365.687 94.315 365.687C95.0136 365.687 95.6865 365.424 96.2 364.95L96.38 364.79C96.6255 364.565 96.8216 364.292 96.9557 363.987C97.0899 363.682 97.1592 363.353 97.1592 363.02C97.1592 362.687 97.0899 362.358 96.9557 362.053C96.8216 361.748 96.6255 361.475 96.38 361.25V361.25Z" fill="#4D4B4B" stroke="#E2E2E2" stroke-width="0.5" stroke-miterlimit="10"/>
<path d="M112.61 359.95H100.37V366.1H112.61V359.95Z" fill="#5C5C5C"/>
<path d="M87.36 353.29L87.18 353.12C86.6634 352.653 85.9916 352.394 85.295 352.394C84.5984 352.394 83.9266 352.653 83.41 353.12L83.23 353.29C82.9845 353.515 82.7884 353.788 82.6542 354.093C82.5201 354.398 82.4508 354.727 82.4508 355.06C82.4508 355.393 82.5201 355.722 82.6542 356.027C82.7884 356.332 82.9845 356.605 83.23 356.83L83.41 357C83.9235 357.474 84.5964 357.737 85.295 357.737C85.9936 357.737 86.6665 357.474 87.18 357L87.36 356.83C87.6055 356.605 87.8016 356.332 87.9358 356.027C88.0699 355.722 88.1392 355.393 88.1392 355.06C88.1392 354.727 88.0699 354.398 87.9358 354.093C87.8016 353.788 87.6055 353.515 87.36 353.29V353.29Z" fill="#4D4B4B" stroke="#E2E2E2" stroke-width="0.5" stroke-miterlimit="10"/>
<path d="M96.37 353.31L96.19 353.14C95.6765 352.666 95.0036 352.403 94.305 352.403C93.6064 352.403 92.9335 352.666 92.42 353.14L92.24 353.31C91.9947 353.534 91.7988 353.807 91.6648 354.11C91.5307 354.414 91.4615 354.743 91.4615 355.075C91.4615 355.407 91.5307 355.736 91.6648 356.04C91.7988 356.343 91.9947 356.616 92.24 356.84L92.42 357.01C92.9335 357.484 93.6064 357.747 94.305 357.747C95.0036 357.747 95.6765 357.484 96.19 357.01L96.37 356.84C96.6153 356.616 96.8112 356.343 96.9452 356.04C97.0793 355.736 97.1485 355.407 97.1485 355.075C97.1485 354.743 97.0793 354.414 96.9452 354.11C96.8112 353.807 96.6153 353.534 96.37 353.31V353.31Z" fill="#4D4B4B" stroke="#E2E2E2" stroke-width="0.5" stroke-miterlimit="10"/>
<path d="M112.61 351.99H100.37V358.14H112.61V351.99Z" fill="#5C5C5C"/>
<path d="M87.36 345.34L87.18 345.17C86.6634 344.703 85.9916 344.444 85.295 344.444C84.5984 344.444 83.9266 344.703 83.41 345.17L83.23 345.34C82.9845 345.565 82.7884 345.838 82.6542 346.143C82.5201 346.448 82.4508 346.777 82.4508 347.11C82.4508 347.443 82.5201 347.772 82.6542 348.077C82.7884 348.382 82.9845 348.655 83.23 348.88L83.41 349.05C83.9235 349.524 84.5964 349.787 85.295 349.787C85.9936 349.787 86.6665 349.524 87.18 349.05L87.36 348.88C87.6083 348.657 87.8069 348.384 87.9428 348.079C88.0787 347.774 88.1489 347.444 88.1489 347.11C88.1489 346.776 88.0787 346.446 87.9428 346.141C87.8069 345.836 87.6083 345.563 87.36 345.34V345.34Z" fill="#4D4B4B" stroke="#E2E2E2" stroke-width="0.5" stroke-miterlimit="10"/>
<path d="M96.38 345.35L96.19 345.18C95.6765 344.706 95.0036 344.443 94.305 344.443C93.6064 344.443 92.9334 344.706 92.42 345.18L92.24 345.35C91.9944 345.575 91.7984 345.848 91.6642 346.153C91.5301 346.458 91.4608 346.787 91.4608 347.12C91.4608 347.453 91.5301 347.782 91.6642 348.087C91.7984 348.392 91.9944 348.665 92.24 348.89L92.42 349.05C92.9334 349.524 93.6064 349.787 94.305 349.787C95.0036 349.787 95.6765 349.524 96.19 349.05L96.38 348.89C96.6255 348.665 96.8216 348.392 96.9557 348.087C97.0899 347.782 97.1591 347.453 97.1591 347.12C97.1591 346.787 97.0899 346.458 96.9557 346.153C96.8216 345.848 96.6255 345.575 96.38 345.35V345.35Z" fill="#4D4B4B" stroke="#E2E2E2" stroke-width="0.5" stroke-miterlimit="10"/>
<path d="M112.61 344.04H100.37V350.2H112.61V344.04Z" fill="#5C5C5C"/>
<path d="M92.54 338.72L90.22 336.54C90.0825 336.417 89.9045 336.349 89.72 336.349C89.5355 336.349 89.3575 336.417 89.22 336.54L86.87 338.72C86.8067 338.78 86.7564 338.852 86.7219 338.932C86.6875 339.012 86.6697 339.098 86.6697 339.185C86.6697 339.272 86.6875 339.358 86.7219 339.438C86.7564 339.518 86.8067 339.59 86.87 339.65L89.19 341.83C89.3254 341.957 89.5042 342.028 89.69 342.028C89.8758 342.028 90.0546 341.957 90.19 341.83L92.54 339.62C92.6011 339.562 92.6498 339.492 92.6831 339.415C92.7163 339.338 92.7335 339.254 92.7335 339.17C92.7335 339.086 92.7163 339.002 92.6831 338.925C92.6498 338.848 92.6011 338.778 92.54 338.72V338.72Z" fill="#4D4B4B" stroke="#E2E2E2" stroke-width="0.5" stroke-miterlimit="10"/>
<path d="M112.61 336.09H100.37V342.24H112.61V336.09Z" fill="#5C5C5C"/>
<path d="M31.75 274.72H17.75C17.5936 274.722 17.4403 274.676 17.31 274.59C17.1813 274.513 17.0799 274.398 17.02 274.26C16.9549 274.127 16.9339 273.976 16.96 273.83C16.9914 273.683 17.0642 273.547 17.17 273.44L19.29 271.38C19.5801 271.108 19.9196 270.894 20.29 270.75C20.6595 270.604 21.0526 270.526 21.45 270.52H25.7C26.0298 270.526 26.3502 270.63 26.62 270.82L31.75 274.72Z" fill="#707171" stroke="#E2E2E2" stroke-width="1.8" stroke-miterlimit="10"/>
<path d="M72.15 274.72H59L62.39 271.06C62.5554 270.89 62.7525 270.754 62.97 270.66C63.1953 270.568 63.4365 270.52 63.68 270.52H70.54C70.6745 270.52 70.8051 270.566 70.91 270.65L73.03 272.76C73.1894 272.919 73.3004 273.12 73.35 273.34C73.3923 273.555 73.3679 273.779 73.28 273.98C73.1924 274.193 73.0425 274.374 72.85 274.5C72.6445 274.643 72.4003 274.72 72.15 274.72V274.72Z" fill="#707171" stroke="#E2E2E2" stroke-width="1.8" stroke-miterlimit="10"/>
<path d="M77.26 277.14V316.93C77.2588 317.122 77.2107 317.311 77.12 317.48C77.0286 317.654 76.9027 317.807 76.75 317.93L75.25 319.13C74.983 319.343 74.6516 319.46 74.31 319.46H16.36C16.0131 319.462 15.6766 319.342 15.41 319.12L14.87 318.67C14.4504 318.31 14.11 317.868 13.87 317.37C13.6398 316.872 13.5204 316.329 13.52 315.78L13.68 276.99C13.666 276.931 13.666 276.869 13.68 276.81C13.7018 276.748 13.7441 276.695 13.8 276.66L15.37 275.12C15.509 274.987 15.6718 274.882 15.85 274.81C16.0358 274.742 16.2322 274.708 16.43 274.71H29.9C30.2231 274.709 30.5381 274.811 30.8 275L37.24 279.82C37.6842 280.254 38.2114 280.594 38.79 280.82C39.3698 281.047 39.9873 281.162 40.61 281.16H50.3C50.9259 281.162 51.5466 281.047 52.13 280.82C52.7086 280.594 53.2358 280.254 53.68 279.82L60.54 274.98C60.7947 274.801 61.0989 274.707 61.41 274.71H74.41C74.6084 274.711 74.805 274.748 74.99 274.82C75.1711 274.892 75.3373 274.997 75.48 275.13L77.15 276.78C77.1963 276.828 77.2306 276.886 77.25 276.95C77.2682 277.012 77.2716 277.077 77.26 277.14V277.14Z" fill="#1D1D1D" stroke="#E2E2E2" stroke-width="1.8" stroke-miterlimit="10"/>
<path d="M71.23 319.46L70.44 320.09C70.173 320.303 69.8416 320.42 69.5 320.42H20.69C19.691 320.416 18.725 320.062 17.96 319.42C17.749 319.237 17.6019 318.992 17.54 318.72C17.4692 318.454 17.4904 318.172 17.6 317.92C17.7037 317.658 17.8897 317.437 18.13 317.29C18.3702 317.131 18.6522 317.048 18.94 317.05H70.28C70.5764 317.043 70.8684 317.123 71.12 317.28C71.3644 317.434 71.5536 317.661 71.66 317.93C71.7545 318.199 71.7545 318.491 71.66 318.76C71.5961 319.034 71.4452 319.279 71.23 319.46V319.46Z" fill="#707171" stroke="#E2E2E2" stroke-width="1.8" stroke-miterlimit="10"/>
<path d="M63.7 269.11C65.35 270.74 65.12 271.73 63.2 273.11L60.86 274.72L53.59 279.83C53.1496 280.264 52.6257 280.604 52.05 280.83C51.4702 281.057 50.8527 281.172 50.23 281.17H40.54C39.9141 281.172 39.2934 281.057 38.71 280.83C38.1314 280.604 37.6042 280.264 37.16 279.83L30.32 274.72L27.54 272.72C25.93 271.51 25.54 270.97 26.68 269.35L29.37 266.24C29.9065 265.721 30.6236 265.431 31.37 265.43H59.28C60.0178 265.416 60.733 265.685 61.28 266.18L63.7 269.11Z" fill="#3A3A3A" stroke="#E2E2E2" stroke-width="1.8" stroke-miterlimit="10"/>
<path d="M96.62 265.82H174.54C175.11 265.809 175.663 266.012 176.09 266.39L177.03 267.27" stroke="#E2E2E2" stroke-width="1.8" stroke-miterlimit="10"/>
<path d="M101.13 265.82C101.36 265.82 101.36 266.06 101.13 266.21C99.28 267.68 90.76 267.95 87.65 267.97C76.56 268.07 84.35 270.42 67.47 270.55C71.35 270.17 77.47 270.48 77.47 265.86L101.13 265.82Z" stroke="#E2E2E2" stroke-width="1.8" stroke-miterlimit="10"/>
<path d="M87.04 316.12L86.86 315.95C86.3465 315.476 85.6736 315.213 84.975 315.213C84.2764 315.213 83.6035 315.476 83.09 315.95L82.91 316.12C82.6645 316.345 82.4684 316.618 82.3342 316.923C82.2001 317.228 82.1308 317.557 82.1308 317.89C82.1308 318.223 82.2001 318.552 82.3342 318.857C82.4684 319.162 82.6645 319.435 82.91 319.66L83.09 319.82C83.6035 320.294 84.2764 320.557 84.975 320.557C85.6736 320.557 86.3465 320.294 86.86 319.82L87.04 319.66C87.2855 319.435 87.4816 319.162 87.6157 318.857C87.7499 318.552 87.8192 318.223 87.8192 317.89C87.8192 317.557 87.7499 317.228 87.6157 316.923C87.4816 316.618 87.2855 316.345 87.04 316.12V316.12Z" fill="#4D4B4B" stroke="#E2E2E2" stroke-width="0.5" stroke-miterlimit="10"/>
<path d="M96.06 316.11L95.88 315.94C95.3634 315.473 94.6916 315.214 93.995 315.214C93.2984 315.214 92.6266 315.473 92.11 315.94L91.93 316.11C91.6817 316.333 91.4831 316.606 91.3472 316.911C91.2113 317.216 91.1411 317.546 91.1411 317.88C91.1411 318.214 91.2113 318.544 91.3472 318.849C91.4831 319.154 91.6817 319.427 91.93 319.65L92.11 319.82C92.6234 320.294 93.2964 320.557 93.995 320.557C94.6936 320.557 95.3665 320.294 95.88 319.82L96.06 319.65C96.3055 319.425 96.5016 319.152 96.6357 318.847C96.7699 318.542 96.8391 318.213 96.8391 317.88C96.8391 317.547 96.7699 317.218 96.6357 316.913C96.5016 316.608 96.3055 316.335 96.06 316.11V316.11Z" fill="#4D4B4B" stroke="#E2E2E2" stroke-width="0.5" stroke-miterlimit="10"/>
<path d="M112.65 314.62H100.42V320.77H112.65V314.62Z" fill="#5C5C5C"/>
<path d="M87.05 308.59L86.87 308.42C86.3534 307.953 85.6816 307.694 84.985 307.694C84.2884 307.694 83.6166 307.953 83.1 308.42L82.92 308.59C82.6745 308.815 82.4784 309.088 82.3443 309.393C82.2101 309.698 82.1408 310.027 82.1408 310.36C82.1408 310.693 82.2101 311.022 82.3443 311.327C82.4784 311.632 82.6745 311.905 82.92 312.13L83.1 312.3C83.6135 312.774 84.2864 313.037 84.985 313.037C85.6836 313.037 86.3566 312.774 86.87 312.3L87.05 312.13C87.2956 311.905 87.4916 311.632 87.6258 311.327C87.7599 311.022 87.8292 310.693 87.8292 310.36C87.8292 310.027 87.7599 309.698 87.6258 309.393C87.4916 309.088 87.2956 308.815 87.05 308.59V308.59Z" fill="#4D4B4B" stroke="#E2E2E2" stroke-width="0.5" stroke-miterlimit="10"/>
<path d="M96.06 308.59L95.88 308.42C95.3638 307.948 94.6896 307.686 93.99 307.686C93.2904 307.686 92.6162 307.948 92.1 308.42L91.92 308.59C91.6745 308.815 91.4784 309.088 91.3443 309.393C91.2101 309.698 91.1408 310.027 91.1408 310.36C91.1408 310.693 91.2101 311.022 91.3443 311.327C91.4784 311.632 91.6745 311.905 91.92 312.13L92.1 312.3C92.6183 312.768 93.2917 313.027 93.99 313.027C94.6883 313.027 95.3618 312.768 95.88 312.3L96.06 312.13C96.3055 311.905 96.5016 311.632 96.6358 311.327C96.7699 311.022 96.8392 310.693 96.8392 310.36C96.8392 310.027 96.7699 309.698 96.6358 309.393C96.5016 309.088 96.3055 308.815 96.06 308.59V308.59Z" fill="#4D4B4B" stroke="#E2E2E2" stroke-width="0.5" stroke-miterlimit="10"/>
<path d="M112.65 307.1H100.42V313.25H112.65V307.1Z" fill="#5C5C5C"/>
<path d="M87.17 301.08L86.99 300.91C86.4765 300.436 85.8036 300.173 85.105 300.173C84.4064 300.173 83.7335 300.436 83.22 300.91L83.04 301.08C82.7945 301.305 82.5984 301.578 82.4642 301.883C82.3301 302.188 82.2608 302.517 82.2608 302.85C82.2608 303.183 82.3301 303.512 82.4642 303.817C82.5984 304.122 82.7945 304.395 83.04 304.62L83.22 304.79C83.7366 305.257 84.4084 305.516 85.105 305.516C85.8016 305.516 86.4734 305.257 86.99 304.79L87.17 304.62C87.4155 304.395 87.6116 304.122 87.7458 303.817C87.8799 303.512 87.9492 303.183 87.9492 302.85C87.9492 302.517 87.8799 302.188 87.7458 301.883C87.6116 301.578 87.4155 301.305 87.17 301.08V301.08Z" fill="#4D4B4B" stroke="#E2E2E2" stroke-width="0.5" stroke-miterlimit="10"/>
<path d="M96.18 301.08L96 300.91C95.4834 300.443 94.8116 300.184 94.115 300.184C93.4184 300.184 92.7466 300.443 92.23 300.91L92.05 301.08C91.8045 301.305 91.6084 301.578 91.4743 301.883C91.3401 302.188 91.2708 302.517 91.2708 302.85C91.2708 303.183 91.3401 303.512 91.4743 303.817C91.6084 304.122 91.8045 304.395 92.05 304.62L92.23 304.79C92.7435 305.264 93.4164 305.527 94.115 305.527C94.8136 305.527 95.4865 305.264 96 304.79L96.18 304.62C96.4255 304.395 96.6216 304.122 96.7558 303.817C96.8899 303.512 96.9592 303.183 96.9592 302.85C96.9592 302.517 96.8899 302.188 96.7558 301.883C96.6216 301.578 96.4255 301.305 96.18 301.08V301.08Z" fill="#4D4B4B" stroke="#E2E2E2" stroke-width="0.5" stroke-miterlimit="10"/>
<path d="M112.65 299.59H100.42V305.72H112.65V299.59Z" fill="#5C5C5C"/>
<path d="M87.17 293.82L86.99 293.65C86.4734 293.183 85.8016 292.924 85.105 292.924C84.4084 292.924 83.7366 293.183 83.22 293.65L83.04 293.82C82.7945 294.045 82.5984 294.318 82.4642 294.623C82.3301 294.928 82.2608 295.257 82.2608 295.59C82.2608 295.923 82.3301 296.252 82.4642 296.557C82.5984 296.862 82.7945 297.135 83.04 297.36L83.22 297.53C83.7335 298.004 84.4064 298.267 85.105 298.267C85.8036 298.267 86.4765 298.004 86.99 297.53L87.17 297.36C87.4155 297.135 87.6116 296.862 87.7458 296.557C87.8799 296.252 87.9492 295.923 87.9492 295.59C87.9492 295.257 87.8799 294.928 87.7458 294.623C87.6116 294.318 87.4155 294.045 87.17 293.82V293.82Z" fill="#4D4B4B" stroke="#E2E2E2" stroke-width="0.5" stroke-miterlimit="10"/>
<path d="M96.18 293.83L96 293.66C95.4865 293.186 94.8136 292.923 94.115 292.923C93.4164 292.923 92.7435 293.186 92.23 293.66L92.05 293.83C91.8045 294.055 91.6084 294.328 91.4743 294.633C91.3401 294.938 91.2708 295.267 91.2708 295.6C91.2708 295.933 91.3401 296.262 91.4743 296.567C91.6084 296.872 91.8045 297.145 92.05 297.37L92.23 297.53C92.7435 298.004 93.4164 298.267 94.115 298.267C94.8136 298.267 95.4865 298.004 96 297.53L96.18 297.37C96.4255 297.145 96.6216 296.872 96.7558 296.567C96.8899 296.262 96.9592 295.933 96.9592 295.6C96.9592 295.267 96.8899 294.938 96.7558 294.633C96.6216 294.328 96.4255 294.055 96.18 293.83V293.83Z" fill="#4D4B4B" stroke="#E2E2E2" stroke-width="0.5" stroke-miterlimit="10"/>
<path d="M112.65 292.02H100.42V298.17H112.65V292.02Z" fill="#5C5C5C"/>
<path d="M87.16 286.19L86.98 286.02C86.4665 285.546 85.7936 285.283 85.095 285.283C84.3964 285.283 83.7234 285.546 83.21 286.02L83.03 286.19C82.7844 286.415 82.5884 286.688 82.4542 286.993C82.3201 287.298 82.2508 287.627 82.2508 287.96C82.2508 288.293 82.3201 288.622 82.4542 288.927C82.5884 289.232 82.7844 289.505 83.03 289.73L83.21 289.9C83.7234 290.374 84.3964 290.637 85.095 290.637C85.7936 290.637 86.4665 290.374 86.98 289.9L87.16 289.73C87.4083 289.507 87.6068 289.234 87.7428 288.929C87.8787 288.624 87.9489 288.294 87.9489 287.96C87.9489 287.626 87.8787 287.296 87.7428 286.991C87.6068 286.686 87.4083 286.413 87.16 286.19V286.19Z" fill="#4D4B4B" stroke="#E2E2E2" stroke-width="0.5" stroke-miterlimit="10"/>
<path d="M96.19 286.19L96.01 286.02C95.4934 285.553 94.8216 285.294 94.125 285.294C93.4284 285.294 92.7566 285.553 92.24 286.02L92.06 286.19C91.8117 286.413 91.6131 286.686 91.4772 286.991C91.3413 287.296 91.2711 287.626 91.2711 287.96C91.2711 288.294 91.3413 288.624 91.4772 288.929C91.6131 289.234 91.8117 289.507 92.06 289.73L92.24 289.9C92.7534 290.374 93.4264 290.637 94.125 290.637C94.8236 290.637 95.4965 290.374 96.01 289.9L96.19 289.73C96.4355 289.505 96.6316 289.232 96.7657 288.927C96.8999 288.622 96.9692 288.293 96.9692 287.96C96.9692 287.627 96.8999 287.298 96.7657 286.993C96.6316 286.688 96.4355 286.415 96.19 286.19V286.19Z" fill="#4D4B4B" stroke="#E2E2E2" stroke-width="0.5" stroke-miterlimit="10"/>
<path d="M112.65 284.72H100.42V290.87H112.65V284.72Z" fill="#5C5C5C"/>
<path d="M87.23 278.72L87.05 278.55C86.5318 278.082 85.8583 277.823 85.16 277.823C84.4617 277.823 83.7883 278.082 83.27 278.55L83.09 278.72C82.8445 278.945 82.6484 279.218 82.5143 279.523C82.3801 279.828 82.3109 280.157 82.3109 280.49C82.3109 280.823 82.3801 281.152 82.5143 281.457C82.6484 281.762 82.8445 282.035 83.09 282.26L83.27 282.43C83.7862 282.902 84.4604 283.164 85.16 283.164C85.8596 283.164 86.5339 282.902 87.05 282.43L87.23 282.26C87.4756 282.035 87.6716 281.762 87.8058 281.457C87.9399 281.152 88.0092 280.823 88.0092 280.49C88.0092 280.157 87.9399 279.828 87.8058 279.523C87.6716 279.218 87.4756 278.945 87.23 278.72V278.72Z" fill="#4D4B4B" stroke="#E2E2E2" stroke-width="0.5" stroke-miterlimit="10"/>
<path d="M96.24 278.72L96.06 278.55C95.5465 278.076 94.8736 277.813 94.175 277.813C93.4764 277.813 92.8035 278.076 92.29 278.55L92.11 278.72C91.8645 278.945 91.6684 279.218 91.5343 279.523C91.4001 279.828 91.3308 280.157 91.3308 280.49C91.3308 280.823 91.4001 281.152 91.5343 281.457C91.6684 281.762 91.8645 282.035 92.11 282.26L92.29 282.43C92.8066 282.897 93.4784 283.156 94.175 283.156C94.8716 283.156 95.5434 282.897 96.06 282.43L96.24 282.26C96.4855 282.035 96.6816 281.762 96.8158 281.457C96.9499 281.152 97.0192 280.823 97.0192 280.49C97.0192 280.157 96.9499 279.828 96.8158 279.523C96.6816 279.218 96.4855 278.945 96.24 278.72V278.72Z" fill="#4D4B4B" stroke="#E2E2E2" stroke-width="0.5" stroke-miterlimit="10"/>
<path d="M112.65 277.18H100.42V283.33H112.65V277.18Z" fill="#5C5C5C"/>
<path d="M92.37 272.65L90.05 270.47C89.9146 270.343 89.7358 270.272 89.55 270.272C89.3642 270.272 89.1854 270.343 89.05 270.47L86.73 272.65C86.664 272.708 86.6112 272.78 86.575 272.86C86.5388 272.94 86.5201 273.027 86.5201 273.115C86.5201 273.203 86.5388 273.29 86.575 273.37C86.6112 273.45 86.664 273.522 86.73 273.58L89.06 275.72C89.1975 275.843 89.3755 275.911 89.56 275.911C89.7445 275.911 89.9225 275.843 90.06 275.72L92.38 273.54C92.4941 273.419 92.5569 273.259 92.555 273.093C92.5532 272.927 92.4868 272.768 92.37 272.65Z" fill="#4D4B4B" stroke="#E2E2E2" stroke-width="0.5" stroke-miterlimit="10"/>
<path d="M112.24 269.84H100V276H112.24V269.84Z" fill="#5C5C5C"/>
<path d="M30.66 210.57H16.66C16.502 210.571 16.3467 210.529 16.21 210.45C16.0826 210.367 15.9819 210.249 15.92 210.11C15.8547 209.977 15.837 209.825 15.87 209.68C15.8986 209.529 15.9759 209.392 16.09 209.29L18.21 207.23C18.4939 206.95 18.8351 206.735 19.21 206.6C19.5745 206.448 19.9653 206.37 20.36 206.37H24.54C24.8736 206.371 25.1986 206.476 25.47 206.67L30.66 210.57Z" fill="#707171" stroke="#E2E2E2" stroke-width="1.8" stroke-miterlimit="10"/>
<path d="M71.07 210.57H57.92L61.33 206.92C61.4927 206.747 61.6904 206.611 61.91 206.52C62.13 206.421 62.3686 206.369 62.61 206.37H69.44C69.5705 206.369 69.6961 206.419 69.79 206.51L71.95 208.57C72.1251 208.731 72.2501 208.94 72.31 209.17C72.3569 209.402 72.3325 209.642 72.24 209.86C72.1366 210.075 71.9734 210.255 71.77 210.38C71.559 210.507 71.3165 210.573 71.07 210.57V210.57Z" fill="#707171" stroke="#E2E2E2" stroke-width="1.8" stroke-miterlimit="10"/>
<path d="M76.2 212.98V252.72C76.1925 252.911 76.1448 253.099 76.06 253.27C75.9748 253.442 75.8517 253.592 75.7 253.71L74.19 254.93C73.9255 255.14 73.5974 255.252 73.26 255.25H15.26C14.9131 255.252 14.5766 255.132 14.31 254.91L13.77 254.46C13.3483 254.102 13.0074 253.659 12.77 253.16C12.5366 252.666 12.4137 252.127 12.41 251.58L12.54 212.82C12.5532 212.695 12.6098 212.578 12.7 212.49L14.27 210.96C14.4103 210.821 14.5776 210.712 14.7616 210.639C14.9456 210.567 15.1424 210.533 15.34 210.54H28.81C29.1382 210.536 29.4583 210.642 29.72 210.84L36.15 215.66C37.0757 216.506 38.2857 216.974 39.54 216.97H49.24C50.4885 216.975 51.6926 216.507 52.61 215.66L59.48 210.81C59.7347 210.631 60.0389 210.537 60.35 210.54H73.35C73.5478 210.537 73.7445 210.571 73.93 210.64C74.1099 210.713 74.2732 210.822 74.41 210.96L76.1 212.61C76.1485 212.66 76.183 212.722 76.2 212.79C76.2149 212.852 76.2149 212.918 76.2 212.98V212.98Z" fill="#1D1D1D" stroke="#E2E2E2" stroke-width="1.8" stroke-miterlimit="10"/>
<path d="M70.14 255.29L69.36 255.93C69.0883 256.14 68.7536 256.253 68.41 256.25H19.6C18.6011 256.246 17.635 255.892 16.87 255.25C16.6597 255.069 16.5096 254.828 16.44 254.56C16.378 254.277 16.4132 253.981 16.54 253.72C16.6473 253.46 16.8325 253.24 17.07 253.09C17.3138 252.931 17.599 252.848 17.89 252.85H69.2C69.4969 252.839 69.7899 252.92 70.04 253.08C70.2845 253.234 70.4736 253.462 70.58 253.73C70.6746 253.999 70.6746 254.291 70.58 254.56C70.5181 254.845 70.3634 255.102 70.14 255.29V255.29Z" fill="#707171" stroke="#E2E2E2" stroke-width="1.8" stroke-miterlimit="10"/>
<path d="M62.61 204.94C64.27 206.57 64.04 207.56 62.11 208.94L59.78 210.59L52.54 215.72C52.0979 216.152 51.5744 216.492 51 216.72C50.4156 216.943 49.7956 217.059 49.17 217.06H39.45C38.8244 217.059 38.2043 216.943 37.62 216.72C37.0455 216.492 36.5221 216.152 36.08 215.72L29.24 210.6L26.54 208.5C24.91 207.3 24.54 206.76 25.67 205.13L28.36 202.03C28.9121 201.543 29.6239 201.276 30.36 201.28H58.26C58.997 201.261 59.7131 201.526 60.26 202.02L62.61 204.94Z" fill="#3A3A3A" stroke="#E2E2E2" stroke-width="1.8" stroke-miterlimit="10"/>
<path d="M95.54 201.66H173.41C173.988 201.652 174.546 201.867 174.97 202.26L175.91 203.14" stroke="#E2E2E2" stroke-width="1.8" stroke-miterlimit="10"/>
<path d="M100.04 201.66C100.28 201.66 100.29 201.88 100.11 202.03C98.25 203.51 89.74 203.78 86.62 203.81C75.53 203.91 83.33 206.25 66.44 206.39C70.34 206 76.44 206.31 76.5 201.69L100.04 201.66Z" stroke="#E2E2E2" stroke-width="1.8" stroke-miterlimit="10"/>
<path d="M87.29 216.77L87.11 216.61C86.5965 216.136 85.9236 215.873 85.225 215.873C84.5264 215.873 83.8535 216.136 83.34 216.61L83.16 216.77C82.9145 216.995 82.7184 217.268 82.5842 217.573C82.4501 217.878 82.3808 218.207 82.3808 218.54C82.3808 218.873 82.4501 219.202 82.5842 219.507C82.7184 219.812 82.9145 220.085 83.16 220.31L83.34 220.48C83.8535 220.954 84.5264 221.217 85.225 221.217C85.9236 221.217 86.5965 220.954 87.11 220.48L87.29 220.31C87.5355 220.085 87.7316 219.812 87.8657 219.507C87.9999 219.202 88.0692 218.873 88.0692 218.54C88.0692 218.207 87.9999 217.878 87.8657 217.573C87.7316 217.268 87.5355 216.995 87.29 216.77V216.77Z" fill="#4D4B4B" stroke="#E2E2E2" stroke-width="0.5" stroke-miterlimit="10"/>
<path d="M96.32 216.89L96.14 216.72C95.6265 216.246 94.9536 215.983 94.255 215.983C93.5564 215.983 92.8835 216.246 92.37 216.72L92.19 216.89C91.942 217.112 91.7435 217.384 91.6077 217.688C91.4719 217.993 91.4017 218.322 91.4017 218.655C91.4017 218.988 91.4719 219.317 91.6077 219.622C91.7435 219.926 91.942 220.198 92.19 220.42L92.37 220.59C92.8835 221.064 93.5564 221.327 94.255 221.327C94.9536 221.327 95.6265 221.064 96.14 220.59L96.32 220.42C96.5653 220.196 96.7612 219.923 96.8952 219.62C97.0293 219.316 97.0985 218.987 97.0985 218.655C97.0985 218.323 97.0293 217.994 96.8952 217.69C96.7612 217.387 96.5653 217.114 96.32 216.89V216.89Z" fill="#4D4B4B" stroke="#E2E2E2" stroke-width="0.5" stroke-miterlimit="10"/>
<path d="M112.72 215.58H100.48V221.72H112.72V215.58Z" fill="#5C5C5C"/>
<path d="M92.43 210.12L90.11 207.94C89.9715 207.819 89.7939 207.752 89.61 207.752C89.4261 207.752 89.2485 207.819 89.11 207.94L86.79 210.12C86.7268 210.18 86.6764 210.252 86.6419 210.332C86.6075 210.412 86.5898 210.498 86.5898 210.585C86.5898 210.672 86.6075 210.758 86.6419 210.838C86.6764 210.918 86.7268 210.99 86.79 211.05L89.11 213.23C89.2465 213.355 89.4249 213.424 89.61 213.424C89.7951 213.424 89.9735 213.355 90.11 213.23L92.43 211.05C92.4933 210.99 92.5436 210.918 92.5781 210.838C92.6125 210.758 92.6303 210.672 92.6303 210.585C92.6303 210.498 92.6125 210.412 92.5781 210.332C92.5436 210.252 92.4933 210.18 92.43 210.12Z" fill="#4D4B4B" stroke="#E2E2E2" stroke-width="0.5" stroke-miterlimit="10"/>
<path d="M112.72 207.52H100.48V213.72H112.72V207.52Z" fill="#5C5C5C"/>
<path d="M32.04 147.15H18.04C17.8835 147.153 17.7298 147.108 17.6 147.02C17.4713 146.943 17.3699 146.828 17.31 146.69C17.2483 146.556 17.2308 146.405 17.26 146.26C17.2916 146.116 17.3645 145.984 17.47 145.88L19.54 143.81C20.118 143.269 20.8784 142.966 21.67 142.96H25.91C26.2407 142.96 26.5629 143.065 26.83 143.26L32.04 147.15Z" fill="#707171" stroke="#E2E2E2" stroke-width="1.8" stroke-miterlimit="10"/>
<path d="M72.45 147.15H59.3L62.74 143.51C62.8986 143.334 63.0929 143.194 63.31 143.1C63.5321 143.009 63.7698 142.961 64.01 142.96H70.89C70.953 142.95 71.017 142.95 71.08 142.96C71.1392 142.987 71.1933 143.024 71.24 143.07L73.36 145.17C73.5268 145.332 73.6387 145.541 73.68 145.77C73.7294 145.993 73.7011 146.226 73.6 146.43C73.5001 146.642 73.3401 146.819 73.14 146.94C72.9367 147.079 72.696 147.152 72.45 147.15Z" fill="#707171" stroke="#E2E2E2" stroke-width="1.8" stroke-miterlimit="10"/>
<path d="M77.59 149.57V189.34C77.5888 189.532 77.5407 189.721 77.45 189.89C77.3652 190.065 77.2422 190.219 77.09 190.34L75.59 191.63C75.3195 191.836 74.9897 191.948 74.65 191.95H16.72C16.3569 191.959 16.0024 191.838 15.72 191.61L15.19 191.16C14.7676 190.803 14.4266 190.36 14.19 189.86C13.9515 189.368 13.8316 188.827 13.84 188.28L14 149.48C13.9995 149.417 14.0126 149.355 14.0385 149.298C14.0644 149.241 14.1025 149.191 14.15 149.15L15.64 147.57C15.781 147.435 15.9476 147.33 16.13 147.26C16.315 147.188 16.5116 147.151 16.71 147.15H30.19C30.5174 147.151 30.836 147.256 31.1 147.45L37.54 152.28C37.9912 152.705 38.5165 153.044 39.09 153.28C39.6704 153.504 40.288 153.616 40.91 153.61H50.61C51.8595 153.614 53.0654 153.15 53.99 152.31L60.86 147.45C61.1154 147.28 61.4136 147.187 61.72 147.18H74.72C74.9184 147.181 75.115 147.218 75.3 147.29C75.4794 147.36 75.6427 147.465 75.78 147.6L77.47 149.26C77.5101 149.301 77.5413 149.349 77.562 149.403C77.5826 149.456 77.5922 149.513 77.59 149.57Z" fill="#1D1D1D" stroke="#E2E2E2" stroke-width="1.8" stroke-miterlimit="10"/>
<path d="M71.54 191.88L70.76 192.51C70.4949 192.726 70.1615 192.839 69.82 192.83H20.96C19.9642 192.826 19.0015 192.472 18.24 191.83C18.0237 191.651 17.8668 191.41 17.79 191.14C17.7182 190.868 17.7369 190.581 17.8434 190.321C17.9499 190.061 18.1383 189.843 18.38 189.7C18.6238 189.541 18.909 189.458 19.2 189.46H70.59C70.8872 189.458 71.1788 189.541 71.43 189.7C71.6689 189.857 71.8539 190.084 71.96 190.35C72.0545 190.619 72.0545 190.911 71.96 191.18C71.8975 191.452 71.7504 191.697 71.54 191.88V191.88Z" fill="#707171" stroke="#E2E2E2" stroke-width="1.8" stroke-miterlimit="10"/>
<path d="M64 141.52C65.65 143.16 65.42 144.14 63.51 145.52L61.16 147.17L53.89 152.29C52.9653 153.13 51.7595 153.594 50.51 153.59H40.84C39.5881 153.607 38.3777 153.142 37.46 152.29L30.62 147.16L27.87 145.1C26.24 143.89 25.87 143.36 27.01 141.73L29.7 138.63C30.2465 138.133 30.9612 137.861 31.7 137.87H59.54C60.2761 137.866 60.9879 138.133 61.54 138.62L64 141.52Z" fill="#3A3A3A" stroke="#E2E2E2" stroke-width="1.8" stroke-miterlimit="10"/>
<path d="M96.93 138.24H174.79C175.369 138.236 175.927 138.454 176.35 138.85L177.29 139.73" stroke="#E2E2E2" stroke-width="1.8" stroke-miterlimit="10"/>
<path d="M101.43 138.24C101.66 138.24 101.67 138.47 101.49 138.62C99.63 140.1 91.12 140.37 88 140.4C76.92 140.49 84.71 142.84 67.82 142.98C71.72 142.59 77.82 142.9 77.88 138.27L101.43 138.24Z" stroke="#E2E2E2" stroke-width="1.8" stroke-miterlimit="10"/>
<path d="M87.34 177.46L87.16 177.29C86.6466 176.816 85.9736 176.553 85.275 176.553C84.5764 176.553 83.9035 176.816 83.39 177.29L83.21 177.46C82.9647 177.684 82.7688 177.957 82.6348 178.26C82.5007 178.564 82.4315 178.893 82.4315 179.225C82.4315 179.557 82.5007 179.886 82.6348 180.19C82.7688 180.493 82.9647 180.766 83.21 180.99L83.39 181.16C83.9035 181.634 84.5764 181.897 85.275 181.897C85.9736 181.897 86.6466 181.634 87.16 181.16L87.34 180.99C87.5853 180.766 87.7812 180.493 87.9153 180.19C88.0493 179.886 88.1185 179.557 88.1185 179.225C88.1185 178.893 88.0493 178.564 87.9153 178.26C87.7812 177.957 87.5853 177.684 87.34 177.46V177.46Z" fill="#4D4B4B" stroke="#E2E2E2" stroke-width="0.5" stroke-miterlimit="10"/>
<path d="M96.35 177.46L96.17 177.29C95.6565 176.816 94.9836 176.553 94.285 176.553C93.5864 176.553 92.9135 176.816 92.4 177.29L92.22 177.46C91.9745 177.685 91.7784 177.958 91.6442 178.263C91.5101 178.568 91.4408 178.897 91.4408 179.23C91.4408 179.563 91.5101 179.892 91.6442 180.197C91.7784 180.502 91.9745 180.775 92.22 181L92.4 181.17C92.9166 181.637 93.5884 181.896 94.285 181.896C94.9816 181.896 95.6534 181.637 96.17 181.17L96.35 181C96.5955 180.775 96.7916 180.502 96.9258 180.197C97.0599 179.892 97.1292 179.563 97.1292 179.23C97.1292 178.897 97.0599 178.568 96.9258 178.263C96.7916 177.958 96.5955 177.685 96.35 177.46V177.46Z" fill="#4D4B4B" stroke="#E2E2E2" stroke-width="0.5" stroke-miterlimit="10"/>
<path d="M112.72 176.15H100.48V182.31H112.72V176.15Z" fill="#5C5C5C"/>
<path d="M87.42 169.41L87.24 169.24C86.7265 168.766 86.0536 168.503 85.355 168.503C84.6564 168.503 83.9835 168.766 83.47 169.24L83.29 169.41C83.0445 169.635 82.8484 169.908 82.7142 170.213C82.5801 170.518 82.5108 170.847 82.5108 171.18C82.5108 171.513 82.5801 171.842 82.7142 172.147C82.8484 172.452 83.0445 172.725 83.29 172.95L83.47 173.12C83.9835 173.594 84.6564 173.857 85.355 173.857C86.0536 173.857 86.7265 173.594 87.24 173.12L87.42 172.95C87.6655 172.725 87.8616 172.452 87.9958 172.147C88.1299 171.842 88.1992 171.513 88.1992 171.18C88.1992 170.847 88.1299 170.518 87.9958 170.213C87.8616 169.908 87.6655 169.635 87.42 169.41V169.41Z" fill="#4D4B4B" stroke="#E2E2E2" stroke-width="0.5" stroke-miterlimit="10"/>
<path d="M96.44 169.41L96.26 169.24C95.7434 168.773 95.0716 168.514 94.375 168.514C93.6784 168.514 93.0066 168.773 92.49 169.24L92.31 169.41C92.0644 169.635 91.8684 169.908 91.7342 170.213C91.6001 170.518 91.5308 170.847 91.5308 171.18C91.5308 171.513 91.6001 171.842 91.7342 172.147C91.8684 172.452 92.0644 172.725 92.31 172.95L92.49 173.12C93.0034 173.594 93.6764 173.857 94.375 173.857C95.0736 173.857 95.7465 173.594 96.26 173.12L96.44 172.95C96.6855 172.725 96.8816 172.452 97.0157 172.147C97.1499 171.842 97.2192 171.513 97.2192 171.18C97.2192 170.847 97.1499 170.518 97.0157 170.213C96.8816 169.908 96.6855 169.635 96.44 169.41V169.41Z" fill="#4D4B4B" stroke="#E2E2E2" stroke-width="0.5" stroke-miterlimit="10"/>
<path d="M112.72 167.93H100.48V174.08H112.72V167.93Z" fill="#5C5C5C"/>
<path d="M87.54 161.29L87.35 161.12C86.8366 160.646 86.1636 160.383 85.465 160.383C84.7664 160.383 84.0935 160.646 83.58 161.12L83.4 161.29C83.1545 161.515 82.9584 161.788 82.8243 162.093C82.6901 162.398 82.6208 162.727 82.6208 163.06C82.6208 163.393 82.6901 163.722 82.8243 164.027C82.9584 164.332 83.1545 164.605 83.4 164.83L83.58 165C84.0966 165.467 84.7684 165.726 85.465 165.726C86.1616 165.726 86.8334 165.467 87.35 165L87.54 164.83C87.7856 164.605 87.9816 164.332 88.1158 164.027C88.2499 163.722 88.3192 163.393 88.3192 163.06C88.3192 162.727 88.2499 162.398 88.1158 162.093C87.9816 161.788 87.7856 161.515 87.54 161.29V161.29Z" fill="#4D4B4B" stroke="#E2E2E2" stroke-width="0.5" stroke-miterlimit="10"/>
<path d="M96.54 161.28L96.36 161.12C95.8465 160.646 95.1736 160.383 94.475 160.383C93.7764 160.383 93.1035 160.646 92.59 161.12L92.41 161.28C92.1645 161.505 91.9684 161.778 91.8342 162.083C91.7001 162.388 91.6308 162.717 91.6308 163.05C91.6308 163.383 91.7001 163.712 91.8342 164.017C91.9684 164.322 92.1645 164.595 92.41 164.82L92.59 164.99C93.1035 165.464 93.7764 165.727 94.475 165.727C95.1736 165.727 95.8465 165.464 96.36 164.99L96.54 164.82C96.7855 164.595 96.9816 164.322 97.1157 164.017C97.2499 163.712 97.3192 163.383 97.3192 163.05C97.3192 162.717 97.2499 162.388 97.1157 162.083C96.9816 161.778 96.7855 161.505 96.54 161.28V161.28Z" fill="#4D4B4B" stroke="#E2E2E2" stroke-width="0.5" stroke-miterlimit="10"/>
<path d="M112.72 159.98H100.48V166.14H112.72V159.98Z" fill="#5C5C5C"/>
<path d="M87.54 153.33L87.36 153.16C86.8465 152.686 86.1736 152.423 85.475 152.423C84.7764 152.423 84.1035 152.686 83.59 153.16L83.41 153.33C83.1645 153.555 82.9684 153.828 82.8342 154.133C82.7001 154.438 82.6308 154.767 82.6308 155.1C82.6308 155.433 82.7001 155.762 82.8342 156.067C82.9684 156.372 83.1645 156.645 83.41 156.87L83.59 157.04C84.1035 157.514 84.7764 157.777 85.475 157.777C86.1736 157.777 86.8465 157.514 87.36 157.04L87.54 156.87C87.7855 156.645 87.9816 156.372 88.1157 156.067C88.2499 155.762 88.3192 155.433 88.3192 155.1C88.3192 154.767 88.2499 154.438 88.1157 154.133C87.9816 153.828 87.7855 153.555 87.54 153.33V153.33Z" fill="#4D4B4B" stroke="#E2E2E2" stroke-width="0.5" stroke-miterlimit="10"/>
<path d="M96.54 153.33L96.36 153.16C95.8465 152.686 95.1736 152.423 94.475 152.423C93.7764 152.423 93.1035 152.686 92.59 153.16L92.41 153.33C92.1645 153.555 91.9684 153.828 91.8342 154.133C91.7001 154.438 91.6308 154.767 91.6308 155.1C91.6308 155.433 91.7001 155.762 91.8342 156.067C91.9684 156.372 92.1645 156.645 92.41 156.87L92.59 157.03C93.1035 157.504 93.7764 157.767 94.475 157.767C95.1736 157.767 95.8465 157.504 96.36 157.03L96.54 156.87C96.7855 156.645 96.9816 156.372 97.1157 156.067C97.2499 155.762 97.3192 155.433 97.3192 155.1C97.3192 154.767 97.2499 154.438 97.1157 154.133C96.9816 153.828 96.7855 153.555 96.54 153.33V153.33Z" fill="#4D4B4B" stroke="#E2E2E2" stroke-width="0.5" stroke-miterlimit="10"/>
<path d="M112.72 152.03H100.48V158.18H112.72V152.03Z" fill="#5C5C5C"/>
<path d="M92.68 146.72L90.36 144.54C90.2246 144.413 90.0458 144.342 89.86 144.342C89.6742 144.342 89.4954 144.413 89.36 144.54L87.05 146.72C86.984 146.778 86.9312 146.85 86.895 146.93C86.8588 147.01 86.8401 147.097 86.8401 147.185C86.8401 147.273 86.8588 147.36 86.895 147.44C86.9312 147.52 86.984 147.592 87.05 147.65L89.37 149.83C89.5075 149.953 89.6855 150.021 89.87 150.021C90.0545 150.021 90.2325 149.953 90.37 149.83L92.69 147.65C92.7553 147.591 92.8074 147.519 92.8428 147.438C92.8781 147.358 92.8959 147.271 92.8949 147.183C92.894 147.095 92.8743 147.008 92.8373 146.928C92.8002 146.848 92.7466 146.777 92.68 146.72V146.72Z" fill="#4D4B4B" stroke="#E2E2E2" stroke-width="0.5" stroke-miterlimit="10"/>
<path d="M112.72 144.07H100.48V150.22H112.72V144.07Z" fill="#5C5C5C"/>
<path d="M31.68 84.72H17.68C17.522 84.7207 17.3667 84.6792 17.23 84.6C17.1026 84.5169 17.0019 84.3989 16.94 84.26C16.8747 84.1266 16.8571 83.9748 16.89 83.83C16.9187 83.6794 16.996 83.5424 17.11 83.44L19.23 81.38C19.5202 81.1082 19.8596 80.8944 20.23 80.75C20.5949 80.5999 20.9854 80.5218 21.38 80.52H25.54C25.8736 80.5212 26.1986 80.6261 26.47 80.82L31.68 84.72Z" fill="#707171" stroke="#E2E2E2" stroke-width="1.8" stroke-miterlimit="10"/>
<path d="M72.09 84.72H58.94L62.39 81.07C62.5527 80.8969 62.7504 80.7606 62.97 80.67C63.1932 80.5698 63.4353 80.5186 63.68 80.52H70.54C70.6735 80.5187 70.8024 80.5688 70.9 80.66L73.02 82.76C73.1868 82.9216 73.2987 83.1314 73.34 83.36C73.3834 83.5829 73.3554 83.8139 73.26 84.02C73.1643 84.2311 73.0076 84.4088 72.81 84.53C72.5921 84.6586 72.3429 84.7244 72.09 84.72V84.72Z" fill="#707171" stroke="#E2E2E2" stroke-width="1.8" stroke-miterlimit="10"/>
<path d="M77.26 87.15V126.93C77.2576 127.122 77.2096 127.31 77.12 127.48C77.0348 127.652 76.9117 127.802 76.76 127.92L75.25 129.13C74.9899 129.348 74.6596 129.466 74.32 129.46H16.32C15.9565 129.472 15.6011 129.351 15.32 129.12L14.78 128.67C14.3583 128.32 14.0172 127.884 13.78 127.39C13.5467 126.903 13.4237 126.37 13.42 125.83L13.58 87.03C13.585 86.9046 13.6388 86.7862 13.73 86.7L15.31 85.17C15.45 85.0228 15.6194 84.9067 15.8072 84.8292C15.995 84.7517 16.1969 84.7145 16.4 84.72H29.83C30.1582 84.7163 30.4783 84.8219 30.74 85.02L37.18 89.83C37.6273 90.2602 38.1537 90.5998 38.73 90.83C39.3107 91.0541 39.9276 91.1693 40.55 91.17H50.25C50.8722 91.1675 51.4889 91.0524 52.07 90.83C52.6451 90.5974 53.171 90.2581 53.62 89.83L60.54 85.02C60.7947 84.8414 61.0989 84.747 61.41 84.75H74.41C74.6079 84.7474 74.8045 84.7813 74.99 84.85C75.1718 84.9197 75.3358 85.029 75.47 85.17L77.16 86.82C77.198 86.8654 77.2265 86.9181 77.2437 86.9748C77.2609 87.0315 77.2664 87.0911 77.26 87.15V87.15Z" fill="#1D1D1D" stroke="#E2E2E2" stroke-width="1.8" stroke-miterlimit="10"/>
<path d="M71.16 129.46L70.38 130.1C70.1095 130.306 69.7797 130.418 69.44 130.42H20.54C19.541 130.416 18.575 130.062 17.81 129.42C17.5934 129.243 17.4392 129.001 17.37 128.73C17.3054 128.46 17.3277 128.176 17.4336 127.92C17.5395 127.663 17.7237 127.446 17.96 127.3C18.2038 127.141 18.489 127.058 18.78 127.06H70.23C70.5279 127.053 70.8208 127.137 71.07 127.3C71.3112 127.455 71.4968 127.683 71.6 127.95C71.6946 128.215 71.6946 128.505 71.6 128.77C71.5265 129.039 71.3731 129.28 71.16 129.46Z" fill="#707171" stroke="#E2E2E2" stroke-width="1.8" stroke-miterlimit="10"/>
<path d="M63.64 79.11C65.29 80.74 65.06 81.73 63.13 83.11L60.8 84.72L53.54 89.86C53.0927 90.2902 52.5663 90.6298 51.99 90.86C51.4056 91.0833 50.7856 91.1985 50.16 91.2H40.48C39.8541 91.2022 39.2333 91.0869 38.65 90.86C38.0736 90.6298 37.5473 90.2902 37.1 89.86L30.26 84.72L27.54 82.72C25.91 81.52 25.54 80.98 26.67 79.35L29.36 76.25C29.9121 75.7631 30.6239 75.4962 31.36 75.5H59.2C59.937 75.4806 60.6531 75.7456 61.2 76.24L63.64 79.11Z" fill="#3A3A3A" stroke="#E2E2E2" stroke-width="1.8" stroke-miterlimit="10"/>
<path d="M96.54 75.83H174.41C174.988 75.8223 175.546 76.0371 175.97 76.43L176.91 77.31" stroke="#E2E2E2" stroke-width="1.8" stroke-miterlimit="10"/>
<path d="M101.06 75.83C101.3 75.83 101.31 76.05 101.13 76.2C99.27 77.72 90.76 77.95 87.64 77.98C76.56 78.08 84.35 80.42 67.46 80.55C71.35 80.17 77.46 80.48 77.52 75.86L101.06 75.83Z" stroke="#E2E2E2" stroke-width="1.8" stroke-miterlimit="10"/>
<path d="M87.3 90.98L87.12 90.81C86.6066 90.3363 85.9336 90.0733 85.235 90.0733C84.5364 90.0733 83.8635 90.3363 83.35 90.81L83.17 90.98C82.9245 91.2049 82.7284 91.4783 82.5943 91.7831C82.4601 92.0878 82.3908 92.4171 82.3908 92.75C82.3908 93.0829 82.4601 93.4122 82.5943 93.717C82.7284 94.0217 82.9245 94.2952 83.17 94.52L83.35 94.69C83.8666 95.1573 84.5384 95.4161 85.235 95.4161C85.9316 95.4161 86.6034 95.1573 87.12 94.69L87.3 94.52C87.5456 94.2952 87.7416 94.0217 87.8758 93.717C88.0099 93.4122 88.0792 93.0829 88.0792 92.75C88.0792 92.4171 88.0099 92.0878 87.8758 91.7831C87.7416 91.4783 87.5456 91.2049 87.3 90.98V90.98Z" fill="#4D4B4B" stroke="#E2E2E2" stroke-width="0.5" stroke-miterlimit="10"/>
<path d="M96.33 90.99L96.14 90.82C95.6234 90.3527 94.9516 90.094 94.255 90.094C93.5584 90.094 92.8866 90.3527 92.37 90.82L92.19 90.99C91.9445 91.2149 91.7484 91.4883 91.6142 91.7931C91.4801 92.0978 91.4108 92.4271 91.4108 92.76C91.4108 93.0929 91.4801 93.4222 91.6142 93.727C91.7484 94.0317 91.9445 94.3052 92.19 94.53L92.37 94.7C92.8835 95.1737 93.5564 95.4367 94.255 95.4367C94.9536 95.4367 95.6265 95.1737 96.14 94.7L96.33 94.53C96.5755 94.3052 96.7716 94.0317 96.9057 93.727C97.0399 93.4222 97.1092 93.0929 97.1092 92.76C97.1092 92.4271 97.0399 92.0978 96.9057 91.7931C96.7716 91.4883 96.5755 91.2149 96.33 90.99V90.99Z" fill="#4D4B4B" stroke="#E2E2E2" stroke-width="0.5" stroke-miterlimit="10"/>
<path d="M112.6 89.72H100.36V95.87H112.6V89.72Z" fill="#5C5C5C"/>
<path d="M92.44 84.33L90.12 82.15C89.9846 82.0227 89.8058 81.9519 89.62 81.9519C89.4342 81.9519 89.2554 82.0227 89.12 82.15L86.8 84.33C86.7367 84.3898 86.6864 84.4619 86.6519 84.5418C86.6175 84.6218 86.5997 84.7079 86.5997 84.795C86.5997 84.882 86.6175 84.9682 86.6519 85.0481C86.6864 85.1281 86.7367 85.2002 86.8 85.26L89.12 87.44C89.2575 87.563 89.4355 87.631 89.62 87.631C89.8045 87.631 89.9825 87.563 90.12 87.44L92.44 85.26C92.506 85.2018 92.5588 85.1303 92.595 85.0501C92.6312 84.9699 92.6499 84.883 92.6499 84.795C92.6499 84.707 92.6312 84.6201 92.595 84.5399C92.5588 84.4597 92.506 84.3882 92.44 84.33V84.33Z" fill="#4D4B4B" stroke="#E2E2E2" stroke-width="0.5" stroke-miterlimit="10"/>
<path d="M112.6 81.72H100.36V87.87H112.6V81.72Z" fill="#5C5C5C"/>
</g>
<defs>
<clipPath id="clip0">
<rect width="200" height="464" fill="white"/>
</clipPath>
</defs>
</svg>
