
<svg width="609" height="201" viewBox="0 0 609 201" fill="none" xmlns="http://www.w3.org/2000/svg">
<path d="M599.754 0.0225067L7.2227 0.0225067C6.77102 -0.0014636 6.31888 0.063992 5.91022 0.212509C5.51706 0.354973 5.17487 0.567663 4.91274 0.832504C3.91525 1.7125 2.85214 2.56252 1.85466 3.42252C-0.284681 5.23252 0.056564 4.75251 0.00406485 7.16251L0.00406485 193.973C-0.0184962 194.313 0.0530431 194.654 0.214061 194.973C0.384534 195.313 0.658955 195.618 1.01467 195.863C2.09091 196.713 3.07527 197.593 4.11212 198.463C6.26459 200.243 5.70022 199.963 8.5483 199.993L601.789 199.993C602.238 200.029 602.693 199.97 603.101 199.823C603.498 199.679 603.84 199.463 604.099 199.193C605.119 198.233 606.215 197.321 607.38 196.463C607.978 196.052 608.43 195.532 608.692 194.953C608.985 194.356 609.071 193.712 608.942 193.083V6.0825C608.964 5.74165 608.893 5.40098 608.732 5.0825C608.57 4.75964 608.314 4.46899 607.984 4.23251C607.13 3.53251 606.304 2.79251 605.451 2.10251C602.602 -0.367491 603.757 0.0225067 599.754 0.0225067ZM604.519 4.21251C604.834 4.45251 605.109 4.73251 605.424 4.96251C605.82 5.23226 606.115 5.57741 606.277 5.96251C606.463 6.33521 606.526 6.73693 606.461 7.13251V191.523C606.461 194.643 606.907 193.783 604.125 196.163C603.94 196.302 603.764 196.449 603.6 196.603C603.214 197.041 602.672 197.388 602.038 197.603C601.408 197.827 600.702 197.897 600.017 197.803C599.58 197.772 599.141 197.772 598.704 197.803L10.4514 197.803C6.15959 197.803 7.51144 198.263 4.29587 195.673C3.92838 195.383 3.56088 195.063 3.20651 194.753C2.98182 194.577 2.81143 194.365 2.70777 194.133C2.60013 193.919 2.54669 193.691 2.55027 193.463L2.55027 6.96251C2.51552 6.62377 2.57363 6.28322 2.7209 5.96251C2.86264 5.63065 3.10551 5.32909 3.42963 5.0825C4.37462 4.3425 5.2671 3.57251 6.15959 2.79251C6.38357 2.58905 6.66667 2.42813 6.98645 2.32251C7.29792 2.21201 7.64123 2.16382 7.98394 2.18251L598.809 2.18251C602.747 2.18251 601.566 1.78251 604.519 4.21251Z" fill="#3D3D3D"/>
<path d="M603.285 4.84258L604.164 5.60257C604.43 5.79589 604.636 6.03151 604.768 6.29257C604.903 6.56002 604.962 6.84649 604.939 7.13257V191.333C604.939 194.033 605.372 193.333 602.76 195.573C602.444 195.894 602.029 196.151 601.553 196.323C601.083 196.483 600.569 196.552 600.056 196.523L11.2652 196.523C10.6709 196.493 10.0746 196.493 9.48022 196.523C8.79891 196.584 8.10858 196.501 7.48525 196.283C6.85357 196.061 6.31016 195.716 5.91028 195.283C3.82343 193.413 4.09906 193.913 4.08593 191.533L4.08593 8.19257C4.08593 5.74257 4.21718 5.52257 6.36964 3.94257C6.7293 3.65753 7.16167 3.43154 7.64016 3.27849C8.11866 3.12544 8.63317 3.04855 9.1521 3.05257L598.193 3.05257C601.5 3.07257 600.739 2.71257 603.285 4.84258Z" fill="#3D3D3D"/>
<path d="M274.23 44.2806H260.23C260.074 44.2789 259.922 44.2339 259.79 44.1506C259.663 44.0711 259.562 43.9564 259.5 43.8206C259.44 43.6857 259.422 43.5356 259.45 43.3906C259.481 43.2432 259.554 43.1079 259.66 43.0006L261.73 40.9406C262.02 40.6688 262.359 40.4549 262.73 40.3106C263.099 40.1643 263.493 40.0863 263.89 40.0806H268.13C268.46 40.0851 268.781 40.1897 269.05 40.3806L274.23 44.2806Z" fill="#707171" stroke="#E2E2E2" stroke-width="1.8" stroke-miterlimit="10"/>
<path d="M314.64 44.2805H301.49L304.93 40.6305C305.089 40.4579 305.284 40.3215 305.5 40.2305C305.72 40.131 305.959 40.0799 306.2 40.0805H313.08C313.143 40.0712 313.207 40.0712 313.27 40.0805C313.329 40.1042 313.383 40.138 313.43 40.1805L315.55 42.2905C315.717 42.4481 315.829 42.6548 315.87 42.8805C315.922 43.1063 315.893 43.3431 315.79 43.5505C315.69 43.762 315.53 43.9394 315.33 44.0605C315.123 44.1935 314.885 44.2694 314.64 44.2805Z" fill="#707171" stroke="#E2E2E2" stroke-width="1.8" stroke-miterlimit="10"/>
<path d="M319.78 46.6906V86.4706C319.779 86.6626 319.731 86.8514 319.64 87.0206C319.553 87.1939 319.43 87.3472 319.28 87.4706L317.78 88.6706C317.515 88.8874 317.182 89.0042 316.84 89.0006H258.91C258.547 89.0095 258.192 88.889 257.91 88.6606L257.38 88.2106C256.955 87.8601 256.613 87.4195 256.38 86.9206C256.135 86.4297 256.005 85.8893 256 85.3406L256.16 46.5406C256.17 46.4163 256.223 46.2995 256.31 46.2106L257.85 44.7006C257.991 44.5625 258.157 44.4538 258.34 44.3805C258.526 44.3119 258.722 44.278 258.92 44.2806H272.38C272.708 44.2769 273.028 44.3824 273.29 44.5806L279.73 49.3906C280.643 50.2454 281.849 50.7178 283.1 50.7106H292.8C293.426 50.7091 294.046 50.5939 294.63 50.3706C295.205 50.1379 295.731 49.7986 296.18 49.3706L303.05 44.5306C303.303 44.3568 303.603 44.2628 303.91 44.2606H316.91C317.109 44.2565 317.306 44.294 317.49 44.3706C317.671 44.4364 317.835 44.5424 317.97 44.6806L319.66 46.3306C319.705 46.3782 319.739 46.4351 319.76 46.4973C319.781 46.5595 319.787 46.6255 319.78 46.6906Z" fill="#1D1D1D" stroke="#E2E2E2" stroke-width="1.8" stroke-miterlimit="10"/>
<path d="M313.73 89.0205L312.95 89.6605C312.682 89.8715 312.351 89.9845 312.01 89.9805H263.15C262.154 89.9753 261.192 89.6215 260.43 88.9805C260.214 88.8013 260.057 88.5607 259.98 88.2905C259.911 88.0253 259.929 87.7451 260.03 87.4905C260.14 87.2268 260.328 87.0033 260.57 86.8505C260.817 86.6993 261.101 86.6197 261.39 86.6205H312.78C313.077 86.6183 313.369 86.7016 313.62 86.8605C313.859 87.0179 314.044 87.2448 314.15 87.5105C314.245 87.7757 314.245 88.0654 314.15 88.3305C314.085 88.5988 313.939 88.8401 313.73 89.0205Z" fill="#707171" stroke="#E2E2E2" stroke-width="1.8" stroke-miterlimit="10"/>
<path d="M306.19 38.6505C307.84 40.2805 307.61 41.2705 305.7 42.6505L303.35 44.3005L296.08 49.4005C295.633 49.8307 295.106 50.1703 294.53 50.4005C293.946 50.6238 293.326 50.739 292.7 50.7405H283.03C282.404 50.7427 281.783 50.6274 281.2 50.4005C280.622 50.1743 280.095 49.8342 279.65 49.4005L272.81 44.2905L270.06 42.2305C268.43 41.0205 268.06 40.4805 269.2 38.8605L271.89 35.7605C272.434 35.2588 273.15 34.9866 273.89 35.0005H301.73C302.466 34.9967 303.178 35.2636 303.73 35.7505L306.19 38.6505Z" fill="#3A3A3A" stroke="#E2E2E2" stroke-width="1.8" stroke-miterlimit="10"/>
<path d="M339.12 35.3705H416.98C417.559 35.3665 418.117 35.5849 418.54 35.9805L419.48 36.8505" stroke="#E2E2E2" stroke-width="1.8" stroke-miterlimit="10"/>
<path d="M343.62 35.3706C343.85 35.3706 343.86 35.6006 343.68 35.7506C341.82 37.2206 333.31 37.4906 330.19 37.5206C319.11 37.6206 326.9 39.9606 310.01 40.0906C313.91 39.7106 320.01 40.0206 320.07 35.4006L343.62 35.3706Z" stroke="#E2E2E2" stroke-width="1.8" stroke-miterlimit="10"/>
<path d="M329.55 82.4505L329.37 82.2805C328.857 81.8068 328.184 81.5438 327.485 81.5438C326.786 81.5438 326.113 81.8068 325.6 82.2805L325.42 82.4505C325.174 82.6753 324.978 82.9488 324.844 83.2535C324.71 83.5583 324.641 83.8876 324.641 84.2205C324.641 84.5535 324.71 84.8827 324.844 85.1875C324.978 85.4922 325.174 85.7657 325.42 85.9905L325.6 86.1605C326.117 86.6278 326.788 86.8866 327.485 86.8866C328.182 86.8866 328.853 86.6278 329.37 86.1605L329.55 85.9905C329.796 85.7657 329.992 85.4922 330.126 85.1875C330.26 84.8827 330.329 84.5535 330.329 84.2205C330.329 83.8876 330.26 83.5583 330.126 83.2535C329.992 82.9488 329.796 82.6753 329.55 82.4505Z" fill="#4D4B4B" stroke="#E2E2E2" stroke-width="0.5" stroke-miterlimit="10"/>
<path d="M338.56 82.4505L338.38 82.2805C337.863 81.8132 337.192 81.5544 336.495 81.5544C335.798 81.5544 335.127 81.8132 334.61 82.2805L334.43 82.4505C334.185 82.6753 333.988 82.9488 333.854 83.2535C333.72 83.5582 333.651 83.8876 333.651 84.2205C333.651 84.5534 333.72 84.8827 333.854 85.1874C333.988 85.4922 334.185 85.7656 334.43 85.9905L334.61 86.1605C335.124 86.6342 335.796 86.8972 336.495 86.8972C337.194 86.8972 337.867 86.6342 338.38 86.1605L338.56 85.9905C338.806 85.7656 339.002 85.4922 339.136 85.1874C339.27 84.8827 339.339 84.5534 339.339 84.2205C339.339 83.8876 339.27 83.5582 339.136 83.2535C339.002 82.9488 338.806 82.6753 338.56 82.4505Z" fill="#4D4B4B" stroke="#E2E2E2" stroke-width="0.5" stroke-miterlimit="10"/>
<path d="M354.8 81.1505H342.56V87.3005H354.8V81.1505Z" fill="#5C5C5C"/>
<path d="M329.55 74.5005L329.37 74.3305C328.853 73.8632 328.182 73.6045 327.485 73.6045C326.788 73.6045 326.117 73.8632 325.6 74.3305L325.42 74.5005C325.174 74.7254 324.978 74.9989 324.844 75.3036C324.71 75.6083 324.641 75.9376 324.641 76.2705C324.641 76.6035 324.71 76.9328 324.844 77.2375C324.978 77.5422 325.174 77.8157 325.42 78.0405L325.6 78.2105C326.113 78.6842 326.786 78.9472 327.485 78.9472C328.184 78.9472 328.857 78.6842 329.37 78.2105L329.55 78.0405C329.796 77.8157 329.992 77.5422 330.126 77.2375C330.26 76.9328 330.329 76.6035 330.329 76.2705C330.329 75.9376 330.26 75.6083 330.126 75.3036C329.992 74.9989 329.796 74.7254 329.55 74.5005Z" fill="#4D4B4B" stroke="#E2E2E2" stroke-width="0.5" stroke-miterlimit="10"/>
<path d="M338.56 74.5006L338.38 74.3406C337.867 73.8669 337.194 73.6039 336.495 73.6039C335.796 73.6039 335.124 73.8669 334.61 74.3406L334.43 74.5006C334.185 74.7254 333.988 74.9989 333.854 75.3036C333.72 75.6083 333.651 75.9376 333.651 76.2706C333.651 76.6035 333.72 76.9328 333.854 77.2375C333.988 77.5422 334.185 77.8157 334.43 78.0406L334.61 78.2106C335.124 78.6842 335.796 78.9472 336.495 78.9472C337.194 78.9472 337.867 78.6842 338.38 78.2106L338.56 78.0406C338.808 77.8174 339.007 77.5444 339.143 77.2395C339.279 76.9346 339.349 76.6044 339.349 76.2706C339.349 75.9367 339.279 75.6066 339.143 75.3016C339.007 74.9967 338.808 74.7238 338.56 74.5006Z" fill="#4D4B4B" stroke="#E2E2E2" stroke-width="0.5" stroke-miterlimit="10"/>
<path d="M354.8 73.3905H342.56V79.5405H354.8V73.3905Z" fill="#5C5C5C"/>
<path d="M329.56 66.5406L329.38 66.3706C328.863 65.9033 328.192 65.6445 327.495 65.6445C326.798 65.6445 326.127 65.9033 325.61 66.3706L325.42 66.5406C325.174 66.7654 324.978 67.0389 324.844 67.3436C324.71 67.6483 324.641 67.9776 324.641 68.3106C324.641 68.6435 324.71 68.9728 324.844 69.2775C324.978 69.5822 325.174 69.8557 325.42 70.0806L325.61 70.2506C326.123 70.7243 326.796 70.9872 327.495 70.9872C328.194 70.9872 328.867 70.7243 329.38 70.2506L329.56 70.0806C329.806 69.8557 330.002 69.5822 330.136 69.2775C330.27 68.9728 330.339 68.6435 330.339 68.3106C330.339 67.9776 330.27 67.6483 330.136 67.3436C330.002 67.0389 329.806 66.7654 329.56 66.5406Z" fill="#4D4B4B" stroke="#E2E2E2" stroke-width="0.5" stroke-miterlimit="10"/>
<path d="M338.57 66.5505L338.39 66.3805C337.877 65.9068 337.204 65.6438 336.505 65.6438C335.806 65.6438 335.134 65.9068 334.62 66.3805L334.44 66.5505C334.192 66.7737 333.993 67.0466 333.857 67.3515C333.721 67.6565 333.651 67.9866 333.651 68.3205C333.651 68.6543 333.721 68.9845 333.857 69.2894C333.993 69.5943 334.192 69.8673 334.44 70.0905L334.62 70.2505C335.134 70.7242 335.806 70.9872 336.505 70.9872C337.204 70.9872 337.877 70.7242 338.39 70.2505L338.57 70.0905C338.816 69.8656 339.012 69.5922 339.146 69.2874C339.28 68.9827 339.349 68.6534 339.349 68.3205C339.349 67.9875 339.28 67.6582 339.146 67.3535C339.012 67.0488 338.816 66.7753 338.57 66.5505Z" fill="#4D4B4B" stroke="#E2E2E2" stroke-width="0.5" stroke-miterlimit="10"/>
<path d="M354.8 65.2505H342.56V71.4005H354.8V65.2505Z" fill="#5C5C5C"/>
<path d="M329.55 58.5905L329.37 58.4205C328.853 57.9532 328.182 57.6945 327.485 57.6945C326.788 57.6945 326.117 57.9532 325.6 58.4205L325.42 58.5905C325.174 58.8154 324.978 59.0888 324.844 59.3936C324.71 59.6983 324.641 60.0276 324.641 60.3605C324.641 60.6934 324.71 61.0227 324.844 61.3275C324.978 61.6322 325.174 61.9056 325.42 62.1305L325.6 62.3005C326.113 62.7742 326.786 63.0372 327.485 63.0372C328.184 63.0372 328.857 62.7742 329.37 62.3005L329.55 62.1305C329.796 61.9056 329.992 61.6322 330.126 61.3275C330.26 61.0227 330.329 60.6934 330.329 60.3605C330.329 60.0276 330.26 59.6983 330.126 59.3936C329.992 59.0888 329.796 58.8154 329.55 58.5905Z" fill="#4D4B4B" stroke="#E2E2E2" stroke-width="0.5" stroke-miterlimit="10"/>
<path d="M338.56 58.6105L338.38 58.4406C337.867 57.9669 337.194 57.7039 336.495 57.7039C335.796 57.7039 335.123 57.9669 334.61 58.4406L334.43 58.6105C334.185 58.8345 333.989 59.1071 333.855 59.411C333.721 59.7149 333.651 60.0434 333.651 60.3755C333.651 60.7077 333.721 61.0362 333.855 61.3401C333.989 61.644 334.185 61.9166 334.43 62.1405L334.61 62.3105C335.123 62.7842 335.796 63.0472 336.495 63.0472C337.194 63.0472 337.867 62.7842 338.38 62.3105L338.56 62.1405C338.805 61.9166 339.001 61.644 339.135 61.3401C339.269 61.0362 339.339 60.7077 339.339 60.3755C339.339 60.0434 339.269 59.7149 339.135 59.411C339.001 59.1071 338.805 58.8345 338.56 58.6105Z" fill="#4D4B4B" stroke="#E2E2E2" stroke-width="0.5" stroke-miterlimit="10"/>
<path d="M354.8 57.2905H342.56V63.4406H354.8V57.2905Z" fill="#5C5C5C"/>
<path d="M329.55 50.6405L329.37 50.4706C328.853 50.0033 328.182 49.7445 327.485 49.7445C326.788 49.7445 326.117 50.0033 325.6 50.4706L325.42 50.6405C325.174 50.8654 324.978 51.1389 324.844 51.4436C324.71 51.7483 324.641 52.0776 324.641 52.4106C324.641 52.7435 324.71 53.0728 324.844 53.3775C324.978 53.6822 325.174 53.9557 325.42 54.1805L325.6 54.3505C326.113 54.8242 326.786 55.0872 327.485 55.0872C328.184 55.0872 328.857 54.8242 329.37 54.3505L329.55 54.1805C329.798 53.9573 329.997 53.6844 330.133 53.3795C330.269 53.0745 330.339 52.7444 330.339 52.4106C330.339 52.0767 330.269 51.7466 330.133 51.4416C329.997 51.1367 329.798 50.8637 329.55 50.6405Z" fill="#4D4B4B" stroke="#E2E2E2" stroke-width="0.5" stroke-miterlimit="10"/>
<path d="M338.57 50.6506L338.38 50.4806C337.867 50.0069 337.194 49.7439 336.495 49.7439C335.796 49.7439 335.124 50.0069 334.61 50.4806L334.43 50.6506C334.185 50.8754 333.988 51.1489 333.854 51.4536C333.72 51.7583 333.651 52.0876 333.651 52.4206C333.651 52.7535 333.72 53.0828 333.854 53.3875C333.988 53.6922 334.185 53.9657 334.43 54.1906L334.61 54.3506C335.124 54.8242 335.796 55.0872 336.495 55.0872C337.194 55.0872 337.867 54.8242 338.38 54.3506L338.57 54.1906C338.816 53.9657 339.012 53.6922 339.146 53.3875C339.28 53.0828 339.349 52.7535 339.349 52.4206C339.349 52.0876 339.28 51.7583 339.146 51.4536C339.012 51.1489 338.816 50.8754 338.57 50.6506Z" fill="#4D4B4B" stroke="#E2E2E2" stroke-width="0.5" stroke-miterlimit="10"/>
<path d="M354.8 49.3406H342.56V55.5006H354.8V49.3406Z" fill="#5C5C5C"/>
<path d="M334.73 44.0205L332.41 41.8405C332.272 41.7175 332.094 41.6495 331.91 41.6495C331.726 41.6495 331.548 41.7175 331.41 41.8405L329.06 44.0205C328.997 44.0803 328.946 44.1524 328.912 44.2324C328.878 44.3123 328.86 44.3985 328.86 44.4855C328.86 44.5726 328.878 44.6587 328.912 44.7386C328.946 44.8186 328.997 44.8907 329.06 44.9505L331.38 47.1305C331.515 47.2578 331.694 47.3286 331.88 47.3286C332.066 47.3286 332.245 47.2578 332.38 47.1305L334.73 44.9205C334.791 44.8626 334.84 44.7928 334.873 44.7154C334.906 44.6381 334.924 44.5547 334.924 44.4705C334.924 44.3863 334.906 44.303 334.873 44.2256C334.84 44.1482 334.791 44.0784 334.73 44.0205Z" fill="#4D4B4B" stroke="#E2E2E2" stroke-width="0.5" stroke-miterlimit="10"/>
<path d="M354.8 41.3905H342.56V47.5405H354.8V41.3905Z" fill="#5C5C5C"/>
<path d="M103.23 44.2806H89.2299C89.074 44.2789 88.9217 44.2339 88.7899 44.1506C88.6633 44.0711 88.5625 43.9564 88.4999 43.8206C88.4395 43.6857 88.4221 43.5356 88.4499 43.3906C88.4813 43.2432 88.5542 43.1079 88.6599 43.0006L90.7299 40.9406C91.0201 40.6688 91.3595 40.4549 91.7299 40.3106C92.0995 40.1643 92.4925 40.0863 92.8899 40.0806H97.1299C97.4599 40.0851 97.7807 40.1897 98.0499 40.3806L103.23 44.2806Z" fill="#707171" stroke="#E2E2E2" stroke-width="1.8" stroke-miterlimit="10"/>
<path d="M143.64 44.2805H130.49L133.93 40.6305C134.089 40.4579 134.284 40.3215 134.5 40.2305C134.72 40.131 134.959 40.0799 135.2 40.0805H142.08C142.143 40.0712 142.207 40.0712 142.27 40.0805C142.329 40.1042 142.383 40.138 142.43 40.1805L144.55 42.2905C144.717 42.4481 144.829 42.6548 144.87 42.8805C144.922 43.1063 144.893 43.3431 144.79 43.5505C144.69 43.762 144.53 43.9394 144.33 44.0605C144.123 44.1935 143.885 44.2694 143.64 44.2805Z" fill="#707171" stroke="#E2E2E2" stroke-width="1.8" stroke-miterlimit="10"/>
<path d="M148.78 46.6906V86.4706C148.779 86.6626 148.731 86.8514 148.64 87.0206C148.553 87.1939 148.43 87.3472 148.28 87.4706L146.78 88.6706C146.515 88.8874 146.182 89.0042 145.84 89.0006H87.91C87.5469 89.0095 87.1924 88.889 86.91 88.6606L86.38 88.2106C85.955 87.8601 85.6134 87.4195 85.38 86.9206C85.1346 86.4297 85.0046 85.8893 85 85.3406L85.16 46.5406C85.1697 46.4163 85.2228 46.2995 85.31 46.2106L86.85 44.7006C86.9906 44.5625 87.1571 44.4538 87.34 44.3805C87.5255 44.3119 87.7222 44.278 87.92 44.2806H101.38C101.708 44.2769 102.028 44.3824 102.29 44.5806L108.73 49.3906C109.643 50.2454 110.849 50.7178 112.1 50.7106H121.8C122.426 50.7091 123.046 50.5939 123.63 50.3706C124.205 50.1379 124.731 49.7986 125.18 49.3706L132.05 44.5306C132.303 44.3568 132.603 44.2628 132.91 44.2606H145.91C146.109 44.2565 146.306 44.294 146.49 44.3706C146.671 44.4364 146.835 44.5424 146.97 44.6806L148.66 46.3306C148.705 46.3782 148.739 46.4351 148.76 46.4973C148.781 46.5595 148.787 46.6255 148.78 46.6906Z" fill="#1D1D1D" stroke="#E2E2E2" stroke-width="1.8" stroke-miterlimit="10"/>
<path d="M142.73 89.0205L141.95 89.6605C141.682 89.8715 141.351 89.9845 141.01 89.9805H92.1499C91.1543 89.9753 90.1919 89.6215 89.4299 88.9805C89.2137 88.8013 89.0568 88.5607 88.9799 88.2905C88.9112 88.0253 88.9288 87.7451 89.0299 87.4905C89.1399 87.2268 89.3284 87.0033 89.5699 86.8505C89.8167 86.6993 90.1006 86.6197 90.3899 86.6205H141.78C142.077 86.6183 142.369 86.7016 142.62 86.8605C142.859 87.0179 143.044 87.2448 143.15 87.5105C143.245 87.7757 143.245 88.0654 143.15 88.3305C143.085 88.5988 142.939 88.8401 142.73 89.0205Z" fill="#707171" stroke="#E2E2E2" stroke-width="1.8" stroke-miterlimit="10"/>
<path d="M135.19 38.6505C136.84 40.2805 136.61 41.2705 134.7 42.6505L132.35 44.3005L125.08 49.4005C124.633 49.8307 124.106 50.1703 123.53 50.4005C122.946 50.6238 122.326 50.739 121.7 50.7405H112.03C111.404 50.7427 110.783 50.6274 110.2 50.4005C109.622 50.1743 109.095 49.8342 108.65 49.4005L101.81 44.2905L99.06 42.2305C97.43 41.0205 97.06 40.4805 98.2 38.8605L100.89 35.7605C101.434 35.2588 102.15 34.9866 102.89 35.0005H130.73C131.466 34.9967 132.178 35.2636 132.73 35.7505L135.19 38.6505Z" fill="#3A3A3A" stroke="#E2E2E2" stroke-width="1.8" stroke-miterlimit="10"/>
<path d="M168.12 35.3705H245.98C246.559 35.3665 247.117 35.5849 247.54 35.9805L248.48 36.8505" stroke="#E2E2E2" stroke-width="1.8" stroke-miterlimit="10"/>
<path d="M172.62 35.3706C172.85 35.3706 172.86 35.6006 172.68 35.7506C170.82 37.2206 162.31 37.4906 159.19 37.5206C148.11 37.6206 155.9 39.9606 139.01 40.0906C142.91 39.7106 149.01 40.0206 149.07 35.4006L172.62 35.3706Z" stroke="#E2E2E2" stroke-width="1.8" stroke-miterlimit="10"/>
<path d="M158.55 82.4505L158.37 82.2805C157.857 81.8068 157.184 81.5438 156.485 81.5438C155.786 81.5438 155.113 81.8068 154.6 82.2805L154.42 82.4505C154.174 82.6753 153.978 82.9488 153.844 83.2535C153.71 83.5583 153.641 83.8876 153.641 84.2205C153.641 84.5535 153.71 84.8827 153.844 85.1875C153.978 85.4922 154.174 85.7657 154.42 85.9905L154.6 86.1605C155.117 86.6278 155.788 86.8866 156.485 86.8866C157.182 86.8866 157.853 86.6278 158.37 86.1605L158.55 85.9905C158.796 85.7657 158.992 85.4922 159.126 85.1875C159.26 84.8827 159.329 84.5535 159.329 84.2205C159.329 83.8876 159.26 83.5583 159.126 83.2535C158.992 82.9488 158.796 82.6753 158.55 82.4505Z" fill="#4D4B4B" stroke="#E2E2E2" stroke-width="0.5" stroke-miterlimit="10"/>
<path d="M167.56 82.4505L167.38 82.2805C166.863 81.8132 166.192 81.5544 165.495 81.5544C164.798 81.5544 164.127 81.8132 163.61 82.2805L163.43 82.4505C163.185 82.6753 162.988 82.9488 162.854 83.2535C162.72 83.5582 162.651 83.8876 162.651 84.2205C162.651 84.5534 162.72 84.8827 162.854 85.1874C162.988 85.4922 163.185 85.7656 163.43 85.9905L163.61 86.1605C164.124 86.6342 164.796 86.8972 165.495 86.8972C166.194 86.8972 166.867 86.6342 167.38 86.1605L167.56 85.9905C167.806 85.7656 168.002 85.4922 168.136 85.1874C168.27 84.8827 168.339 84.5534 168.339 84.2205C168.339 83.8876 168.27 83.5582 168.136 83.2535C168.002 82.9488 167.806 82.6753 167.56 82.4505Z" fill="#4D4B4B" stroke="#E2E2E2" stroke-width="0.5" stroke-miterlimit="10"/>
<path d="M183.8 81.1505H171.56V87.3005H183.8V81.1505Z" fill="#5C5C5C"/>
<path d="M158.55 74.5005L158.37 74.3305C157.853 73.8632 157.182 73.6045 156.485 73.6045C155.788 73.6045 155.117 73.8632 154.6 74.3305L154.42 74.5005C154.174 74.7254 153.978 74.9989 153.844 75.3036C153.71 75.6083 153.641 75.9376 153.641 76.2705C153.641 76.6035 153.71 76.9328 153.844 77.2375C153.978 77.5422 154.174 77.8157 154.42 78.0405L154.6 78.2105C155.113 78.6842 155.786 78.9472 156.485 78.9472C157.184 78.9472 157.857 78.6842 158.37 78.2105L158.55 78.0405C158.796 77.8157 158.992 77.5422 159.126 77.2375C159.26 76.9328 159.329 76.6035 159.329 76.2705C159.329 75.9376 159.26 75.6083 159.126 75.3036C158.992 74.9989 158.796 74.7254 158.55 74.5005Z" fill="#4D4B4B" stroke="#E2E2E2" stroke-width="0.5" stroke-miterlimit="10"/>
<path d="M167.56 74.5006L167.38 74.3406C166.867 73.8669 166.194 73.6039 165.495 73.6039C164.796 73.6039 164.124 73.8669 163.61 74.3406L163.43 74.5006C163.185 74.7254 162.988 74.9989 162.854 75.3036C162.72 75.6083 162.651 75.9376 162.651 76.2706C162.651 76.6035 162.72 76.9328 162.854 77.2375C162.988 77.5422 163.185 77.8157 163.43 78.0406L163.61 78.2106C164.124 78.6842 164.796 78.9472 165.495 78.9472C166.194 78.9472 166.867 78.6842 167.38 78.2106L167.56 78.0406C167.808 77.8174 168.007 77.5444 168.143 77.2395C168.279 76.9346 168.349 76.6044 168.349 76.2706C168.349 75.9367 168.279 75.6066 168.143 75.3016C168.007 74.9967 167.808 74.7238 167.56 74.5006Z" fill="#4D4B4B" stroke="#E2E2E2" stroke-width="0.5" stroke-miterlimit="10"/>
<path d="M183.8 73.3905H171.56V79.5405H183.8V73.3905Z" fill="#5C5C5C"/>
<path d="M158.56 66.5406L158.38 66.3706C157.863 65.9033 157.192 65.6445 156.495 65.6445C155.798 65.6445 155.127 65.9033 154.61 66.3706L154.42 66.5406C154.174 66.7654 153.978 67.0389 153.844 67.3436C153.71 67.6483 153.641 67.9776 153.641 68.3106C153.641 68.6435 153.71 68.9728 153.844 69.2775C153.978 69.5822 154.174 69.8557 154.42 70.0806L154.61 70.2506C155.123 70.7243 155.796 70.9872 156.495 70.9872C157.194 70.9872 157.867 70.7243 158.38 70.2506L158.56 70.0806C158.806 69.8557 159.002 69.5822 159.136 69.2775C159.27 68.9728 159.339 68.6435 159.339 68.3106C159.339 67.9776 159.27 67.6483 159.136 67.3436C159.002 67.0389 158.806 66.7654 158.56 66.5406Z" fill="#4D4B4B" stroke="#E2E2E2" stroke-width="0.5" stroke-miterlimit="10"/>
<path d="M167.57 66.5505L167.39 66.3805C166.877 65.9068 166.204 65.6438 165.505 65.6438C164.806 65.6438 164.134 65.9068 163.62 66.3805L163.44 66.5505C163.192 66.7737 162.993 67.0466 162.857 67.3515C162.721 67.6565 162.651 67.9866 162.651 68.3205C162.651 68.6543 162.721 68.9845 162.857 69.2894C162.993 69.5943 163.192 69.8673 163.44 70.0905L163.62 70.2505C164.134 70.7242 164.806 70.9872 165.505 70.9872C166.204 70.9872 166.877 70.7242 167.39 70.2505L167.57 70.0905C167.816 69.8656 168.012 69.5922 168.146 69.2874C168.28 68.9827 168.349 68.6534 168.349 68.3205C168.349 67.9875 168.28 67.6582 168.146 67.3535C168.012 67.0488 167.816 66.7753 167.57 66.5505Z" fill="#4D4B4B" stroke="#E2E2E2" stroke-width="0.5" stroke-miterlimit="10"/>
<path d="M183.8 65.2505H171.56V71.4005H183.8V65.2505Z" fill="#5C5C5C"/>
<path d="M158.55 58.5905L158.37 58.4205C157.853 57.9532 157.182 57.6945 156.485 57.6945C155.788 57.6945 155.117 57.9532 154.6 58.4205L154.42 58.5905C154.174 58.8154 153.978 59.0888 153.844 59.3936C153.71 59.6983 153.641 60.0276 153.641 60.3605C153.641 60.6934 153.71 61.0227 153.844 61.3275C153.978 61.6322 154.174 61.9056 154.42 62.1305L154.6 62.3005C155.113 62.7742 155.786 63.0372 156.485 63.0372C157.184 63.0372 157.857 62.7742 158.37 62.3005L158.55 62.1305C158.796 61.9056 158.992 61.6322 159.126 61.3275C159.26 61.0227 159.329 60.6934 159.329 60.3605C159.329 60.0276 159.26 59.6983 159.126 59.3936C158.992 59.0888 158.796 58.8154 158.55 58.5905Z" fill="#4D4B4B" stroke="#E2E2E2" stroke-width="0.5" stroke-miterlimit="10"/>
<path d="M167.56 58.6105L167.38 58.4406C166.867 57.9669 166.194 57.7039 165.495 57.7039C164.796 57.7039 164.123 57.9669 163.61 58.4406L163.43 58.6105C163.185 58.8345 162.989 59.1071 162.855 59.411C162.721 59.7149 162.651 60.0434 162.651 60.3755C162.651 60.7077 162.721 61.0362 162.855 61.3401C162.989 61.644 163.185 61.9166 163.43 62.1405L163.61 62.3105C164.123 62.7842 164.796 63.0472 165.495 63.0472C166.194 63.0472 166.867 62.7842 167.38 62.3105L167.56 62.1405C167.805 61.9166 168.001 61.644 168.135 61.3401C168.269 61.0362 168.339 60.7077 168.339 60.3755C168.339 60.0434 168.269 59.7149 168.135 59.411C168.001 59.1071 167.805 58.8345 167.56 58.6105Z" fill="#4D4B4B" stroke="#E2E2E2" stroke-width="0.5" stroke-miterlimit="10"/>
<path d="M183.8 57.2905H171.56V63.4406H183.8V57.2905Z" fill="#5C5C5C"/>
<path d="M158.55 50.6405L158.37 50.4706C157.853 50.0033 157.182 49.7445 156.485 49.7445C155.788 49.7445 155.117 50.0033 154.6 50.4706L154.42 50.6405C154.174 50.8654 153.978 51.1389 153.844 51.4436C153.71 51.7483 153.641 52.0776 153.641 52.4106C153.641 52.7435 153.71 53.0728 153.844 53.3775C153.978 53.6822 154.174 53.9557 154.42 54.1805L154.6 54.3505C155.113 54.8242 155.786 55.0872 156.485 55.0872C157.184 55.0872 157.857 54.8242 158.37 54.3505L158.55 54.1805C158.798 53.9573 158.997 53.6844 159.133 53.3795C159.269 53.0745 159.339 52.7444 159.339 52.4106C159.339 52.0767 159.269 51.7466 159.133 51.4416C158.997 51.1367 158.798 50.8637 158.55 50.6405Z" fill="#4D4B4B" stroke="#E2E2E2" stroke-width="0.5" stroke-miterlimit="10"/>
<path d="M167.57 50.6506L167.38 50.4806C166.867 50.0069 166.194 49.7439 165.495 49.7439C164.796 49.7439 164.124 50.0069 163.61 50.4806L163.43 50.6506C163.185 50.8754 162.988 51.1489 162.854 51.4536C162.72 51.7583 162.651 52.0876 162.651 52.4206C162.651 52.7535 162.72 53.0828 162.854 53.3875C162.988 53.6922 163.185 53.9657 163.43 54.1906L163.61 54.3506C164.124 54.8242 164.796 55.0872 165.495 55.0872C166.194 55.0872 166.867 54.8242 167.38 54.3506L167.57 54.1906C167.816 53.9657 168.012 53.6922 168.146 53.3875C168.28 53.0828 168.349 52.7535 168.349 52.4206C168.349 52.0876 168.28 51.7583 168.146 51.4536C168.012 51.1489 167.816 50.8754 167.57 50.6506Z" fill="#4D4B4B" stroke="#E2E2E2" stroke-width="0.5" stroke-miterlimit="10"/>
<path d="M183.8 49.3406H171.56V55.5006H183.8V49.3406Z" fill="#5C5C5C"/>
<path d="M163.73 44.0205L161.41 41.8405C161.272 41.7175 161.094 41.6495 160.91 41.6495C160.726 41.6495 160.548 41.7175 160.41 41.8405L158.06 44.0205C157.997 44.0803 157.946 44.1524 157.912 44.2324C157.878 44.3123 157.86 44.3985 157.86 44.4855C157.86 44.5726 157.878 44.6587 157.912 44.7386C157.946 44.8186 157.997 44.8907 158.06 44.9505L160.38 47.1305C160.515 47.2578 160.694 47.3286 160.88 47.3286C161.066 47.3286 161.245 47.2578 161.38 47.1305L163.73 44.9205C163.791 44.8626 163.84 44.7928 163.873 44.7154C163.906 44.6381 163.924 44.5547 163.924 44.4705C163.924 44.3863 163.906 44.303 163.873 44.2256C163.84 44.1482 163.791 44.0784 163.73 44.0205Z" fill="#4D4B4B" stroke="#E2E2E2" stroke-width="0.5" stroke-miterlimit="10"/>
<path d="M183.8 41.3905H171.56V47.5405H183.8V41.3905Z" fill="#5C5C5C"/>
<path d="M445.23 122.281H431.23C431.074 122.279 430.922 122.234 430.79 122.151C430.663 122.071 430.562 121.956 430.5 121.821C430.44 121.686 430.422 121.536 430.45 121.391C430.481 121.243 430.554 121.108 430.66 121.001L432.73 118.941C433.02 118.669 433.359 118.455 433.73 118.311C434.099 118.164 434.493 118.086 434.89 118.081H439.13C439.46 118.085 439.781 118.19 440.05 118.381L445.23 122.281Z" fill="#707171" stroke="#E2E2E2" stroke-width="1.8" stroke-miterlimit="10"/>
<path d="M485.64 122.28H472.49L475.93 118.63C476.089 118.458 476.284 118.321 476.5 118.23C476.72 118.131 476.959 118.08 477.2 118.08H484.08C484.143 118.071 484.207 118.071 484.27 118.08C484.329 118.104 484.383 118.138 484.43 118.18L486.55 120.29C486.717 120.448 486.829 120.655 486.87 120.88C486.922 121.106 486.893 121.343 486.79 121.55C486.69 121.762 486.53 121.939 486.33 122.06C486.123 122.193 485.885 122.269 485.64 122.28Z" fill="#707171" stroke="#E2E2E2" stroke-width="1.8" stroke-miterlimit="10"/>
<path d="M490.78 124.691V164.471C490.779 164.663 490.731 164.851 490.64 165.021C490.553 165.194 490.43 165.347 490.28 165.471L488.78 166.671C488.515 166.887 488.182 167.004 487.84 167.001H429.91C429.547 167.01 429.192 166.889 428.91 166.661L428.38 166.211C427.955 165.86 427.613 165.419 427.38 164.921C427.135 164.43 427.005 163.889 427 163.341L427.16 124.541C427.17 124.416 427.223 124.3 427.31 124.211L428.85 122.701C428.991 122.563 429.157 122.454 429.34 122.381C429.526 122.312 429.722 122.278 429.92 122.281H443.38C443.708 122.277 444.028 122.382 444.29 122.581L450.73 127.391C451.643 128.245 452.849 128.718 454.1 128.711H463.8C464.426 128.709 465.046 128.594 465.63 128.371C466.205 128.138 466.731 127.799 467.18 127.371L474.05 122.531C474.303 122.357 474.603 122.263 474.91 122.261H487.91C488.109 122.256 488.306 122.294 488.49 122.371C488.671 122.436 488.835 122.542 488.97 122.681L490.66 124.331C490.705 124.378 490.739 124.435 490.76 124.497C490.781 124.559 490.787 124.625 490.78 124.691Z" fill="#1D1D1D" stroke="#E2E2E2" stroke-width="1.8" stroke-miterlimit="10"/>
<path d="M484.73 167.021L483.95 167.661C483.682 167.872 483.351 167.984 483.01 167.981H434.15C433.154 167.975 432.192 167.621 431.43 166.981C431.214 166.801 431.057 166.561 430.98 166.291C430.911 166.025 430.929 165.745 431.03 165.491C431.14 165.227 431.328 165.003 431.57 164.851C431.817 164.699 432.101 164.62 432.39 164.621H483.78C484.077 164.618 484.369 164.702 484.62 164.861C484.859 165.018 485.044 165.245 485.15 165.511C485.245 165.776 485.245 166.065 485.15 166.331C485.085 166.599 484.939 166.84 484.73 167.021Z" fill="#707171" stroke="#E2E2E2" stroke-width="1.8" stroke-miterlimit="10"/>
<path d="M477.19 116.651C478.84 118.281 478.61 119.271 476.7 120.651L474.35 122.3L467.08 127.401C466.633 127.831 466.106 128.17 465.53 128.401C464.946 128.624 464.326 128.739 463.7 128.74H454.03C453.404 128.743 452.783 128.627 452.2 128.401C451.622 128.174 451.095 127.834 450.65 127.401L443.81 122.29L441.06 120.23C439.43 119.02 439.06 118.48 440.2 116.86L442.89 113.76C443.434 113.259 444.15 112.987 444.89 113.001H472.73C473.466 112.997 474.178 113.264 474.73 113.751L477.19 116.651Z" fill="#3A3A3A" stroke="#E2E2E2" stroke-width="1.8" stroke-miterlimit="10"/>
<path d="M510.12 113.371H587.98C588.559 113.367 589.117 113.585 589.54 113.981L590.48 114.851" stroke="#E2E2E2" stroke-width="1.8" stroke-miterlimit="10"/>
<path d="M514.62 113.371C514.85 113.371 514.86 113.601 514.68 113.751C512.82 115.221 504.31 115.491 501.19 115.521C490.11 115.621 497.9 117.961 481.01 118.091C484.91 117.711 491.01 118.021 491.07 113.401L514.62 113.371Z" stroke="#E2E2E2" stroke-width="1.8" stroke-miterlimit="10"/>
<path d="M500.55 160.451L500.37 160.281C499.857 159.807 499.184 159.544 498.485 159.544C497.786 159.544 497.113 159.807 496.6 160.281L496.42 160.451C496.174 160.675 495.978 160.949 495.844 161.254C495.71 161.558 495.641 161.888 495.641 162.221C495.641 162.553 495.71 162.883 495.844 163.187C495.978 163.492 496.174 163.766 496.42 163.991L496.6 164.161C497.117 164.628 497.788 164.887 498.485 164.887C499.182 164.887 499.853 164.628 500.37 164.161L500.55 163.991C500.796 163.766 500.992 163.492 501.126 163.187C501.26 162.883 501.329 162.553 501.329 162.221C501.329 161.888 501.26 161.558 501.126 161.254C500.992 160.949 500.796 160.675 500.55 160.451Z" fill="#4D4B4B" stroke="#E2E2E2" stroke-width="0.5" stroke-miterlimit="10"/>
<path d="M509.56 160.45L509.38 160.28C508.863 159.813 508.192 159.554 507.495 159.554C506.798 159.554 506.127 159.813 505.61 160.28L505.43 160.45C505.185 160.675 504.988 160.949 504.854 161.254C504.72 161.558 504.651 161.888 504.651 162.22C504.651 162.553 504.72 162.883 504.854 163.187C504.988 163.492 505.185 163.766 505.43 163.99L505.61 164.16C506.124 164.634 506.796 164.897 507.495 164.897C508.194 164.897 508.867 164.634 509.38 164.16L509.56 163.99C509.806 163.766 510.002 163.492 510.136 163.187C510.27 162.883 510.339 162.553 510.339 162.22C510.339 161.888 510.27 161.558 510.136 161.254C510.002 160.949 509.806 160.675 509.56 160.45Z" fill="#4D4B4B" stroke="#E2E2E2" stroke-width="0.5" stroke-miterlimit="10"/>
<path d="M525.8 159.151H513.56V165.301H525.8V159.151Z" fill="#5C5C5C"/>
<path d="M500.55 152.501L500.37 152.331C499.853 151.863 499.182 151.604 498.485 151.604C497.788 151.604 497.117 151.863 496.6 152.331L496.42 152.501C496.174 152.725 495.978 152.999 495.844 153.304C495.71 153.608 495.641 153.938 495.641 154.271C495.641 154.603 495.71 154.933 495.844 155.237C495.978 155.542 496.174 155.816 496.42 156.041L496.6 156.211C497.113 156.684 497.786 156.947 498.485 156.947C499.184 156.947 499.857 156.684 500.37 156.211L500.55 156.041C500.796 155.816 500.992 155.542 501.126 155.237C501.26 154.933 501.329 154.603 501.329 154.271C501.329 153.938 501.26 153.608 501.126 153.304C500.992 152.999 500.796 152.725 500.55 152.501Z" fill="#4D4B4B" stroke="#E2E2E2" stroke-width="0.5" stroke-miterlimit="10"/>
<path d="M509.56 152.501L509.38 152.341C508.867 151.867 508.194 151.604 507.495 151.604C506.796 151.604 506.124 151.867 505.61 152.341L505.43 152.501C505.185 152.725 504.988 152.999 504.854 153.304C504.72 153.608 504.651 153.938 504.651 154.271C504.651 154.604 504.72 154.933 504.854 155.238C504.988 155.542 505.185 155.816 505.43 156.041L505.61 156.211C506.124 156.684 506.796 156.947 507.495 156.947C508.194 156.947 508.867 156.684 509.38 156.211L509.56 156.041C509.808 155.817 510.007 155.544 510.143 155.24C510.279 154.935 510.349 154.604 510.349 154.271C510.349 153.937 510.279 153.607 510.143 153.302C510.007 152.997 509.808 152.724 509.56 152.501Z" fill="#4D4B4B" stroke="#E2E2E2" stroke-width="0.5" stroke-miterlimit="10"/>
<path d="M525.8 151.391H513.56V157.54H525.8V151.391Z" fill="#5C5C5C"/>
<path d="M500.56 144.541L500.38 144.371C499.863 143.903 499.192 143.645 498.495 143.645C497.798 143.645 497.127 143.903 496.61 144.371L496.42 144.541C496.174 144.765 495.978 145.039 495.844 145.344C495.71 145.648 495.641 145.978 495.641 146.311C495.641 146.644 495.71 146.973 495.844 147.278C495.978 147.582 496.174 147.856 496.42 148.081L496.61 148.251C497.123 148.724 497.796 148.987 498.495 148.987C499.194 148.987 499.867 148.724 500.38 148.251L500.56 148.081C500.806 147.856 501.002 147.582 501.136 147.278C501.27 146.973 501.339 146.644 501.339 146.311C501.339 145.978 501.27 145.648 501.136 145.344C501.002 145.039 500.806 144.765 500.56 144.541Z" fill="#4D4B4B" stroke="#E2E2E2" stroke-width="0.5" stroke-miterlimit="10"/>
<path d="M509.57 144.55L509.39 144.38C508.877 143.907 508.204 143.644 507.505 143.644C506.806 143.644 506.134 143.907 505.62 144.38L505.44 144.55C505.192 144.774 504.993 145.047 504.857 145.352C504.721 145.656 504.651 145.987 504.651 146.32C504.651 146.654 504.721 146.984 504.857 147.289C504.993 147.594 505.192 147.867 505.44 148.09L505.62 148.25C506.134 148.724 506.806 148.987 507.505 148.987C508.204 148.987 508.877 148.724 509.39 148.25L509.57 148.09C509.816 147.866 510.012 147.592 510.146 147.287C510.28 146.983 510.349 146.653 510.349 146.32C510.349 145.988 510.28 145.658 510.146 145.354C510.012 145.049 509.816 144.775 509.57 144.55Z" fill="#4D4B4B" stroke="#E2E2E2" stroke-width="0.5" stroke-miterlimit="10"/>
<path d="M525.8 143.25H513.56V149.4H525.8V143.25Z" fill="#5C5C5C"/>
<path d="M500.55 136.591L500.37 136.421C499.853 135.953 499.182 135.694 498.485 135.694C497.788 135.694 497.117 135.953 496.6 136.421L496.42 136.591C496.174 136.815 495.978 137.089 495.844 137.394C495.71 137.698 495.641 138.028 495.641 138.361C495.641 138.693 495.71 139.023 495.844 139.327C495.978 139.632 496.174 139.906 496.42 140.13L496.6 140.301C497.113 140.774 497.786 141.037 498.485 141.037C499.184 141.037 499.857 140.774 500.37 140.301L500.55 140.13C500.796 139.906 500.992 139.632 501.126 139.327C501.26 139.023 501.329 138.693 501.329 138.361C501.329 138.028 501.26 137.698 501.126 137.394C500.992 137.089 500.796 136.815 500.55 136.591Z" fill="#4D4B4B" stroke="#E2E2E2" stroke-width="0.5" stroke-miterlimit="10"/>
<path d="M509.56 136.611L509.38 136.441C508.867 135.967 508.194 135.704 507.495 135.704C506.796 135.704 506.123 135.967 505.61 136.441L505.43 136.611C505.185 136.834 504.989 137.107 504.855 137.411C504.721 137.715 504.651 138.043 504.651 138.376C504.651 138.708 504.721 139.036 504.855 139.34C504.989 139.644 505.185 139.917 505.43 140.141L505.61 140.311C506.123 140.784 506.796 141.047 507.495 141.047C508.194 141.047 508.867 140.784 509.38 140.311L509.56 140.141C509.805 139.917 510.001 139.644 510.135 139.34C510.269 139.036 510.339 138.708 510.339 138.376C510.339 138.043 510.269 137.715 510.135 137.411C510.001 137.107 509.805 136.834 509.56 136.611Z" fill="#4D4B4B" stroke="#E2E2E2" stroke-width="0.5" stroke-miterlimit="10"/>
<path d="M525.8 135.291H513.56V141.441H525.8V135.291Z" fill="#5C5C5C"/>
<path d="M500.55 128.641L500.37 128.471C499.853 128.003 499.182 127.745 498.485 127.745C497.788 127.745 497.117 128.003 496.6 128.471L496.42 128.641C496.174 128.865 495.978 129.139 495.844 129.444C495.71 129.748 495.641 130.078 495.641 130.411C495.641 130.743 495.71 131.073 495.844 131.378C495.978 131.682 496.174 131.956 496.42 132.181L496.6 132.351C497.113 132.824 497.786 133.087 498.485 133.087C499.184 133.087 499.857 132.824 500.37 132.351L500.55 132.181C500.798 131.957 500.997 131.684 501.133 131.379C501.269 131.075 501.339 130.744 501.339 130.411C501.339 130.077 501.269 129.747 501.133 129.442C500.997 129.137 500.798 128.864 500.55 128.641Z" fill="#4D4B4B" stroke="#E2E2E2" stroke-width="0.5" stroke-miterlimit="10"/>
<path d="M509.57 128.651L509.38 128.481C508.867 128.007 508.194 127.744 507.495 127.744C506.796 127.744 506.124 128.007 505.61 128.481L505.43 128.651C505.185 128.875 504.988 129.149 504.854 129.454C504.72 129.758 504.651 130.088 504.651 130.421C504.651 130.754 504.72 131.083 504.854 131.388C504.988 131.692 505.185 131.966 505.43 132.191L505.61 132.351C506.124 132.824 506.796 133.087 507.495 133.087C508.194 133.087 508.867 132.824 509.38 132.351L509.57 132.191C509.816 131.966 510.012 131.692 510.146 131.388C510.28 131.083 510.349 130.754 510.349 130.421C510.349 130.088 510.28 129.758 510.146 129.454C510.012 129.149 509.816 128.875 509.57 128.651Z" fill="#4D4B4B" stroke="#E2E2E2" stroke-width="0.5" stroke-miterlimit="10"/>
<path d="M525.8 127.341H513.56V133.501H525.8V127.341Z" fill="#5C5C5C"/>
<path d="M505.73 122.021L503.41 119.841C503.272 119.718 503.094 119.65 502.91 119.65C502.726 119.65 502.548 119.718 502.41 119.841L500.06 122.021C499.997 122.08 499.946 122.152 499.912 122.232C499.878 122.312 499.86 122.398 499.86 122.486C499.86 122.573 499.878 122.659 499.912 122.739C499.946 122.819 499.997 122.891 500.06 122.951L502.38 125.13C502.515 125.258 502.694 125.329 502.88 125.329C503.066 125.329 503.245 125.258 503.38 125.13L505.73 122.921C505.791 122.863 505.84 122.793 505.873 122.715C505.906 122.638 505.924 122.555 505.924 122.471C505.924 122.386 505.906 122.303 505.873 122.226C505.84 122.148 505.791 122.078 505.73 122.021Z" fill="#4D4B4B" stroke="#E2E2E2" stroke-width="0.5" stroke-miterlimit="10"/>
<path d="M525.8 119.391H513.56V125.54H525.8V119.391Z" fill="#5C5C5C"/>
<path d="M278.23 123.281H264.23C264.074 123.279 263.922 123.234 263.79 123.151C263.663 123.071 263.562 122.956 263.5 122.821C263.44 122.686 263.422 122.536 263.45 122.391C263.481 122.243 263.554 122.108 263.66 122.001L265.73 119.941C266.02 119.669 266.359 119.455 266.73 119.311C267.099 119.164 267.493 119.086 267.89 119.081H272.13C272.46 119.085 272.781 119.19 273.05 119.381L278.23 123.281Z" fill="#707171" stroke="#E2E2E2" stroke-width="1.8" stroke-miterlimit="10"/>
<path d="M318.64 123.28H305.49L308.93 119.63C309.089 119.458 309.284 119.321 309.5 119.23C309.72 119.131 309.959 119.08 310.2 119.08H317.08C317.143 119.071 317.207 119.071 317.27 119.08C317.329 119.104 317.383 119.138 317.43 119.18L319.55 121.29C319.717 121.448 319.829 121.655 319.87 121.88C319.922 122.106 319.893 122.343 319.79 122.55C319.69 122.762 319.53 122.939 319.33 123.06C319.123 123.193 318.885 123.269 318.64 123.28Z" fill="#707171" stroke="#E2E2E2" stroke-width="1.8" stroke-miterlimit="10"/>
<path d="M323.78 125.691V165.471C323.779 165.663 323.731 165.851 323.64 166.021C323.553 166.194 323.43 166.347 323.28 166.471L321.78 167.671C321.515 167.887 321.182 168.004 320.84 168.001H262.91C262.547 168.01 262.192 167.889 261.91 167.661L261.38 167.211C260.955 166.86 260.613 166.419 260.38 165.921C260.135 165.43 260.005 164.889 260 164.341L260.16 125.541C260.17 125.416 260.223 125.3 260.31 125.211L261.85 123.701C261.991 123.563 262.157 123.454 262.34 123.381C262.526 123.312 262.722 123.278 262.92 123.281H276.38C276.708 123.277 277.028 123.382 277.29 123.581L283.73 128.391C284.643 129.245 285.849 129.718 287.1 129.711H296.8C297.426 129.709 298.046 129.594 298.63 129.371C299.205 129.138 299.731 128.799 300.18 128.371L307.05 123.531C307.303 123.357 307.603 123.263 307.91 123.261H320.91C321.109 123.256 321.306 123.294 321.49 123.371C321.671 123.436 321.835 123.542 321.97 123.681L323.66 125.331C323.705 125.378 323.739 125.435 323.76 125.497C323.781 125.559 323.787 125.625 323.78 125.691Z" fill="#1D1D1D" stroke="#E2E2E2" stroke-width="1.8" stroke-miterlimit="10"/>
<path d="M317.73 168.021L316.95 168.661C316.682 168.872 316.351 168.984 316.01 168.981H267.15C266.154 168.975 265.192 168.621 264.43 167.981C264.214 167.801 264.057 167.561 263.98 167.291C263.911 167.025 263.929 166.745 264.03 166.491C264.14 166.227 264.328 166.003 264.57 165.851C264.817 165.699 265.101 165.62 265.39 165.621H316.78C317.077 165.618 317.369 165.702 317.62 165.861C317.859 166.018 318.044 166.245 318.15 166.511C318.245 166.776 318.245 167.065 318.15 167.331C318.085 167.599 317.939 167.84 317.73 168.021Z" fill="#707171" stroke="#E2E2E2" stroke-width="1.8" stroke-miterlimit="10"/>
<path d="M310.19 117.651C311.84 119.281 311.61 120.271 309.7 121.651L307.35 123.3L300.08 128.401C299.633 128.831 299.106 129.17 298.53 129.401C297.946 129.624 297.326 129.739 296.7 129.74H287.03C286.404 129.743 285.783 129.627 285.2 129.401C284.622 129.174 284.095 128.834 283.65 128.401L276.81 123.29L274.06 121.23C272.43 120.02 272.06 119.48 273.2 117.86L275.89 114.76C276.434 114.259 277.15 113.987 277.89 114.001H305.73C306.466 113.997 307.178 114.264 307.73 114.751L310.19 117.651Z" fill="#3A3A3A" stroke="#E2E2E2" stroke-width="1.8" stroke-miterlimit="10"/>
<path d="M343.12 114.371H420.98C421.559 114.367 422.117 114.585 422.54 114.981L423.48 115.851" stroke="#E2E2E2" stroke-width="1.8" stroke-miterlimit="10"/>
<path d="M347.62 114.371C347.85 114.371 347.86 114.601 347.68 114.751C345.82 116.221 337.31 116.491 334.19 116.521C323.11 116.621 330.9 118.961 314.01 119.091C317.91 118.711 324.01 119.021 324.07 114.401L347.62 114.371Z" stroke="#E2E2E2" stroke-width="1.8" stroke-miterlimit="10"/>
<path d="M333.55 161.451L333.37 161.281C332.857 160.807 332.184 160.544 331.485 160.544C330.786 160.544 330.113 160.807 329.6 161.281L329.42 161.451C329.174 161.675 328.978 161.949 328.844 162.254C328.71 162.558 328.641 162.888 328.641 163.221C328.641 163.553 328.71 163.883 328.844 164.187C328.978 164.492 329.174 164.766 329.42 164.991L329.6 165.161C330.117 165.628 330.788 165.887 331.485 165.887C332.182 165.887 332.853 165.628 333.37 165.161L333.55 164.991C333.796 164.766 333.992 164.492 334.126 164.187C334.26 163.883 334.329 163.553 334.329 163.221C334.329 162.888 334.26 162.558 334.126 162.254C333.992 161.949 333.796 161.675 333.55 161.451Z" fill="#4D4B4B" stroke="#E2E2E2" stroke-width="0.5" stroke-miterlimit="10"/>
<path d="M342.56 161.45L342.38 161.28C341.863 160.813 341.192 160.554 340.495 160.554C339.798 160.554 339.127 160.813 338.61 161.28L338.43 161.45C338.185 161.675 337.988 161.949 337.854 162.254C337.72 162.558 337.651 162.888 337.651 163.22C337.651 163.553 337.72 163.883 337.854 164.187C337.988 164.492 338.185 164.766 338.43 164.99L338.61 165.16C339.124 165.634 339.796 165.897 340.495 165.897C341.194 165.897 341.867 165.634 342.38 165.16L342.56 164.99C342.806 164.766 343.002 164.492 343.136 164.187C343.27 163.883 343.339 163.553 343.339 163.22C343.339 162.888 343.27 162.558 343.136 162.254C343.002 161.949 342.806 161.675 342.56 161.45Z" fill="#4D4B4B" stroke="#E2E2E2" stroke-width="0.5" stroke-miterlimit="10"/>
<path d="M358.8 160.151H346.56V166.301H358.8V160.151Z" fill="#5C5C5C"/>
<path d="M333.55 153.501L333.37 153.331C332.853 152.863 332.182 152.604 331.485 152.604C330.788 152.604 330.117 152.863 329.6 153.331L329.42 153.501C329.174 153.725 328.978 153.999 328.844 154.304C328.71 154.608 328.641 154.938 328.641 155.271C328.641 155.603 328.71 155.933 328.844 156.237C328.978 156.542 329.174 156.816 329.42 157.041L329.6 157.211C330.113 157.684 330.786 157.947 331.485 157.947C332.184 157.947 332.857 157.684 333.37 157.211L333.55 157.041C333.796 156.816 333.992 156.542 334.126 156.237C334.26 155.933 334.329 155.603 334.329 155.271C334.329 154.938 334.26 154.608 334.126 154.304C333.992 153.999 333.796 153.725 333.55 153.501Z" fill="#4D4B4B" stroke="#E2E2E2" stroke-width="0.5" stroke-miterlimit="10"/>
<path d="M342.56 153.501L342.38 153.341C341.867 152.867 341.194 152.604 340.495 152.604C339.796 152.604 339.124 152.867 338.61 153.341L338.43 153.501C338.185 153.725 337.988 153.999 337.854 154.304C337.72 154.608 337.651 154.938 337.651 155.271C337.651 155.604 337.72 155.933 337.854 156.238C337.988 156.542 338.185 156.816 338.43 157.041L338.61 157.211C339.124 157.684 339.796 157.947 340.495 157.947C341.194 157.947 341.867 157.684 342.38 157.211L342.56 157.041C342.808 156.817 343.007 156.544 343.143 156.24C343.279 155.935 343.349 155.604 343.349 155.271C343.349 154.937 343.279 154.607 343.143 154.302C343.007 153.997 342.808 153.724 342.56 153.501Z" fill="#4D4B4B" stroke="#E2E2E2" stroke-width="0.5" stroke-miterlimit="10"/>
<path d="M358.8 152.391H346.56V158.54H358.8V152.391Z" fill="#5C5C5C"/>
<path d="M333.56 145.541L333.38 145.371C332.863 144.903 332.192 144.645 331.495 144.645C330.798 144.645 330.127 144.903 329.61 145.371L329.42 145.541C329.174 145.765 328.978 146.039 328.844 146.344C328.71 146.648 328.641 146.978 328.641 147.311C328.641 147.644 328.71 147.973 328.844 148.278C328.978 148.582 329.174 148.856 329.42 149.081L329.61 149.251C330.123 149.724 330.796 149.987 331.495 149.987C332.194 149.987 332.867 149.724 333.38 149.251L333.56 149.081C333.806 148.856 334.002 148.582 334.136 148.278C334.27 147.973 334.339 147.644 334.339 147.311C334.339 146.978 334.27 146.648 334.136 146.344C334.002 146.039 333.806 145.765 333.56 145.541Z" fill="#4D4B4B" stroke="#E2E2E2" stroke-width="0.5" stroke-miterlimit="10"/>
<path d="M342.57 145.55L342.39 145.38C341.877 144.907 341.204 144.644 340.505 144.644C339.806 144.644 339.134 144.907 338.62 145.38L338.44 145.55C338.192 145.774 337.993 146.047 337.857 146.352C337.721 146.656 337.651 146.987 337.651 147.32C337.651 147.654 337.721 147.984 337.857 148.289C337.993 148.594 338.192 148.867 338.44 149.09L338.62 149.25C339.134 149.724 339.806 149.987 340.505 149.987C341.204 149.987 341.877 149.724 342.39 149.25L342.57 149.09C342.816 148.866 343.012 148.592 343.146 148.287C343.28 147.983 343.349 147.653 343.349 147.32C343.349 146.988 343.28 146.658 343.146 146.354C343.012 146.049 342.816 145.775 342.57 145.55Z" fill="#4D4B4B" stroke="#E2E2E2" stroke-width="0.5" stroke-miterlimit="10"/>
<path d="M358.8 144.25H346.56V150.4H358.8V144.25Z" fill="#5C5C5C"/>
<path d="M333.55 137.591L333.37 137.421C332.853 136.953 332.182 136.694 331.485 136.694C330.788 136.694 330.117 136.953 329.6 137.421L329.42 137.591C329.174 137.815 328.978 138.089 328.844 138.394C328.71 138.698 328.641 139.028 328.641 139.361C328.641 139.693 328.71 140.023 328.844 140.327C328.978 140.632 329.174 140.906 329.42 141.13L329.6 141.301C330.113 141.774 330.786 142.037 331.485 142.037C332.184 142.037 332.857 141.774 333.37 141.301L333.55 141.13C333.796 140.906 333.992 140.632 334.126 140.327C334.26 140.023 334.329 139.693 334.329 139.361C334.329 139.028 334.26 138.698 334.126 138.394C333.992 138.089 333.796 137.815 333.55 137.591Z" fill="#4D4B4B" stroke="#E2E2E2" stroke-width="0.5" stroke-miterlimit="10"/>
<path d="M342.56 137.611L342.38 137.441C341.867 136.967 341.194 136.704 340.495 136.704C339.796 136.704 339.123 136.967 338.61 137.441L338.43 137.611C338.185 137.834 337.989 138.107 337.855 138.411C337.721 138.715 337.651 139.043 337.651 139.376C337.651 139.708 337.721 140.036 337.855 140.34C337.989 140.644 338.185 140.917 338.43 141.141L338.61 141.311C339.123 141.784 339.796 142.047 340.495 142.047C341.194 142.047 341.867 141.784 342.38 141.311L342.56 141.141C342.805 140.917 343.001 140.644 343.135 140.34C343.269 140.036 343.339 139.708 343.339 139.376C343.339 139.043 343.269 138.715 343.135 138.411C343.001 138.107 342.805 137.834 342.56 137.611Z" fill="#4D4B4B" stroke="#E2E2E2" stroke-width="0.5" stroke-miterlimit="10"/>
<path d="M358.8 136.291H346.56V142.441H358.8V136.291Z" fill="#5C5C5C"/>
<path d="M333.55 129.641L333.37 129.471C332.853 129.003 332.182 128.745 331.485 128.745C330.788 128.745 330.117 129.003 329.6 129.471L329.42 129.641C329.174 129.865 328.978 130.139 328.844 130.444C328.71 130.748 328.641 131.078 328.641 131.411C328.641 131.743 328.71 132.073 328.844 132.378C328.978 132.682 329.174 132.956 329.42 133.181L329.6 133.351C330.113 133.824 330.786 134.087 331.485 134.087C332.184 134.087 332.857 133.824 333.37 133.351L333.55 133.181C333.798 132.957 333.997 132.684 334.133 132.379C334.269 132.075 334.339 131.744 334.339 131.411C334.339 131.077 334.269 130.747 334.133 130.442C333.997 130.137 333.798 129.864 333.55 129.641Z" fill="#4D4B4B" stroke="#E2E2E2" stroke-width="0.5" stroke-miterlimit="10"/>
<path d="M342.57 129.651L342.38 129.481C341.867 129.007 341.194 128.744 340.495 128.744C339.796 128.744 339.124 129.007 338.61 129.481L338.43 129.651C338.185 129.875 337.988 130.149 337.854 130.454C337.72 130.758 337.651 131.088 337.651 131.421C337.651 131.754 337.72 132.083 337.854 132.388C337.988 132.692 338.185 132.966 338.43 133.191L338.61 133.351C339.124 133.824 339.796 134.087 340.495 134.087C341.194 134.087 341.867 133.824 342.38 133.351L342.57 133.191C342.816 132.966 343.012 132.692 343.146 132.388C343.28 132.083 343.349 131.754 343.349 131.421C343.349 131.088 343.28 130.758 343.146 130.454C343.012 130.149 342.816 129.875 342.57 129.651Z" fill="#4D4B4B" stroke="#E2E2E2" stroke-width="0.5" stroke-miterlimit="10"/>
<path d="M358.8 128.341H346.56V134.501H358.8V128.341Z" fill="#5C5C5C"/>
<path d="M338.73 123.021L336.41 120.841C336.272 120.718 336.094 120.65 335.91 120.65C335.726 120.65 335.548 120.718 335.41 120.841L333.06 123.021C332.997 123.08 332.946 123.152 332.912 123.232C332.878 123.312 332.86 123.398 332.86 123.486C332.86 123.573 332.878 123.659 332.912 123.739C332.946 123.819 332.997 123.891 333.06 123.951L335.38 126.13C335.515 126.258 335.694 126.329 335.88 126.329C336.066 126.329 336.245 126.258 336.38 126.13L338.73 123.921C338.791 123.863 338.84 123.793 338.873 123.715C338.906 123.638 338.924 123.555 338.924 123.471C338.924 123.386 338.906 123.303 338.873 123.226C338.84 123.148 338.791 123.078 338.73 123.021Z" fill="#4D4B4B" stroke="#E2E2E2" stroke-width="0.5" stroke-miterlimit="10"/>
<path d="M358.8 120.391H346.56V126.54H358.8V120.391Z" fill="#5C5C5C"/>
<path d="M106.23 123.281H92.2299C92.074 123.279 91.9217 123.234 91.7899 123.151C91.6633 123.071 91.5625 122.956 91.4999 122.821C91.4395 122.686 91.4221 122.536 91.4499 122.391C91.4813 122.243 91.5542 122.108 91.6599 122.001L93.7299 119.941C94.0201 119.669 94.3595 119.455 94.7299 119.311C95.0995 119.164 95.4925 119.086 95.8899 119.081H100.13C100.46 119.085 100.781 119.19 101.05 119.381L106.23 123.281Z" fill="#707171" stroke="#E2E2E2" stroke-width="1.8" stroke-miterlimit="10"/>
<path d="M146.64 123.28H133.49L136.93 119.63C137.089 119.458 137.284 119.321 137.5 119.23C137.72 119.131 137.959 119.08 138.2 119.08H145.08C145.143 119.071 145.207 119.071 145.27 119.08C145.329 119.104 145.383 119.138 145.43 119.18L147.55 121.29C147.717 121.448 147.829 121.655 147.87 121.88C147.922 122.106 147.893 122.343 147.79 122.55C147.69 122.762 147.53 122.939 147.33 123.06C147.123 123.193 146.885 123.269 146.64 123.28Z" fill="#707171" stroke="#E2E2E2" stroke-width="1.8" stroke-miterlimit="10"/>
<path d="M151.78 125.691V165.471C151.779 165.663 151.731 165.851 151.64 166.021C151.553 166.194 151.43 166.347 151.28 166.471L149.78 167.671C149.515 167.887 149.182 168.004 148.84 168.001H90.91C90.5469 168.01 90.1924 167.889 89.91 167.661L89.38 167.211C88.955 166.86 88.6134 166.419 88.38 165.921C88.1346 165.43 88.0046 164.889 88 164.341L88.16 125.541C88.1697 125.416 88.2228 125.3 88.31 125.211L89.85 123.701C89.9906 123.563 90.1571 123.454 90.34 123.381C90.5255 123.312 90.7222 123.278 90.92 123.281H104.38C104.708 123.277 105.028 123.382 105.29 123.581L111.73 128.391C112.643 129.245 113.849 129.718 115.1 129.711H124.8C125.426 129.709 126.046 129.594 126.63 129.371C127.205 129.138 127.731 128.799 128.18 128.371L135.05 123.531C135.303 123.357 135.603 123.263 135.91 123.261H148.91C149.109 123.256 149.306 123.294 149.49 123.371C149.671 123.436 149.835 123.542 149.97 123.681L151.66 125.331C151.705 125.378 151.739 125.435 151.76 125.497C151.781 125.559 151.787 125.625 151.78 125.691Z" fill="#1D1D1D" stroke="#E2E2E2" stroke-width="1.8" stroke-miterlimit="10"/>
<path d="M145.73 168.021L144.95 168.661C144.682 168.872 144.351 168.984 144.01 168.981H95.1499C94.1543 168.975 93.1919 168.621 92.4299 167.981C92.2137 167.801 92.0568 167.561 91.9799 167.291C91.9112 167.025 91.9288 166.745 92.0299 166.491C92.1399 166.227 92.3284 166.003 92.5699 165.851C92.8167 165.699 93.1006 165.62 93.3899 165.621H144.78C145.077 165.618 145.369 165.702 145.62 165.861C145.859 166.018 146.044 166.245 146.15 166.511C146.245 166.776 146.245 167.065 146.15 167.331C146.085 167.599 145.939 167.84 145.73 168.021Z" fill="#707171" stroke="#E2E2E2" stroke-width="1.8" stroke-miterlimit="10"/>
<path d="M138.19 117.651C139.84 119.281 139.61 120.271 137.7 121.651L135.35 123.3L128.08 128.401C127.633 128.831 127.106 129.17 126.53 129.401C125.946 129.624 125.326 129.739 124.7 129.74H115.03C114.404 129.743 113.783 129.627 113.2 129.401C112.622 129.174 112.095 128.834 111.65 128.401L104.81 123.29L102.06 121.23C100.43 120.02 100.06 119.48 101.2 117.86L103.89 114.76C104.434 114.259 105.15 113.987 105.89 114.001H133.73C134.466 113.997 135.178 114.264 135.73 114.751L138.19 117.651Z" fill="#3A3A3A" stroke="#E2E2E2" stroke-width="1.8" stroke-miterlimit="10"/>
<path d="M171.12 114.371H248.98C249.559 114.367 250.117 114.585 250.54 114.981L251.48 115.851" stroke="#E2E2E2" stroke-width="1.8" stroke-miterlimit="10"/>
<path d="M175.62 114.371C175.85 114.371 175.86 114.601 175.68 114.751C173.82 116.221 165.31 116.491 162.19 116.521C151.11 116.621 158.9 118.961 142.01 119.091C145.91 118.711 152.01 119.021 152.07 114.401L175.62 114.371Z" stroke="#E2E2E2" stroke-width="1.8" stroke-miterlimit="10"/>
<path d="M161.55 161.451L161.37 161.281C160.857 160.807 160.184 160.544 159.485 160.544C158.786 160.544 158.113 160.807 157.6 161.281L157.42 161.451C157.174 161.675 156.978 161.949 156.844 162.254C156.71 162.558 156.641 162.888 156.641 163.221C156.641 163.553 156.71 163.883 156.844 164.187C156.978 164.492 157.174 164.766 157.42 164.991L157.6 165.161C158.117 165.628 158.788 165.887 159.485 165.887C160.182 165.887 160.853 165.628 161.37 165.161L161.55 164.991C161.796 164.766 161.992 164.492 162.126 164.187C162.26 163.883 162.329 163.553 162.329 163.221C162.329 162.888 162.26 162.558 162.126 162.254C161.992 161.949 161.796 161.675 161.55 161.451Z" fill="#4D4B4B" stroke="#E2E2E2" stroke-width="0.5" stroke-miterlimit="10"/>
<path d="M170.56 161.45L170.38 161.28C169.863 160.813 169.192 160.554 168.495 160.554C167.798 160.554 167.127 160.813 166.61 161.28L166.43 161.45C166.185 161.675 165.988 161.949 165.854 162.254C165.72 162.558 165.651 162.888 165.651 163.22C165.651 163.553 165.72 163.883 165.854 164.187C165.988 164.492 166.185 164.766 166.43 164.99L166.61 165.16C167.124 165.634 167.796 165.897 168.495 165.897C169.194 165.897 169.867 165.634 170.38 165.16L170.56 164.99C170.806 164.766 171.002 164.492 171.136 164.187C171.27 163.883 171.339 163.553 171.339 163.22C171.339 162.888 171.27 162.558 171.136 162.254C171.002 161.949 170.806 161.675 170.56 161.45Z" fill="#4D4B4B" stroke="#E2E2E2" stroke-width="0.5" stroke-miterlimit="10"/>
<path d="M186.8 160.151H174.56V166.301H186.8V160.151Z" fill="#5C5C5C"/>
<path d="M161.55 153.501L161.37 153.331C160.853 152.863 160.182 152.604 159.485 152.604C158.788 152.604 158.117 152.863 157.6 153.331L157.42 153.501C157.174 153.725 156.978 153.999 156.844 154.304C156.71 154.608 156.641 154.938 156.641 155.271C156.641 155.603 156.71 155.933 156.844 156.237C156.978 156.542 157.174 156.816 157.42 157.041L157.6 157.211C158.113 157.684 158.786 157.947 159.485 157.947C160.184 157.947 160.857 157.684 161.37 157.211L161.55 157.041C161.796 156.816 161.992 156.542 162.126 156.237C162.26 155.933 162.329 155.603 162.329 155.271C162.329 154.938 162.26 154.608 162.126 154.304C161.992 153.999 161.796 153.725 161.55 153.501Z" fill="#4D4B4B" stroke="#E2E2E2" stroke-width="0.5" stroke-miterlimit="10"/>
<path d="M170.56 153.501L170.38 153.341C169.867 152.867 169.194 152.604 168.495 152.604C167.796 152.604 167.124 152.867 166.61 153.341L166.43 153.501C166.185 153.725 165.988 153.999 165.854 154.304C165.72 154.608 165.651 154.938 165.651 155.271C165.651 155.604 165.72 155.933 165.854 156.238C165.988 156.542 166.185 156.816 166.43 157.041L166.61 157.211C167.124 157.684 167.796 157.947 168.495 157.947C169.194 157.947 169.867 157.684 170.38 157.211L170.56 157.041C170.808 156.817 171.007 156.544 171.143 156.24C171.279 155.935 171.349 155.604 171.349 155.271C171.349 154.937 171.279 154.607 171.143 154.302C171.007 153.997 170.808 153.724 170.56 153.501Z" fill="#4D4B4B" stroke="#E2E2E2" stroke-width="0.5" stroke-miterlimit="10"/>
<path d="M186.8 152.391H174.56V158.54H186.8V152.391Z" fill="#5C5C5C"/>
<path d="M161.56 145.541L161.38 145.371C160.863 144.903 160.192 144.645 159.495 144.645C158.798 144.645 158.127 144.903 157.61 145.371L157.42 145.541C157.174 145.765 156.978 146.039 156.844 146.344C156.71 146.648 156.641 146.978 156.641 147.311C156.641 147.644 156.71 147.973 156.844 148.278C156.978 148.582 157.174 148.856 157.42 149.081L157.61 149.251C158.123 149.724 158.796 149.987 159.495 149.987C160.194 149.987 160.867 149.724 161.38 149.251L161.56 149.081C161.806 148.856 162.002 148.582 162.136 148.278C162.27 147.973 162.339 147.644 162.339 147.311C162.339 146.978 162.27 146.648 162.136 146.344C162.002 146.039 161.806 145.765 161.56 145.541Z" fill="#4D4B4B" stroke="#E2E2E2" stroke-width="0.5" stroke-miterlimit="10"/>
<path d="M170.57 145.55L170.39 145.38C169.877 144.907 169.204 144.644 168.505 144.644C167.806 144.644 167.134 144.907 166.62 145.38L166.44 145.55C166.192 145.774 165.993 146.047 165.857 146.352C165.721 146.656 165.651 146.987 165.651 147.32C165.651 147.654 165.721 147.984 165.857 148.289C165.993 148.594 166.192 148.867 166.44 149.09L166.62 149.25C167.134 149.724 167.806 149.987 168.505 149.987C169.204 149.987 169.877 149.724 170.39 149.25L170.57 149.09C170.816 148.866 171.012 148.592 171.146 148.287C171.28 147.983 171.349 147.653 171.349 147.32C171.349 146.988 171.28 146.658 171.146 146.354C171.012 146.049 170.816 145.775 170.57 145.55Z" fill="#4D4B4B" stroke="#E2E2E2" stroke-width="0.5" stroke-miterlimit="10"/>
<path d="M186.8 144.25H174.56V150.4H186.8V144.25Z" fill="#5C5C5C"/>
<path d="M161.55 137.591L161.37 137.421C160.853 136.953 160.182 136.694 159.485 136.694C158.788 136.694 158.117 136.953 157.6 137.421L157.42 137.591C157.174 137.815 156.978 138.089 156.844 138.394C156.71 138.698 156.641 139.028 156.641 139.361C156.641 139.693 156.71 140.023 156.844 140.327C156.978 140.632 157.174 140.906 157.42 141.13L157.6 141.301C158.113 141.774 158.786 142.037 159.485 142.037C160.184 142.037 160.857 141.774 161.37 141.301L161.55 141.13C161.796 140.906 161.992 140.632 162.126 140.327C162.26 140.023 162.329 139.693 162.329 139.361C162.329 139.028 162.26 138.698 162.126 138.394C161.992 138.089 161.796 137.815 161.55 137.591Z" fill="#4D4B4B" stroke="#E2E2E2" stroke-width="0.5" stroke-miterlimit="10"/>
<path d="M170.56 137.611L170.38 137.441C169.867 136.967 169.194 136.704 168.495 136.704C167.796 136.704 167.123 136.967 166.61 137.441L166.43 137.611C166.185 137.834 165.989 138.107 165.855 138.411C165.721 138.715 165.651 139.043 165.651 139.376C165.651 139.708 165.721 140.036 165.855 140.34C165.989 140.644 166.185 140.917 166.43 141.141L166.61 141.311C167.123 141.784 167.796 142.047 168.495 142.047C169.194 142.047 169.867 141.784 170.38 141.311L170.56 141.141C170.805 140.917 171.001 140.644 171.135 140.34C171.269 140.036 171.339 139.708 171.339 139.376C171.339 139.043 171.269 138.715 171.135 138.411C171.001 138.107 170.805 137.834 170.56 137.611Z" fill="#4D4B4B" stroke="#E2E2E2" stroke-width="0.5" stroke-miterlimit="10"/>
<path d="M186.8 136.291H174.56V142.441H186.8V136.291Z" fill="#5C5C5C"/>
<path d="M161.55 129.641L161.37 129.471C160.853 129.003 160.182 128.745 159.485 128.745C158.788 128.745 158.117 129.003 157.6 129.471L157.42 129.641C157.174 129.865 156.978 130.139 156.844 130.444C156.71 130.748 156.641 131.078 156.641 131.411C156.641 131.743 156.71 132.073 156.844 132.378C156.978 132.682 157.174 132.956 157.42 133.181L157.6 133.351C158.113 133.824 158.786 134.087 159.485 134.087C160.184 134.087 160.857 133.824 161.37 133.351L161.55 133.181C161.798 132.957 161.997 132.684 162.133 132.379C162.269 132.075 162.339 131.744 162.339 131.411C162.339 131.077 162.269 130.747 162.133 130.442C161.997 130.137 161.798 129.864 161.55 129.641Z" fill="#4D4B4B" stroke="#E2E2E2" stroke-width="0.5" stroke-miterlimit="10"/>
<path d="M170.57 129.651L170.38 129.481C169.867 129.007 169.194 128.744 168.495 128.744C167.796 128.744 167.124 129.007 166.61 129.481L166.43 129.651C166.185 129.875 165.988 130.149 165.854 130.454C165.72 130.758 165.651 131.088 165.651 131.421C165.651 131.754 165.72 132.083 165.854 132.388C165.988 132.692 166.185 132.966 166.43 133.191L166.61 133.351C167.124 133.824 167.796 134.087 168.495 134.087C169.194 134.087 169.867 133.824 170.38 133.351L170.57 133.191C170.816 132.966 171.012 132.692 171.146 132.388C171.28 132.083 171.349 131.754 171.349 131.421C171.349 131.088 171.28 130.758 171.146 130.454C171.012 130.149 170.816 129.875 170.57 129.651Z" fill="#4D4B4B" stroke="#E2E2E2" stroke-width="0.5" stroke-miterlimit="10"/>
<path d="M186.8 128.341H174.56V134.501H186.8V128.341Z" fill="#5C5C5C"/>
<path d="M166.73 123.021L164.41 120.841C164.272 120.718 164.094 120.65 163.91 120.65C163.726 120.65 163.548 120.718 163.41 120.841L161.06 123.021C160.997 123.08 160.946 123.152 160.912 123.232C160.878 123.312 160.86 123.398 160.86 123.486C160.86 123.573 160.878 123.659 160.912 123.739C160.946 123.819 160.997 123.891 161.06 123.951L163.38 126.13C163.515 126.258 163.694 126.329 163.88 126.329C164.066 126.329 164.245 126.258 164.38 126.13L166.73 123.921C166.791 123.863 166.84 123.793 166.873 123.715C166.906 123.638 166.924 123.555 166.924 123.471C166.924 123.386 166.906 123.303 166.873 123.226C166.84 123.148 166.791 123.078 166.73 123.021Z" fill="#4D4B4B" stroke="#E2E2E2" stroke-width="0.5" stroke-miterlimit="10"/>
<path d="M186.8 120.391H174.56V126.54H186.8V120.391Z" fill="#5C5C5C"/>
<path d="M445.23 45.2806H431.23C431.074 45.2789 430.922 45.2339 430.79 45.1506C430.663 45.0711 430.562 44.9564 430.5 44.8206C430.44 44.6857 430.422 44.5356 430.45 44.3906C430.481 44.2432 430.554 44.1079 430.66 44.0006L432.73 41.9406C433.02 41.6688 433.359 41.4549 433.73 41.3106C434.099 41.1643 434.493 41.0863 434.89 41.0806H439.13C439.46 41.0851 439.781 41.1897 440.05 41.3806L445.23 45.2806Z" fill="#707171" stroke="#E2E2E2" stroke-width="1.8" stroke-miterlimit="10"/>
<path d="M485.64 45.2805H472.49L475.93 41.6305C476.089 41.4579 476.284 41.3215 476.5 41.2305C476.72 41.131 476.959 41.0799 477.2 41.0805H484.08C484.143 41.0712 484.207 41.0712 484.27 41.0805C484.329 41.1042 484.383 41.138 484.43 41.1805L486.55 43.2905C486.717 43.4481 486.829 43.6548 486.87 43.8805C486.922 44.1063 486.893 44.3431 486.79 44.5505C486.69 44.762 486.53 44.9394 486.33 45.0605C486.123 45.1935 485.885 45.2694 485.64 45.2805Z" fill="#707171" stroke="#E2E2E2" stroke-width="1.8" stroke-miterlimit="10"/>
<path d="M490.78 47.6906V87.4706C490.779 87.6626 490.731 87.8514 490.64 88.0206C490.553 88.1939 490.43 88.3472 490.28 88.4706L488.78 89.6706C488.515 89.8874 488.182 90.0042 487.84 90.0006H429.91C429.547 90.0095 429.192 89.889 428.91 89.6606L428.38 89.2106C427.955 88.8601 427.613 88.4195 427.38 87.9206C427.135 87.4297 427.005 86.8893 427 86.3406L427.16 47.5406C427.17 47.4163 427.223 47.2995 427.31 47.2106L428.85 45.7006C428.991 45.5625 429.157 45.4538 429.34 45.3805C429.526 45.3119 429.722 45.278 429.92 45.2806H443.38C443.708 45.2769 444.028 45.3824 444.29 45.5806L450.73 50.3906C451.643 51.2454 452.849 51.7178 454.1 51.7106H463.8C464.426 51.7091 465.046 51.5939 465.63 51.3706C466.205 51.1379 466.731 50.7986 467.18 50.3706L474.05 45.5306C474.303 45.3568 474.603 45.2628 474.91 45.2606H487.91C488.109 45.2565 488.306 45.294 488.49 45.3706C488.671 45.4364 488.835 45.5424 488.97 45.6806L490.66 47.3306C490.705 47.3782 490.739 47.4351 490.76 47.4973C490.781 47.5595 490.787 47.6255 490.78 47.6906Z" fill="#1D1D1D" stroke="#E2E2E2" stroke-width="1.8" stroke-miterlimit="10"/>
<path d="M484.73 90.0205L483.95 90.6605C483.682 90.8715 483.351 90.9845 483.01 90.9805H434.15C433.154 90.9753 432.192 90.6215 431.43 89.9805C431.214 89.8013 431.057 89.5607 430.98 89.2905C430.911 89.0253 430.929 88.7451 431.03 88.4905C431.14 88.2268 431.328 88.0033 431.57 87.8505C431.817 87.6993 432.101 87.6197 432.39 87.6205H483.78C484.077 87.6183 484.369 87.7016 484.62 87.8605C484.859 88.0179 485.044 88.2448 485.15 88.5105C485.245 88.7757 485.245 89.0654 485.15 89.3305C485.085 89.5988 484.939 89.8401 484.73 90.0205Z" fill="#707171" stroke="#E2E2E2" stroke-width="1.8" stroke-miterlimit="10"/>
<path d="M477.19 39.6505C478.84 41.2805 478.61 42.2705 476.7 43.6505L474.35 45.3005L467.08 50.4005C466.633 50.8307 466.106 51.1703 465.53 51.4005C464.946 51.6238 464.326 51.739 463.7 51.7405H454.03C453.404 51.7427 452.783 51.6274 452.2 51.4005C451.622 51.1743 451.095 50.8342 450.65 50.4005L443.81 45.2905L441.06 43.2305C439.43 42.0205 439.06 41.4805 440.2 39.8605L442.89 36.7605C443.434 36.2588 444.15 35.9866 444.89 36.0005H472.73C473.466 35.9967 474.178 36.2636 474.73 36.7505L477.19 39.6505Z" fill="#3A3A3A" stroke="#E2E2E2" stroke-width="1.8" stroke-miterlimit="10"/>
<path d="M510.12 36.3705H587.98C588.559 36.3665 589.117 36.5849 589.54 36.9805L590.48 37.8505" stroke="#E2E2E2" stroke-width="1.8" stroke-miterlimit="10"/>
<path d="M514.62 36.3706C514.85 36.3706 514.86 36.6006 514.68 36.7506C512.82 38.2206 504.31 38.4906 501.19 38.5206C490.11 38.6206 497.9 40.9606 481.01 41.0906C484.91 40.7106 491.01 41.0206 491.07 36.4006L514.62 36.3706Z" stroke="#E2E2E2" stroke-width="1.8" stroke-miterlimit="10"/>
<path d="M500.55 83.4505L500.37 83.2805C499.857 82.8068 499.184 82.5438 498.485 82.5438C497.786 82.5438 497.113 82.8068 496.6 83.2805L496.42 83.4505C496.174 83.6753 495.978 83.9488 495.844 84.2535C495.71 84.5583 495.641 84.8876 495.641 85.2205C495.641 85.5535 495.71 85.8827 495.844 86.1875C495.978 86.4922 496.174 86.7657 496.42 86.9905L496.6 87.1605C497.117 87.6278 497.788 87.8866 498.485 87.8866C499.182 87.8866 499.853 87.6278 500.37 87.1605L500.55 86.9905C500.796 86.7657 500.992 86.4922 501.126 86.1875C501.26 85.8827 501.329 85.5535 501.329 85.2205C501.329 84.8876 501.26 84.5583 501.126 84.2535C500.992 83.9488 500.796 83.6753 500.55 83.4505Z" fill="#4D4B4B" stroke="#E2E2E2" stroke-width="0.5" stroke-miterlimit="10"/>
<path d="M509.56 83.4505L509.38 83.2805C508.863 82.8132 508.192 82.5544 507.495 82.5544C506.798 82.5544 506.127 82.8132 505.61 83.2805L505.43 83.4505C505.185 83.6753 504.988 83.9488 504.854 84.2535C504.72 84.5582 504.651 84.8876 504.651 85.2205C504.651 85.5534 504.72 85.8827 504.854 86.1874C504.988 86.4922 505.185 86.7656 505.43 86.9905L505.61 87.1605C506.124 87.6342 506.796 87.8972 507.495 87.8972C508.194 87.8972 508.867 87.6342 509.38 87.1605L509.56 86.9905C509.806 86.7656 510.002 86.4922 510.136 86.1874C510.27 85.8827 510.339 85.5534 510.339 85.2205C510.339 84.8876 510.27 84.5582 510.136 84.2535C510.002 83.9488 509.806 83.6753 509.56 83.4505Z" fill="#4D4B4B" stroke="#E2E2E2" stroke-width="0.5" stroke-miterlimit="10"/>
<path d="M525.8 82.1505H513.56V88.3005H525.8V82.1505Z" fill="#5C5C5C"/>
<path d="M500.55 75.5005L500.37 75.3305C499.853 74.8632 499.182 74.6045 498.485 74.6045C497.788 74.6045 497.117 74.8632 496.6 75.3305L496.42 75.5005C496.174 75.7254 495.978 75.9989 495.844 76.3036C495.71 76.6083 495.641 76.9376 495.641 77.2705C495.641 77.6035 495.71 77.9328 495.844 78.2375C495.978 78.5422 496.174 78.8157 496.42 79.0405L496.6 79.2105C497.113 79.6842 497.786 79.9472 498.485 79.9472C499.184 79.9472 499.857 79.6842 500.37 79.2105L500.55 79.0405C500.796 78.8157 500.992 78.5422 501.126 78.2375C501.26 77.9328 501.329 77.6035 501.329 77.2705C501.329 76.9376 501.26 76.6083 501.126 76.3036C500.992 75.9989 500.796 75.7254 500.55 75.5005Z" fill="#4D4B4B" stroke="#E2E2E2" stroke-width="0.5" stroke-miterlimit="10"/>
<path d="M509.56 75.5006L509.38 75.3406C508.867 74.8669 508.194 74.6039 507.495 74.6039C506.796 74.6039 506.124 74.8669 505.61 75.3406L505.43 75.5006C505.185 75.7254 504.988 75.9989 504.854 76.3036C504.72 76.6083 504.651 76.9376 504.651 77.2706C504.651 77.6035 504.72 77.9328 504.854 78.2375C504.988 78.5422 505.185 78.8157 505.43 79.0406L505.61 79.2106C506.124 79.6842 506.796 79.9472 507.495 79.9472C508.194 79.9472 508.867 79.6842 509.38 79.2106L509.56 79.0406C509.808 78.8174 510.007 78.5444 510.143 78.2395C510.279 77.9346 510.349 77.6044 510.349 77.2706C510.349 76.9367 510.279 76.6066 510.143 76.3016C510.007 75.9967 509.808 75.7238 509.56 75.5006Z" fill="#4D4B4B" stroke="#E2E2E2" stroke-width="0.5" stroke-miterlimit="10"/>
<path d="M525.8 74.3905H513.56V80.5405H525.8V74.3905Z" fill="#5C5C5C"/>
<path d="M500.56 67.5406L500.38 67.3706C499.863 66.9033 499.192 66.6445 498.495 66.6445C497.798 66.6445 497.127 66.9033 496.61 67.3706L496.42 67.5406C496.174 67.7654 495.978 68.0389 495.844 68.3436C495.71 68.6483 495.641 68.9776 495.641 69.3106C495.641 69.6435 495.71 69.9728 495.844 70.2775C495.978 70.5822 496.174 70.8557 496.42 71.0806L496.61 71.2506C497.123 71.7243 497.796 71.9872 498.495 71.9872C499.194 71.9872 499.867 71.7243 500.38 71.2506L500.56 71.0806C500.806 70.8557 501.002 70.5822 501.136 70.2775C501.27 69.9728 501.339 69.6435 501.339 69.3106C501.339 68.9776 501.27 68.6483 501.136 68.3436C501.002 68.0389 500.806 67.7654 500.56 67.5406Z" fill="#4D4B4B" stroke="#E2E2E2" stroke-width="0.5" stroke-miterlimit="10"/>
<path d="M509.57 67.5505L509.39 67.3805C508.877 66.9068 508.204 66.6438 507.505 66.6438C506.806 66.6438 506.134 66.9068 505.62 67.3805L505.44 67.5505C505.192 67.7737 504.993 68.0466 504.857 68.3515C504.721 68.6565 504.651 68.9866 504.651 69.3205C504.651 69.6543 504.721 69.9845 504.857 70.2894C504.993 70.5943 505.192 70.8673 505.44 71.0905L505.62 71.2505C506.134 71.7242 506.806 71.9872 507.505 71.9872C508.204 71.9872 508.877 71.7242 509.39 71.2505L509.57 71.0905C509.816 70.8656 510.012 70.5922 510.146 70.2874C510.28 69.9827 510.349 69.6534 510.349 69.3205C510.349 68.9875 510.28 68.6582 510.146 68.3535C510.012 68.0488 509.816 67.7753 509.57 67.5505Z" fill="#4D4B4B" stroke="#E2E2E2" stroke-width="0.5" stroke-miterlimit="10"/>
<path d="M525.8 66.2505H513.56V72.4005H525.8V66.2505Z" fill="#5C5C5C"/>
<path d="M500.55 59.5905L500.37 59.4205C499.853 58.9532 499.182 58.6945 498.485 58.6945C497.788 58.6945 497.117 58.9532 496.6 59.4205L496.42 59.5905C496.174 59.8154 495.978 60.0888 495.844 60.3936C495.71 60.6983 495.641 61.0276 495.641 61.3605C495.641 61.6934 495.71 62.0227 495.844 62.3275C495.978 62.6322 496.174 62.9056 496.42 63.1305L496.6 63.3005C497.113 63.7742 497.786 64.0372 498.485 64.0372C499.184 64.0372 499.857 63.7742 500.37 63.3005L500.55 63.1305C500.796 62.9056 500.992 62.6322 501.126 62.3275C501.26 62.0227 501.329 61.6934 501.329 61.3605C501.329 61.0276 501.26 60.6983 501.126 60.3936C500.992 60.0888 500.796 59.8154 500.55 59.5905Z" fill="#4D4B4B" stroke="#E2E2E2" stroke-width="0.5" stroke-miterlimit="10"/>
<path d="M509.56 59.6105L509.38 59.4406C508.867 58.9669 508.194 58.7039 507.495 58.7039C506.796 58.7039 506.123 58.9669 505.61 59.4406L505.43 59.6105C505.185 59.8345 504.989 60.1071 504.855 60.411C504.721 60.7149 504.651 61.0434 504.651 61.3755C504.651 61.7077 504.721 62.0362 504.855 62.3401C504.989 62.644 505.185 62.9166 505.43 63.1405L505.61 63.3105C506.123 63.7842 506.796 64.0472 507.495 64.0472C508.194 64.0472 508.867 63.7842 509.38 63.3105L509.56 63.1405C509.805 62.9166 510.001 62.644 510.135 62.3401C510.269 62.0362 510.339 61.7077 510.339 61.3755C510.339 61.0434 510.269 60.7149 510.135 60.411C510.001 60.1071 509.805 59.8345 509.56 59.6105Z" fill="#4D4B4B" stroke="#E2E2E2" stroke-width="0.5" stroke-miterlimit="10"/>
<path d="M525.8 58.2905H513.56V64.4406H525.8V58.2905Z" fill="#5C5C5C"/>
<path d="M500.55 51.6405L500.37 51.4706C499.853 51.0033 499.182 50.7445 498.485 50.7445C497.788 50.7445 497.117 51.0033 496.6 51.4706L496.42 51.6405C496.174 51.8654 495.978 52.1389 495.844 52.4436C495.71 52.7483 495.641 53.0776 495.641 53.4106C495.641 53.7435 495.71 54.0728 495.844 54.3775C495.978 54.6822 496.174 54.9557 496.42 55.1805L496.6 55.3505C497.113 55.8242 497.786 56.0872 498.485 56.0872C499.184 56.0872 499.857 55.8242 500.37 55.3505L500.55 55.1805C500.798 54.9573 500.997 54.6844 501.133 54.3795C501.269 54.0745 501.339 53.7444 501.339 53.4106C501.339 53.0767 501.269 52.7466 501.133 52.4416C500.997 52.1367 500.798 51.8637 500.55 51.6405Z" fill="#4D4B4B" stroke="#E2E2E2" stroke-width="0.5" stroke-miterlimit="10"/>
<path d="M509.57 51.6506L509.38 51.4806C508.867 51.0069 508.194 50.7439 507.495 50.7439C506.796 50.7439 506.124 51.0069 505.61 51.4806L505.43 51.6506C505.185 51.8754 504.988 52.1489 504.854 52.4536C504.72 52.7583 504.651 53.0876 504.651 53.4206C504.651 53.7535 504.72 54.0828 504.854 54.3875C504.988 54.6922 505.185 54.9657 505.43 55.1906L505.61 55.3506C506.124 55.8242 506.796 56.0872 507.495 56.0872C508.194 56.0872 508.867 55.8242 509.38 55.3506L509.57 55.1906C509.816 54.9657 510.012 54.6922 510.146 54.3875C510.28 54.0828 510.349 53.7535 510.349 53.4206C510.349 53.0876 510.28 52.7583 510.146 52.4536C510.012 52.1489 509.816 51.8754 509.57 51.6506Z" fill="#4D4B4B" stroke="#E2E2E2" stroke-width="0.5" stroke-miterlimit="10"/>
<path d="M525.8 50.3406H513.56V56.5006H525.8V50.3406Z" fill="#5C5C5C"/>
<path d="M505.73 45.0205L503.41 42.8405C503.272 42.7175 503.094 42.6495 502.91 42.6495C502.726 42.6495 502.548 42.7175 502.41 42.8405L500.06 45.0205C499.997 45.0803 499.946 45.1524 499.912 45.2324C499.878 45.3123 499.86 45.3985 499.86 45.4855C499.86 45.5726 499.878 45.6587 499.912 45.7386C499.946 45.8186 499.997 45.8907 500.06 45.9505L502.38 48.1305C502.515 48.2578 502.694 48.3286 502.88 48.3286C503.066 48.3286 503.245 48.2578 503.38 48.1305L505.73 45.9205C505.791 45.8626 505.84 45.7928 505.873 45.7154C505.906 45.6381 505.924 45.5547 505.924 45.4705C505.924 45.3863 505.906 45.303 505.873 45.2256C505.84 45.1482 505.791 45.0784 505.73 45.0205Z" fill="#4D4B4B" stroke="#E2E2E2" stroke-width="0.5" stroke-miterlimit="10"/>
<path d="M525.8 42.3905H513.56V48.5405H525.8V42.3905Z" fill="#5C5C5C"/>
<path d="M63.27 21.71L63.8 21.32V17.06C63.7996 16.2597 63.6352 15.4679 63.317 14.7335C62.9989 13.9991 62.5336 13.3377 61.95 12.79C60.7227 11.6451 59.1084 11.0058 57.43 11H25.43C23.7541 11.0034 22.1421 11.6432 20.92 12.79C20.335 13.3372 19.8683 13.9983 19.5484 14.7326C19.2285 15.467 19.0623 16.259 19.06 17.06V21.34L19.58 21.73C20.4295 22.3692 21.1348 23.1801 21.65 24.11C20.635 26.3132 20.0447 28.688 19.91 31.11C19.7038 31.2085 19.5277 31.3604 19.4 31.55C19.2766 31.7332 19.2107 31.9491 19.2107 32.17C19.2107 32.3909 19.2766 32.6068 19.4 32.79C19.531 32.974 19.7065 33.1219 19.91 33.22C20.0471 35.6416 20.6373 38.016 21.65 40.22C21.1175 41.1531 20.3912 41.9612 19.52 42.59L19 43V53.27H63.81V42.99L63.28 42.58C62.4118 41.9508 61.6889 41.1426 61.16 40.21C62.1665 38.0049 62.7499 35.6304 62.88 33.21C63.0903 33.1184 63.2705 32.9694 63.4 32.78C63.5296 32.5974 63.5992 32.3789 63.5992 32.155C63.5992 31.931 63.5296 31.7126 63.4 31.53C63.2705 31.3406 63.0903 31.1916 62.88 31.1C62.7499 28.6796 62.1665 26.3051 61.16 24.1C61.6834 23.161 62.4031 22.3458 63.27 21.71ZM21.04 33.12C21.2134 33.0136 21.3577 32.8659 21.46 32.69C21.5629 32.518 21.6149 32.3204 21.61 32.12C21.6214 31.9203 21.5726 31.7217 21.47 31.55C21.3667 31.3716 21.2184 31.2233 21.04 31.12C21.1302 29.229 21.5253 27.365 22.21 25.6C22.3483 26.153 22.4221 26.7201 22.43 27.29V36.89C22.4215 37.4566 22.3477 38.0203 22.21 38.57C21.5339 36.8267 21.139 34.9871 21.04 33.12ZM61.04 45.96C61.04 45.96 61.04 50.68 54.27 50.68H28.54C21.82 50.68 21.77 45.96 21.77 45.96V44.21C22.8453 43.3121 23.715 42.1935 24.32 40.93C24.9101 39.6793 25.2141 38.3129 25.21 36.93V27.33C25.2138 25.9472 24.9097 24.5808 24.32 23.33C23.715 22.0665 22.8453 20.9479 21.77 20.05V18.35C21.77 18.35 21.77 13.63 28.54 13.63H54.24C60.97 13.63 61.01 18.35 61.01 18.35V20.1C59.9347 20.9979 59.065 22.1165 58.46 23.38C57.8703 24.6308 57.5662 25.9972 57.57 27.38V36.98C57.5659 38.3629 57.8699 39.7293 58.46 40.98C59.065 42.2435 59.9347 43.3621 61.01 44.26L61.04 45.96ZM61.77 31.19C61.5916 31.2933 61.4433 31.4416 61.34 31.62C61.248 31.7959 61.2 31.9915 61.2 32.19C61.2 32.3885 61.248 32.5841 61.34 32.76C61.4433 32.9384 61.5916 33.0867 61.77 33.19C61.6639 35.0808 61.2624 36.9434 60.58 38.71C60.4375 38.1612 60.3636 37.5969 60.36 37.03V27.42C60.3636 26.8531 60.4375 26.2888 60.58 25.74C61.2472 27.4854 61.6386 29.3241 61.74 31.19H61.77Z" fill="#E2E2E2"/>
<path d="M57.65 27.36V36.96C57.6446 38.3441 57.9523 39.7116 58.55 40.96C59.1513 42.2231 60.0176 43.3418 61.09 44.24V45.99C61.09 45.99 61.09 50.71 54.32 50.71H28.54C21.82 50.71 21.77 45.99 21.77 45.99V44.21C22.8453 43.3121 23.715 42.1935 24.32 40.93C24.9101 39.6793 25.2141 38.3129 25.21 36.93V27.33C25.2138 25.9472 24.9098 24.5808 24.32 23.33C23.715 22.0665 22.8453 20.9479 21.77 20.05V18.35C21.77 18.35 21.77 13.63 28.54 13.63H54.24C60.97 13.63 61.01 18.35 61.01 18.35V20.1C59.9426 21.0021 59.0829 22.1244 58.49 23.39C57.9154 24.6335 57.6283 25.9904 57.65 27.36Z" fill="#242122"/>
<path d="M63.27 145.71L63.8 145.32V141.06C63.7996 140.26 63.6352 139.468 63.317 138.733C62.9989 137.999 62.5336 137.338 61.95 136.79C60.7227 135.645 59.1084 135.006 57.43 135H25.43C23.7541 135.003 22.1421 135.643 20.92 136.79C20.335 137.337 19.8683 137.998 19.5484 138.733C19.2285 139.467 19.0623 140.259 19.06 141.06V145.34L19.58 145.73C20.4295 146.369 21.1348 147.18 21.65 148.11C20.635 150.313 20.0447 152.688 19.91 155.11C19.7038 155.209 19.5277 155.36 19.4 155.55C19.2766 155.733 19.2107 155.949 19.2107 156.17C19.2107 156.391 19.2766 156.607 19.4 156.79C19.531 156.974 19.7065 157.122 19.91 157.22C20.0471 159.642 20.6373 162.016 21.65 164.22C21.1175 165.153 20.3912 165.961 19.52 166.59L19 167V177.27H63.81V166.99L63.28 166.58C62.4118 165.951 61.6889 165.143 61.16 164.21C62.1665 162.005 62.7499 159.63 62.88 157.21C63.0903 157.118 63.2705 156.969 63.4 156.78C63.5296 156.597 63.5992 156.379 63.5992 156.155C63.5992 155.931 63.5296 155.713 63.4 155.53C63.2705 155.341 63.0903 155.192 62.88 155.1C62.7499 152.68 62.1665 150.305 61.16 148.1C61.6834 147.161 62.4031 146.346 63.27 145.71ZM21.04 157.12C21.2134 157.014 21.3577 156.866 21.46 156.69C21.5629 156.518 21.6149 156.32 21.61 156.12C21.6214 155.92 21.5726 155.722 21.47 155.55C21.3667 155.372 21.2184 155.223 21.04 155.12C21.1302 153.229 21.5253 151.365 22.21 149.6C22.3483 150.153 22.4221 150.72 22.43 151.29V160.89C22.4215 161.457 22.3477 162.02 22.21 162.57C21.5339 160.827 21.139 158.987 21.04 157.12ZM61.04 169.96C61.04 169.96 61.04 174.68 54.27 174.68H28.54C21.82 174.68 21.77 169.96 21.77 169.96V168.21C22.8453 167.312 23.715 166.194 24.32 164.93C24.9101 163.679 25.2141 162.313 25.21 160.93V151.33C25.2138 149.947 24.9097 148.581 24.32 147.33C23.715 146.066 22.8453 144.948 21.77 144.05V142.35C21.77 142.35 21.77 137.63 28.54 137.63H54.24C60.97 137.63 61.01 142.35 61.01 142.35V144.1C59.9347 144.998 59.065 146.116 58.46 147.38C57.8703 148.631 57.5662 149.997 57.57 151.38V160.98C57.5659 162.363 57.8699 163.729 58.46 164.98C59.065 166.244 59.9347 167.362 61.01 168.26L61.04 169.96ZM61.77 155.19C61.5916 155.293 61.4433 155.442 61.34 155.62C61.248 155.796 61.2 155.991 61.2 156.19C61.2 156.389 61.248 156.584 61.34 156.76C61.4433 156.938 61.5916 157.087 61.77 157.19C61.6639 159.081 61.2624 160.943 60.58 162.71C60.4375 162.161 60.3636 161.597 60.36 161.03V151.42C60.3636 150.853 60.4375 150.289 60.58 149.74C61.2472 151.485 61.6386 153.324 61.74 155.19H61.77Z" fill="#E2E2E2"/>
<path d="M57.65 151.36V160.96C57.6446 162.344 57.9523 163.712 58.55 164.96C59.1513 166.223 60.0176 167.342 61.09 168.24V169.99C61.09 169.99 61.09 174.71 54.32 174.71H28.54C21.82 174.71 21.77 169.99 21.77 169.99V168.21C22.8453 167.312 23.715 166.194 24.32 164.93C24.9101 163.679 25.2141 162.313 25.21 160.93V151.33C25.2138 149.947 24.9098 148.581 24.32 147.33C23.715 146.066 22.8453 144.948 21.77 144.05V142.35C21.77 142.35 21.77 137.63 28.54 137.63H54.24C60.97 137.63 61.01 142.35 61.01 142.35V144.1C59.9426 145.002 59.0829 146.124 58.49 147.39C57.9154 148.633 57.6283 149.99 57.65 151.36Z" fill="#242122"/>
<path d="M63.27 83.71L63.8 83.32V79.06C63.7996 78.2597 63.6352 77.4679 63.317 76.7335C62.9989 75.9991 62.5336 75.3377 61.95 74.79C60.7227 73.6451 59.1084 73.0058 57.43 73H25.43C23.7541 73.0034 22.1421 73.6432 20.92 74.79C20.335 75.3372 19.8683 75.9983 19.5484 76.7326C19.2285 77.467 19.0623 78.259 19.06 79.06V83.34L19.58 83.73C20.4295 84.3692 21.1348 85.1801 21.65 86.11C20.635 88.3132 20.0447 90.688 19.91 93.11C19.7038 93.2085 19.5277 93.3604 19.4 93.55C19.2766 93.7332 19.2107 93.9491 19.2107 94.17C19.2107 94.3909 19.2766 94.6068 19.4 94.79C19.531 94.974 19.7065 95.1219 19.91 95.22C20.0471 97.6416 20.6373 100.016 21.65 102.22C21.1175 103.153 20.3912 103.961 19.52 104.59L19 105V115.27H63.81V104.99L63.28 104.58C62.4118 103.951 61.6889 103.143 61.16 102.21C62.1665 100.005 62.7499 97.6304 62.88 95.21C63.0903 95.1184 63.2705 94.9694 63.4 94.78C63.5296 94.5974 63.5992 94.3789 63.5992 94.155C63.5992 93.931 63.5296 93.7126 63.4 93.53C63.2705 93.3406 63.0903 93.1916 62.88 93.1C62.7499 90.6796 62.1665 88.3051 61.16 86.1C61.6834 85.161 62.4031 84.3458 63.27 83.71ZM21.04 95.12C21.2134 95.0136 21.3577 94.8659 21.46 94.69C21.5629 94.518 21.6149 94.3204 21.61 94.12C21.6214 93.9203 21.5726 93.7217 21.47 93.55C21.3667 93.3716 21.2184 93.2233 21.04 93.12C21.1302 91.229 21.5253 89.365 22.21 87.6C22.3483 88.153 22.4221 88.7201 22.43 89.29V98.89C22.4215 99.4566 22.3477 100.02 22.21 100.57C21.5339 98.8267 21.139 96.9871 21.04 95.12ZM61.04 107.96C61.04 107.96 61.04 112.68 54.27 112.68H28.54C21.82 112.68 21.77 107.96 21.77 107.96V106.21C22.8453 105.312 23.715 104.194 24.32 102.93C24.9101 101.679 25.2141 100.313 25.21 98.93V89.33C25.2138 87.9472 24.9097 86.5808 24.32 85.33C23.715 84.0665 22.8453 82.9479 21.77 82.05V80.35C21.77 80.35 21.77 75.63 28.54 75.63H54.24C60.97 75.63 61.01 80.35 61.01 80.35V82.1C59.9347 82.9979 59.065 84.1165 58.46 85.38C57.8703 86.6308 57.5662 87.9972 57.57 89.38V98.98C57.5659 100.363 57.8699 101.729 58.46 102.98C59.065 104.244 59.9347 105.362 61.01 106.26L61.04 107.96ZM61.77 93.19C61.5916 93.2933 61.4433 93.4416 61.34 93.62C61.248 93.7959 61.2 93.9915 61.2 94.19C61.2 94.3885 61.248 94.5841 61.34 94.76C61.4433 94.9384 61.5916 95.0867 61.77 95.19C61.6639 97.0808 61.2624 98.9434 60.58 100.71C60.4375 100.161 60.3636 99.5969 60.36 99.03V89.42C60.3636 88.8531 60.4375 88.2888 60.58 87.74C61.2472 89.4854 61.6386 91.3241 61.74 93.19H61.77Z" fill="#E2E2E2"/>
<path d="M57.65 89.36V98.96C57.6446 100.344 57.9523 101.712 58.55 102.96C59.1513 104.223 60.0176 105.342 61.09 106.24V107.99C61.09 107.99 61.09 112.71 54.32 112.71H28.54C21.82 112.71 21.77 107.99 21.77 107.99V106.21C22.8453 105.312 23.715 104.194 24.32 102.93C24.9101 101.679 25.2141 100.313 25.21 98.93V89.33C25.2138 87.9472 24.9098 86.5808 24.32 85.33C23.715 84.0665 22.8453 82.9479 21.77 82.05V80.35C21.77 80.35 21.77 75.63 28.54 75.63H54.24C60.97 75.63 61.01 80.35 61.01 80.35V82.1C59.9426 83.0021 59.0829 84.1244 58.49 85.39C57.9154 86.6335 57.6283 87.9904 57.65 89.36Z" fill="#242122"/>
</svg>
