
<svg width="609" height="201" viewBox="0 0 609 201" fill="none" xmlns="http://www.w3.org/2000/svg">
<path d="M599.754 0.0225067L7.2227 0.0225067C6.77102 -0.00146484 6.31888 0.0639954 5.91022 0.212509C5.51706 0.35498 5.17487 0.567657 4.91273 0.832504C3.91525 1.71251 2.85214 2.56252 1.85466 3.42252C-0.284681 5.23251 0.056564 4.7525 0.00406485 7.16251L0.00406485 193.973C-0.0184962 194.313 0.0530431 194.654 0.214061 194.973C0.384534 195.313 0.658955 195.618 1.01467 195.863C2.09091 196.713 3.07527 197.593 4.11212 198.463C6.26459 200.243 5.70022 199.963 8.5483 199.993L601.789 199.993C602.238 200.029 602.693 199.97 603.101 199.823C603.498 199.679 603.841 199.463 604.099 199.193C605.119 198.233 606.215 197.321 607.38 196.463C607.978 196.052 608.43 195.532 608.692 194.953C608.985 194.356 609.071 193.712 608.942 193.083V6.0825C608.964 5.74165 608.893 5.40099 608.732 5.0825C608.57 4.75964 608.314 4.46899 607.984 4.23251C607.13 3.53252 606.304 2.79251 605.451 2.10251C602.602 -0.367493 603.757 0.0225067 599.754 0.0225067ZM604.519 4.21251C604.834 4.45251 605.109 4.73251 605.424 4.96251C605.82 5.23227 606.115 5.57741 606.277 5.96251C606.463 6.33522 606.526 6.73692 606.461 7.13251V191.523C606.461 194.643 606.907 193.783 604.125 196.163C603.94 196.302 603.764 196.449 603.6 196.603C603.214 197.041 602.672 197.388 602.038 197.603C601.408 197.827 600.702 197.897 600.017 197.803C599.58 197.772 599.141 197.772 598.704 197.803L10.4514 197.803C6.15959 197.803 7.51144 198.263 4.29587 195.673C3.92838 195.383 3.56088 195.063 3.20651 194.753C2.98182 194.577 2.81143 194.365 2.70777 194.133C2.60013 193.919 2.54669 193.691 2.55027 193.463L2.55027 6.96251C2.51552 6.62376 2.57363 6.28322 2.7209 5.96251C2.86264 5.63066 3.10551 5.32909 3.42963 5.0825C4.37462 4.3425 5.2671 3.57251 6.15959 2.79251C6.38357 2.58905 6.66667 2.42813 6.98645 2.32251C7.29792 2.21201 7.64123 2.16382 7.98394 2.18251L598.809 2.18251C602.747 2.18251 601.566 1.78252 604.519 4.21251Z" fill="#3D3D3D"/>
<path d="M603.285 4.84258L604.164 5.60257C604.43 5.7959 604.636 6.03151 604.768 6.29257C604.903 6.56003 604.961 6.84648 604.939 7.13257V191.333C604.939 194.033 605.372 193.333 602.76 195.573C602.444 195.894 602.029 196.151 601.553 196.323C601.083 196.483 600.569 196.552 600.056 196.523L11.2652 196.523C10.6709 196.493 10.0746 196.493 9.48022 196.523C8.79891 196.584 8.10858 196.501 7.48525 196.283C6.85357 196.061 6.31016 195.716 5.91028 195.283C3.82343 193.413 4.09906 193.913 4.08593 191.533L4.08593 8.19257C4.08593 5.74257 4.21718 5.52257 6.36964 3.94257C6.7293 3.65753 7.16167 3.43153 7.64016 3.27849C8.11866 3.12544 8.63317 3.04855 9.1521 3.05257L598.193 3.05257C601.5 3.07257 600.739 2.71257 603.285 4.84258Z" fill="#3D3D3D"/>
<path d="M63.27 21.71L63.8 21.32V17.06C63.7996 16.2597 63.6352 15.4679 63.317 14.7335C62.9989 13.9991 62.5336 13.3377 61.95 12.79C60.7227 11.6451 59.1084 11.0058 57.43 11H25.43C23.7541 11.0034 22.1421 11.6432 20.92 12.79C20.335 13.3372 19.8683 13.9983 19.5484 14.7326C19.2285 15.467 19.0623 16.259 19.06 17.06V21.34L19.58 21.73C20.4295 22.3692 21.1348 23.1801 21.65 24.11C20.635 26.3132 20.0447 28.688 19.91 31.11C19.7038 31.2085 19.5277 31.3604 19.4 31.55C19.2766 31.7332 19.2107 31.9491 19.2107 32.17C19.2107 32.3909 19.2766 32.6068 19.4 32.79C19.531 32.974 19.7065 33.1219 19.91 33.22C20.0471 35.6416 20.6373 38.016 21.65 40.22C21.1175 41.1531 20.3912 41.9612 19.52 42.59L19 43V53.27H63.81V42.99L63.28 42.58C62.4118 41.9508 61.6889 41.1426 61.16 40.21C62.1665 38.0049 62.7499 35.6304 62.88 33.21C63.0903 33.1184 63.2705 32.9694 63.4 32.78C63.5296 32.5974 63.5992 32.3789 63.5992 32.155C63.5992 31.931 63.5296 31.7126 63.4 31.53C63.2705 31.3406 63.0903 31.1916 62.88 31.1C62.7499 28.6796 62.1665 26.3051 61.16 24.1C61.6834 23.161 62.4031 22.3458 63.27 21.71ZM21.04 33.12C21.2134 33.0136 21.3577 32.8659 21.46 32.69C21.5629 32.518 21.6149 32.3204 21.61 32.12C21.6214 31.9203 21.5726 31.7217 21.47 31.55C21.3667 31.3716 21.2184 31.2233 21.04 31.12C21.1302 29.229 21.5253 27.365 22.21 25.6C22.3483 26.153 22.4221 26.7201 22.43 27.29V36.89C22.4215 37.4566 22.3477 38.0203 22.21 38.57C21.5339 36.8267 21.139 34.9871 21.04 33.12ZM61.04 45.96C61.04 45.96 61.04 50.68 54.27 50.68H28.54C21.82 50.68 21.77 45.96 21.77 45.96V44.21C22.8453 43.3121 23.715 42.1935 24.32 40.93C24.9101 39.6793 25.2141 38.3129 25.21 36.93V27.33C25.2138 25.9472 24.9097 24.5808 24.32 23.33C23.715 22.0665 22.8453 20.9479 21.77 20.05V18.35C21.77 18.35 21.77 13.63 28.54 13.63H54.24C60.97 13.63 61.01 18.35 61.01 18.35V20.1C59.9347 20.9979 59.065 22.1165 58.46 23.38C57.8703 24.6308 57.5662 25.9972 57.57 27.38V36.98C57.5659 38.3629 57.8699 39.7293 58.46 40.98C59.065 42.2435 59.9347 43.3621 61.01 44.26L61.04 45.96ZM61.77 31.19C61.5916 31.2933 61.4433 31.4416 61.34 31.62C61.248 31.7959 61.2 31.9915 61.2 32.19C61.2 32.3885 61.248 32.5841 61.34 32.76C61.4433 32.9384 61.5916 33.0867 61.77 33.19C61.6639 35.0808 61.2624 36.9434 60.58 38.71C60.4375 38.1612 60.3636 37.5969 60.36 37.03V27.42C60.3636 26.8531 60.4375 26.2888 60.58 25.74C61.2472 27.4854 61.6386 29.3241 61.74 31.19H61.77Z" fill="#E2E2E2"/>
<path d="M57.65 27.36V36.96C57.6446 38.3441 57.9523 39.7116 58.55 40.96C59.1513 42.2231 60.0176 43.3418 61.09 44.24V45.99C61.09 45.99 61.09 50.71 54.32 50.71H28.54C21.82 50.71 21.77 45.99 21.77 45.99V44.21C22.8453 43.3121 23.715 42.1935 24.32 40.93C24.9101 39.6793 25.2141 38.3129 25.21 36.93V27.33C25.2138 25.9472 24.9098 24.5808 24.32 23.33C23.715 22.0665 22.8453 20.9479 21.77 20.05V18.35C21.77 18.35 21.77 13.63 28.54 13.63H54.24C60.97 13.63 61.01 18.35 61.01 18.35V20.1C59.9426 21.0021 59.0829 22.1244 58.49 23.39C57.9154 24.6335 57.6283 25.9904 57.65 27.36Z" fill="#242122"/>
<path d="M63.27 145.71L63.8 145.32V141.06C63.7996 140.26 63.6352 139.468 63.317 138.733C62.9989 137.999 62.5336 137.338 61.95 136.79C60.7227 135.645 59.1084 135.006 57.43 135H25.43C23.7541 135.003 22.1421 135.643 20.92 136.79C20.335 137.337 19.8683 137.998 19.5484 138.733C19.2285 139.467 19.0623 140.259 19.06 141.06V145.34L19.58 145.73C20.4295 146.369 21.1348 147.18 21.65 148.11C20.635 150.313 20.0447 152.688 19.91 155.11C19.7038 155.209 19.5277 155.36 19.4 155.55C19.2766 155.733 19.2107 155.949 19.2107 156.17C19.2107 156.391 19.2766 156.607 19.4 156.79C19.531 156.974 19.7065 157.122 19.91 157.22C20.0471 159.642 20.6373 162.016 21.65 164.22C21.1175 165.153 20.3912 165.961 19.52 166.59L19 167V177.27H63.81V166.99L63.28 166.58C62.4118 165.951 61.6889 165.143 61.16 164.21C62.1665 162.005 62.7499 159.63 62.88 157.21C63.0903 157.118 63.2705 156.969 63.4 156.78C63.5296 156.597 63.5992 156.379 63.5992 156.155C63.5992 155.931 63.5296 155.713 63.4 155.53C63.2705 155.341 63.0903 155.192 62.88 155.1C62.7499 152.68 62.1665 150.305 61.16 148.1C61.6834 147.161 62.4031 146.346 63.27 145.71ZM21.04 157.12C21.2134 157.014 21.3577 156.866 21.46 156.69C21.5629 156.518 21.6149 156.32 21.61 156.12C21.6214 155.92 21.5726 155.722 21.47 155.55C21.3667 155.372 21.2184 155.223 21.04 155.12C21.1302 153.229 21.5253 151.365 22.21 149.6C22.3483 150.153 22.4221 150.72 22.43 151.29V160.89C22.4215 161.457 22.3477 162.02 22.21 162.57C21.5339 160.827 21.139 158.987 21.04 157.12ZM61.04 169.96C61.04 169.96 61.04 174.68 54.27 174.68H28.54C21.82 174.68 21.77 169.96 21.77 169.96V168.21C22.8453 167.312 23.715 166.194 24.32 164.93C24.9101 163.679 25.2141 162.313 25.21 160.93V151.33C25.2138 149.947 24.9097 148.581 24.32 147.33C23.715 146.066 22.8453 144.948 21.77 144.05V142.35C21.77 142.35 21.77 137.63 28.54 137.63H54.24C60.97 137.63 61.01 142.35 61.01 142.35V144.1C59.9347 144.998 59.065 146.116 58.46 147.38C57.8703 148.631 57.5662 149.997 57.57 151.38V160.98C57.5659 162.363 57.8699 163.729 58.46 164.98C59.065 166.244 59.9347 167.362 61.01 168.26L61.04 169.96ZM61.77 155.19C61.5916 155.293 61.4433 155.442 61.34 155.62C61.248 155.796 61.2 155.991 61.2 156.19C61.2 156.389 61.248 156.584 61.34 156.76C61.4433 156.938 61.5916 157.087 61.77 157.19C61.6639 159.081 61.2624 160.943 60.58 162.71C60.4375 162.161 60.3636 161.597 60.36 161.03V151.42C60.3636 150.853 60.4375 150.289 60.58 149.74C61.2472 151.485 61.6386 153.324 61.74 155.19H61.77Z" fill="#E2E2E2"/>
<path d="M57.65 151.36V160.96C57.6446 162.344 57.9523 163.712 58.55 164.96C59.1513 166.223 60.0176 167.342 61.09 168.24V169.99C61.09 169.99 61.09 174.71 54.32 174.71H28.54C21.82 174.71 21.77 169.99 21.77 169.99V168.21C22.8453 167.312 23.715 166.194 24.32 164.93C24.9101 163.679 25.2141 162.313 25.21 160.93V151.33C25.2138 149.947 24.9098 148.581 24.32 147.33C23.715 146.066 22.8453 144.948 21.77 144.05V142.35C21.77 142.35 21.77 137.63 28.54 137.63H54.24C60.97 137.63 61.01 142.35 61.01 142.35V144.1C59.9426 145.002 59.0829 146.124 58.49 147.39C57.9154 148.633 57.6283 149.99 57.65 151.36Z" fill="#242122"/>
<path d="M63.27 83.71L63.8 83.32V79.06C63.7996 78.2597 63.6352 77.4679 63.317 76.7335C62.9989 75.9991 62.5336 75.3377 61.95 74.79C60.7227 73.6451 59.1084 73.0058 57.43 73H25.43C23.7541 73.0034 22.1421 73.6432 20.92 74.79C20.335 75.3372 19.8683 75.9983 19.5484 76.7326C19.2285 77.467 19.0623 78.259 19.06 79.06V83.34L19.58 83.73C20.4295 84.3692 21.1348 85.1801 21.65 86.11C20.635 88.3132 20.0447 90.688 19.91 93.11C19.7038 93.2085 19.5277 93.3604 19.4 93.55C19.2766 93.7332 19.2107 93.9491 19.2107 94.17C19.2107 94.3909 19.2766 94.6068 19.4 94.79C19.531 94.974 19.7065 95.1219 19.91 95.22C20.0471 97.6416 20.6373 100.016 21.65 102.22C21.1175 103.153 20.3912 103.961 19.52 104.59L19 105V115.27H63.81V104.99L63.28 104.58C62.4118 103.951 61.6889 103.143 61.16 102.21C62.1665 100.005 62.7499 97.6304 62.88 95.21C63.0903 95.1184 63.2705 94.9694 63.4 94.78C63.5296 94.5974 63.5992 94.3789 63.5992 94.155C63.5992 93.931 63.5296 93.7126 63.4 93.53C63.2705 93.3406 63.0903 93.1916 62.88 93.1C62.7499 90.6796 62.1665 88.3051 61.16 86.1C61.6834 85.161 62.4031 84.3458 63.27 83.71ZM21.04 95.12C21.2134 95.0136 21.3577 94.8659 21.46 94.69C21.5629 94.518 21.6149 94.3204 21.61 94.12C21.6214 93.9203 21.5726 93.7217 21.47 93.55C21.3667 93.3716 21.2184 93.2233 21.04 93.12C21.1302 91.229 21.5253 89.365 22.21 87.6C22.3483 88.153 22.4221 88.7201 22.43 89.29V98.89C22.4215 99.4566 22.3477 100.02 22.21 100.57C21.5339 98.8267 21.139 96.9871 21.04 95.12ZM61.04 107.96C61.04 107.96 61.04 112.68 54.27 112.68H28.54C21.82 112.68 21.77 107.96 21.77 107.96V106.21C22.8453 105.312 23.715 104.194 24.32 102.93C24.9101 101.679 25.2141 100.313 25.21 98.93V89.33C25.2138 87.9472 24.9097 86.5808 24.32 85.33C23.715 84.0665 22.8453 82.9479 21.77 82.05V80.35C21.77 80.35 21.77 75.63 28.54 75.63H54.24C60.97 75.63 61.01 80.35 61.01 80.35V82.1C59.9347 82.9979 59.065 84.1165 58.46 85.38C57.8703 86.6308 57.5662 87.9972 57.57 89.38V98.98C57.5659 100.363 57.8699 101.729 58.46 102.98C59.065 104.244 59.9347 105.362 61.01 106.26L61.04 107.96ZM61.77 93.19C61.5916 93.2933 61.4433 93.4416 61.34 93.62C61.248 93.7959 61.2 93.9915 61.2 94.19C61.2 94.3885 61.248 94.5841 61.34 94.76C61.4433 94.9384 61.5916 95.0867 61.77 95.19C61.6639 97.0808 61.2624 98.9434 60.58 100.71C60.4375 100.161 60.3636 99.5969 60.36 99.03V89.42C60.3636 88.8531 60.4375 88.2888 60.58 87.74C61.2472 89.4854 61.6386 91.3241 61.74 93.19H61.77Z" fill="#E2E2E2"/>
<path d="M57.65 89.36V98.96C57.6446 100.344 57.9523 101.712 58.55 102.96C59.1513 104.223 60.0176 105.342 61.09 106.24V107.99C61.09 107.99 61.09 112.71 54.32 112.71H28.54C21.82 112.71 21.77 107.99 21.77 107.99V106.21C22.8453 105.312 23.715 104.194 24.32 102.93C24.9101 101.679 25.2141 100.313 25.21 98.93V89.33C25.2138 87.9472 24.9098 86.5808 24.32 85.33C23.715 84.0665 22.8453 82.9479 21.77 82.05V80.35C21.77 80.35 21.77 75.63 28.54 75.63H54.24C60.97 75.63 61.01 80.35 61.01 80.35V82.1C59.9426 83.0021 59.0829 84.1244 58.49 85.39C57.9154 86.6335 57.6283 87.9904 57.65 89.36Z" fill="#242122"/>
<path d="M445.23 121.301H431.23C431.074 121.299 430.922 121.254 430.79 121.171C430.663 121.092 430.562 120.977 430.5 120.841C430.44 120.706 430.422 120.556 430.45 120.411C430.481 120.264 430.554 120.128 430.66 120.021L432.73 117.961C433.02 117.689 433.359 117.475 433.73 117.331C434.099 117.185 434.493 117.107 434.89 117.101H439.13C439.46 117.106 439.781 117.21 440.05 117.401L445.23 121.301Z" fill="#707171" stroke="#E2E2E2" stroke-width="1.8" stroke-miterlimit="10"/>
<path d="M485.64 121.301H472.49L475.93 117.651C476.089 117.478 476.284 117.342 476.5 117.251C476.72 117.151 476.959 117.1 477.2 117.101H484.08C484.143 117.092 484.207 117.092 484.27 117.101C484.329 117.125 484.383 117.158 484.43 117.201L486.55 119.311C486.717 119.469 486.829 119.675 486.87 119.901C486.922 120.127 486.893 120.364 486.79 120.571C486.69 120.782 486.53 120.96 486.33 121.081C486.123 121.214 485.885 121.29 485.64 121.301Z" fill="#707171" stroke="#E2E2E2" stroke-width="1.8" stroke-miterlimit="10"/>
<path d="M490.78 123.711V163.491C490.779 163.683 490.731 163.872 490.64 164.041C490.553 164.214 490.43 164.368 490.28 164.491L488.78 165.691C488.515 165.908 488.182 166.025 487.84 166.021H429.91C429.547 166.03 429.192 165.909 428.91 165.681L428.38 165.231C427.955 164.881 427.613 164.44 427.38 163.941C427.135 163.45 427.005 162.91 427 162.361L427.16 123.561C427.17 123.437 427.223 123.32 427.31 123.231L428.85 121.721C428.991 121.583 429.157 121.474 429.34 121.401C429.526 121.332 429.722 121.298 429.92 121.301H443.38C443.708 121.297 444.028 121.403 444.29 121.601L450.73 126.411C451.643 127.266 452.849 127.738 454.1 127.731H463.8C464.426 127.73 465.046 127.614 465.63 127.391C466.205 127.158 466.731 126.819 467.18 126.391L474.05 121.551C474.303 121.377 474.603 121.283 474.91 121.281H487.91C488.109 121.277 488.306 121.314 488.49 121.391C488.671 121.457 488.835 121.563 488.97 121.701L490.66 123.351C490.705 123.399 490.739 123.456 490.76 123.518C490.781 123.58 490.787 123.646 490.78 123.711Z" fill="#1D1D1D" stroke="#E2E2E2" stroke-width="1.8" stroke-miterlimit="10"/>
<path d="M484.73 166.041L483.95 166.681C483.682 166.892 483.351 167.005 483.01 167.001H434.15C433.154 166.996 432.192 166.642 431.43 166.001C431.214 165.822 431.057 165.581 430.98 165.311C430.911 165.046 430.929 164.766 431.03 164.511C431.14 164.247 431.328 164.024 431.57 163.871C431.817 163.72 432.101 163.64 432.39 163.641H483.78C484.077 163.639 484.369 163.722 484.62 163.881C484.859 164.038 485.044 164.265 485.15 164.531C485.245 164.796 485.245 165.086 485.15 165.351C485.085 165.619 484.939 165.861 484.73 166.041Z" fill="#707171" stroke="#E2E2E2" stroke-width="1.8" stroke-miterlimit="10"/>
<path d="M477.19 115.671C478.84 117.301 478.61 118.291 476.7 119.671L474.35 121.321L467.08 126.421C466.633 126.851 466.106 127.191 465.53 127.421C464.946 127.644 464.326 127.759 463.7 127.761H454.03C453.404 127.763 452.783 127.648 452.2 127.421C451.622 127.195 451.095 126.855 450.65 126.421L443.81 121.311L441.06 119.251C439.43 118.041 439.06 117.501 440.2 115.881L442.89 112.781C443.434 112.279 444.15 112.007 444.89 112.021H472.73C473.466 112.017 474.178 112.284 474.73 112.771L477.19 115.671Z" fill="#3A3A3A" stroke="#E2E2E2" stroke-width="1.8" stroke-miterlimit="10"/>
<path d="M510.12 112.391H587.98C588.559 112.387 589.117 112.605 589.54 113.001L590.48 113.871" stroke="#E2E2E2" stroke-width="1.8" stroke-miterlimit="10"/>
<path d="M514.62 112.391C514.85 112.391 514.86 112.621 514.68 112.771C512.82 114.241 504.31 114.511 501.19 114.541C490.11 114.641 497.9 116.981 481.01 117.111C484.91 116.731 491.01 117.041 491.07 112.421L514.62 112.391Z" stroke="#E2E2E2" stroke-width="1.8" stroke-miterlimit="10"/>
<path d="M500.55 151.521L500.37 151.351C499.853 150.884 499.182 150.625 498.485 150.625C497.788 150.625 497.117 150.884 496.6 151.351L496.42 151.521C496.174 151.746 495.978 152.019 495.844 152.324C495.71 152.629 495.641 152.958 495.641 153.291C495.641 153.624 495.71 153.953 495.844 154.258C495.978 154.563 496.174 154.836 496.42 155.061L496.6 155.231C497.113 155.705 497.786 155.968 498.485 155.968C499.184 155.968 499.857 155.705 500.37 155.231L500.55 155.061C500.796 154.836 500.992 154.563 501.126 154.258C501.26 153.953 501.329 153.624 501.329 153.291C501.329 152.958 501.26 152.629 501.126 152.324C500.992 152.019 500.796 151.746 500.55 151.521Z" fill="#4D4B4B" stroke="#E2E2E2" stroke-width="0.5" stroke-miterlimit="10"/>
<path d="M509.56 151.521L509.38 151.361C508.867 150.887 508.194 150.624 507.495 150.624C506.796 150.624 506.124 150.887 505.61 151.361L505.43 151.521C505.185 151.746 504.988 152.019 504.854 152.324C504.72 152.629 504.651 152.958 504.651 153.291C504.651 153.624 504.72 153.953 504.854 154.258C504.988 154.563 505.185 154.836 505.43 155.061L505.61 155.231C506.124 155.705 506.796 155.968 507.495 155.968C508.194 155.968 508.867 155.705 509.38 155.231L509.56 155.061C509.808 154.838 510.007 154.565 510.143 154.26C510.279 153.955 510.349 153.625 510.349 153.291C510.349 152.957 510.279 152.627 510.143 152.322C510.007 152.017 509.808 151.744 509.56 151.521Z" fill="#4D4B4B" stroke="#E2E2E2" stroke-width="0.5" stroke-miterlimit="10"/>
<path d="M525.8 150.411H513.56V156.561H525.8V150.411Z" fill="#5C5C5C"/>
<path d="M500.56 143.561L500.38 143.391C499.863 142.924 499.192 142.665 498.495 142.665C497.798 142.665 497.127 142.924 496.61 143.391L496.42 143.561C496.174 143.786 495.978 144.059 495.844 144.364C495.71 144.669 495.641 144.998 495.641 145.331C495.641 145.664 495.71 145.993 495.844 146.298C495.978 146.603 496.174 146.876 496.42 147.101L496.61 147.271C497.123 147.745 497.796 148.008 498.495 148.008C499.194 148.008 499.867 147.745 500.38 147.271L500.56 147.101C500.806 146.876 501.002 146.603 501.136 146.298C501.27 145.993 501.339 145.664 501.339 145.331C501.339 144.998 501.27 144.669 501.136 144.364C501.002 144.059 500.806 143.786 500.56 143.561Z" fill="#4D4B4B" stroke="#E2E2E2" stroke-width="0.5" stroke-miterlimit="10"/>
<path d="M509.57 143.571L509.39 143.401C508.877 142.927 508.204 142.664 507.505 142.664C506.806 142.664 506.134 142.927 505.62 143.401L505.44 143.571C505.192 143.794 504.993 144.067 504.857 144.372C504.721 144.677 504.651 145.007 504.651 145.341C504.651 145.675 504.721 146.005 504.857 146.31C504.993 146.615 505.192 146.888 505.44 147.111L505.62 147.271C506.134 147.745 506.806 148.008 507.505 148.008C508.204 148.008 508.877 147.745 509.39 147.271L509.57 147.111C509.816 146.886 510.012 146.613 510.146 146.308C510.28 146.003 510.349 145.674 510.349 145.341C510.349 145.008 510.28 144.679 510.146 144.374C510.012 144.069 509.816 143.796 509.57 143.571Z" fill="#4D4B4B" stroke="#E2E2E2" stroke-width="0.5" stroke-miterlimit="10"/>
<path d="M525.8 142.271H513.56V148.421H525.8V142.271Z" fill="#5C5C5C"/>
<path d="M500.55 135.611L500.37 135.441C499.853 134.974 499.182 134.715 498.485 134.715C497.788 134.715 497.117 134.974 496.6 135.441L496.42 135.611C496.174 135.836 495.978 136.109 495.844 136.414C495.71 136.719 495.641 137.048 495.641 137.381C495.641 137.714 495.71 138.043 495.844 138.348C495.978 138.653 496.174 138.926 496.42 139.151L496.6 139.321C497.113 139.795 497.786 140.058 498.485 140.058C499.184 140.058 499.857 139.795 500.37 139.321L500.55 139.151C500.796 138.926 500.992 138.653 501.126 138.348C501.26 138.043 501.329 137.714 501.329 137.381C501.329 137.048 501.26 136.719 501.126 136.414C500.992 136.109 500.796 135.836 500.55 135.611Z" fill="#4D4B4B" stroke="#E2E2E2" stroke-width="0.5" stroke-miterlimit="10"/>
<path d="M509.56 135.631L509.38 135.461C508.867 134.987 508.194 134.724 507.495 134.724C506.796 134.724 506.123 134.987 505.61 135.461L505.43 135.631C505.185 135.855 504.989 136.128 504.855 136.431C504.721 136.735 504.651 137.064 504.651 137.396C504.651 137.728 504.721 138.057 504.855 138.361C504.989 138.664 505.185 138.937 505.43 139.161L505.61 139.331C506.123 139.805 506.796 140.068 507.495 140.068C508.194 140.068 508.867 139.805 509.38 139.331L509.56 139.161C509.805 138.937 510.001 138.664 510.135 138.361C510.269 138.057 510.339 137.728 510.339 137.396C510.339 137.064 510.269 136.735 510.135 136.431C510.001 136.128 509.805 135.855 509.56 135.631Z" fill="#4D4B4B" stroke="#E2E2E2" stroke-width="0.5" stroke-miterlimit="10"/>
<path d="M525.8 134.311H513.56V140.461H525.8V134.311Z" fill="#5C5C5C"/>
<path d="M500.55 127.661L500.37 127.491C499.853 127.024 499.182 126.765 498.485 126.765C497.788 126.765 497.117 127.024 496.6 127.491L496.42 127.661C496.174 127.886 495.978 128.159 495.844 128.464C495.71 128.769 495.641 129.098 495.641 129.431C495.641 129.764 495.71 130.093 495.844 130.398C495.978 130.703 496.174 130.976 496.42 131.201L496.6 131.371C497.113 131.845 497.786 132.108 498.485 132.108C499.184 132.108 499.857 131.845 500.37 131.371L500.55 131.201C500.798 130.978 500.997 130.705 501.133 130.4C501.269 130.095 501.339 129.765 501.339 129.431C501.339 129.097 501.269 128.767 501.133 128.462C500.997 128.157 500.798 127.884 500.55 127.661Z" fill="#4D4B4B" stroke="#E2E2E2" stroke-width="0.5" stroke-miterlimit="10"/>
<path d="M509.57 127.671L509.38 127.501C508.867 127.027 508.194 126.764 507.495 126.764C506.796 126.764 506.124 127.027 505.61 127.501L505.43 127.671C505.185 127.896 504.988 128.169 504.854 128.474C504.72 128.779 504.651 129.108 504.651 129.441C504.651 129.774 504.72 130.103 504.854 130.408C504.988 130.713 505.185 130.986 505.43 131.211L505.61 131.371C506.124 131.845 506.796 132.108 507.495 132.108C508.194 132.108 508.867 131.845 509.38 131.371L509.57 131.211C509.816 130.986 510.012 130.713 510.146 130.408C510.28 130.103 510.349 129.774 510.349 129.441C510.349 129.108 510.28 128.779 510.146 128.474C510.012 128.169 509.816 127.896 509.57 127.671Z" fill="#4D4B4B" stroke="#E2E2E2" stroke-width="0.5" stroke-miterlimit="10"/>
<path d="M525.8 126.361H513.56V132.521H525.8V126.361Z" fill="#5C5C5C"/>
<path d="M505.73 121.041L503.41 118.861C503.272 118.738 503.094 118.67 502.91 118.67C502.726 118.67 502.548 118.738 502.41 118.861L500.06 121.041C499.997 121.101 499.946 121.173 499.912 121.253C499.878 121.333 499.86 121.419 499.86 121.506C499.86 121.593 499.878 121.679 499.912 121.759C499.946 121.839 499.997 121.911 500.06 121.971L502.38 124.151C502.515 124.278 502.694 124.349 502.88 124.349C503.066 124.349 503.245 124.278 503.38 124.151L505.73 121.941C505.791 121.883 505.84 121.813 505.873 121.736C505.906 121.659 505.924 121.575 505.924 121.491C505.924 121.407 505.906 121.323 505.873 121.246C505.84 121.169 505.791 121.099 505.73 121.041Z" fill="#4D4B4B" stroke="#E2E2E2" stroke-width="0.5" stroke-miterlimit="10"/>
<path d="M525.8 118.411H513.56V124.561H525.8V118.411Z" fill="#5C5C5C"/>
<path d="M278.23 121.301H264.23C264.074 121.299 263.922 121.254 263.79 121.171C263.663 121.092 263.562 120.977 263.5 120.841C263.44 120.706 263.422 120.556 263.45 120.411C263.481 120.264 263.554 120.128 263.66 120.021L265.73 117.961C266.02 117.689 266.359 117.475 266.73 117.331C267.099 117.185 267.493 117.107 267.89 117.101H272.13C272.46 117.106 272.781 117.21 273.05 117.401L278.23 121.301Z" fill="#707171" stroke="#E2E2E2" stroke-width="1.8" stroke-miterlimit="10"/>
<path d="M318.64 121.301H305.49L308.93 117.651C309.089 117.478 309.284 117.342 309.5 117.251C309.72 117.151 309.959 117.1 310.2 117.101H317.08C317.143 117.092 317.207 117.092 317.27 117.101C317.329 117.125 317.383 117.158 317.43 117.201L319.55 119.311C319.717 119.469 319.829 119.675 319.87 119.901C319.922 120.127 319.893 120.364 319.79 120.571C319.69 120.782 319.53 120.96 319.33 121.081C319.123 121.214 318.885 121.29 318.64 121.301Z" fill="#707171" stroke="#E2E2E2" stroke-width="1.8" stroke-miterlimit="10"/>
<path d="M323.78 123.711V163.491C323.779 163.683 323.731 163.872 323.64 164.041C323.553 164.214 323.43 164.368 323.28 164.491L321.78 165.691C321.515 165.908 321.182 166.025 320.84 166.021H262.91C262.547 166.03 262.192 165.909 261.91 165.681L261.38 165.231C260.955 164.881 260.613 164.44 260.38 163.941C260.135 163.45 260.005 162.91 260 162.361L260.16 123.561C260.17 123.437 260.223 123.32 260.31 123.231L261.85 121.721C261.991 121.583 262.157 121.474 262.34 121.401C262.526 121.332 262.722 121.298 262.92 121.301H276.38C276.708 121.297 277.028 121.403 277.29 121.601L283.73 126.411C284.643 127.266 285.849 127.738 287.1 127.731H296.8C297.426 127.73 298.046 127.614 298.63 127.391C299.205 127.158 299.731 126.819 300.18 126.391L307.05 121.551C307.303 121.377 307.603 121.283 307.91 121.281H320.91C321.109 121.277 321.306 121.314 321.49 121.391C321.671 121.457 321.835 121.563 321.97 121.701L323.66 123.351C323.705 123.399 323.739 123.456 323.76 123.518C323.781 123.58 323.787 123.646 323.78 123.711Z" fill="#1D1D1D" stroke="#E2E2E2" stroke-width="1.8" stroke-miterlimit="10"/>
<path d="M317.73 166.041L316.95 166.681C316.682 166.892 316.351 167.005 316.01 167.001H267.15C266.154 166.996 265.192 166.642 264.43 166.001C264.214 165.822 264.057 165.581 263.98 165.311C263.911 165.046 263.929 164.766 264.03 164.511C264.14 164.247 264.328 164.024 264.57 163.871C264.817 163.72 265.101 163.64 265.39 163.641H316.78C317.077 163.639 317.369 163.722 317.62 163.881C317.859 164.038 318.044 164.265 318.15 164.531C318.245 164.796 318.245 165.086 318.15 165.351C318.085 165.619 317.939 165.861 317.73 166.041Z" fill="#707171" stroke="#E2E2E2" stroke-width="1.8" stroke-miterlimit="10"/>
<path d="M310.19 115.671C311.84 117.301 311.61 118.291 309.7 119.671L307.35 121.321L300.08 126.421C299.633 126.851 299.106 127.191 298.53 127.421C297.946 127.644 297.326 127.759 296.7 127.761H287.03C286.404 127.763 285.783 127.648 285.2 127.421C284.622 127.195 284.095 126.855 283.65 126.421L276.81 121.311L274.06 119.251C272.43 118.041 272.06 117.501 273.2 115.881L275.89 112.781C276.434 112.279 277.15 112.007 277.89 112.021H305.73C306.466 112.017 307.178 112.284 307.73 112.771L310.19 115.671Z" fill="#3A3A3A" stroke="#E2E2E2" stroke-width="1.8" stroke-miterlimit="10"/>
<path d="M343.12 112.391H420.98C421.559 112.387 422.117 112.605 422.54 113.001L423.48 113.871" stroke="#E2E2E2" stroke-width="1.8" stroke-miterlimit="10"/>
<path d="M347.62 112.391C347.85 112.391 347.86 112.621 347.68 112.771C345.82 114.241 337.31 114.511 334.19 114.541C323.11 114.641 330.9 116.981 314.01 117.111C317.91 116.731 324.01 117.041 324.07 112.421L347.62 112.391Z" stroke="#E2E2E2" stroke-width="1.8" stroke-miterlimit="10"/>
<path d="M333.55 159.471L333.37 159.301C332.857 158.827 332.184 158.564 331.485 158.564C330.786 158.564 330.113 158.827 329.6 159.301L329.42 159.471C329.174 159.696 328.978 159.969 328.844 160.274C328.71 160.579 328.641 160.908 328.641 161.241C328.641 161.574 328.71 161.903 328.844 162.208C328.978 162.513 329.174 162.786 329.42 163.011L329.6 163.181C330.117 163.648 330.788 163.907 331.485 163.907C332.182 163.907 332.853 163.648 333.37 163.181L333.55 163.011C333.796 162.786 333.992 162.513 334.126 162.208C334.26 161.903 334.329 161.574 334.329 161.241C334.329 160.908 334.26 160.579 334.126 160.274C333.992 159.969 333.796 159.696 333.55 159.471Z" fill="#4D4B4B" stroke="#E2E2E2" stroke-width="0.5" stroke-miterlimit="10"/>
<path d="M342.56 159.471L342.38 159.301C341.863 158.834 341.192 158.575 340.495 158.575C339.798 158.575 339.127 158.834 338.61 159.301L338.43 159.471C338.185 159.696 337.988 159.969 337.854 160.274C337.72 160.579 337.651 160.908 337.651 161.241C337.651 161.574 337.72 161.903 337.854 162.208C337.988 162.513 338.185 162.786 338.43 163.011L338.61 163.181C339.124 163.655 339.796 163.918 340.495 163.918C341.194 163.918 341.867 163.655 342.38 163.181L342.56 163.011C342.806 162.786 343.002 162.513 343.136 162.208C343.27 161.903 343.339 161.574 343.339 161.241C343.339 160.908 343.27 160.579 343.136 160.274C343.002 159.969 342.806 159.696 342.56 159.471Z" fill="#4D4B4B" stroke="#E2E2E2" stroke-width="0.5" stroke-miterlimit="10"/>
<path d="M358.8 158.171H346.56V164.321H358.8V158.171Z" fill="#5C5C5C"/>
<path d="M333.55 151.521L333.37 151.351C332.853 150.884 332.182 150.625 331.485 150.625C330.788 150.625 330.117 150.884 329.6 151.351L329.42 151.521C329.174 151.746 328.978 152.019 328.844 152.324C328.71 152.629 328.641 152.958 328.641 153.291C328.641 153.624 328.71 153.953 328.844 154.258C328.978 154.563 329.174 154.836 329.42 155.061L329.6 155.231C330.113 155.705 330.786 155.968 331.485 155.968C332.184 155.968 332.857 155.705 333.37 155.231L333.55 155.061C333.796 154.836 333.992 154.563 334.126 154.258C334.26 153.953 334.329 153.624 334.329 153.291C334.329 152.958 334.26 152.629 334.126 152.324C333.992 152.019 333.796 151.746 333.55 151.521Z" fill="#4D4B4B" stroke="#E2E2E2" stroke-width="0.5" stroke-miterlimit="10"/>
<path d="M342.56 151.521L342.38 151.361C341.867 150.887 341.194 150.624 340.495 150.624C339.796 150.624 339.124 150.887 338.61 151.361L338.43 151.521C338.185 151.746 337.988 152.019 337.854 152.324C337.72 152.629 337.651 152.958 337.651 153.291C337.651 153.624 337.72 153.953 337.854 154.258C337.988 154.563 338.185 154.836 338.43 155.061L338.61 155.231C339.124 155.705 339.796 155.968 340.495 155.968C341.194 155.968 341.867 155.705 342.38 155.231L342.56 155.061C342.808 154.838 343.007 154.565 343.143 154.26C343.279 153.955 343.349 153.625 343.349 153.291C343.349 152.957 343.279 152.627 343.143 152.322C343.007 152.017 342.808 151.744 342.56 151.521Z" fill="#4D4B4B" stroke="#E2E2E2" stroke-width="0.5" stroke-miterlimit="10"/>
<path d="M358.8 150.411H346.56V156.561H358.8V150.411Z" fill="#5C5C5C"/>
<path d="M333.56 143.561L333.38 143.391C332.863 142.924 332.192 142.665 331.495 142.665C330.798 142.665 330.127 142.924 329.61 143.391L329.42 143.561C329.174 143.786 328.978 144.059 328.844 144.364C328.71 144.669 328.641 144.998 328.641 145.331C328.641 145.664 328.71 145.993 328.844 146.298C328.978 146.603 329.174 146.876 329.42 147.101L329.61 147.271C330.123 147.745 330.796 148.008 331.495 148.008C332.194 148.008 332.867 147.745 333.38 147.271L333.56 147.101C333.806 146.876 334.002 146.603 334.136 146.298C334.27 145.993 334.339 145.664 334.339 145.331C334.339 144.998 334.27 144.669 334.136 144.364C334.002 144.059 333.806 143.786 333.56 143.561Z" fill="#4D4B4B" stroke="#E2E2E2" stroke-width="0.5" stroke-miterlimit="10"/>
<path d="M342.57 143.571L342.39 143.401C341.877 142.927 341.204 142.664 340.505 142.664C339.806 142.664 339.134 142.927 338.62 143.401L338.44 143.571C338.192 143.794 337.993 144.067 337.857 144.372C337.721 144.677 337.651 145.007 337.651 145.341C337.651 145.675 337.721 146.005 337.857 146.31C337.993 146.615 338.192 146.888 338.44 147.111L338.62 147.271C339.134 147.745 339.806 148.008 340.505 148.008C341.204 148.008 341.877 147.745 342.39 147.271L342.57 147.111C342.816 146.886 343.012 146.613 343.146 146.308C343.28 146.003 343.349 145.674 343.349 145.341C343.349 145.008 343.28 144.679 343.146 144.374C343.012 144.069 342.816 143.796 342.57 143.571Z" fill="#4D4B4B" stroke="#E2E2E2" stroke-width="0.5" stroke-miterlimit="10"/>
<path d="M358.8 142.271H346.56V148.421H358.8V142.271Z" fill="#5C5C5C"/>
<path d="M333.55 135.611L333.37 135.441C332.853 134.974 332.182 134.715 331.485 134.715C330.788 134.715 330.117 134.974 329.6 135.441L329.42 135.611C329.174 135.836 328.978 136.109 328.844 136.414C328.71 136.719 328.641 137.048 328.641 137.381C328.641 137.714 328.71 138.043 328.844 138.348C328.978 138.653 329.174 138.926 329.42 139.151L329.6 139.321C330.113 139.795 330.786 140.058 331.485 140.058C332.184 140.058 332.857 139.795 333.37 139.321L333.55 139.151C333.796 138.926 333.992 138.653 334.126 138.348C334.26 138.043 334.329 137.714 334.329 137.381C334.329 137.048 334.26 136.719 334.126 136.414C333.992 136.109 333.796 135.836 333.55 135.611Z" fill="#4D4B4B" stroke="#E2E2E2" stroke-width="0.5" stroke-miterlimit="10"/>
<path d="M342.56 135.631L342.38 135.461C341.867 134.987 341.194 134.724 340.495 134.724C339.796 134.724 339.123 134.987 338.61 135.461L338.43 135.631C338.185 135.855 337.989 136.128 337.855 136.431C337.721 136.735 337.651 137.064 337.651 137.396C337.651 137.728 337.721 138.057 337.855 138.361C337.989 138.664 338.185 138.937 338.43 139.161L338.61 139.331C339.123 139.805 339.796 140.068 340.495 140.068C341.194 140.068 341.867 139.805 342.38 139.331L342.56 139.161C342.805 138.937 343.001 138.664 343.135 138.361C343.269 138.057 343.339 137.728 343.339 137.396C343.339 137.064 343.269 136.735 343.135 136.431C343.001 136.128 342.805 135.855 342.56 135.631Z" fill="#4D4B4B" stroke="#E2E2E2" stroke-width="0.5" stroke-miterlimit="10"/>
<path d="M358.8 134.311H346.56V140.461H358.8V134.311Z" fill="#5C5C5C"/>
<path d="M333.55 127.661L333.37 127.491C332.853 127.024 332.182 126.765 331.485 126.765C330.788 126.765 330.117 127.024 329.6 127.491L329.42 127.661C329.174 127.886 328.978 128.159 328.844 128.464C328.71 128.769 328.641 129.098 328.641 129.431C328.641 129.764 328.71 130.093 328.844 130.398C328.978 130.703 329.174 130.976 329.42 131.201L329.6 131.371C330.113 131.845 330.786 132.108 331.485 132.108C332.184 132.108 332.857 131.845 333.37 131.371L333.55 131.201C333.798 130.978 333.997 130.705 334.133 130.4C334.269 130.095 334.339 129.765 334.339 129.431C334.339 129.097 334.269 128.767 334.133 128.462C333.997 128.157 333.798 127.884 333.55 127.661Z" fill="#4D4B4B" stroke="#E2E2E2" stroke-width="0.5" stroke-miterlimit="10"/>
<path d="M342.57 127.671L342.38 127.501C341.867 127.027 341.194 126.764 340.495 126.764C339.796 126.764 339.124 127.027 338.61 127.501L338.43 127.671C338.185 127.896 337.988 128.169 337.854 128.474C337.72 128.779 337.651 129.108 337.651 129.441C337.651 129.774 337.72 130.103 337.854 130.408C337.988 130.713 338.185 130.986 338.43 131.211L338.61 131.371C339.124 131.845 339.796 132.108 340.495 132.108C341.194 132.108 341.867 131.845 342.38 131.371L342.57 131.211C342.816 130.986 343.012 130.713 343.146 130.408C343.28 130.103 343.349 129.774 343.349 129.441C343.349 129.108 343.28 128.779 343.146 128.474C343.012 128.169 342.816 127.896 342.57 127.671Z" fill="#4D4B4B" stroke="#E2E2E2" stroke-width="0.5" stroke-miterlimit="10"/>
<path d="M358.8 126.361H346.56V132.521H358.8V126.361Z" fill="#5C5C5C"/>
<path d="M338.73 121.041L336.41 118.861C336.272 118.738 336.094 118.67 335.91 118.67C335.726 118.67 335.548 118.738 335.41 118.861L333.06 121.041C332.997 121.101 332.946 121.173 332.912 121.253C332.878 121.333 332.86 121.419 332.86 121.506C332.86 121.593 332.878 121.679 332.912 121.759C332.946 121.839 332.997 121.911 333.06 121.971L335.38 124.151C335.515 124.278 335.694 124.349 335.88 124.349C336.066 124.349 336.245 124.278 336.38 124.151L338.73 121.941C338.791 121.883 338.84 121.813 338.873 121.736C338.906 121.659 338.924 121.575 338.924 121.491C338.924 121.407 338.906 121.323 338.873 121.246C338.84 121.169 338.791 121.099 338.73 121.041Z" fill="#4D4B4B" stroke="#E2E2E2" stroke-width="0.5" stroke-miterlimit="10"/>
<path d="M358.8 118.411H346.56V124.561H358.8V118.411Z" fill="#5C5C5C"/>
<path d="M103.23 121.301H89.2299C89.074 121.299 88.9217 121.254 88.7899 121.171C88.6633 121.092 88.5625 120.977 88.4999 120.841C88.4395 120.706 88.4221 120.556 88.4499 120.411C88.4813 120.264 88.5542 120.128 88.6599 120.021L90.7299 117.961C91.0201 117.689 91.3595 117.475 91.7299 117.331C92.0995 117.185 92.4925 117.107 92.8899 117.101H97.1299C97.4599 117.106 97.7807 117.21 98.0499 117.401L103.23 121.301Z" fill="#707171" stroke="#E2E2E2" stroke-width="1.8" stroke-miterlimit="10"/>
<path d="M143.64 121.301H130.49L133.93 117.651C134.089 117.478 134.284 117.342 134.5 117.251C134.72 117.151 134.959 117.1 135.2 117.101H142.08C142.143 117.092 142.207 117.092 142.27 117.101C142.329 117.125 142.383 117.158 142.43 117.201L144.55 119.311C144.717 119.469 144.829 119.675 144.87 119.901C144.922 120.127 144.893 120.364 144.79 120.571C144.69 120.782 144.53 120.96 144.33 121.081C144.123 121.214 143.885 121.29 143.64 121.301Z" fill="#707171" stroke="#E2E2E2" stroke-width="1.8" stroke-miterlimit="10"/>
<path d="M148.78 123.711V163.491C148.779 163.683 148.731 163.872 148.64 164.041C148.553 164.214 148.43 164.368 148.28 164.491L146.78 165.691C146.515 165.908 146.182 166.025 145.84 166.021H87.91C87.5469 166.03 87.1924 165.909 86.91 165.681L86.38 165.231C85.955 164.881 85.6134 164.44 85.38 163.941C85.1346 163.45 85.0046 162.91 85 162.361L85.16 123.561C85.1697 123.437 85.2228 123.32 85.31 123.231L86.85 121.721C86.9906 121.583 87.1571 121.474 87.34 121.401C87.5255 121.332 87.7222 121.298 87.92 121.301H101.38C101.708 121.297 102.028 121.403 102.29 121.601L108.73 126.411C109.643 127.266 110.849 127.738 112.1 127.731H121.8C122.426 127.73 123.046 127.614 123.63 127.391C124.205 127.158 124.731 126.819 125.18 126.391L132.05 121.551C132.303 121.377 132.603 121.283 132.91 121.281H145.91C146.109 121.277 146.306 121.314 146.49 121.391C146.671 121.457 146.835 121.563 146.97 121.701L148.66 123.351C148.705 123.399 148.739 123.456 148.76 123.518C148.781 123.58 148.787 123.646 148.78 123.711Z" fill="#1D1D1D" stroke="#E2E2E2" stroke-width="1.8" stroke-miterlimit="10"/>
<path d="M142.73 166.041L141.95 166.681C141.682 166.892 141.351 167.005 141.01 167.001H92.1499C91.1543 166.996 90.1919 166.642 89.4299 166.001C89.2137 165.822 89.0568 165.581 88.9799 165.311C88.9112 165.046 88.9288 164.766 89.0299 164.511C89.1399 164.247 89.3284 164.024 89.5699 163.871C89.8167 163.72 90.1006 163.64 90.3899 163.641H141.78C142.077 163.639 142.369 163.722 142.62 163.881C142.859 164.038 143.044 164.265 143.15 164.531C143.245 164.796 143.245 165.086 143.15 165.351C143.085 165.619 142.939 165.861 142.73 166.041Z" fill="#707171" stroke="#E2E2E2" stroke-width="1.8" stroke-miterlimit="10"/>
<path d="M135.19 115.671C136.84 117.301 136.61 118.291 134.7 119.671L132.35 121.321L125.08 126.421C124.633 126.851 124.106 127.191 123.53 127.421C122.946 127.644 122.326 127.759 121.7 127.761H112.03C111.404 127.763 110.783 127.648 110.2 127.421C109.622 127.195 109.095 126.855 108.65 126.421L101.81 121.311L99.06 119.251C97.43 118.041 97.06 117.501 98.2 115.881L100.89 112.781C101.434 112.279 102.15 112.007 102.89 112.021H130.73C131.466 112.017 132.178 112.284 132.73 112.771L135.19 115.671Z" fill="#3A3A3A" stroke="#E2E2E2" stroke-width="1.8" stroke-miterlimit="10"/>
<path d="M168.12 112.391H245.98C246.559 112.387 247.117 112.605 247.54 113.001L248.48 113.871" stroke="#E2E2E2" stroke-width="1.8" stroke-miterlimit="10"/>
<path d="M172.62 112.391C172.85 112.391 172.86 112.621 172.68 112.771C170.82 114.241 162.31 114.511 159.19 114.541C148.11 114.641 155.9 116.981 139.01 117.111C142.91 116.731 149.01 117.041 149.07 112.421L172.62 112.391Z" stroke="#E2E2E2" stroke-width="1.8" stroke-miterlimit="10"/>
<path d="M158.55 159.471L158.37 159.301C157.857 158.827 157.184 158.564 156.485 158.564C155.786 158.564 155.113 158.827 154.6 159.301L154.42 159.471C154.174 159.696 153.978 159.969 153.844 160.274C153.71 160.579 153.641 160.908 153.641 161.241C153.641 161.574 153.71 161.903 153.844 162.208C153.978 162.513 154.174 162.786 154.42 163.011L154.6 163.181C155.117 163.648 155.788 163.907 156.485 163.907C157.182 163.907 157.853 163.648 158.37 163.181L158.55 163.011C158.796 162.786 158.992 162.513 159.126 162.208C159.26 161.903 159.329 161.574 159.329 161.241C159.329 160.908 159.26 160.579 159.126 160.274C158.992 159.969 158.796 159.696 158.55 159.471Z" fill="#4D4B4B" stroke="#E2E2E2" stroke-width="0.5" stroke-miterlimit="10"/>
<path d="M167.56 159.471L167.38 159.301C166.863 158.834 166.192 158.575 165.495 158.575C164.798 158.575 164.127 158.834 163.61 159.301L163.43 159.471C163.185 159.696 162.988 159.969 162.854 160.274C162.72 160.579 162.651 160.908 162.651 161.241C162.651 161.574 162.72 161.903 162.854 162.208C162.988 162.513 163.185 162.786 163.43 163.011L163.61 163.181C164.124 163.655 164.796 163.918 165.495 163.918C166.194 163.918 166.867 163.655 167.38 163.181L167.56 163.011C167.806 162.786 168.002 162.513 168.136 162.208C168.27 161.903 168.339 161.574 168.339 161.241C168.339 160.908 168.27 160.579 168.136 160.274C168.002 159.969 167.806 159.696 167.56 159.471Z" fill="#4D4B4B" stroke="#E2E2E2" stroke-width="0.5" stroke-miterlimit="10"/>
<path d="M183.8 158.171H171.56V164.321H183.8V158.171Z" fill="#5C5C5C"/>
<path d="M158.55 167.231L158.37 167.061C157.857 166.587 157.184 166.324 156.485 166.324C155.786 166.324 155.113 166.587 154.6 167.061L154.42 167.231C154.174 167.456 153.978 167.729 153.844 168.034C153.71 168.339 153.641 168.668 153.641 169.001C153.641 169.334 153.71 169.663 153.844 169.968C153.978 170.273 154.174 170.546 154.42 170.771L154.6 170.941C155.117 171.408 155.788 171.667 156.485 171.667C157.182 171.667 157.853 171.408 158.37 170.941L158.55 170.771C158.796 170.546 158.992 170.273 159.126 169.968C159.26 169.663 159.329 169.334 159.329 169.001C159.329 168.668 159.26 168.339 159.126 168.034C158.992 167.729 158.796 167.456 158.55 167.231Z" fill="#4D4B4B" stroke="#E2E2E2" stroke-width="0.5" stroke-miterlimit="10"/>
<path d="M167.56 167.231L167.38 167.061C166.863 166.594 166.192 166.335 165.495 166.335C164.798 166.335 164.127 166.594 163.61 167.061L163.43 167.231C163.185 167.456 162.988 167.729 162.854 168.034C162.72 168.339 162.651 168.668 162.651 169.001C162.651 169.334 162.72 169.663 162.854 169.968C162.988 170.273 163.185 170.546 163.43 170.771L163.61 170.941C164.124 171.415 164.796 171.678 165.495 171.678C166.194 171.678 166.867 171.415 167.38 170.941L167.56 170.771C167.806 170.546 168.002 170.273 168.136 169.968C168.27 169.663 168.339 169.334 168.339 169.001C168.339 168.668 168.27 168.339 168.136 168.034C168.002 167.729 167.806 167.456 167.56 167.231Z" fill="#4D4B4B" stroke="#E2E2E2" stroke-width="0.5" stroke-miterlimit="10"/>
<path d="M183.8 165.931H171.56V172.081H183.8V165.931Z" fill="#5C5C5C"/>
<path d="M158.55 151.521L158.37 151.351C157.853 150.884 157.182 150.625 156.485 150.625C155.788 150.625 155.117 150.884 154.6 151.351L154.42 151.521C154.174 151.746 153.978 152.019 153.844 152.324C153.71 152.629 153.641 152.958 153.641 153.291C153.641 153.624 153.71 153.953 153.844 154.258C153.978 154.563 154.174 154.836 154.42 155.061L154.6 155.231C155.113 155.705 155.786 155.968 156.485 155.968C157.184 155.968 157.857 155.705 158.37 155.231L158.55 155.061C158.796 154.836 158.992 154.563 159.126 154.258C159.26 153.953 159.329 153.624 159.329 153.291C159.329 152.958 159.26 152.629 159.126 152.324C158.992 152.019 158.796 151.746 158.55 151.521Z" fill="#4D4B4B" stroke="#E2E2E2" stroke-width="0.5" stroke-miterlimit="10"/>
<path d="M167.56 151.521L167.38 151.361C166.867 150.887 166.194 150.624 165.495 150.624C164.796 150.624 164.124 150.887 163.61 151.361L163.43 151.521C163.185 151.746 162.988 152.019 162.854 152.324C162.72 152.629 162.651 152.958 162.651 153.291C162.651 153.624 162.72 153.953 162.854 154.258C162.988 154.563 163.185 154.836 163.43 155.061L163.61 155.231C164.124 155.705 164.796 155.968 165.495 155.968C166.194 155.968 166.867 155.705 167.38 155.231L167.56 155.061C167.808 154.838 168.007 154.565 168.143 154.26C168.279 153.955 168.349 153.625 168.349 153.291C168.349 152.957 168.279 152.627 168.143 152.322C168.007 152.017 167.808 151.744 167.56 151.521Z" fill="#4D4B4B" stroke="#E2E2E2" stroke-width="0.5" stroke-miterlimit="10"/>
<path d="M183.8 150.411H171.56V156.561H183.8V150.411Z" fill="#5C5C5C"/>
<path d="M158.56 143.561L158.38 143.391C157.863 142.924 157.192 142.665 156.495 142.665C155.798 142.665 155.127 142.924 154.61 143.391L154.42 143.561C154.174 143.786 153.978 144.059 153.844 144.364C153.71 144.669 153.641 144.998 153.641 145.331C153.641 145.664 153.71 145.993 153.844 146.298C153.978 146.603 154.174 146.876 154.42 147.101L154.61 147.271C155.123 147.745 155.796 148.008 156.495 148.008C157.194 148.008 157.867 147.745 158.38 147.271L158.56 147.101C158.806 146.876 159.002 146.603 159.136 146.298C159.27 145.993 159.339 145.664 159.339 145.331C159.339 144.998 159.27 144.669 159.136 144.364C159.002 144.059 158.806 143.786 158.56 143.561Z" fill="#4D4B4B" stroke="#E2E2E2" stroke-width="0.5" stroke-miterlimit="10"/>
<path d="M167.57 143.571L167.39 143.401C166.877 142.927 166.204 142.664 165.505 142.664C164.806 142.664 164.134 142.927 163.62 143.401L163.44 143.571C163.192 143.794 162.993 144.067 162.857 144.372C162.721 144.677 162.651 145.007 162.651 145.341C162.651 145.675 162.721 146.005 162.857 146.31C162.993 146.615 163.192 146.888 163.44 147.111L163.62 147.271C164.134 147.745 164.806 148.008 165.505 148.008C166.204 148.008 166.877 147.745 167.39 147.271L167.57 147.111C167.816 146.886 168.012 146.613 168.146 146.308C168.28 146.003 168.349 145.674 168.349 145.341C168.349 145.008 168.28 144.679 168.146 144.374C168.012 144.069 167.816 143.796 167.57 143.571Z" fill="#4D4B4B" stroke="#E2E2E2" stroke-width="0.5" stroke-miterlimit="10"/>
<path d="M183.8 142.271H171.56V148.421H183.8V142.271Z" fill="#5C5C5C"/>
<path d="M158.55 135.611L158.37 135.441C157.853 134.974 157.182 134.715 156.485 134.715C155.788 134.715 155.117 134.974 154.6 135.441L154.42 135.611C154.174 135.836 153.978 136.109 153.844 136.414C153.71 136.719 153.641 137.048 153.641 137.381C153.641 137.714 153.71 138.043 153.844 138.348C153.978 138.653 154.174 138.926 154.42 139.151L154.6 139.321C155.113 139.795 155.786 140.058 156.485 140.058C157.184 140.058 157.857 139.795 158.37 139.321L158.55 139.151C158.796 138.926 158.992 138.653 159.126 138.348C159.26 138.043 159.329 137.714 159.329 137.381C159.329 137.048 159.26 136.719 159.126 136.414C158.992 136.109 158.796 135.836 158.55 135.611Z" fill="#4D4B4B" stroke="#E2E2E2" stroke-width="0.5" stroke-miterlimit="10"/>
<path d="M167.56 135.631L167.38 135.461C166.867 134.987 166.194 134.724 165.495 134.724C164.796 134.724 164.123 134.987 163.61 135.461L163.43 135.631C163.185 135.855 162.989 136.128 162.855 136.431C162.721 136.735 162.651 137.064 162.651 137.396C162.651 137.728 162.721 138.057 162.855 138.361C162.989 138.664 163.185 138.937 163.43 139.161L163.61 139.331C164.123 139.805 164.796 140.068 165.495 140.068C166.194 140.068 166.867 139.805 167.38 139.331L167.56 139.161C167.805 138.937 168.001 138.664 168.135 138.361C168.269 138.057 168.339 137.728 168.339 137.396C168.339 137.064 168.269 136.735 168.135 136.431C168.001 136.128 167.805 135.855 167.56 135.631Z" fill="#4D4B4B" stroke="#E2E2E2" stroke-width="0.5" stroke-miterlimit="10"/>
<path d="M183.8 134.311H171.56V140.461H183.8V134.311Z" fill="#5C5C5C"/>
<path d="M158.55 127.661L158.37 127.491C157.853 127.024 157.182 126.765 156.485 126.765C155.788 126.765 155.117 127.024 154.6 127.491L154.42 127.661C154.174 127.886 153.978 128.159 153.844 128.464C153.71 128.769 153.641 129.098 153.641 129.431C153.641 129.764 153.71 130.093 153.844 130.398C153.978 130.703 154.174 130.976 154.42 131.201L154.6 131.371C155.113 131.845 155.786 132.108 156.485 132.108C157.184 132.108 157.857 131.845 158.37 131.371L158.55 131.201C158.798 130.978 158.997 130.705 159.133 130.4C159.269 130.095 159.339 129.765 159.339 129.431C159.339 129.097 159.269 128.767 159.133 128.462C158.997 128.157 158.798 127.884 158.55 127.661Z" fill="#4D4B4B" stroke="#E2E2E2" stroke-width="0.5" stroke-miterlimit="10"/>
<path d="M167.57 127.671L167.38 127.501C166.867 127.027 166.194 126.764 165.495 126.764C164.796 126.764 164.124 127.027 163.61 127.501L163.43 127.671C163.185 127.896 162.988 128.169 162.854 128.474C162.72 128.779 162.651 129.108 162.651 129.441C162.651 129.774 162.72 130.103 162.854 130.408C162.988 130.713 163.185 130.986 163.43 131.211L163.61 131.371C164.124 131.845 164.796 132.108 165.495 132.108C166.194 132.108 166.867 131.845 167.38 131.371L167.57 131.211C167.816 130.986 168.012 130.713 168.146 130.408C168.28 130.103 168.349 129.774 168.349 129.441C168.349 129.108 168.28 128.779 168.146 128.474C168.012 128.169 167.816 127.896 167.57 127.671Z" fill="#4D4B4B" stroke="#E2E2E2" stroke-width="0.5" stroke-miterlimit="10"/>
<path d="M183.8 126.361H171.56V132.521H183.8V126.361Z" fill="#5C5C5C"/>
<path d="M163.73 121.041L161.41 118.861C161.272 118.738 161.094 118.67 160.91 118.67C160.726 118.67 160.548 118.738 160.41 118.861L158.06 121.041C157.997 121.101 157.946 121.173 157.912 121.253C157.878 121.333 157.86 121.419 157.86 121.506C157.86 121.593 157.878 121.679 157.912 121.759C157.946 121.839 157.997 121.911 158.06 121.971L160.38 124.151C160.515 124.278 160.694 124.349 160.88 124.349C161.066 124.349 161.245 124.278 161.38 124.151L163.73 121.941C163.791 121.883 163.84 121.813 163.873 121.736C163.906 121.659 163.924 121.575 163.924 121.491C163.924 121.407 163.906 121.323 163.873 121.246C163.84 121.169 163.791 121.099 163.73 121.041Z" fill="#4D4B4B" stroke="#E2E2E2" stroke-width="0.5" stroke-miterlimit="10"/>
<path d="M183.8 118.411H171.56V124.561H183.8V118.411Z" fill="#5C5C5C"/>
<path d="M445.23 44.2806H431.23C431.074 44.2789 430.922 44.2339 430.79 44.1506C430.663 44.0711 430.562 43.9564 430.5 43.8206C430.44 43.6857 430.422 43.5356 430.45 43.3906C430.481 43.2432 430.554 43.1079 430.66 43.0006L432.73 40.9406C433.02 40.6688 433.359 40.4549 433.73 40.3106C434.099 40.1643 434.493 40.0863 434.89 40.0806H439.13C439.46 40.0851 439.781 40.1897 440.05 40.3806L445.23 44.2806Z" fill="#707171" stroke="#E2E2E2" stroke-width="1.8" stroke-miterlimit="10"/>
<path d="M485.64 44.2805H472.49L475.93 40.6305C476.089 40.4579 476.284 40.3215 476.5 40.2305C476.72 40.131 476.959 40.0799 477.2 40.0805H484.08C484.143 40.0712 484.207 40.0712 484.27 40.0805C484.329 40.1042 484.383 40.138 484.43 40.1805L486.55 42.2905C486.717 42.4481 486.829 42.6548 486.87 42.8805C486.922 43.1063 486.893 43.3431 486.79 43.5505C486.69 43.762 486.53 43.9394 486.33 44.0605C486.123 44.1935 485.885 44.2694 485.64 44.2805Z" fill="#707171" stroke="#E2E2E2" stroke-width="1.8" stroke-miterlimit="10"/>
<path d="M490.78 46.6906V86.4706C490.779 86.6626 490.731 86.8514 490.64 87.0206C490.553 87.1939 490.43 87.3472 490.28 87.4706L488.78 88.6706C488.515 88.8874 488.182 89.0042 487.84 89.0006H429.91C429.547 89.0095 429.192 88.889 428.91 88.6606L428.38 88.2106C427.955 87.8601 427.613 87.4195 427.38 86.9206C427.135 86.4297 427.005 85.8893 427 85.3406L427.16 46.5406C427.17 46.4163 427.223 46.2995 427.31 46.2106L428.85 44.7006C428.991 44.5625 429.157 44.4538 429.34 44.3805C429.526 44.3119 429.722 44.278 429.92 44.2806H443.38C443.708 44.2769 444.028 44.3824 444.29 44.5806L450.73 49.3906C451.643 50.2454 452.849 50.7178 454.1 50.7106H463.8C464.426 50.7091 465.046 50.5939 465.63 50.3706C466.205 50.1379 466.731 49.7986 467.18 49.3706L474.05 44.5306C474.303 44.3568 474.603 44.2628 474.91 44.2606H487.91C488.109 44.2565 488.306 44.294 488.49 44.3706C488.671 44.4364 488.835 44.5424 488.97 44.6806L490.66 46.3306C490.705 46.3782 490.739 46.4351 490.76 46.4973C490.781 46.5595 490.787 46.6255 490.78 46.6906Z" fill="#1D1D1D" stroke="#E2E2E2" stroke-width="1.8" stroke-miterlimit="10"/>
<path d="M484.73 89.0205L483.95 89.6605C483.682 89.8715 483.351 89.9845 483.01 89.9805H434.15C433.154 89.9753 432.192 89.6215 431.43 88.9805C431.214 88.8013 431.057 88.5607 430.98 88.2905C430.911 88.0253 430.929 87.7451 431.03 87.4905C431.14 87.2268 431.328 87.0033 431.57 86.8505C431.817 86.6993 432.101 86.6197 432.39 86.6205H483.78C484.077 86.6183 484.369 86.7016 484.62 86.8605C484.859 87.0179 485.044 87.2448 485.15 87.5105C485.245 87.7757 485.245 88.0654 485.15 88.3305C485.085 88.5988 484.939 88.8401 484.73 89.0205Z" fill="#707171" stroke="#E2E2E2" stroke-width="1.8" stroke-miterlimit="10"/>
<path d="M477.19 38.6505C478.84 40.2805 478.61 41.2705 476.7 42.6505L474.35 44.3005L467.08 49.4005C466.633 49.8307 466.106 50.1703 465.53 50.4005C464.946 50.6238 464.326 50.739 463.7 50.7405H454.03C453.404 50.7427 452.783 50.6274 452.2 50.4005C451.622 50.1743 451.095 49.8342 450.65 49.4005L443.81 44.2905L441.06 42.2305C439.43 41.0205 439.06 40.4805 440.2 38.8605L442.89 35.7605C443.434 35.2588 444.15 34.9866 444.89 35.0005H472.73C473.466 34.9967 474.178 35.2636 474.73 35.7505L477.19 38.6505Z" fill="#3A3A3A" stroke="#E2E2E2" stroke-width="1.8" stroke-miterlimit="10"/>
<path d="M510.12 35.3705H587.98C588.559 35.3665 589.117 35.5849 589.54 35.9805L590.48 36.8505" stroke="#E2E2E2" stroke-width="1.8" stroke-miterlimit="10"/>
<path d="M514.62 35.3706C514.85 35.3706 514.86 35.6006 514.68 35.7506C512.82 37.2206 504.31 37.4906 501.19 37.5206C490.11 37.6206 497.9 39.9606 481.01 40.0906C484.91 39.7106 491.01 40.0206 491.07 35.4006L514.62 35.3706Z" stroke="#E2E2E2" stroke-width="1.8" stroke-miterlimit="10"/>
<path d="M500.55 50.6405L500.37 50.4706C499.853 50.0033 499.182 49.7445 498.485 49.7445C497.788 49.7445 497.117 50.0033 496.6 50.4706L496.42 50.6405C496.174 50.8654 495.978 51.1389 495.844 51.4436C495.71 51.7483 495.641 52.0776 495.641 52.4106C495.641 52.7435 495.71 53.0728 495.844 53.3775C495.978 53.6822 496.174 53.9557 496.42 54.1805L496.6 54.3505C497.113 54.8242 497.786 55.0872 498.485 55.0872C499.184 55.0872 499.857 54.8242 500.37 54.3505L500.55 54.1805C500.798 53.9573 500.997 53.6844 501.133 53.3795C501.269 53.0745 501.339 52.7444 501.339 52.4106C501.339 52.0767 501.269 51.7466 501.133 51.4416C500.997 51.1367 500.798 50.8637 500.55 50.6405Z" fill="#4D4B4B" stroke="#E2E2E2" stroke-width="0.5" stroke-miterlimit="10"/>
<path d="M509.57 50.6506L509.38 50.4806C508.867 50.0069 508.194 49.7439 507.495 49.7439C506.796 49.7439 506.124 50.0069 505.61 50.4806L505.43 50.6506C505.185 50.8754 504.988 51.1489 504.854 51.4536C504.72 51.7583 504.651 52.0876 504.651 52.4206C504.651 52.7535 504.72 53.0828 504.854 53.3875C504.988 53.6922 505.185 53.9657 505.43 54.1906L505.61 54.3506C506.124 54.8242 506.796 55.0872 507.495 55.0872C508.194 55.0872 508.867 54.8242 509.38 54.3506L509.57 54.1906C509.816 53.9657 510.012 53.6922 510.146 53.3875C510.28 53.0828 510.349 52.7535 510.349 52.4206C510.349 52.0876 510.28 51.7583 510.146 51.4536C510.012 51.1489 509.816 50.8754 509.57 50.6506Z" fill="#4D4B4B" stroke="#E2E2E2" stroke-width="0.5" stroke-miterlimit="10"/>
<path d="M525.8 49.3406H513.56V55.5006H525.8V49.3406Z" fill="#5C5C5C"/>
<path d="M505.73 44.0205L503.41 41.8405C503.272 41.7175 503.094 41.6495 502.91 41.6495C502.726 41.6495 502.548 41.7175 502.41 41.8405L500.06 44.0205C499.997 44.0803 499.946 44.1524 499.912 44.2324C499.878 44.3123 499.86 44.3985 499.86 44.4855C499.86 44.5726 499.878 44.6587 499.912 44.7386C499.946 44.8186 499.997 44.8907 500.06 44.9505L502.38 47.1305C502.515 47.2578 502.694 47.3286 502.88 47.3286C503.066 47.3286 503.245 47.2578 503.38 47.1305L505.73 44.9205C505.791 44.8626 505.84 44.7928 505.873 44.7154C505.906 44.6381 505.924 44.5547 505.924 44.4705C505.924 44.3863 505.906 44.303 505.873 44.2256C505.84 44.1482 505.791 44.0784 505.73 44.0205Z" fill="#4D4B4B" stroke="#E2E2E2" stroke-width="0.5" stroke-miterlimit="10"/>
<path d="M525.8 41.3905H513.56V47.5405H525.8V41.3905Z" fill="#5C5C5C"/>
<path d="M278.23 44.2806H264.23C264.074 44.2789 263.922 44.2339 263.79 44.1506C263.663 44.0711 263.562 43.9564 263.5 43.8206C263.44 43.6857 263.422 43.5356 263.45 43.3906C263.481 43.2432 263.554 43.1079 263.66 43.0006L265.73 40.9406C266.02 40.6688 266.359 40.4549 266.73 40.3106C267.099 40.1643 267.493 40.0863 267.89 40.0806H272.13C272.46 40.0851 272.781 40.1897 273.05 40.3806L278.23 44.2806Z" fill="#707171" stroke="#E2E2E2" stroke-width="1.8" stroke-miterlimit="10"/>
<path d="M318.64 44.2805H305.49L308.93 40.6305C309.089 40.4579 309.284 40.3215 309.5 40.2305C309.72 40.131 309.959 40.0799 310.2 40.0805H317.08C317.143 40.0712 317.207 40.0712 317.27 40.0805C317.329 40.1042 317.383 40.138 317.43 40.1805L319.55 42.2905C319.717 42.4481 319.829 42.6548 319.87 42.8805C319.922 43.1063 319.893 43.3431 319.79 43.5505C319.69 43.762 319.53 43.9394 319.33 44.0605C319.123 44.1935 318.885 44.2694 318.64 44.2805Z" fill="#707171" stroke="#E2E2E2" stroke-width="1.8" stroke-miterlimit="10"/>
<path d="M323.78 46.6906V86.4706C323.779 86.6626 323.731 86.8514 323.64 87.0206C323.553 87.1939 323.43 87.3472 323.28 87.4706L321.78 88.6706C321.515 88.8874 321.182 89.0042 320.84 89.0006H262.91C262.547 89.0095 262.192 88.889 261.91 88.6606L261.38 88.2106C260.955 87.8601 260.613 87.4195 260.38 86.9206C260.135 86.4297 260.005 85.8893 260 85.3406L260.16 46.5406C260.17 46.4163 260.223 46.2995 260.31 46.2106L261.85 44.7006C261.991 44.5625 262.157 44.4538 262.34 44.3805C262.526 44.3119 262.722 44.278 262.92 44.2806H276.38C276.708 44.2769 277.028 44.3824 277.29 44.5806L283.73 49.3906C284.643 50.2454 285.849 50.7178 287.1 50.7106H296.8C297.426 50.7091 298.046 50.5939 298.63 50.3706C299.205 50.1379 299.731 49.7986 300.18 49.3706L307.05 44.5306C307.303 44.3568 307.603 44.2628 307.91 44.2606H320.91C321.109 44.2565 321.306 44.294 321.49 44.3706C321.671 44.4364 321.835 44.5424 321.97 44.6806L323.66 46.3306C323.705 46.3782 323.739 46.4351 323.76 46.4973C323.781 46.5595 323.787 46.6255 323.78 46.6906Z" fill="#1D1D1D" stroke="#E2E2E2" stroke-width="1.8" stroke-miterlimit="10"/>
<path d="M317.73 89.0205L316.95 89.6605C316.682 89.8715 316.351 89.9845 316.01 89.9805H267.15C266.154 89.9753 265.192 89.6215 264.43 88.9805C264.214 88.8013 264.057 88.5607 263.98 88.2905C263.911 88.0253 263.929 87.7451 264.03 87.4905C264.14 87.2268 264.328 87.0033 264.57 86.8505C264.817 86.6993 265.101 86.6197 265.39 86.6205H316.78C317.077 86.6183 317.369 86.7016 317.62 86.8605C317.859 87.0179 318.044 87.2448 318.15 87.5105C318.245 87.7757 318.245 88.0654 318.15 88.3305C318.085 88.5988 317.939 88.8401 317.73 89.0205Z" fill="#707171" stroke="#E2E2E2" stroke-width="1.8" stroke-miterlimit="10"/>
<path d="M310.19 38.6505C311.84 40.2805 311.61 41.2705 309.7 42.6505L307.35 44.3005L300.08 49.4005C299.633 49.8307 299.106 50.1703 298.53 50.4005C297.946 50.6238 297.326 50.739 296.7 50.7405H287.03C286.404 50.7427 285.783 50.6274 285.2 50.4005C284.622 50.1743 284.095 49.8342 283.65 49.4005L276.81 44.2905L274.06 42.2305C272.43 41.0205 272.06 40.4805 273.2 38.8605L275.89 35.7605C276.434 35.2588 277.15 34.9866 277.89 35.0005H305.73C306.466 34.9967 307.178 35.2636 307.73 35.7505L310.19 38.6505Z" fill="#3A3A3A" stroke="#E2E2E2" stroke-width="1.8" stroke-miterlimit="10"/>
<path d="M343.12 35.3705H420.98C421.559 35.3665 422.117 35.5849 422.54 35.9805L423.48 36.8505" stroke="#E2E2E2" stroke-width="1.8" stroke-miterlimit="10"/>
<path d="M347.62 35.3706C347.85 35.3706 347.86 35.6006 347.68 35.7506C345.82 37.2206 337.31 37.4906 334.19 37.5206C323.11 37.6206 330.9 39.9606 314.01 40.0906C317.91 39.7106 324.01 40.0206 324.07 35.4006L347.62 35.3706Z" stroke="#E2E2E2" stroke-width="1.8" stroke-miterlimit="10"/>
<path d="M333.55 74.5005L333.37 74.3305C332.853 73.8632 332.182 73.6045 331.485 73.6045C330.788 73.6045 330.117 73.8632 329.6 74.3305L329.42 74.5005C329.174 74.7254 328.978 74.9989 328.844 75.3036C328.71 75.6083 328.641 75.9376 328.641 76.2705C328.641 76.6035 328.71 76.9328 328.844 77.2375C328.978 77.5422 329.174 77.8157 329.42 78.0405L329.6 78.2105C330.113 78.6842 330.786 78.9472 331.485 78.9472C332.184 78.9472 332.857 78.6842 333.37 78.2105L333.55 78.0405C333.796 77.8157 333.992 77.5422 334.126 77.2375C334.26 76.9328 334.329 76.6035 334.329 76.2705C334.329 75.9376 334.26 75.6083 334.126 75.3036C333.992 74.9989 333.796 74.7254 333.55 74.5005Z" fill="#4D4B4B" stroke="#E2E2E2" stroke-width="0.5" stroke-miterlimit="10"/>
<path d="M342.56 74.5006L342.38 74.3406C341.867 73.8669 341.194 73.6039 340.495 73.6039C339.796 73.6039 339.124 73.8669 338.61 74.3406L338.43 74.5006C338.185 74.7254 337.988 74.9989 337.854 75.3036C337.72 75.6083 337.651 75.9376 337.651 76.2706C337.651 76.6035 337.72 76.9328 337.854 77.2375C337.988 77.5422 338.185 77.8157 338.43 78.0406L338.61 78.2106C339.124 78.6842 339.796 78.9472 340.495 78.9472C341.194 78.9472 341.867 78.6842 342.38 78.2106L342.56 78.0406C342.808 77.8174 343.007 77.5444 343.143 77.2395C343.279 76.9346 343.349 76.6044 343.349 76.2706C343.349 75.9367 343.279 75.6066 343.143 75.3016C343.007 74.9967 342.808 74.7238 342.56 74.5006Z" fill="#4D4B4B" stroke="#E2E2E2" stroke-width="0.5" stroke-miterlimit="10"/>
<path d="M358.8 73.3905H346.56V79.5405H358.8V73.3905Z" fill="#5C5C5C"/>
<path d="M333.56 66.5406L333.38 66.3706C332.863 65.9033 332.192 65.6445 331.495 65.6445C330.798 65.6445 330.127 65.9033 329.61 66.3706L329.42 66.5406C329.174 66.7654 328.978 67.0389 328.844 67.3436C328.71 67.6483 328.641 67.9776 328.641 68.3106C328.641 68.6435 328.71 68.9728 328.844 69.2775C328.978 69.5822 329.174 69.8557 329.42 70.0806L329.61 70.2506C330.123 70.7243 330.796 70.9872 331.495 70.9872C332.194 70.9872 332.867 70.7243 333.38 70.2506L333.56 70.0806C333.806 69.8557 334.002 69.5822 334.136 69.2775C334.27 68.9728 334.339 68.6435 334.339 68.3106C334.339 67.9776 334.27 67.6483 334.136 67.3436C334.002 67.0389 333.806 66.7654 333.56 66.5406Z" fill="#4D4B4B" stroke="#E2E2E2" stroke-width="0.5" stroke-miterlimit="10"/>
<path d="M342.57 66.5505L342.39 66.3805C341.877 65.9068 341.204 65.6438 340.505 65.6438C339.806 65.6438 339.134 65.9068 338.62 66.3805L338.44 66.5505C338.192 66.7737 337.993 67.0466 337.857 67.3515C337.721 67.6565 337.651 67.9866 337.651 68.3205C337.651 68.6543 337.721 68.9845 337.857 69.2894C337.993 69.5943 338.192 69.8673 338.44 70.0905L338.62 70.2505C339.134 70.7242 339.806 70.9872 340.505 70.9872C341.204 70.9872 341.877 70.7242 342.39 70.2505L342.57 70.0905C342.816 69.8656 343.012 69.5922 343.146 69.2874C343.28 68.9827 343.349 68.6534 343.349 68.3205C343.349 67.9875 343.28 67.6582 343.146 67.3535C343.012 67.0488 342.816 66.7753 342.57 66.5505Z" fill="#4D4B4B" stroke="#E2E2E2" stroke-width="0.5" stroke-miterlimit="10"/>
<path d="M358.8 65.2505H346.56V71.4005H358.8V65.2505Z" fill="#5C5C5C"/>
<path d="M333.55 58.5905L333.37 58.4205C332.853 57.9532 332.182 57.6945 331.485 57.6945C330.788 57.6945 330.117 57.9532 329.6 58.4205L329.42 58.5905C329.174 58.8154 328.978 59.0888 328.844 59.3936C328.71 59.6983 328.641 60.0276 328.641 60.3605C328.641 60.6934 328.71 61.0227 328.844 61.3275C328.978 61.6322 329.174 61.9056 329.42 62.1305L329.6 62.3005C330.113 62.7742 330.786 63.0372 331.485 63.0372C332.184 63.0372 332.857 62.7742 333.37 62.3005L333.55 62.1305C333.796 61.9056 333.992 61.6322 334.126 61.3275C334.26 61.0227 334.329 60.6934 334.329 60.3605C334.329 60.0276 334.26 59.6983 334.126 59.3936C333.992 59.0888 333.796 58.8154 333.55 58.5905Z" fill="#4D4B4B" stroke="#E2E2E2" stroke-width="0.5" stroke-miterlimit="10"/>
<path d="M342.56 58.6105L342.38 58.4406C341.867 57.9669 341.194 57.7039 340.495 57.7039C339.796 57.7039 339.123 57.9669 338.61 58.4406L338.43 58.6105C338.185 58.8345 337.989 59.1071 337.855 59.411C337.721 59.7149 337.651 60.0434 337.651 60.3755C337.651 60.7077 337.721 61.0362 337.855 61.3401C337.989 61.644 338.185 61.9166 338.43 62.1405L338.61 62.3105C339.123 62.7842 339.796 63.0472 340.495 63.0472C341.194 63.0472 341.867 62.7842 342.38 62.3105L342.56 62.1405C342.805 61.9166 343.001 61.644 343.135 61.3401C343.269 61.0362 343.339 60.7077 343.339 60.3755C343.339 60.0434 343.269 59.7149 343.135 59.411C343.001 59.1071 342.805 58.8345 342.56 58.6105Z" fill="#4D4B4B" stroke="#E2E2E2" stroke-width="0.5" stroke-miterlimit="10"/>
<path d="M358.8 57.2905H346.56V63.4406H358.8V57.2905Z" fill="#5C5C5C"/>
<path d="M333.55 50.6405L333.37 50.4706C332.853 50.0033 332.182 49.7445 331.485 49.7445C330.788 49.7445 330.117 50.0033 329.6 50.4706L329.42 50.6405C329.174 50.8654 328.978 51.1389 328.844 51.4436C328.71 51.7483 328.641 52.0776 328.641 52.4106C328.641 52.7435 328.71 53.0728 328.844 53.3775C328.978 53.6822 329.174 53.9557 329.42 54.1805L329.6 54.3505C330.113 54.8242 330.786 55.0872 331.485 55.0872C332.184 55.0872 332.857 54.8242 333.37 54.3505L333.55 54.1805C333.798 53.9573 333.997 53.6844 334.133 53.3795C334.269 53.0745 334.339 52.7444 334.339 52.4106C334.339 52.0767 334.269 51.7466 334.133 51.4416C333.997 51.1367 333.798 50.8637 333.55 50.6405Z" fill="#4D4B4B" stroke="#E2E2E2" stroke-width="0.5" stroke-miterlimit="10"/>
<path d="M342.57 50.6506L342.38 50.4806C341.867 50.0069 341.194 49.7439 340.495 49.7439C339.796 49.7439 339.124 50.0069 338.61 50.4806L338.43 50.6506C338.185 50.8754 337.988 51.1489 337.854 51.4536C337.72 51.7583 337.651 52.0876 337.651 52.4206C337.651 52.7535 337.72 53.0828 337.854 53.3875C337.988 53.6922 338.185 53.9657 338.43 54.1906L338.61 54.3506C339.124 54.8242 339.796 55.0872 340.495 55.0872C341.194 55.0872 341.867 54.8242 342.38 54.3506L342.57 54.1906C342.816 53.9657 343.012 53.6922 343.146 53.3875C343.28 53.0828 343.349 52.7535 343.349 52.4206C343.349 52.0876 343.28 51.7583 343.146 51.4536C343.012 51.1489 342.816 50.8754 342.57 50.6506Z" fill="#4D4B4B" stroke="#E2E2E2" stroke-width="0.5" stroke-miterlimit="10"/>
<path d="M358.8 49.3406H346.56V55.5006H358.8V49.3406Z" fill="#5C5C5C"/>
<path d="M338.73 44.0205L336.41 41.8405C336.272 41.7175 336.094 41.6495 335.91 41.6495C335.726 41.6495 335.548 41.7175 335.41 41.8405L333.06 44.0205C332.997 44.0803 332.946 44.1524 332.912 44.2324C332.878 44.3123 332.86 44.3985 332.86 44.4855C332.86 44.5726 332.878 44.6587 332.912 44.7386C332.946 44.8186 332.997 44.8907 333.06 44.9505L335.38 47.1305C335.515 47.2578 335.694 47.3286 335.88 47.3286C336.066 47.3286 336.245 47.2578 336.38 47.1305L338.73 44.9205C338.791 44.8626 338.84 44.7928 338.873 44.7154C338.906 44.6381 338.924 44.5547 338.924 44.4705C338.924 44.3863 338.906 44.303 338.873 44.2256C338.84 44.1482 338.791 44.0784 338.73 44.0205Z" fill="#4D4B4B" stroke="#E2E2E2" stroke-width="0.5" stroke-miterlimit="10"/>
<path d="M358.8 41.3905H346.56V47.5405H358.8V41.3905Z" fill="#5C5C5C"/>
<path d="M103.23 44.2806H89.2299C89.074 44.2789 88.9217 44.2339 88.7899 44.1506C88.6633 44.0711 88.5625 43.9564 88.4999 43.8206C88.4395 43.6857 88.4221 43.5356 88.4499 43.3906C88.4813 43.2432 88.5542 43.1079 88.6599 43.0006L90.7299 40.9406C91.0201 40.6688 91.3595 40.4549 91.7299 40.3106C92.0995 40.1643 92.4925 40.0863 92.8899 40.0806H97.1299C97.4599 40.0851 97.7807 40.1897 98.0499 40.3806L103.23 44.2806Z" fill="#707171" stroke="#E2E2E2" stroke-width="1.8" stroke-miterlimit="10"/>
<path d="M143.64 44.2805H130.49L133.93 40.6305C134.089 40.4579 134.284 40.3215 134.5 40.2305C134.72 40.131 134.959 40.0799 135.2 40.0805H142.08C142.143 40.0712 142.207 40.0712 142.27 40.0805C142.329 40.1042 142.383 40.138 142.43 40.1805L144.55 42.2905C144.717 42.4481 144.829 42.6548 144.87 42.8805C144.922 43.1063 144.893 43.3431 144.79 43.5505C144.69 43.762 144.53 43.9394 144.33 44.0605C144.123 44.1935 143.885 44.2694 143.64 44.2805Z" fill="#707171" stroke="#E2E2E2" stroke-width="1.8" stroke-miterlimit="10"/>
<path d="M148.78 46.6906V86.4706C148.779 86.6626 148.731 86.8514 148.64 87.0206C148.553 87.1939 148.43 87.3472 148.28 87.4706L146.78 88.6706C146.515 88.8874 146.182 89.0042 145.84 89.0006H87.91C87.5469 89.0095 87.1924 88.889 86.91 88.6606L86.38 88.2106C85.955 87.8601 85.6134 87.4195 85.38 86.9206C85.1346 86.4297 85.0046 85.8893 85 85.3406L85.16 46.5406C85.1697 46.4163 85.2228 46.2995 85.31 46.2106L86.85 44.7006C86.9906 44.5625 87.1571 44.4538 87.34 44.3805C87.5255 44.3119 87.7222 44.278 87.92 44.2806H101.38C101.708 44.2769 102.028 44.3824 102.29 44.5806L108.73 49.3906C109.643 50.2454 110.849 50.7178 112.1 50.7106H121.8C122.426 50.7091 123.046 50.5939 123.63 50.3706C124.205 50.1379 124.731 49.7986 125.18 49.3706L132.05 44.5306C132.303 44.3568 132.603 44.2628 132.91 44.2606H145.91C146.109 44.2565 146.306 44.294 146.49 44.3706C146.671 44.4364 146.835 44.5424 146.97 44.6806L148.66 46.3306C148.705 46.3782 148.739 46.4351 148.76 46.4973C148.781 46.5595 148.787 46.6255 148.78 46.6906Z" fill="#1D1D1D" stroke="#E2E2E2" stroke-width="1.8" stroke-miterlimit="10"/>
<path d="M142.73 89.0205L141.95 89.6605C141.682 89.8715 141.351 89.9845 141.01 89.9805H92.1499C91.1543 89.9753 90.1919 89.6215 89.4299 88.9805C89.2137 88.8013 89.0568 88.5607 88.9799 88.2905C88.9112 88.0253 88.9288 87.7451 89.0299 87.4905C89.1399 87.2268 89.3284 87.0033 89.5699 86.8505C89.8167 86.6993 90.1006 86.6197 90.3899 86.6205H141.78C142.077 86.6183 142.369 86.7016 142.62 86.8605C142.859 87.0179 143.044 87.2448 143.15 87.5105C143.245 87.7757 143.245 88.0654 143.15 88.3305C143.085 88.5988 142.939 88.8401 142.73 89.0205Z" fill="#707171" stroke="#E2E2E2" stroke-width="1.8" stroke-miterlimit="10"/>
<path d="M135.19 38.6505C136.84 40.2805 136.61 41.2705 134.7 42.6505L132.35 44.3005L125.08 49.4005C124.633 49.8307 124.106 50.1703 123.53 50.4005C122.946 50.6238 122.326 50.739 121.7 50.7405H112.03C111.404 50.7427 110.783 50.6274 110.2 50.4005C109.622 50.1743 109.095 49.8342 108.65 49.4005L101.81 44.2905L99.06 42.2305C97.43 41.0205 97.06 40.4805 98.2 38.8605L100.89 35.7605C101.434 35.2588 102.15 34.9866 102.89 35.0005H130.73C131.466 34.9967 132.178 35.2636 132.73 35.7505L135.19 38.6505Z" fill="#3A3A3A" stroke="#E2E2E2" stroke-width="1.8" stroke-miterlimit="10"/>
<path d="M168.12 35.3705H245.98C246.559 35.3665 247.117 35.5849 247.54 35.9805L248.48 36.8505" stroke="#E2E2E2" stroke-width="1.8" stroke-miterlimit="10"/>
<path d="M172.62 35.3706C172.85 35.3706 172.86 35.6006 172.68 35.7506C170.82 37.2206 162.31 37.4906 159.19 37.5206C148.11 37.6206 155.9 39.9606 139.01 40.0906C142.91 39.7106 149.01 40.0206 149.07 35.4006L172.62 35.3706Z" stroke="#E2E2E2" stroke-width="1.8" stroke-miterlimit="10"/>
<path d="M158.55 50.6405L158.37 50.4706C157.853 50.0033 157.182 49.7445 156.485 49.7445C155.788 49.7445 155.117 50.0033 154.6 50.4706L154.42 50.6405C154.174 50.8654 153.978 51.1389 153.844 51.4436C153.71 51.7483 153.641 52.0776 153.641 52.4106C153.641 52.7435 153.71 53.0728 153.844 53.3775C153.978 53.6822 154.174 53.9557 154.42 54.1805L154.6 54.3505C155.113 54.8242 155.786 55.0872 156.485 55.0872C157.184 55.0872 157.857 54.8242 158.37 54.3505L158.55 54.1805C158.798 53.9573 158.997 53.6844 159.133 53.3795C159.269 53.0745 159.339 52.7444 159.339 52.4106C159.339 52.0767 159.269 51.7466 159.133 51.4416C158.997 51.1367 158.798 50.8637 158.55 50.6405Z" fill="#4D4B4B" stroke="#E2E2E2" stroke-width="0.5" stroke-miterlimit="10"/>
<path d="M167.57 50.6506L167.38 50.4806C166.867 50.0069 166.194 49.7439 165.495 49.7439C164.796 49.7439 164.124 50.0069 163.61 50.4806L163.43 50.6506C163.185 50.8754 162.988 51.1489 162.854 51.4536C162.72 51.7583 162.651 52.0876 162.651 52.4206C162.651 52.7535 162.72 53.0828 162.854 53.3875C162.988 53.6922 163.185 53.9657 163.43 54.1906L163.61 54.3506C164.124 54.8242 164.796 55.0872 165.495 55.0872C166.194 55.0872 166.867 54.8242 167.38 54.3506L167.57 54.1906C167.816 53.9657 168.012 53.6922 168.146 53.3875C168.28 53.0828 168.349 52.7535 168.349 52.4206C168.349 52.0876 168.28 51.7583 168.146 51.4536C168.012 51.1489 167.816 50.8754 167.57 50.6506Z" fill="#4D4B4B" stroke="#E2E2E2" stroke-width="0.5" stroke-miterlimit="10"/>
<path d="M183.8 49.3406H171.56V55.5006H183.8V49.3406Z" fill="#5C5C5C"/>
<path d="M163.73 44.0205L161.41 41.8405C161.272 41.7175 161.094 41.6495 160.91 41.6495C160.726 41.6495 160.548 41.7175 160.41 41.8405L158.06 44.0205C157.997 44.0803 157.946 44.1524 157.912 44.2324C157.878 44.3123 157.86 44.3985 157.86 44.4855C157.86 44.5726 157.878 44.6587 157.912 44.7386C157.946 44.8186 157.997 44.8907 158.06 44.9505L160.38 47.1305C160.515 47.2578 160.694 47.3286 160.88 47.3286C161.066 47.3286 161.245 47.2578 161.38 47.1305L163.73 44.9205C163.791 44.8626 163.84 44.7928 163.873 44.7154C163.906 44.6381 163.924 44.5547 163.924 44.4705C163.924 44.3863 163.906 44.303 163.873 44.2256C163.84 44.1482 163.791 44.0784 163.73 44.0205Z" fill="#4D4B4B" stroke="#E2E2E2" stroke-width="0.5" stroke-miterlimit="10"/>
<path d="M183.8 41.3905H171.56V47.5405H183.8V41.3905Z" fill="#5C5C5C"/>
</svg>
