<svg width="200" height="464" viewBox="0 0 200 464" fill="none" xmlns="http://www.w3.org/2000/svg">
<g clip-path="url(#clip0)">
<path d="M199.98 456.91V5.45C200.004 5.10585 199.939 4.76136 199.79 4.45C199.648 4.15044 199.435 3.88972 199.17 3.69C198.29 2.93 197.44 2.12 196.58 1.36C194.77 -0.270004 195.25 -0.0100035 192.84 -0.0500035H6.03006C5.68921 -0.0671932 5.34854 -0.0126861 5.03006 0.109996C4.68922 0.239882 4.38416 0.448969 4.14006 0.719996C3.29006 1.54 2.41006 2.29 1.54006 3.08C-0.239939 4.72 0.0400611 4.29 0.0100611 6.46V458.46C-0.0264864 458.803 0.0323449 459.149 0.180061 459.46C0.32326 459.762 0.539857 460.023 0.810061 460.22C1.7696 460.998 2.68126 461.832 3.54006 462.72C3.95053 463.176 4.47013 463.52 5.05006 463.72C5.64675 463.943 6.29075 464.008 6.92006 463.91H193.92C194.261 463.927 194.602 463.873 194.92 463.75C195.243 463.627 195.534 463.432 195.77 463.18C196.47 462.53 197.21 461.9 197.9 461.25C200.37 459.08 199.98 459.96 199.98 456.91ZM195.79 460.54C195.55 460.78 195.27 460.99 195.04 461.23C194.77 461.532 194.425 461.756 194.04 461.88C193.667 462.022 193.266 462.07 192.87 462.02H8.48006C5.36006 462.02 6.22006 462.36 3.84006 460.24C3.70074 460.099 3.55386 459.965 3.40006 459.84C2.9611 459.546 2.6144 459.133 2.40006 458.65C2.17555 458.17 2.10567 457.632 2.20006 457.11C2.23065 456.777 2.23065 456.443 2.20006 456.11V7.91C2.20006 4.64 1.74006 5.67 4.33006 3.22C4.62006 2.94 4.94006 2.66 5.25006 2.39C5.4259 2.2188 5.63771 2.08898 5.87006 2.01C6.0838 1.92799 6.31115 1.88727 6.54006 1.89H193.04C193.379 1.86352 193.719 1.90779 194.04 2.02C194.372 2.12799 194.673 2.31304 194.92 2.56C195.66 3.28 196.43 3.96 197.21 4.64C197.413 4.81065 197.574 5.02635 197.68 5.27C197.79 5.50731 197.839 5.76888 197.82 6.03V456.19C197.82 459.19 198.22 458.29 195.79 460.54Z" fill="#3D3D3D"/>
<path d="M195.16 459.6L194.4 460.27C194.207 460.472 193.971 460.629 193.71 460.73C193.443 460.833 193.156 460.877 192.87 460.86H8.67011C5.97011 460.86 6.67011 461.19 4.43011 459.2C4.10877 458.959 3.85127 458.643 3.68011 458.28C3.51986 457.922 3.45112 457.531 3.48011 457.14V8.53C3.5101 8.07716 3.5101 7.62284 3.48011 7.17C3.41871 6.6509 3.50176 6.12492 3.72011 5.65C3.94164 5.16871 4.28667 4.75468 4.72011 4.45C6.59011 2.86 6.09011 3.07 8.47011 3.06H191.81C194.26 3.06 194.48 3.16 196.06 4.8C196.345 5.07403 196.571 5.40345 196.724 5.76803C196.877 6.1326 196.954 6.52462 196.95 6.92V455.72C196.93 458.24 197.29 457.66 195.16 459.6Z" fill="#3D3D3D"/>
<path d="M191.659 381H8.34116C7.60046 381 7 381.77 7 382.72V444.28C7 445.23 7.60046 446 8.34116 446H191.659C192.4 446 193 445.23 193 444.28V382.72C193 381.77 192.4 381 191.659 381Z" fill="#1D1D1D"/>
<rect x="7.13525" y="367" width="80" height="13" rx="1" fill="#1D1D1D"/>
<path d="M191.659 293H8.34116C7.60046 293 7 293.77 7 294.72V356.28C7 357.23 7.60046 358 8.34116 358H191.659C192.4 358 193 357.23 193 356.28V294.72C193 293.77 192.4 293 191.659 293Z" fill="#1D1D1D"/>
<rect x="7.13525" y="279" width="80" height="13" rx="1" fill="#1D1D1D"/>
<path d="M191.659 205H8.34116C7.60046 205 7 205.77 7 206.72V268.28C7 269.23 7.60046 270 8.34116 270H191.659C192.4 270 193 269.23 193 268.28V206.72C193 205.77 192.4 205 191.659 205Z" fill="#1D1D1D"/>
<rect x="7.13525" y="191" width="80" height="13" rx="1" fill="#1D1D1D"/>
<path d="M191.659 117H8.34116C7.60046 117 7 117.77 7 118.72V180.28C7 181.23 7.60046 182 8.34116 182H191.659C192.4 182 193 181.23 193 180.28V118.72C193 117.77 192.4 117 191.659 117Z" fill="#1D1D1D"/>
<rect x="7.13525" y="103" width="80" height="13" rx="1" fill="#1D1D1D"/>
<path d="M191.659 29H8.34116C7.60046 29 7 29.7701 7 30.7201V92.2799C7 93.2299 7.60046 94 8.34116 94H191.659C192.4 94 193 93.2299 193 92.2799V30.7201C193 29.7701 192.4 29 191.659 29Z" fill="#1D1D1D"/>
<rect x="7.13525" y="15" width="80" height="13" rx="1" fill="#1D1D1D"/>
</g>
<defs>
<clipPath id="clip0">
<rect width="200" height="464" fill="white"/>
</clipPath>
</defs>
</svg>
