
<svg width="212" height="188" viewBox="0 0 212 188" fill="none" xmlns="http://www.w3.org/2000/svg">
<path d="M205.88 170.198L210 167.728L206.395 164.825C206.275 164.735 206.173 164.623 206.097 164.494C206.034 164.364 205.996 164.224 205.983 164.081V49.2886V23.9412C205.986 23.7961 206.025 23.6538 206.097 23.5279C206.166 23.397 206.265 23.2839 206.385 23.1972L210 20.2936L205.88 17.824C206.118 17.1814 206.25 16.5044 206.272 15.8193C206.283 14.1751 205.731 12.5769 204.706 11.2934L205.736 3.95676L204.191 2.74777C202.671 1.58148 200.801 0.965975 198.887 1.00145C197.321 0.985196 195.78 1.39591 194.428 2.18977C193.386 1.4283 192.133 1.0128 190.844 1.00145H21.1151C19.8261 1.0128 18.5729 1.4283 17.531 2.18977C16.1791 1.39591 14.6378 0.985196 13.0715 1.00145C11.1577 0.965975 9.28824 1.58148 7.76748 2.74777L6.26381 3.99809L7.29372 11.3347C6.26346 12.6189 5.71008 14.2225 5.72826 15.871C5.75084 16.5559 5.88298 17.2328 6.11963 17.8756L2 20.2626L5.61497 23.1662C5.73237 23.2558 5.83047 23.3683 5.90335 23.4969C5.97668 23.6223 6.01575 23.7649 6.01664 23.9102V164.05C6.01063 164.191 5.97184 164.329 5.90335 164.453C5.83318 164.586 5.73475 164.702 5.61497 164.794L2.0206 167.697L6.14023 170.167C5.91075 170.811 5.7822 171.488 5.75916 172.171C5.73732 173.817 6.29126 175.419 7.32462 176.697L6.29471 183.993L7.79838 185.212C9.18796 186.287 10.8753 186.905 12.6286 186.979C14.3711 187.09 16.1069 186.676 17.6134 185.791C18.6623 186.556 19.9211 186.978 21.2181 187H190.936C192.231 186.984 193.489 186.562 194.531 185.791C195.882 186.587 197.423 187.005 198.99 187C200.905 187.017 202.769 186.387 204.284 185.212L205.788 183.993L204.696 176.697C205.729 175.419 206.283 173.817 206.261 172.171C206.237 171.498 206.109 170.832 205.88 170.198V170.198Z" stroke="#3D3D3D" stroke-width="2" stroke-miterlimit="10"/>
<path d="M204 167.239L200.801 169.143C203.309 170.975 203.04 173.831 200.801 175.611L201.833 182.11C201.078 182.687 200.155 182.999 199.206 182.999C198.257 182.999 197.335 182.687 196.58 182.11L195.166 180.982C194.134 180.113 192.648 182.99 191.131 182.99H20.8589C19.3418 182.99 17.897 180.123 16.8134 180.982L15.4099 182.11C14.6595 182.691 13.7368 183.005 12.7885 183C11.8374 183.003 10.9119 182.69 10.1569 182.11L11.1889 175.611C8.97009 173.831 8.69145 170.975 11.1889 169.143L8 167.239C8.51192 166.849 8.93136 166.351 9.2281 165.779C9.51138 165.228 9.66329 164.619 9.67186 163.999V23.9786C9.66795 23.3582 9.51577 22.7478 9.2281 22.1986C8.93136 21.6271 8.51192 21.1288 8 20.7394L11.1889 18.8455C8.69145 17.0138 8.97009 14.1575 11.1889 12.3775L10.1363 5.87836C10.8939 5.30822 11.8155 5 12.7627 5C13.71 5 14.6316 5.30822 15.3892 5.87836L16.7928 6.99605C17.8248 7.8757 19.3109 5.00906 20.8382 5.00906H191.12C192.638 5.00906 194.082 7.86535 195.156 6.99605L196.57 5.87836C197.327 5.30822 198.249 5 199.196 5C200.143 5 201.065 5.30822 201.822 5.87836L200.79 12.3775C203.03 14.1575 203.298 17.0138 200.79 18.8455L203.99 20.7394C203.481 21.1291 203.065 21.6276 202.772 22.1986C202.484 22.7478 202.332 23.3582 202.328 23.9786V163.999C202.319 164.616 202.464 165.224 202.751 165.769C203.054 166.345 203.481 166.847 204 167.239V167.239Z" fill="#3D3D3D" stroke="#3D3D3D" stroke-width="4" stroke-miterlimit="10"/>
<rect x="136.789" y="18.7258" width="62" height="13" rx="2" fill="#1D1D1D"/>
<rect x="104.822" y="18.7258" width="31" height="13" rx="2" fill="#1D1D1D"/>
<rect x="84.8553" y="18.7258" width="19" height="13" rx="2" fill="#1D1D1D"/>
<rect x="13.3222" y="18.7258" width="70.5665" height="13" rx="2" fill="#1D1D1D"/>
<rect x="136.467" y="34" width="62" height="13" rx="2" fill="#1D1D1D"/>
<rect x="104.5" y="34" width="31" height="13" rx="2" fill="#1D1D1D"/>
<rect x="84.5332" y="34" width="19" height="13" rx="2" fill="#1D1D1D"/>
<rect x="13" y="34" width="70.5665" height="13" rx="2" fill="#1D1D1D"/>
<rect x="136.467" y="49" width="62" height="13" rx="2" fill="#1D1D1D"/>
<rect x="104.5" y="49" width="31" height="13" rx="2" fill="#1D1D1D"/>
<rect x="84.5332" y="49" width="19" height="13" rx="2" fill="#1D1D1D"/>
<rect x="13" y="49" width="70.5665" height="13" rx="2" fill="#1D1D1D"/>
<rect x="136.467" y="64" width="62" height="13" rx="2" fill="#1D1D1D"/>
<rect x="104.5" y="64" width="31" height="13" rx="2" fill="#1D1D1D"/>
<rect x="84.5332" y="64" width="19" height="13" rx="2" fill="#1D1D1D"/>
<rect x="13" y="64" width="70.5665" height="13" rx="2" fill="#1D1D1D"/>
<rect x="136.467" y="79" width="62" height="13" rx="2" fill="#1D1D1D"/>
<rect x="104.5" y="79" width="31" height="13" rx="2" fill="#1D1D1D"/>
<rect x="84.5332" y="79" width="19" height="13" rx="2" fill="#1D1D1D"/>
<rect x="13" y="79" width="70.5665" height="13" rx="2" fill="#1D1D1D"/>
<rect x="136.467" y="94" width="62" height="13" rx="2" fill="#1D1D1D"/>
<rect x="104.5" y="94" width="31" height="13" rx="2" fill="#1D1D1D"/>
<rect x="84.5332" y="94" width="19" height="13" rx="2" fill="#1D1D1D"/>
<rect x="13" y="94" width="70.5665" height="13" rx="2" fill="#1D1D1D"/>
<rect x="136.467" y="109" width="62" height="13" rx="2" fill="#1D1D1D"/>
<rect x="104.5" y="109" width="31" height="13" rx="2" fill="#1D1D1D"/>
<rect x="84.5332" y="109" width="19" height="13" rx="2" fill="#1D1D1D"/>
<rect x="13" y="109" width="70.5665" height="13" rx="2" fill="#1D1D1D"/>
<rect x="136.467" y="124" width="62" height="13" rx="2" fill="#1D1D1D"/>
<rect x="104.5" y="124" width="31" height="13" rx="2" fill="#1D1D1D"/>
<rect x="84.5332" y="124" width="19" height="13" rx="2" fill="#1D1D1D"/>
<rect x="13" y="124" width="70.5665" height="13" rx="2" fill="#1D1D1D"/>
<rect x="136.467" y="139" width="62" height="13" rx="2" fill="#1D1D1D"/>
<rect x="104.5" y="139" width="31" height="13" rx="2" fill="#1D1D1D"/>
<rect x="84.5332" y="139" width="19" height="13" rx="2" fill="#1D1D1D"/>
<rect x="13" y="139" width="70.5665" height="13" rx="2" fill="#1D1D1D"/>
<rect x="136.467" y="154" width="62" height="13" rx="2" fill="#1D1D1D"/>
<rect x="104.5" y="154" width="31" height="13" rx="2" fill="#1D1D1D"/>
<rect x="84.5332" y="154" width="19" height="13" rx="2" fill="#1D1D1D"/>
<rect x="13" y="154" width="70.5665" height="13" rx="2" fill="#1D1D1D"/>
</svg>
