
<svg width="202" height="187" viewBox="0 0 202 187" fill="none" xmlns="http://www.w3.org/2000/svg">
<path d="M7.66 185.995L1 179.259V7.7414L7.66 1.00538H194.34L201 7.7414V179.259L194.34 185.995H7.66Z" stroke="#3E3E3E" stroke-width="2" stroke-miterlimit="10"/>
<path d="M8.45994 2.96587H193.54L199.06 8.5457V178.454L193.54 184.034H8.45994L2.93994 178.454V8.5457L8.45994 2.96587Z" fill="#3E3E3E"/>
<path d="M194.63 15.7643H7.37C6.61337 15.7643 6 16.381 6 17.1417V42.5375C6 43.2982 6.61337 43.9148 7.37 43.9148H194.63C195.387 43.9148 196 43.2982 196 42.5375V17.1417C196 16.381 195.387 15.7643 194.63 15.7643Z" fill="#1D1D1D"/>
<path d="M194.63 56.9847H7.37C6.61337 56.9847 6 57.6014 6 58.3621V83.7579C6 84.5186 6.61337 85.1353 7.37 85.1353H194.63C195.387 85.1353 196 84.5186 196 83.7579V58.3621C196 57.6014 195.387 56.9847 194.63 56.9847Z" fill="#1D1D1D"/>
<path d="M194.63 139.436H7.37C6.61337 139.436 6 140.052 6 140.813V166.209C6 166.97 6.61337 167.586 7.37 167.586H194.63C195.387 167.586 196 166.97 196 166.209V140.813C196 140.052 195.387 139.436 194.63 139.436Z" fill="#1D1D1D"/>
<path d="M194.63 98.2152H7.37C6.61337 98.2152 6 98.8319 6 99.5926V124.988C6 125.749 6.61337 126.366 7.37 126.366H194.63C195.387 126.366 196 125.749 196 124.988V99.5926C196 98.8319 195.387 98.2152 194.63 98.2152Z" fill="#1D1D1D"/>
</svg>