<svg width="202" height="186" viewBox="0 0 202 186" fill="none" xmlns="http://www.w3.org/2000/svg">
<path d="M7.66 185L1 178.3V7.7L7.66 1H194.34L201 7.7V178.3L194.34 185H7.66Z" stroke="#3E3E3E" stroke-width="2" stroke-miterlimit="10"/>
<path d="M8.45994 2.95H193.54L199.06 8.5V177.5L193.54 183.05H8.45994L2.93994 177.5V8.5L8.45994 2.95Z" fill="#3E3E3E"/>
<path d="M194.63 15.68H7.37C6.61337 15.68 6 16.2934 6 17.05V42.31C6 43.0666 6.61337 43.68 7.37 43.68H194.63C195.387 43.68 196 43.0666 196 42.31V17.05C196 16.2934 195.387 15.68 194.63 15.68Z" fill="#1D1D1D"/>
<path d="M194.63 56.68H7.37C6.61337 56.68 6 57.2934 6 58.05V83.31C6 84.0666 6.61337 84.68 7.37 84.68H194.63C195.387 84.68 196 84.0666 196 83.31V58.05C196 57.2934 195.387 56.68 194.63 56.68Z" fill="#1D1D1D"/>
<path d="M194.63 138.69H7.37C6.61337 138.69 6 139.303 6 140.06V165.32C6 166.077 6.61337 166.69 7.37 166.69H194.63C195.387 166.69 196 166.077 196 165.32V140.06C196 139.303 195.387 138.69 194.63 138.69Z" fill="#1D1D1D"/>
<path d="M194.63 97.69H7.37C6.61337 97.69 6 98.3034 6 99.06V124.32C6 125.077 6.61337 125.69 7.37 125.69H194.63C195.387 125.69 196 125.077 196 124.32V99.06C196 98.3034 195.387 97.69 194.63 97.69Z" fill="#1D1D1D"/>
</svg>
