
<svg width="409" height="374" viewBox="0 0 409 374" fill="none" xmlns="http://www.w3.org/2000/svg">
<g clip-path="url(#clip0)">
<path d="M10.7493 369.753L3.8477 362.685C2.84177 361.653 2.0442 360.429 1.50057 359.081C0.956936 357.733 0.677901 356.29 0.679407 354.832V19.1891C0.676348 17.7278 0.954599 16.2802 1.49824 14.9292C2.04189 13.5781 2.84026 12.35 3.8477 11.3153L10.7493 4.26798C11.7551 3.23407 12.9502 2.41347 14.2661 1.85317C15.5819 1.29286 16.9928 1.00386 18.4178 1.00269H390.562C391.987 1.00386 393.398 1.29286 394.713 1.85317C396.029 2.41347 397.225 3.23407 398.231 4.26798L405.132 11.3153C407.172 13.4031 408.319 16.2353 408.321 19.1891V354.832C408.316 357.779 407.169 360.603 405.132 362.685L398.231 369.753C397.224 370.783 396.028 371.602 394.712 372.158C393.396 372.715 391.986 373 390.562 372.997H18.4178C16.994 373 15.5837 372.715 14.2678 372.158C12.9518 371.602 11.7561 370.783 10.7493 369.753Z" stroke="#3E3E3E" stroke-width="2" stroke-miterlimit="10"/>
<path d="M15.5321 4.97051H388.968C390.391 4.96897 391.802 5.25474 393.117 5.81147C394.433 6.3682 395.629 7.18497 396.636 8.21515L401.278 12.9684C402.286 13.998 403.086 15.2222 403.629 16.5702C404.174 17.9182 404.451 19.3632 404.446 20.8216V353.178C404.449 354.639 404.171 356.087 403.627 357.438C403.084 358.789 402.285 360.017 401.278 361.051L396.636 365.784C394.603 367.871 391.846 369.045 388.968 369.05H20.0121C17.1344 369.045 14.3762 367.871 12.3436 365.784L7.70217 361.051C5.67499 358.957 4.53651 356.127 4.53387 353.178V20.8216C4.53305 17.8775 5.67246 15.0534 7.70217 12.9684L15.5321 4.97051Z" fill="#3E3E3E"/>
<path d="M395.202 31H12.7977C11.2525 31 10 34.8861 10 39.6799V350.32C10 355.114 11.2525 359 12.7977 359H395.202C396.748 359 398 355.114 398 350.32V39.6799C398 34.8861 396.748 31 395.202 31Z" fill="#1D1D1D"/>
<path d="M10.191 26.0697L20.1099 24.0643H388.211L398.13 26.0697" stroke="#E2E2E2" stroke-width="2" stroke-linecap="round" stroke-linejoin="round"/>
</g>
<defs>
<clipPath id="clip0">
<rect width="409" height="374" fill="white"/>
</clipPath>
</defs>
</svg>