
<svg width="402" height="47" viewBox="0 0 402 47" fill="none" xmlns="http://www.w3.org/2000/svg">
<path d="M387.593 3.7147L402 12.9966L401.967 13.0266V34.0134L387.56 43.2953L386.534 42.5142C385.688 41.9254 384.655 41.6068 383.593 41.6068C382.531 41.6068 381.498 41.9254 380.651 42.5142C380.163 42.8575 379.798 43.3272 379.604 43.8626C379.409 44.3981 379.394 44.9746 379.56 45.5181L380.051 47H21.9271L22.4182 45.5081C22.5905 44.965 22.5784 44.3866 22.3834 43.8499C22.1884 43.3133 21.8199 42.8439 21.3268 42.5043C20.4764 41.9154 19.4399 41.5968 18.3744 41.5968C17.309 41.5968 16.2725 41.9154 15.4221 42.5043L14.418 43.2852L0 33.9734V13.0266L14.3743 3.76482H14.4398L15.2365 4.36556C16.0424 4.96569 17.031 5.32247 18.0666 5.387C19.1022 5.45154 20.1342 5.22065 21.0212 4.726C21.6069 4.40166 22.0587 3.90812 22.3056 3.32278C22.5525 2.73745 22.5806 2.09346 22.3855 1.49189L21.8943 0H380.117L379.625 1.49189C379.458 2.03524 379.472 2.61228 379.667 3.148C379.862 3.68372 380.227 4.15334 380.717 4.49573C381.563 5.08452 382.596 5.4032 383.658 5.4032C384.72 5.4032 385.753 5.08452 386.6 4.49573L387.593 3.7147Z" fill="#3D3D3D"/>
<path d="M292.138 7.61884H36.2244C28.0241 7.61884 21.3765 8.73438 21.3765 10.1105V37.1272C21.3765 38.5033 28.0241 39.6188 36.2244 39.6188H292.138C300.339 39.6188 306.986 38.5033 306.986 37.1272V10.1105C306.986 8.73438 300.339 7.61884 292.138 7.61884Z" fill="#3D3D3D" stroke="white" stroke-miterlimit="10"/>
<circle cx="32.1706" cy="23.5" r="4.25" fill="#C4C4C4"/>
<path d="M35.9206 23.5C35.9206 24.2417 35.7007 24.9667 35.2886 25.5834C34.8766 26.2001 34.2909 26.6807 33.6057 26.9646C32.9204 27.2484 32.1664 27.3226 31.439 27.1779C30.7116 27.0332 30.0434 26.6761 29.5189 26.1516C28.9945 25.6272 28.6373 24.959 28.4927 24.2316C28.348 23.5042 28.4222 22.7502 28.706 22.0649C28.9899 21.3797 29.4705 20.794 30.0872 20.382C30.7039 19.9699 31.4289 19.75 32.1706 19.75C33.1652 19.75 34.119 20.1451 34.8223 20.8484C35.5255 21.5516 35.9206 22.5054 35.9206 23.5Z" fill="#242122"/>
<circle cx="78.6813" cy="23.5" r="4.25" fill="#C4C4C4"/>
<path d="M82.4313 23.5C82.4313 24.2417 82.2114 24.9667 81.7993 25.5834C81.3872 26.2001 80.8016 26.6807 80.1163 26.9646C79.4311 27.2484 78.6771 27.3226 77.9497 27.1779C77.2223 27.0332 76.5541 26.6761 76.0296 26.1516C75.5052 25.6272 75.148 24.959 75.0033 24.2316C74.8586 23.5042 74.9329 22.7502 75.2167 22.0649C75.5006 21.3797 75.9812 20.794 76.5979 20.382C77.2146 19.9699 77.9396 19.75 78.6813 19.75C79.6758 19.75 80.6297 20.1451 81.3329 20.8484C82.0362 21.5516 82.4313 22.5054 82.4313 23.5Z" fill="#242122"/>
<circle cx="125.192" cy="23.5" r="4.25" fill="#C4C4C4"/>
<path d="M128.942 23.5C128.942 24.2417 128.722 24.9667 128.31 25.5834C127.898 26.2001 127.313 26.6807 126.627 26.9646C125.942 27.2484 125.188 27.3226 124.461 27.1779C123.733 27.0332 123.065 26.6761 122.541 26.1516C122.016 25.6272 121.659 24.959 121.514 24.2316C121.37 23.5042 121.444 22.7502 121.728 22.0649C122.012 21.3797 122.492 20.794 123.109 20.382C123.726 19.9699 124.451 19.75 125.192 19.75C126.187 19.75 127.141 20.1451 127.844 20.8484C128.547 21.5516 128.942 22.5054 128.942 23.5Z" fill="#242122"/>
<circle cx="171.703" cy="23.5" r="4.25" fill="#C4C4C4"/>
<path d="M175.453 23.5C175.453 24.2417 175.233 24.9667 174.821 25.5834C174.409 26.2001 173.824 26.6807 173.138 26.9646C172.453 27.2484 171.699 27.3226 170.972 27.1779C170.244 27.0332 169.576 26.6761 169.052 26.1516C168.527 25.6272 168.17 24.959 168.025 24.2316C167.881 23.5042 167.955 22.7502 168.239 22.0649C168.523 21.3797 169.003 20.794 169.62 20.382C170.237 19.9699 170.962 19.75 171.703 19.75C172.698 19.75 173.652 20.1451 174.355 20.8484C175.058 21.5516 175.453 22.5054 175.453 23.5Z" fill="#242122"/>
<circle cx="218.214" cy="23.5" r="4.25" fill="#C4C4C4"/>
<path d="M221.964 23.5C221.964 24.2417 221.744 24.9667 221.332 25.5834C220.92 26.2001 220.335 26.6807 219.649 26.9646C218.964 27.2484 218.21 27.3226 217.483 27.1779C216.755 27.0332 216.087 26.6761 215.563 26.1516C215.038 25.6272 214.681 24.959 214.536 24.2316C214.392 23.5042 214.466 22.7502 214.75 22.0649C215.034 21.3797 215.514 20.794 216.131 20.382C216.748 19.9699 217.473 19.75 218.214 19.75C219.209 19.75 220.163 20.1451 220.866 20.8484C221.569 21.5516 221.964 22.5054 221.964 23.5Z" fill="#242122"/>
<circle cx="264.725" cy="23.5" r="4.25" fill="#C4C4C4"/>
<path d="M268.475 23.5C268.475 24.2417 268.255 24.9667 267.843 25.5834C267.431 26.2001 266.846 26.6807 266.16 26.9646C265.475 27.2484 264.721 27.3226 263.994 27.1779C263.266 27.0332 262.598 26.6761 262.074 26.1516C261.549 25.6272 261.192 24.959 261.047 24.2316C260.903 23.5042 260.977 22.7502 261.261 22.0649C261.544 21.3797 262.025 20.794 262.642 20.382C263.259 19.9699 263.984 19.75 264.725 19.75C265.72 19.75 266.674 20.1451 267.377 20.8484C268.08 21.5516 268.475 22.5054 268.475 23.5Z" fill="#242122"/>
<path d="M374.13 6.5H323.241L318.074 12.3153L317.4 13.0781L316.736 13.831L311.625 19.4877V27.4627L316.681 33.1591L317.344 33.9219L318.019 34.6748L323.186 40.5H374.075L385.625 27.4627V19.4877L374.13 6.5ZM383.766 20.1218V22.9551L381 21.588L380.779 21.4889L380.569 21.3997C380.44 21.3318 380.297 21.288 380.149 21.2709C380.436 20.0307 380.944 18.84 381.653 17.7441L383.766 20.1218ZM383.158 23.5297L380.237 24.986L380.016 25.0653C379.857 25.1051 379.694 25.1251 379.529 25.1247C379.345 25.1242 379.162 25.0974 378.987 25.0454C378.643 24.9372 378.346 24.7362 378.135 24.47C377.924 24.2038 377.811 23.8856 377.811 23.5594C377.811 23.2332 377.924 22.915 378.135 22.6489C378.346 22.3827 378.643 22.1816 378.987 22.0734C379.158 22.0214 379.337 21.9947 379.518 21.9942C379.683 21.9938 379.846 22.0138 380.005 22.0536L380.193 22.1031L380.425 22.222L380.547 22.2815L383.158 23.5297ZM373.201 8.21385L380.945 16.9813C380.033 18.2799 379.406 19.7224 379.098 21.2313C378.941 21.2373 378.786 21.271 378.644 21.3304C378.839 19.8825 378.711 18.4143 378.268 17.0111C377.511 14.7074 376.123 12.6097 374.23 10.9085L374.164 10.8491C373.089 9.87431 371.915 8.992 370.657 8.21385H373.201ZM369.152 8.21385C369.858 8.60501 370.541 9.02828 371.199 9.48194C367.553 8.39357 363.623 8.33128 359.937 9.30357C355.7 10.2942 353.94 9.7593 353.21 9.13517C352.919 8.88709 352.719 8.56591 352.635 8.21385H369.152ZM344.703 8.21385C344.63 8.56159 344.432 8.87835 344.139 9.1154C343.42 9.75934 341.672 10.2843 337.424 9.30357C333.719 8.3195 329.765 8.38874 326.106 9.50172C326.773 9.03923 327.467 8.60932 328.186 8.21385H344.703ZM319.159 13.831L319.845 13.0781L320.519 12.3153L324.159 8.21385H326.659C325.46 8.96033 324.348 9.81334 323.34 10.7599L323.219 10.8491C323.081 10.9638 322.952 11.0862 322.832 11.2156C322.603 11.4189 322.392 11.6374 322.201 11.8694C322.087 11.9834 321.98 12.1024 321.88 12.2261C321.659 12.4837 321.46 12.7313 321.272 12.9889C321.084 13.2465 320.896 13.5041 320.73 13.7418C320.065 14.7362 319.551 15.8056 319.203 16.9219C318.756 18.3247 318.632 19.7942 318.838 21.2413C318.684 21.1931 318.524 21.1599 318.362 21.1422C318.054 19.6332 317.427 18.1908 316.515 16.8922L319.159 13.831ZM319.601 23.5297C319.6 23.8673 319.48 24.1958 319.257 24.4682C319.035 24.7406 318.721 24.9427 318.362 25.0454C318.191 25.0966 318.012 25.1233 317.831 25.1247C317.661 25.1242 317.493 25.0974 317.333 25.0454C317.278 25.0523 317.222 25.0523 317.167 25.0454L314.191 23.5693L316.824 22.2715L317.001 22.1824L317.112 22.1131C317.184 22.0887 317.258 22.0689 317.333 22.0536C317.495 22.0137 317.663 21.9937 317.831 21.9942C318.008 21.9956 318.184 22.0223 318.351 22.0734C318.695 22.1753 318.996 22.37 319.211 22.6306C319.427 22.8913 319.548 23.2053 319.557 23.5297H319.601ZM313.583 20.1218L315.696 17.7441C316.405 18.84 316.913 20.0307 317.2 21.2709C317.044 21.3023 316.892 21.3489 316.747 21.4097L316.537 21.4988L316.393 21.5781L313.583 22.9749V20.1218ZM313.583 26.898V24.0944L316.349 25.4714C316.422 25.523 316.504 25.5632 316.592 25.5903L316.78 25.6795C316.911 25.7429 317.053 25.7864 317.2 25.8083C316.938 27.0472 316.44 28.2367 315.729 29.3251L313.583 26.898ZM324.159 38.7861L320.519 34.6748L319.845 33.9219L319.159 33.1591L316.404 30.0385C317.316 28.7502 317.933 27.3122 318.218 25.8083C318.375 25.8023 318.529 25.7686 318.672 25.7092C318.499 27.1416 318.63 28.5904 319.059 29.979C319.406 31.0957 319.919 32.1654 320.586 33.1591C320.752 33.4067 320.918 33.6643 321.128 33.9219C321.338 34.1795 321.515 34.4172 321.736 34.6748C322.149 35.177 322.608 35.6475 323.108 36.0816C323.108 36.0816 323.108 36.0816 323.174 36.1311C324.235 37.1114 325.402 37.9943 326.659 38.7663L324.159 38.7861ZM328.186 38.7861C327.423 38.3601 326.726 37.9242 326.106 37.4982C329.769 38.5914 333.716 38.6606 337.424 37.6964C341.65 36.7057 343.42 37.2406 344.139 37.8549C344.435 38.1036 344.636 38.4293 344.714 38.7861H328.186ZM351.772 38.7861H345.566C345.484 38.224 345.192 37.7034 344.736 37.31C343.453 36.2103 340.908 36.1014 337.202 36.9633C335.484 37.3755 333.715 37.5886 331.936 37.5973C331.315 37.5991 330.695 37.5694 330.078 37.5081L329.215 37.4091L328.252 37.2506L327.677 37.1218C327.334 37.0425 327.013 36.9533 326.726 36.8741C326.726 36.8741 326.726 36.8741 326.659 36.8741L326.084 36.6958C325.232 36.4088 324.42 36.0366 323.661 35.5862V35.5862C323.363 35.2989 323.075 35.0216 322.82 34.7343C322.566 34.447 322.356 34.2191 322.157 33.9813C321.958 33.7436 321.747 33.4662 321.57 33.2185C319.789 30.9065 319.101 28.0576 319.656 25.2931C319.911 25.0808 320.114 24.824 320.252 24.5385C320.391 24.253 320.462 23.945 320.462 23.6337C320.462 23.3224 320.391 23.0144 320.252 22.729C320.114 22.4435 319.911 22.1866 319.656 21.9744C319.365 20.589 319.383 19.1657 319.71 17.7867C320.037 16.4076 320.665 15.1002 321.559 13.94C321.736 13.7022 321.924 13.4446 322.146 13.1871C322.367 12.9295 322.566 12.6818 322.809 12.4242C323.071 12.1323 323.352 11.8544 323.65 11.5921L323.938 11.4236L324.192 11.2849C324.291 11.2257 324.395 11.1728 324.502 11.1264C324.763 10.9903 325.033 10.8679 325.31 10.7599C325.35 10.7674 325.391 10.7674 325.431 10.7599L326.095 10.5221C326.56 10.3735 327.091 10.2051 327.677 10.0664C327.84 10.0186 328.006 9.98223 328.175 9.95745C328.301 9.92297 328.431 9.89973 328.562 9.88809C328.562 9.88809 328.562 9.88809 328.562 9.88809L329.193 9.79891C329.458 9.79891 329.746 9.71967 330.033 9.68995C330.658 9.62901 331.286 9.59928 331.914 9.60082C333.685 9.60841 335.448 9.82149 337.158 10.2348C340.864 11.0967 343.409 10.9778 344.692 9.88809C345.149 9.49965 345.442 8.9817 345.522 8.42191H351.728C351.807 8.9817 352.101 9.49965 352.558 9.88809C353.863 10.9778 356.385 11.0967 360.091 10.2348C368.245 8.3129 373.135 11.3444 373.633 11.6614C378.843 16.5157 377.848 21.2412 377.637 22.0239C377.379 22.2388 377.174 22.4997 377.035 22.7897C376.896 23.0797 376.826 23.3925 376.83 23.708C376.828 24.0295 376.901 24.3477 377.044 24.6427C377.187 24.9377 377.396 25.203 377.659 25.4219C377.914 26.4126 378.688 31.0093 373.633 35.7249C372.874 36.1753 372.061 36.5475 371.21 36.8345L370.634 37.0128C370.634 37.0128 370.634 37.0128 370.568 37.0128C370.28 37.0921 369.96 37.1812 369.617 37.2605L369.041 37.3893L368.079 37.5477L367.216 37.6468C366.599 37.7081 365.978 37.7378 365.357 37.736C363.579 37.7272 361.809 37.5142 360.091 37.102C356.385 36.2401 353.863 36.3491 352.558 37.4487C352.123 37.8162 351.833 38.299 351.728 38.8258L351.772 38.7861ZM352.624 38.7861C352.703 38.4353 352.904 38.116 353.199 37.8747C353.929 37.2407 355.688 36.7057 359.937 37.6964C363.635 38.6685 367.578 38.5993 371.232 37.4982C370.612 37.9242 369.915 38.3601 369.152 38.7861H352.624ZM373.201 38.7861H370.679C371.932 38.0019 373.106 37.1201 374.186 36.1509L374.252 36.1014C376.147 34.4015 377.535 32.3033 378.29 29.9988C378.722 28.6141 378.857 27.1687 378.688 25.7389C378.826 25.7884 378.972 25.8185 379.12 25.8281C379.417 27.3353 380.033 28.7778 380.934 30.0781L373.201 38.7861ZM383.777 26.898L381.565 29.3351C380.855 28.2424 380.358 27.0499 380.093 25.8083C380.256 25.7741 380.415 25.7277 380.569 25.6696L380.757 25.5804C380.817 25.5574 380.872 25.5274 380.923 25.4912L383.733 24.0944L383.777 26.898Z" fill="#D7D7D7"/>
<path d="M344.681 38.8257H328.142C327.378 38.3997 326.681 37.9539 326.062 37.5378C329.725 38.6309 333.673 38.6965 337.379 37.726C341.616 36.7353 343.375 37.2802 344.106 37.8945C344.395 38.1474 344.596 38.4714 344.681 38.8257Z" fill="#707171"/>
<path d="M371.199 37.5378C370.568 37.9539 369.871 38.3997 369.119 38.8257H352.524C352.605 38.4756 352.806 38.1569 353.1 37.9143C353.83 37.2802 355.589 36.7453 359.837 37.726C363.555 38.7178 367.524 38.652 371.199 37.5378V37.5378Z" fill="#707171"/>
<path d="M380.89 30.088L373.146 38.8258H370.623C371.882 38.044 373.056 37.1584 374.13 36.1807C374.13 36.1807 374.13 36.1807 374.197 36.1807C376.092 34.4795 377.483 32.3821 378.246 30.0781C378.675 28.693 378.807 27.2473 378.633 25.8182C378.774 25.8687 378.924 25.8988 379.075 25.9074C379.378 27.3914 379.994 28.8102 380.89 30.088V30.088Z" fill="#242122"/>
<path d="M383.733 24.0945V26.8981L381.52 29.3351C380.811 28.2424 380.313 27.0499 380.049 25.8083C380.21 25.7696 380.369 25.7233 380.525 25.6696L380.713 25.5805C380.773 25.5545 380.829 25.5212 380.879 25.4814L383.733 24.0945Z" fill="#3D3D3D"/>
<path d="M383.722 20.1218V22.9551L380.945 21.588L380.724 21.4889L380.525 21.3898C380.388 21.331 380.243 21.2909 380.093 21.2709C380.38 20.029 380.892 18.8375 381.609 17.7441L383.722 20.1218Z" fill="#3D3D3D"/>
<path d="M383.113 23.5891L380.182 25.0454L379.961 25.1247C379.802 25.1645 379.638 25.1845 379.474 25.1841C379.29 25.1836 379.107 25.1568 378.932 25.1048C378.593 24.9922 378.301 24.7895 378.094 24.5239C377.888 24.2582 377.778 23.9424 377.778 23.6188C377.778 23.2952 377.888 22.9795 378.094 22.7138C378.301 22.4482 378.593 22.2454 378.932 22.1328C379.103 22.0817 379.282 22.055 379.463 22.0536C379.627 22.0532 379.791 22.0732 379.949 22.113H380.138L380.37 22.2319L380.492 22.2913L383.113 23.5891Z" fill="#707171"/>
<path d="M380.923 16.9813C380.014 18.2804 379.391 19.7229 379.087 21.2313C378.926 21.2373 378.768 21.2709 378.622 21.3304C378.828 19.8833 378.704 18.4139 378.257 17.0111C377.495 14.7071 376.103 12.6097 374.208 10.9085V10.9085C374.208 10.9085 374.208 10.9085 374.141 10.9085C373.067 9.93081 371.893 9.04521 370.634 8.26337H373.157L380.923 16.9813Z" fill="#242122"/>
<path d="M371.165 9.48199C367.516 8.39155 363.582 8.32925 359.892 9.30362C355.655 10.2943 353.896 9.75934 353.177 9.13522C352.879 8.88777 352.678 8.56143 352.602 8.20398H369.119C369.86 8.59034 370.535 9.056 371.165 9.48199Z" fill="#707171"/>
<path d="M344.659 8.27325C344.584 8.62093 344.391 8.93931 344.106 9.18466C343.375 9.81869 341.627 10.3438 337.379 9.36303C333.675 8.37897 329.721 8.44814 326.062 9.56112C326.681 9.13513 327.378 8.69924 328.142 8.27325H344.659Z" fill="#707171"/>
<path d="M317.156 21.2709C317 21.3038 316.848 21.3502 316.703 21.4097L316.504 21.4988L316.349 21.5781L313.539 22.965V20.1218L315.652 17.7441C316.361 18.84 316.869 20.0307 317.156 21.2709Z" fill="#3D3D3D"/>
<path d="M319.557 23.5891C319.557 24.0104 319.371 24.4146 319.039 24.7134C318.707 25.0123 318.257 25.1815 317.787 25.1841C317.617 25.1836 317.449 25.1568 317.289 25.1048C317.234 25.1105 317.178 25.1105 317.123 25.1048L314.147 23.6287L316.791 22.3309L316.957 22.2418L317.079 22.1823C317.145 22.1506 317.216 22.1273 317.289 22.113C317.451 22.0738 317.619 22.0538 317.787 22.0536C317.964 22.0541 318.14 22.0809 318.307 22.1328C318.659 22.228 318.969 22.4197 319.193 22.6809C319.418 22.9422 319.545 23.2598 319.557 23.5891V23.5891Z" fill="#707171"/>
<path d="M317.156 25.8083C316.896 27.0446 316.398 28.2311 315.685 29.3153L313.539 26.8981V24.0945L316.315 25.4715C316.386 25.5217 316.464 25.5618 316.548 25.5904L316.736 25.6795C316.871 25.7343 317.012 25.7774 317.156 25.8083V25.8083Z" fill="#3D3D3D"/>
<path d="M326.615 38.8257H324.115L320.475 34.7144L319.8 33.9615L319.125 33.1987L316.36 30.0781C317.27 28.7891 317.887 27.3514 318.174 25.8479C318.333 25.8433 318.488 25.806 318.628 25.7389C318.46 27.1746 318.591 28.6258 319.015 30.0186C319.361 31.1353 319.875 32.205 320.541 33.1987C320.707 33.4464 320.884 33.7039 321.083 33.9615C321.283 34.2191 321.471 34.4568 321.692 34.7144C322.111 35.2122 322.569 35.6823 323.064 36.1212H323.13C324.187 37.1256 325.354 38.0317 326.615 38.8257Z" fill="#242122"/>
<path d="M326.615 8.204C325.421 8.95637 324.31 9.80891 323.296 10.75L323.174 10.8491C323.042 10.968 322.909 11.0869 322.787 11.2157C322.562 11.4178 322.351 11.6329 322.157 11.8596L321.836 12.2261C321.615 12.4837 321.415 12.7314 321.227 12.989C321.039 13.2466 320.851 13.5041 320.685 13.7419C320.019 14.7356 319.505 15.8052 319.159 16.9219C318.717 18.3257 318.593 19.7941 318.794 21.2413C318.639 21.1932 318.48 21.16 318.318 21.1422C318.009 19.6333 317.382 18.1909 316.47 16.8922L319.269 13.7419L319.944 12.989L320.619 12.2261L324.259 8.11487L326.615 8.204Z" fill="#242122"/>
<path d="M373.666 35.5664C372.903 36.0074 372.091 36.376 371.243 36.6661L370.668 36.8544H370.601C370.314 36.9336 369.993 37.0228 369.65 37.0921C369.307 37.1615 369.285 37.1911 369.075 37.2308C368.864 37.2704 368.455 37.3398 368.112 37.3794C367.769 37.419 367.559 37.4586 367.249 37.4883C366.632 37.5498 366.012 37.5796 365.391 37.5775C363.612 37.5688 361.842 37.3557 360.125 36.9435C356.419 36.0816 353.896 36.1905 352.591 37.2902C352.139 37.6864 351.847 38.2056 351.761 38.7664H345.555C345.473 38.2042 345.181 37.6836 344.725 37.2902C343.442 36.1905 340.897 36.0816 337.191 36.9435C335.477 37.3551 333.711 37.5681 331.936 37.5775C331.312 37.5796 330.687 37.5498 330.067 37.4883C329.768 37.4883 329.48 37.4289 329.204 37.3794C328.927 37.3299 328.551 37.2803 328.241 37.2308L327.666 37.0921C327.334 37.0228 327.002 36.9336 326.715 36.8544C326.715 36.8544 326.715 36.8544 326.648 36.8544L326.073 36.6661C325.226 36.3797 324.418 36.0109 323.661 35.5664V35.5664C323.362 35.2791 323.075 35.0018 322.82 34.7145L322.157 33.9615C321.935 33.704 321.758 33.4464 321.57 33.1988C319.782 30.8706 319.095 28.0041 319.656 25.2238C319.911 25.0115 320.113 24.7546 320.252 24.4692C320.391 24.1837 320.462 23.8757 320.462 23.5644C320.462 23.2531 320.391 22.9451 320.252 22.6596C320.113 22.3742 319.911 22.1173 319.656 21.905C319.656 21.905 319.656 21.905 319.656 21.905C319.365 20.5197 319.383 19.0964 319.71 17.7173C320.037 16.3383 320.665 15.0309 321.559 13.8707C321.747 13.6329 321.924 13.3753 322.146 13.1177L322.809 12.3549C323.071 12.063 323.352 11.7851 323.65 11.5228V11.5228L323.938 11.3543C324.014 11.3014 324.095 11.255 324.181 11.2157C324.27 11.1562 324.369 11.1166 324.491 11.0472C324.613 10.9779 324.978 10.8095 325.298 10.6906C325.338 10.6998 325.38 10.6998 325.42 10.6906L326.084 10.4528C326.606 10.2762 327.138 10.1241 327.677 9.99709C327.836 9.94916 327.999 9.91274 328.164 9.88813L328.551 9.80886L329.182 9.71973C329.447 9.71973 329.735 9.64049 330.022 9.61077C330.647 9.54984 331.275 9.52005 331.903 9.52159C333.674 9.52918 335.437 9.74231 337.147 10.1556C340.853 11.0175 343.397 10.8986 344.681 9.80886C345.136 9.41544 345.429 8.89488 345.51 8.33276H351.717C351.803 8.8935 352.095 9.41267 352.546 9.80886C353.852 10.8986 356.374 11.0175 360.08 10.1556C368.245 8.23372 373.135 11.2652 373.621 11.5822C378.832 16.4266 377.836 21.162 377.637 21.9446C377.377 22.1587 377.17 22.4192 377.029 22.7092C376.888 22.9993 376.816 23.3125 376.819 23.6288C376.817 23.9503 376.89 24.2686 377.033 24.5635C377.176 24.8585 377.385 25.1238 377.648 25.3426V25.3426C377.947 26.2541 378.721 30.8508 373.666 35.5664Z" fill="#242122"/>
<path d="M374.208 10.8887L374.141 10.8292C374.141 10.8292 374.186 10.8788 374.208 10.8887Z" fill="black"/>
</svg>