<svg width="202" height="184" viewBox="0 0 202 184" fill="none" xmlns="http://www.w3.org/2000/svg">
<g id="PlayStats dataless">
<g id="Deco">
<path id="Vector" d="M0.619995 0.88501V183.305H201.38V0.88501H0.619995ZM198.5 179.685H3.57001V3.21501H198.5V179.685Z" fill="#3D3D3D"/>
<path id="Vector_2" d="M197.3 4.30501H4.76999V178.595H197.3V4.30501Z" fill="#3D3D3D"/>
<path id="linebot" d="M14 168L17.9 162.8C18.2777 162.296 18.8705 162 19.5 162H185.5L190 168" stroke="#E2E2E2" stroke-width="2" stroke-linecap="round" stroke-linejoin="round"/>
<path id="linetop" d="M189 78L185.1 83.2C184.722 83.7036 184.13 84 183.5 84H17.5L13 78" stroke="#E2E2E2" stroke-width="2" stroke-linecap="round" stroke-linejoin="round"/>
</g>
<g id="Stats">
<g id="AC">
<path id="Vector_3" d="M64.86 29.435C58.54 28.155 57.71 18.515 57.69 18.435V17.815L36.87 11.455L16.05 17.815L15.99 18.435C15.99 18.525 15.16 28.165 8.81999 29.435L8.10999 29.585V44.515V44.745C8.18999 45.005 15.11 71.625 36.61 77.365L36.84 77.425L37.06 77.365C58.57 71.625 65.49 45.005 65.57 44.745V29.585L64.86 29.435ZM63.86 44.435C63.37 46.225 56.52 70.195 36.86 75.605C17.19 70.195 10.34 46.225 9.85999 44.435V31.025C15.91 29.265 17.36 21.475 17.66 19.195L36.83 13.305L56.02 19.175C56.31 21.455 57.75 29.245 63.82 31.005L63.86 44.435Z" fill="#E2E2E2"/>
<path id="Vector_4" d="M56.02 19.195L36.83 13.305L17.64 19.175C17.34 21.455 15.89 29.245 9.83997 31.005V44.375C10.31 46.165 17.16 70.135 36.84 75.545C56.49 70.135 63.34 46.165 63.84 44.375V31.025C57.75 29.305 56.33 21.475 56.02 19.195ZM61.73 34.095V44.165C60.2616 49.002 58.1636 53.6249 55.49 57.915C50.75 65.465 44.92 70.475 38.15 72.865C38.15 73.2124 38.012 73.5456 37.7663 73.7913C37.5206 74.037 37.1874 74.175 36.84 74.175C36.4925 74.175 36.1593 74.037 35.9137 73.7913C35.668 73.5456 35.53 73.2124 35.53 72.865C18.99 66.995 12.63 46.505 11.95 44.135V43.995V34.055C11.7003 33.9538 11.4872 33.7791 11.339 33.5541C11.1908 33.3291 11.1144 33.0644 11.12 32.795C11.1146 32.4386 11.2504 32.0946 11.4977 31.838C11.7449 31.5813 12.0837 31.4329 12.44 31.425C12.7392 31.4328 13.0261 31.5462 13.25 31.745C17.51 28.915 19.02 23.445 19.48 21.115L19.54 20.825L35.54 15.935C35.5686 15.6086 35.7184 15.3048 35.96 15.0835C36.2016 14.8621 36.5173 14.7393 36.845 14.7393C37.1726 14.7393 37.4884 14.8621 37.7299 15.0835C37.9715 15.3048 38.1214 15.6086 38.15 15.935L54.15 20.825L54.21 21.115C54.67 23.445 56.21 28.915 60.44 31.745C60.6704 31.544 60.9643 31.4307 61.27 31.425C61.6263 31.4329 61.965 31.5813 62.2123 31.838C62.4596 32.0946 62.5953 32.4386 62.59 32.795C62.5957 33.0734 62.5165 33.347 62.3629 33.5792C62.2092 33.8115 61.9884 33.9914 61.73 34.095Z" fill="#707171"/>
<path id="Vector_5" d="M61.26 31.455C60.9543 31.4607 60.6604 31.5741 60.43 31.775C56.18 28.945 54.66 23.475 54.2 21.145L54.14 20.855L38.14 15.965C38.1114 15.6386 37.9615 15.3348 37.7199 15.1135C37.4783 14.8921 37.1626 14.7693 36.835 14.7693C36.5073 14.7693 36.1916 14.8921 35.95 15.1135C35.7084 15.3348 35.5586 15.6386 35.53 15.965L19.53 20.855L19.47 21.145C19.01 23.475 17.47 28.945 13.24 31.775C13.0161 31.5762 12.7292 31.4629 12.43 31.455C12.0737 31.4629 11.7349 31.6113 11.4876 31.868C11.2404 32.1246 11.1046 32.4687 11.11 32.825C11.1044 33.0944 11.1808 33.3591 11.329 33.5841C11.4772 33.8091 11.6903 33.9838 11.94 34.085V44.025V44.165C12.62 46.535 18.94 67.025 35.52 72.895C35.52 73.2424 35.658 73.5756 35.9037 73.8213C36.1493 74.067 36.4825 74.205 36.83 74.205C37.1774 74.205 37.5106 74.067 37.7563 73.8213C38.002 73.5756 38.14 73.2424 38.14 72.895C44.91 70.505 50.74 65.495 55.48 57.945C58.1536 53.655 60.2516 49.032 61.72 44.195V34.095C61.9718 33.9917 62.1871 33.8157 62.3385 33.5895C62.4899 33.3633 62.5705 33.0972 62.57 32.825C62.5754 32.4703 62.441 32.1278 62.1958 31.8714C61.9507 31.6151 61.6145 31.4655 61.26 31.455ZM60.78 43.955C60.02 46.565 53.78 66.305 37.84 71.955C37.7196 71.8041 37.5677 71.6812 37.3951 71.5948C37.2224 71.5085 37.0329 71.4608 36.84 71.455C36.6463 71.4573 36.4557 71.5034 36.2825 71.59C36.1093 71.6767 35.958 71.8014 35.84 71.955C19.91 66.305 13.66 46.565 12.9 43.955V34.095C13.1518 33.9917 13.3671 33.8157 13.5185 33.5895C13.6699 33.3633 13.7505 33.0972 13.75 32.825C13.7547 32.7584 13.7547 32.6916 13.75 32.625C18.18 29.715 19.84 24.245 20.38 21.625L35.85 16.885C35.9659 17.0438 36.1159 17.1747 36.2889 17.2681C36.4619 17.3616 36.6536 17.4152 36.85 17.425C37.047 17.4181 37.2397 17.3657 37.4132 17.2721C37.5866 17.1784 37.7361 17.0459 37.85 16.885L53.33 21.635C53.89 24.245 55.55 29.715 59.97 32.635C59.97 32.705 59.97 32.765 59.97 32.835C59.9645 33.107 60.0433 33.3741 60.1954 33.5996C60.3476 33.8252 60.5657 33.9982 60.82 34.095L60.78 43.955Z" fill="#3A3A3A"/>
<path id="Vector_6" d="M60.78 34.085V43.955C60.02 46.565 53.78 66.305 37.84 71.955C37.7196 71.8041 37.5678 71.6812 37.3951 71.5948C37.2224 71.5085 37.033 71.4608 36.84 71.455C36.6463 71.4573 36.4557 71.5034 36.2825 71.5901C36.1093 71.6767 35.958 71.8014 35.84 71.955C19.91 66.305 13.66 46.565 12.9 43.955V34.095C13.1518 33.9917 13.3671 33.8157 13.5185 33.5895C13.6699 33.3633 13.7505 33.0972 13.75 32.825C13.7547 32.7584 13.7547 32.6916 13.75 32.625C18.18 29.715 19.84 24.245 20.38 21.625L35.85 16.885C35.9659 17.0438 36.1159 17.1747 36.2889 17.2681C36.4619 17.3616 36.6536 17.4152 36.85 17.425C37.047 17.4181 37.2397 17.3657 37.4132 17.2721C37.5867 17.1784 37.7361 17.0459 37.85 16.885L53.33 21.635C53.89 24.245 55.55 29.715 59.97 32.635C59.97 32.705 59.97 32.765 59.97 32.835C59.9635 33.1007 60.0373 33.3621 60.1818 33.5852C60.3263 33.8082 60.5348 33.9824 60.78 34.085Z" fill="#242122"/>
</g>
<g id="Initiative">
<path id="Vector_7" d="M102.15 11.375C93.6 11.375 85.44 12.245 78.86 16.425C76.9833 17.6168 75.4388 19.2642 74.3704 21.2139C73.302 23.1635 72.7446 25.3518 72.75 27.575V61.305C73.6217 62.1677 74.5397 62.9823 75.5 63.745L78.77 66.095C79.44 66.515 80.12 66.905 80.82 67.305L81.82 70.305C82.111 71.1791 82.5893 71.9792 83.2214 72.6493C83.8536 73.3195 84.6244 73.8436 85.48 74.185C96.1538 78.6052 108.146 78.6052 118.82 74.185C119.681 73.8457 120.457 73.32 121.092 72.6458C121.726 71.9716 122.204 71.1654 122.49 70.285L123.49 67.285C124.19 66.915 124.87 66.495 125.54 66.075L128.8 63.725C129.878 62.8751 130.9 61.9565 131.86 60.975V27.775C131.861 25.5747 131.313 23.409 130.265 21.4742C129.217 19.5394 127.703 17.8967 125.86 16.695C119.19 12.305 110.89 11.375 102.15 11.375ZM76.33 58.785C75.8257 58.2891 75.4253 57.6976 75.1523 57.0451C74.8793 56.3927 74.7391 55.6923 74.74 54.985V48.935C76.8235 53.0026 78.4984 57.2668 79.74 61.665C78.5356 60.7882 77.396 59.8257 76.33 58.785ZM118.25 72.785C113.135 74.9514 107.635 76.0636 102.08 76.055C96.5248 76.0464 91.0286 74.9172 85.92 72.735C85.0269 72.3737 84.2534 71.7686 83.6876 70.9889C83.1218 70.2092 82.7865 69.2861 82.72 68.325C85.6774 69.75 88.7875 70.8336 91.99 71.555C95.314 72.3081 98.7118 72.6871 102.12 72.685C108.831 72.7005 115.461 71.2106 121.52 68.325C121.444 69.2987 121.1 70.2324 120.526 71.0229C119.953 71.8135 119.172 72.4302 118.27 72.805L118.25 72.785ZM129.52 54.985C129.52 55.6869 129.381 56.3818 129.11 57.0291C128.838 57.6764 128.441 58.2632 127.94 58.755C126.879 59.7923 125.75 60.7578 124.56 61.645C125.802 57.2468 127.477 52.9826 129.56 48.915L129.52 54.985ZM129.52 41.265C125.62 48.505 123.44 58.265 122.35 63.105C116.281 66.8306 109.291 68.7843 102.17 68.745C95.0427 68.7843 88.0462 66.8308 81.97 63.105C80.9 58.295 78.72 48.505 74.82 41.265V30.815L79.47 21.145C86.0924 16.3736 94.0478 13.8061 102.21 13.8061C110.372 13.8061 118.328 16.3736 124.95 21.145L129.6 30.815L129.52 41.265Z" fill="#E2E2E2"/>
<path id="Vector_8" d="M121.57 68.305C121.485 69.2793 121.132 70.211 120.549 70.9965C119.967 71.7821 119.178 72.3908 118.27 72.755C113.157 74.9259 107.66 76.0448 102.105 76.0448C96.5504 76.0448 91.0527 74.9259 85.94 72.755C85.0476 72.3927 84.2747 71.7874 83.709 71.0078C83.1434 70.2283 82.8076 69.3058 82.74 68.345C85.7036 69.7609 88.8163 70.8409 92.02 71.565C95.3439 72.3186 98.7417 72.6977 102.15 72.695C108.87 72.7038 115.507 71.2035 121.57 68.305Z" fill="#707171"/>
<path id="Vector_9" d="M129.55 48.935V54.995C129.549 55.6967 129.409 56.3913 129.138 57.0385C128.867 57.6856 128.47 58.2725 127.97 58.765C126.907 59.8031 125.778 60.7718 124.59 61.665C125.815 57.2671 127.477 53.0026 129.55 48.935Z" fill="#3A3A3A"/>
<path id="Vector_10" d="M79.72 61.665C78.5374 60.7806 77.4149 59.8185 76.36 58.785C75.857 58.2881 75.4575 57.6964 75.1846 57.0442C74.9117 56.3919 74.7708 55.692 74.77 54.985V48.935C76.836 53.0046 78.4941 57.2687 79.72 61.665Z" fill="#3A3A3A"/>
<path id="Vector_11" d="M129.54 26.095V41.305C125.64 48.545 123.46 58.305 122.37 63.145C116.299 66.875 109.305 68.8321 102.18 68.795C95.0516 68.8323 88.0547 66.8753 81.98 63.145C80.9 58.345 78.72 48.545 74.83 41.305V26.105C74.8176 24.9309 75.0702 23.7691 75.5688 22.7061C76.0674 21.643 76.7993 20.7061 77.71 19.965C83.99 14.965 92.84 13.795 102.22 13.795C111.6 13.795 120.45 14.975 126.74 19.965C127.635 20.7129 128.351 21.6517 128.835 22.7125C129.32 23.7732 129.561 24.929 129.54 26.095Z" fill="#242122"/>
</g>
<g id="Speed">
<path id="Vector_12" d="M194.33 37.305C194.3 37.231 194.256 37.1636 194.2 37.1069C194.144 37.0501 194.078 37.005 194.004 36.9743C193.931 36.9436 193.852 36.9278 193.772 36.9279C193.692 36.928 193.613 36.944 193.54 36.975C193.47 36.975 193.02 37.185 192.38 37.525C192.257 33.8916 191.382 30.3233 189.81 27.045C190.125 31.1992 189.852 35.377 189 39.455V39.655C188.67 39.905 188.35 40.155 188 40.445C192.76 20.095 182.87 14.445 182.35 14.155C184.136 15.9259 185.547 18.0378 186.5 20.365C186.68 21.0317 186.84 21.7217 186.98 22.435C184.527 19.2065 181.36 16.589 177.727 14.787C174.095 12.9851 170.095 12.0475 166.04 12.0475C161.985 12.0475 157.985 12.9851 154.353 14.787C150.72 16.589 147.553 19.2065 145.1 22.435C145.23 21.745 145.39 21.055 145.57 20.365C146.527 18.0397 147.938 15.9285 149.72 14.155C149.2 14.425 139.32 20.095 144.07 40.445C143.75 40.155 143.41 39.905 143.07 39.655V39.455C142.218 35.377 141.945 31.1992 142.26 27.045C140.687 30.3223 139.815 33.8917 139.7 37.525C139.05 37.185 138.6 37.015 138.54 36.975C138.466 36.9439 138.386 36.9277 138.306 36.9275C138.225 36.9272 138.146 36.9429 138.071 36.9736C137.997 37.0042 137.929 37.0493 137.873 37.1062C137.816 37.1631 137.771 37.2306 137.74 37.305C137.706 37.3794 137.688 37.46 137.687 37.5417C137.686 37.6234 137.702 37.7045 137.734 37.7797C137.766 37.8549 137.813 37.9227 137.873 37.9787C137.932 38.0347 138.003 38.0777 138.08 38.105C138.08 38.105 147.45 43.105 149.22 49.465C149.812 51.3628 150.184 53.3223 150.33 55.305C146.681 51.91 144.226 47.4277 143.33 42.525C142.383 41.4608 141.134 40.7107 139.75 40.375C140.025 43.992 141.046 47.5127 142.75 50.715L145 54.225C145.33 54.655 145.68 55.095 146 55.495V69.495L146.55 69.835C148.13 70.765 152.48 73.735 153.6 76.135L153.91 76.775H178.18L178.49 76.135C179.61 73.735 183.96 70.765 185.54 69.835L186.09 69.495V55.495C186.44 55.095 186.8 54.655 187.09 54.225L189.35 50.715C191.041 47.5074 192.061 43.9894 192.35 40.375C190.966 40.7107 189.717 41.4608 188.77 42.525C187.874 47.4277 185.419 51.91 181.77 55.305C181.913 53.3179 182.289 51.3544 182.89 49.455C184.65 43.045 194.01 38.105 194.03 38.095C194.102 38.0636 194.167 38.0181 194.222 37.9611C194.276 37.9042 194.319 37.8369 194.347 37.7633C194.375 37.6896 194.387 37.6111 194.385 37.5324C194.382 37.4537 194.363 37.3764 194.33 37.305ZM150.05 59.305C149.94 59.945 149.82 60.575 149.66 61.225C149.05 59.875 148.58 58.675 148.25 57.795C148.86 58.385 149.45 58.905 150.07 59.375L150.05 59.305ZM155.33 74.545C153.71 71.895 149.97 69.315 148.43 68.315C149.005 67.1367 149.515 65.9282 149.96 64.695C151.82 68.345 154.47 72.335 157.76 74.545H155.33ZM160.4 74.545C156.1 72.895 152.69 67.545 150.5 63.035C150.782 62.1009 151.015 61.153 151.2 60.195C155.573 63.2227 160.766 64.8448 166.085 64.8448C171.404 64.8448 176.597 63.2227 180.97 60.195C181.154 61.1542 181.391 62.1023 181.68 63.035C179.49 67.505 176.07 72.895 171.77 74.545H160.4ZM183.88 57.875C183.55 58.755 183.08 59.955 182.47 61.305C182.31 60.655 182.19 60.025 182.08 59.385C182.68 58.905 183.33 58.385 183.86 57.865L183.88 57.875ZM182.22 64.705C182.657 65.9398 183.164 67.1485 183.74 68.325C182.2 69.325 178.46 71.905 176.84 74.555H174.41C177.68 72.305 180.33 68.305 182.2 64.695L182.22 64.705ZM185.32 43.135C183.797 44.8856 182.592 46.8891 181.76 49.055C180.881 51.4096 180.47 53.913 180.55 56.425C176.463 59.7505 171.354 61.5661 166.085 61.5661C160.816 61.5661 155.707 59.7505 151.62 56.425C151.703 53.9137 151.295 51.4103 150.42 49.055C149.58 46.8905 148.373 44.8876 146.85 43.135C145.419 39.0018 144.62 34.6765 144.48 30.305C146.105 25.8883 149.046 22.0765 152.906 19.384C156.766 16.6915 161.359 15.2478 166.065 15.2478C170.771 15.2478 175.364 16.6915 179.224 19.384C183.084 22.0765 186.025 25.8883 187.65 30.305C187.525 34.6706 186.743 38.9924 185.33 43.125L185.32 43.135Z" fill="#DDDDDC"/>
<path id="Vector_13" d="M157.74 74.545H155.33C153.71 71.895 149.97 69.315 148.43 68.315C149.005 67.1367 149.515 65.9283 149.96 64.695C151.8 68.305 154.45 72.305 157.74 74.545Z" fill="#707171"/>
<path id="Vector_14" d="M183.72 68.305C182.18 69.305 178.44 71.885 176.82 74.535H174.39C177.68 72.325 180.33 68.335 182.2 64.685C182.637 65.9198 183.144 67.1285 183.72 68.305Z" fill="#707171"/>
<path id="Vector_15" d="M181.66 63.025C179.47 67.495 176.05 72.885 171.75 74.535H160.38C156.08 72.885 152.67 67.535 150.48 63.025C150.762 62.0909 150.995 61.143 151.18 60.185C155.553 63.2127 160.746 64.8348 166.065 64.8348C171.384 64.8348 176.577 63.2127 180.95 60.185C181.134 61.1442 181.371 62.0923 181.66 63.025Z" fill="#3A3A3A"/>
<path id="Vector_16" d="M183.86 57.865C183.53 58.745 183.06 59.945 182.45 61.295C182.29 60.645 182.17 60.015 182.06 59.375C182.68 58.905 183.33 58.385 183.86 57.865Z" fill="#707171"/>
<path id="Vector_17" d="M150.07 59.375C149.96 60.015 149.84 60.645 149.68 61.295C149.07 59.945 148.6 58.745 148.27 57.865C148.86 58.385 149.45 58.905 150.07 59.375Z" fill="#707171"/>
<path id="Vector_18" d="M187.65 30.305C187.525 34.6706 186.743 38.9924 185.33 43.125C183.807 44.8756 182.602 46.8791 181.77 49.045C180.891 51.3996 180.48 53.903 180.56 56.415C176.473 59.7405 171.364 61.5561 166.095 61.5561C160.826 61.5561 155.717 59.7405 151.63 56.415C151.713 53.9037 151.305 51.4003 150.43 49.045C149.59 46.8805 148.383 44.8776 146.86 43.125C145.427 38.9956 144.625 34.6736 144.48 30.305C146.105 25.8883 149.046 22.0765 152.906 19.384C156.766 16.6915 161.359 15.2478 166.065 15.2478C170.771 15.2478 175.364 16.6915 179.224 19.384C183.084 22.0765 186.025 25.8883 187.65 30.305Z" fill="#242122"/>
</g>
</g>
<g id="HP">
<g id="Temp HP">
<path id="Vector_19" d="M109.24 125.46H84L81 128.46V151.93L84 154.93H109.24L112.24 151.93V128.46L109.24 125.46ZM81.87 128.8L84.39 126.28H86C84.7711 126.817 83.7276 127.704 83 128.83C82.5469 129.53 82.1872 130.287 81.93 131.08L81.87 128.8ZM81.87 132.48C82.0779 131.458 82.4386 130.474 82.94 129.56V150.83C82.84 150.66 82.74 150.49 82.65 150.3C82.2982 149.568 82.0363 148.795 81.87 148V132.48ZM84.39 154.1L81.87 151.59V149.27C82.1292 150.063 82.4888 150.819 82.94 151.52C83.6654 152.646 84.7098 153.53 85.94 154.06L84.39 154.1ZM87.14 154.1C85.6152 153.749 84.2774 152.839 83.39 151.55V128.86C84.2865 127.566 85.6287 126.647 87.16 126.28H106.16C107.685 126.637 109.022 127.55 109.91 128.84V151.53C109.014 152.823 107.671 153.738 106.14 154.1H87.14ZM111.46 151.59L108.87 154.1H107.26C108.491 153.572 109.536 152.687 110.26 151.56C110.714 150.859 111.077 150.103 111.34 149.31L111.46 151.59ZM111.46 147.91C111.247 148.931 110.883 149.916 110.38 150.83V129.55C110.48 129.73 110.59 129.9 110.68 130.09C111.027 130.842 111.288 131.63 111.46 132.44V147.91ZM111.46 131.12C111.199 130.326 110.836 129.57 110.38 128.87C109.654 127.742 108.61 126.855 107.38 126.32H108.87L111.39 128.84L111.46 131.12Z" fill="#E2E2E2"/>
<path id="Vector_20" d="M111.42 128.8V131.12C111.159 130.326 110.796 129.57 110.34 128.87C109.614 127.742 108.57 126.855 107.34 126.32H108.87L111.42 128.8Z" fill="#707171"/>
<path id="Vector_21" d="M111.42 132.44V147.91C111.206 148.931 110.843 149.916 110.34 150.83V129.55C110.44 129.73 110.55 129.9 110.64 130.09C110.987 130.842 111.248 131.63 111.42 132.44Z" fill="#3A3A3A"/>
<path id="Vector_22" d="M111.42 149.27V151.59L108.87 154.1H107.26C108.491 153.572 109.536 152.687 110.26 151.56C110.745 150.851 111.135 150.081 111.42 149.27Z" fill="#707171"/>
<path id="Vector_23" d="M85.96 154.1H84.35L81.87 151.59V149.27C82.1292 150.063 82.4888 150.819 82.94 151.52C83.6647 152.664 84.717 153.563 85.96 154.1Z" fill="#707171"/>
<path id="Vector_24" d="M85.96 126.28C84.7311 126.817 83.6876 127.704 82.96 128.83C82.5069 129.53 82.1472 130.287 81.89 131.08V128.8L84.41 126.28H85.96Z" fill="#707171"/>
<path id="Vector_25" d="M82.87 129.56V150.83C82.77 150.66 82.67 150.49 82.58 150.3C82.2523 149.564 82.0139 148.792 81.87 148V132.48C82.0558 131.462 82.3929 130.478 82.87 129.56Z" fill="#3A3A3A"/>
<path id="Vector_26" d="M109.87 128.84V151.53C108.974 152.823 107.631 153.738 106.1 154.1H87.1C85.5752 153.749 84.2373 152.839 83.35 151.55V128.86C84.2465 127.566 85.5887 126.647 87.12 126.28H106.12C107.645 126.637 108.982 127.55 109.87 128.84Z" fill="#242122"/>
</g>
<g id="Current HP">
<path id="Vector_27" d="M176.53 93.19H125.01L118.87 99.31V147.22L124.99 153.33H176.51L182.63 147.22V99.31L176.53 93.19ZM120.53 100.01L125.67 94.87H128.96C126.427 95.9475 124.273 97.7542 122.77 100.06H122.72V100.15C121.795 101.576 121.059 103.115 120.53 104.73V100.01ZM120.53 107.51C120.957 105.428 121.695 103.422 122.72 101.56V145C122.51 144.64 122.3 144.3 122.12 143.91C121.397 142.377 120.863 140.762 120.53 139.1V107.51ZM125.67 151.66L120.53 146.52V141.79C121.061 143.407 121.797 144.95 122.72 146.38V146.46H122.77C124.277 148.764 126.43 150.573 128.96 151.66H125.67ZM131.3 151.66C128.185 150.931 125.453 149.066 123.64 146.43V100.12C125.471 97.4846 128.209 95.6158 131.33 94.87H170.15C173.271 95.585 176.01 97.4485 177.82 100.09V146.41C175.987 149.048 173.245 150.917 170.12 151.66H131.3ZM180.94 146.52L175.87 151.66H172.57C175.099 150.581 177.248 148.77 178.74 146.46H178.8V146.38C179.725 144.948 180.467 143.406 181.01 141.79L180.94 146.52ZM180.94 139.01C180.506 141.109 179.761 143.131 178.73 145.01V101.54C178.953 101.892 179.157 102.256 179.34 102.63C180.054 104.168 180.591 105.781 180.94 107.44V139.01ZM180.94 104.73C180.399 103.116 179.657 101.577 178.73 100.15V100.06H178.67C177.18 97.7503 175.031 95.9419 172.5 94.87H175.87L181.01 100.01L180.94 104.73Z" fill="#E2E2E2"/>
<path id="Vector_28" d="M180.98 100V104.72C180.439 103.106 179.697 101.567 178.77 100.14V100.05H178.71C177.22 97.7403 175.071 95.9319 172.54 94.86H175.87L180.98 100Z" fill="#707171"/>
<path id="Vector_29" d="M180.98 107.44V139C180.546 141.099 179.801 143.121 178.77 145V101.54C178.993 101.892 179.197 102.256 179.38 102.63C180.094 104.167 180.631 105.781 180.98 107.44Z" fill="#3A3A3A"/>
<path id="Vector_30" d="M180.98 141.79V146.52L175.87 151.66H172.57C175.099 150.581 177.248 148.77 178.74 146.46H178.8V146.38C179.714 144.946 180.447 143.405 180.98 141.79Z" fill="#707171"/>
<path id="Vector_31" d="M129 151.66H125.71L120.57 146.52V141.79C121.101 143.407 121.837 144.95 122.76 146.38V146.46H122.81C124.317 148.764 126.47 150.573 129 151.66Z" fill="#707171"/>
<path id="Vector_32" d="M129 94.87C126.467 95.9475 124.313 97.7541 122.81 100.06H122.76V100.15C121.835 101.576 121.099 103.115 120.57 104.73V100L125.71 94.86L129 94.87Z" fill="#707171"/>
<path id="Vector_33" d="M122.76 101.56V145C122.55 144.64 122.34 144.3 122.16 143.91C121.437 142.377 120.903 140.762 120.57 139.1V107.51C120.997 105.428 121.735 103.422 122.76 101.56Z" fill="#3A3A3A"/>
<path id="Vector_34" d="M177.87 100.09V146.41C176.037 149.048 173.295 150.917 170.17 151.66H131.34C128.225 150.931 125.493 149.066 123.68 146.43V100.12C125.511 97.4846 128.249 95.6158 131.37 94.87H170.19C173.315 95.5827 176.057 97.4465 177.87 100.09Z" fill="#242122"/>
</g>
<g id="Max Hp">
<path id="Vector_35" d="M109.24 91H84L81 94V117.47L84 120.47H109.24L112.24 117.47V94L109.24 91ZM81.87 94.38L84.39 91.87H86C84.7698 92.3998 83.7254 93.2841 83 94.41C82.5248 95.1206 82.1449 95.8905 81.87 96.7V94.38ZM81.87 98.06C82.0795 97.0389 82.4401 96.0547 82.94 95.14V116.42C82.84 116.24 82.74 116.07 82.65 115.88C82.2944 115.132 82.0324 114.342 81.87 113.53V98.06ZM84.39 119.69L81.87 117.17V114.86C82.1092 115.645 82.4451 116.398 82.87 117.1C83.5948 118.229 84.6391 119.116 85.87 119.65L84.39 119.69ZM87.14 119.69C85.6156 119.332 84.279 118.419 83.39 117.13V94.44C84.2909 93.152 85.6318 92.2379 87.16 91.87H106.16C107.687 92.2221 109.026 93.136 109.91 94.43V117.11C109.018 118.409 107.674 119.328 106.14 119.69H87.14ZM111.46 117.17L108.87 119.69H107.26C108.492 119.158 109.537 118.27 110.26 117.14C110.712 116.441 111.075 115.689 111.34 114.9L111.46 117.17ZM111.46 113.49C111.248 114.512 110.884 115.496 110.38 116.41V95.14C110.48 95.31 110.59 95.48 110.68 95.67C111.028 96.4247 111.29 97.2164 111.46 98.03V113.49ZM111.46 96.7C111.197 95.9071 110.834 95.151 110.38 94.45C109.656 93.3228 108.611 92.4382 107.38 91.91H108.87L111.39 94.42L111.46 96.7Z" fill="#E2E2E2"/>
<path id="Vector_36" d="M111.42 94.38V96.7C111.157 95.9071 110.794 95.151 110.34 94.45C109.616 93.3228 108.571 92.4382 107.34 91.91H108.87L111.42 94.38Z" fill="#707171"/>
<path id="Vector_37" d="M111.42 98V113.46C111.208 114.482 110.844 115.466 110.34 116.38V95.14C110.44 95.31 110.55 95.48 110.64 95.67C110.986 96.4151 111.248 97.1967 111.42 98Z" fill="#3A3A3A"/>
<path id="Vector_38" d="M111.42 114.86V117.17L108.87 119.69H107.26C108.492 119.158 109.537 118.27 110.26 117.14C110.743 116.433 111.133 115.667 111.42 114.86Z" fill="#707171"/>
<path id="Vector_39" d="M85.96 119.69H84.35L81.87 117.17V114.86C82.1092 115.645 82.4451 116.398 82.87 117.1C83.6126 118.258 84.6905 119.161 85.96 119.69Z" fill="#707171"/>
<path id="Vector_40" d="M85.96 91.87C84.7298 92.3998 83.6854 93.2841 82.96 94.41C82.4987 95.1227 82.1323 95.8925 81.87 96.7V94.38L84.39 91.87H85.96Z" fill="#707171"/>
<path id="Vector_41" d="M82.87 95.14V116.42C82.77 116.24 82.67 116.07 82.58 115.88C82.2244 115.132 81.9624 114.342 81.8 113.53V98.06C82.0095 97.0389 82.3701 96.0547 82.87 95.14Z" fill="#3A3A3A"/>
<path id="Vector_42" d="M109.87 94.43V117.11C108.978 118.409 107.634 119.328 106.1 119.69H87.1C85.5756 119.332 84.239 118.419 83.35 117.13V94.44C84.2509 93.152 85.5918 92.2379 87.12 91.87H106.12C107.647 92.2221 108.986 93.136 109.87 94.43Z" fill="#242122"/>
</g>
</g>
<g id="Death saves">
<path id="Vector_43" d="M68.5566 91H26.4434C25.0939 91 24 92.1155 24 93.4916V120.508C24 121.884 25.0939 123 26.4434 123H68.5566C69.9061 123 71 121.884 71 120.508V93.4916C71 92.1155 69.9061 91 68.5566 91Z" fill="#3D3D3D" stroke="white" stroke-miterlimit="10"/>
<path id="Vector_44" d="M61.99 101.675C60.9117 101.678 59.8731 102.082 59.0763 102.808C58.2796 103.535 57.7818 104.532 57.68 105.605H54.33C54.2398 104.525 53.7471 103.519 52.9497 102.785C52.1524 102.052 51.1084 101.645 50.025 101.645C48.9415 101.645 47.8976 102.052 47.1002 102.785C46.3028 103.519 45.8102 104.525 45.72 105.605H42.37C42.2652 104.542 41.7717 103.554 40.9842 102.832C40.1966 102.11 39.1704 101.704 38.1019 101.691C37.0334 101.678 35.9978 102.061 35.1936 102.764C34.3893 103.468 33.8728 104.443 33.743 105.504C33.6132 106.564 33.8793 107.636 34.4903 108.512C35.1013 109.389 36.0142 110.009 37.0542 110.255C38.0942 110.5 39.1882 110.353 40.1266 109.842C41.065 109.331 41.7819 108.492 42.14 107.485H45.94C46.2394 108.328 46.7924 109.057 47.5229 109.572C48.2535 110.088 49.1258 110.365 50.02 110.365C50.9142 110.365 51.7865 110.088 52.517 109.572C53.2476 109.057 53.8005 108.328 54.1 107.485H57.9C58.1692 108.233 58.6385 108.892 59.2568 109.392C59.8752 109.891 60.6187 110.211 61.4064 110.316C62.1941 110.422 62.9957 110.309 63.7238 109.991C64.4519 109.672 65.0784 109.16 65.5352 108.509C65.9919 107.859 66.2613 107.095 66.3139 106.302C66.3665 105.509 66.2004 104.717 65.8336 104.012C65.4668 103.307 64.9135 102.716 64.234 102.304C63.5544 101.892 62.7747 101.674 61.98 101.675H61.99ZM38.07 109.545C37.3738 109.545 36.6932 109.339 36.1144 108.952C35.5355 108.565 35.0843 108.015 34.8179 107.372C34.5515 106.729 34.4818 106.021 34.6176 105.338C34.7534 104.655 35.0887 104.028 35.5809 103.536C36.0732 103.044 36.7004 102.708 37.3832 102.573C38.0661 102.437 38.7738 102.507 39.417 102.773C40.0602 103.039 40.61 103.491 40.9967 104.069C41.3835 104.648 41.59 105.329 41.59 106.025C41.59 106.959 41.2191 107.854 40.559 108.514C39.8989 109.174 39.0035 109.545 38.07 109.545ZM42.28 107.065C42.3286 106.861 42.3621 106.654 42.38 106.445H45.73C45.7494 106.653 45.7795 106.86 45.82 107.065H42.28ZM50.03 109.545C49.3338 109.545 48.6532 109.339 48.0744 108.952C47.4955 108.565 47.0443 108.015 46.7779 107.372C46.5115 106.729 46.4418 106.021 46.5776 105.338C46.7134 104.655 47.0487 104.028 47.541 103.536C48.0332 103.044 48.6604 102.708 49.3432 102.573C50.0261 102.437 50.7338 102.507 51.377 102.773C52.0202 103.039 52.57 103.491 52.9567 104.069C53.3435 104.648 53.55 105.329 53.55 106.025C53.55 106.959 53.1791 107.854 52.519 108.514C51.8589 109.174 50.9635 109.545 50.03 109.545ZM54.24 107.065C54.2887 106.861 54.3221 106.654 54.34 106.445H57.68C57.6979 106.654 57.7313 106.861 57.78 107.065H54.24ZM61.99 109.545C61.2934 109.547 60.6118 109.342 60.0317 108.957C59.4515 108.571 58.9987 108.022 58.7308 107.379C58.4628 106.736 58.3917 106.028 58.5264 105.344C58.6611 104.661 58.9955 104.033 59.4874 103.54C59.9793 103.046 60.6065 102.71 61.2896 102.573C61.9726 102.437 62.6809 102.506 63.3247 102.772C63.9685 103.038 64.5188 103.489 64.906 104.068C65.2933 104.647 65.5 105.328 65.5 106.025C65.4974 106.956 65.127 107.848 64.4696 108.508C63.8122 109.167 62.921 109.54 61.99 109.545Z" fill="#E2E2E2"/>
<path id="Vector_45" d="M61.99 109.545C63.934 109.545 65.51 107.969 65.51 106.025C65.51 104.081 63.934 102.505 61.99 102.505C60.0459 102.505 58.47 104.081 58.47 106.025C58.47 107.969 60.0459 109.545 61.99 109.545Z" fill="#242122"/>
<path id="Vector_46" d="M53.55 106.025C53.552 106.722 53.3472 107.403 52.9617 107.983C52.5761 108.564 52.027 109.016 51.384 109.284C50.741 109.552 50.0329 109.623 49.3494 109.489C48.666 109.354 48.0378 109.019 47.5445 108.528C47.0513 108.036 46.715 107.409 46.5784 106.725C46.4418 106.042 46.5109 105.334 46.777 104.69C47.0431 104.047 47.4943 103.496 48.0733 103.109C48.6524 102.722 49.3334 102.515 50.03 102.515C50.961 102.518 51.8533 102.888 52.5126 103.545C53.1719 104.203 53.5447 105.094 53.55 106.025Z" fill="#242122"/>
<path id="Vector_47" d="M38.07 109.545C40.014 109.545 41.59 107.969 41.59 106.025C41.59 104.081 40.014 102.505 38.07 102.505C36.1259 102.505 34.55 104.081 34.55 106.025C34.55 107.969 36.1259 109.545 38.07 109.545Z" fill="#242122"/>
<path id="Vector_48" d="M61.99 111.475C60.9108 111.48 59.8721 111.886 59.0756 112.614C58.2791 113.342 57.7817 114.341 57.68 115.415H54.33C54.2398 114.335 53.7471 113.329 52.9497 112.595C52.1524 111.862 51.1084 111.455 50.025 111.455C48.9415 111.455 47.8976 111.862 47.1002 112.595C46.3028 113.329 45.8102 114.335 45.72 115.415H42.37C42.2652 114.352 41.7717 113.364 40.9842 112.642C40.1966 111.92 39.1704 111.514 38.1019 111.501C37.0334 111.488 35.9978 111.871 35.1936 112.574C34.3893 113.278 33.8728 114.253 33.743 115.314C33.6132 116.374 33.8793 117.446 34.4903 118.322C35.1013 119.199 36.0142 119.819 37.0542 120.065C38.0942 120.31 39.1882 120.163 40.1266 119.652C41.065 119.141 41.7819 118.302 42.14 117.295H45.94C46.2394 118.138 46.7924 118.867 47.5229 119.382C48.2535 119.898 49.1258 120.175 50.02 120.175C50.9142 120.175 51.7865 119.898 52.517 119.382C53.2476 118.867 53.8005 118.138 54.1 117.295H57.9C58.1708 118.042 58.6413 118.699 59.2601 119.197C59.879 119.695 60.6226 120.013 61.4098 120.117C62.1971 120.222 62.9979 120.108 63.725 119.789C64.4521 119.469 65.0777 118.957 65.5335 118.306C65.9894 117.656 66.2581 116.893 66.3104 116.101C66.3627 115.308 66.1965 114.517 65.83 113.812C65.4635 113.108 64.9108 112.517 64.2319 112.105C63.5531 111.693 62.7741 111.475 61.98 111.475H61.99ZM38.07 119.305C37.3734 119.305 36.6924 119.098 36.1133 118.711C35.5342 118.324 35.0831 117.774 34.817 117.13C34.5508 116.486 34.4817 115.778 34.6184 115.095C34.755 114.412 35.0912 113.784 35.5845 113.292C36.0778 112.801 36.7059 112.466 37.3894 112.331C38.0729 112.197 38.7809 112.268 39.424 112.536C40.067 112.804 40.616 113.257 41.0016 113.837C41.3872 114.417 41.5919 115.098 41.59 115.795C41.5873 116.727 41.2153 117.62 40.5555 118.278C39.8956 118.936 39.0018 119.305 38.07 119.305ZM42.28 116.845C42.3287 116.634 42.3621 116.42 42.38 116.205H45.73C45.73 116.425 45.78 116.635 45.82 116.845H42.28ZM50.03 119.305C49.3334 119.305 48.6524 119.098 48.0733 118.711C47.4942 118.324 47.0431 117.774 46.777 117.13C46.5108 116.486 46.4417 115.778 46.5783 115.095C46.715 114.412 47.0512 113.784 47.5445 113.292C48.0378 112.801 48.6659 112.466 49.3494 112.331C50.0329 112.197 50.7409 112.268 51.384 112.536C52.027 112.804 52.576 113.257 52.9616 113.837C53.3472 114.417 53.5519 115.098 53.55 115.795C53.55 116.257 53.4589 116.714 53.2818 117.141C53.1048 117.567 52.8454 117.954 52.5184 118.281C52.1914 118.607 51.8033 118.865 51.3763 119.041C50.9493 119.217 50.4918 119.306 50.03 119.305ZM54.24 116.845C54.2887 116.634 54.3221 116.42 54.34 116.205H57.68C57.6979 116.42 57.7313 116.634 57.78 116.845H54.24ZM61.99 119.305C61.2929 119.307 60.611 119.102 60.0306 118.716C59.4502 118.33 58.9975 117.78 58.7298 117.137C58.4622 116.493 58.3916 115.785 58.5271 115.101C58.6626 114.417 58.9981 113.789 59.491 113.296C59.9839 112.803 60.612 112.468 61.2957 112.332C61.9795 112.197 62.688 112.267 63.3316 112.535C63.9752 112.803 64.5249 113.255 64.9109 113.836C65.2969 114.416 65.502 115.098 65.5 115.795C65.4973 116.725 65.1267 117.616 64.469 118.274C63.8113 118.932 62.9201 119.302 61.99 119.305Z" fill="#E2E2E2"/>
<path id="Vector_49" d="M41.59 115.835C41.59 116.531 41.3835 117.212 40.9968 117.791C40.61 118.37 40.0602 118.821 39.417 119.087C38.7738 119.354 38.0661 119.423 37.3833 119.287C36.7005 119.152 36.0732 118.816 35.581 118.324C35.0887 117.832 34.7534 117.205 34.6176 116.522C34.4818 115.839 34.5515 115.131 34.8179 114.488C35.0843 113.845 35.5355 113.295 36.1144 112.908C36.6932 112.521 37.3738 112.315 38.07 112.315C39.0036 112.315 39.8989 112.686 40.559 113.346C41.2191 114.006 41.59 114.901 41.59 115.835Z" fill="#242122"/>
<path id="Vector_50" d="M53.55 115.835C53.548 116.531 53.3399 117.21 52.9519 117.788C52.5639 118.365 52.0135 118.815 51.3701 119.08C50.7268 119.345 50.0193 119.413 49.3372 119.276C48.655 119.139 48.0287 118.803 47.5375 118.311C47.0462 117.818 46.7119 117.191 46.5769 116.508C46.4419 115.826 46.5122 115.118 46.7789 114.476C47.0456 113.833 47.4968 113.284 48.0754 112.898C48.6541 112.511 49.3342 112.305 50.03 112.305C50.4931 112.305 50.9516 112.396 51.3793 112.574C51.8071 112.751 52.1956 113.012 52.5226 113.34C52.8496 113.667 53.1086 114.057 53.2849 114.485C53.4612 114.913 53.5513 115.372 53.55 115.835Z" fill="#242122"/>
<path id="Vector_51" d="M65.5 115.835C65.5 116.532 65.2933 117.213 64.9061 117.792C64.5188 118.371 63.9685 118.822 63.3247 119.088C62.6809 119.354 61.9727 119.423 61.2896 119.287C60.6065 119.15 59.9793 118.814 59.4874 118.32C58.9955 117.827 58.6611 117.199 58.5264 116.516C58.3917 115.832 58.4628 115.124 58.7308 114.481C58.9987 113.838 59.4515 113.289 60.0317 112.903C60.6118 112.518 61.2934 112.313 61.99 112.315C62.4518 112.315 62.909 112.406 63.3355 112.583C63.762 112.76 64.1494 113.02 64.4754 113.347C64.8015 113.674 65.0599 114.062 65.2357 114.489C65.4115 114.916 65.5013 115.373 65.5 115.835Z" fill="#242122"/>
<path id="Vector_52" d="M26 101H69" stroke="#E2E2E2" stroke-width="0.25" stroke-miterlimit="10"/>
</g>
<g id="Hit Dice">
<path id="Vector_53" d="M31.56 127.04L24.06 130.7H24V127.04H31.51C31.51 127.04 31.6 127.02 31.56 127.04Z" fill="#707171" stroke="#F2F2F3" stroke-miterlimit="10"/>
<path id="Vector_54" d="M38.35 154.09H32.13C29.9738 154.09 27.9059 153.233 26.3812 151.709C24.8566 150.184 24 148.116 24 145.96C25.0991 145.665 26.2592 145.685 27.3471 146.02C28.4349 146.354 29.4064 146.988 30.15 147.85C32.56 150.85 30.34 152.99 38.35 154.09Z" fill="#707171" stroke="#F2F2F3" stroke-miterlimit="10"/>
<path id="Vector_55" d="M70.74 149.62V153.62C70.74 153.753 70.6874 153.88 70.5936 153.974C70.4998 154.067 70.3726 154.12 70.24 154.12H63.02V154.07L70.71 149.63C70.71 149.63 70.74 149.6 70.74 149.62Z" fill="#707171" stroke="#F2F2F3" stroke-miterlimit="10"/>
<path id="Vector_56" d="M70.74 127.6V149.54C70.7444 149.548 70.7467 149.556 70.7467 149.565C70.7467 149.574 70.7444 149.582 70.74 149.59L63.03 154.05C62.9743 154.065 62.9157 154.065 62.86 154.05H38.36C30.36 152.94 32.59 150.81 30.18 147.81C29.493 146.984 28.5935 146.361 27.5784 146.008C26.5633 145.656 25.4712 145.587 24.42 145.81C24.3719 145.819 24.3225 145.817 24.2752 145.804C24.228 145.792 24.1841 145.769 24.1468 145.737C24.1095 145.706 24.0796 145.666 24.0594 145.622C24.0392 145.577 24.0292 145.529 24.03 145.48V130.93C24.0292 130.868 24.0468 130.808 24.0807 130.756C24.1145 130.704 24.163 130.664 24.22 130.64L31.68 127H31.82H70.13C70.2878 127.007 70.4374 127.072 70.55 127.183C70.6626 127.294 70.7303 127.442 70.74 127.6Z" fill="#3D3D3D" stroke="#F2F2F3" stroke-miterlimit="10"/>
<path id="Vector_57" d="M64.4047 130.95H29.704L25.54 132.27V142.63L29.704 143.95H64.4047L68.54 142.63V132.27L64.4047 130.95ZM26.581 132.382L30.0511 131.275H32.2777C30.5949 131.493 29.1351 131.882 28.0846 132.392C27.4595 132.705 26.9631 133.047 26.6099 133.408L26.581 132.382ZM26.581 134.007C26.8664 133.551 27.3648 133.116 28.0558 132.717V142.102C27.9112 142.02 27.7666 141.949 27.6509 141.868C27.1743 141.547 26.8148 141.205 26.581 140.852V134.007ZM30.0511 143.544L26.581 142.437V141.421C26.9282 141.783 27.4252 142.125 28.0558 142.437C29.1149 142.944 30.5718 143.332 32.2487 143.554L30.0511 143.544ZM33.8392 143.544C31.7826 143.4 29.9438 143 28.663 142.416V132.402C29.9928 131.861 31.8087 131.496 33.8103 131.366H60.0671C62.1238 131.51 63.9626 131.911 65.2434 132.494V142.508C63.9449 143.089 62.0997 143.489 60.0383 143.635L33.8392 143.544ZM67.4122 142.437L63.9421 143.544H61.7155C63.3842 143.322 64.8318 142.934 65.8796 142.427C66.5072 142.113 67.0129 141.771 67.3832 141.411L67.4122 142.437ZM67.4122 140.812C67.1152 141.268 66.6072 141.703 65.9085 142.102V132.717L66.3422 132.951C66.8067 133.274 67.1656 133.615 67.4122 133.966V140.812ZM67.4122 133.398C67.0373 133.038 66.5319 132.696 65.9085 132.382C64.8695 131.872 63.4191 131.483 61.7444 131.265H63.971L67.4411 132.372L67.4122 133.398Z" fill="#E2E2E2"/>
<path id="Vector_58" d="M64.79 132.713V142.139C63.5329 142.686 61.7463 143.062 59.7505 143.2H34.3014C32.3103 143.065 30.53 142.688 29.29 142.139V132.713C30.5672 132.188 32.3382 131.83 34.3014 131.7H59.7225C61.7137 131.819 63.513 132.178 64.79 132.713Z" fill="#242122"/>
</g>
</g>
</svg>
