<svg width="212" height="95" viewBox="0 0 212 95" fill="none" xmlns="http://www.w3.org/2000/svg">
<path d="M205.819 77.945L209.972 75.5664L206.36 72.7676C206.238 72.679 206.139 72.5697 206.07 72.4467C206.001 72.3237 205.962 72.1897 205.956 72.0532V47.6245V23.1958C205.962 23.0593 206.001 22.9253 206.07 22.8023C206.139 22.6793 206.238 22.57 206.36 22.4814L209.972 19.6826L205.819 17.304C206.054 16.6785 206.183 16.0275 206.202 15.3709C206.229 13.8101 205.682 12.2816 204.637 11.0003L205.7 4.47818L204.194 3.30989C202.734 2.20953 200.847 1.61064 198.899 1.62892C197.31 1.61997 195.756 2.02136 194.44 2.78038C193.434 2.05408 192.164 1.64726 190.847 1.62892H21.097C19.7797 1.64726 18.5104 2.05408 17.5043 2.78038C16.1864 2.02421 14.6332 1.6231 13.0455 1.62892C11.0976 1.61064 9.21091 2.20953 7.75002 3.30989L6.24405 4.52019L7.30709 11.0424C6.25878 12.3218 5.71099 13.8516 5.74206 15.4129C5.76174 16.0696 5.891 16.7205 6.12593 17.346L1.97223 19.6489L5.58458 22.4477C5.70626 22.5363 5.80497 22.6457 5.87445 22.7686C5.94393 22.8917 5.98265 23.0257 5.98813 23.1622V72.0196C5.98265 72.1561 5.94393 72.29 5.87445 72.4131C5.80497 72.5361 5.70626 72.6453 5.58458 72.734L1.97223 75.5328L6.12593 77.9114C5.891 78.5369 5.76174 79.1878 5.74206 79.8445C5.70623 81.4064 6.25446 82.9373 7.30709 84.215L6.24405 90.7372L7.75002 91.9055C9.07044 92.9098 10.7449 93.5108 12.5092 93.6125C14.2737 93.7142 16.0276 93.3116 17.4945 92.4686C18.5043 93.1964 19.7761 93.6058 21.097 93.6285H190.847C192.166 93.6074 193.435 93.1981 194.44 92.4686C195.757 93.2275 197.31 93.631 198.899 93.6285C200.854 93.6352 202.741 93.0208 204.194 91.9055L205.7 90.7372L204.637 84.215C205.686 82.9355 206.234 81.4058 206.202 79.8445C206.179 79.1991 206.05 78.5597 205.819 77.945Z" stroke="#3D3D3D" stroke-width="2" stroke-miterlimit="10"/>
<path d="M203.683 75.1798L200.494 77.012C202.994 78.777 202.718 81.5338 200.494 83.2568L201.478 89.5269C200.756 90.0748 199.825 90.3783 198.86 90.3783C197.894 90.3783 196.963 90.0748 196.241 89.5269L194.834 88.4342C193.771 87.5937 192.324 90.3673 190.808 90.3673H21.097C19.5812 90.3673 18.1441 87.6021 17.0614 88.4342L15.6637 89.5269C14.9427 90.0748 14.0109 90.3783 13.0455 90.3783C12.0801 90.3783 11.1483 90.0748 10.4273 89.5269L11.4116 83.2568C9.19691 81.5338 8.92131 78.777 11.4116 77.012L8.2323 75.1798C8.75176 74.788 9.16847 74.307 9.45508 73.7682C9.74181 73.2293 9.89191 72.6449 9.89575 72.0532V23.1957C9.89191 22.604 9.74181 22.0196 9.45508 21.4807C9.16847 20.9419 8.75176 20.4609 8.2323 20.0691L11.4116 18.2369C8.92131 16.4719 9.19691 13.7235 11.4116 12.0005L10.4273 5.73046C11.1483 5.18226 12.0801 4.87936 13.0455 4.87936C14.0109 4.87936 14.9427 5.18226 15.6637 5.73046L17.0614 6.8147C18.1342 7.65518 19.5812 4.88998 21.097 4.88998H190.847C192.363 4.88998 193.8 7.64678 194.873 6.8147L196.281 5.73046C197.002 5.18226 197.933 4.87936 198.899 4.87936C199.865 4.87936 200.796 5.18226 201.517 5.73046L200.533 12.0005C202.757 13.7235 203.033 16.4719 200.533 18.2369L203.722 20.0691C203.202 20.4609 202.786 20.9419 202.499 21.4807C202.212 22.0196 202.062 22.604 202.059 23.1957V72.0532C202.058 72.6424 202.201 73.2253 202.481 73.764C202.761 74.3026 203.171 74.785 203.683 75.1798Z" fill="#3D3D3D" stroke="#3D3D3D" stroke-width="4" stroke-miterlimit="10"/>
<rect x="148.519" y="33.6285" width="50.2665" height="13" rx="2" fill="#1D1D1D"/>
<rect x="109.853" y="33.6285" width="37.6999" height="13" rx="2" fill="#1D1D1D"/>
<rect x="84.7194" y="33.6285" width="24.1666" height="13" rx="2" fill="#1D1D1D"/>
<rect x="13.1863" y="33.6285" width="70.5665" height="13" rx="2" fill="#1D1D1D"/>
<rect x="148.519" y="48.6285" width="50.2665" height="13" rx="2" fill="#1D1D1D"/>
<rect x="109.853" y="48.6285" width="37.6999" height="13" rx="2" fill="#1D1D1D"/>
<rect x="84.7194" y="48.6285" width="24.1666" height="13" rx="2" fill="#1D1D1D"/>
<rect x="13.1863" y="48.6285" width="70.5665" height="13" rx="2" fill="#1D1D1D"/>
<rect x="148.519" y="63.6285" width="50.2665" height="13" rx="2" fill="#1D1D1D"/>
<rect x="109.853" y="63.6285" width="37.6999" height="13" rx="2" fill="#1D1D1D"/>
<rect x="84.7194" y="63.6285" width="24.1666" height="13" rx="2" fill="#1D1D1D"/>
<rect x="13.1863" y="63.6285" width="70.5665" height="13" rx="2" fill="#1D1D1D"/>
<rect x="148.492" y="18.6285" width="50.2665" height="13" rx="2" fill="#1D1D1D"/>
<rect x="109.825" y="18.6285" width="37.6999" height="13" rx="2" fill="#1D1D1D"/>
<rect x="84.6917" y="18.6285" width="24.1666" height="13" rx="2" fill="#1D1D1D"/>
<rect x="13.1586" y="18.6285" width="70.5665" height="13" rx="2" fill="#1D1D1D"/>
<rect x="148.492" y="18.6285" width="50.2665" height="13" rx="2" fill="#1D1D1D"/>
<rect x="109.825" y="18.6285" width="37.6999" height="13" rx="2" fill="#1D1D1D"/>
<rect x="84.6917" y="18.6285" width="24.1666" height="13" rx="2" fill="#1D1D1D"/>
<rect x="13.1586" y="18.6285" width="70.5665" height="13" rx="2" fill="#1D1D1D"/>
</svg>
