<svg width="200" height="182" viewBox="0 0 200 182" fill="none" xmlns="http://www.w3.org/2000/svg">
<path d="M5.8857 179.43L2.53719 176.01C2.04914 175.511 1.66218 174.918 1.39842 174.266C1.13466 173.614 0.999282 172.915 1.00001 172.21V9.8C0.998529 9.09292 1.13353 8.39248 1.39729 7.73872C1.66105 7.08497 2.0484 6.49074 2.53719 5.99001L5.8857 2.58C6.37368 2.07972 6.95349 1.68265 7.59191 1.41153C8.23034 1.14041 8.91485 1.00057 9.60627 1H190.161C190.853 1.00057 191.537 1.14041 192.176 1.41153C192.814 1.68265 193.394 2.07972 193.882 2.58L197.23 5.99001C198.22 7.00029 198.777 8.37075 198.777 9.8V172.21C198.775 173.636 198.219 175.003 197.23 176.01L193.882 179.43C193.394 179.929 192.813 180.324 192.175 180.594C191.536 180.863 190.852 181.001 190.161 181H9.60627C8.91546 181.001 8.2312 180.863 7.59273 180.594C6.95427 180.324 6.37417 179.929 5.8857 179.43V179.43Z" stroke="#3E3E3E" stroke-width="2" stroke-miterlimit="10"/>
<path d="M8.20619 2.91999H189.388C190.079 2.91924 190.763 3.05752 191.401 3.32691C192.04 3.59629 192.62 3.99152 193.109 4.48999L195.36 6.78998C195.85 7.28821 196.238 7.88058 196.501 8.53282C196.765 9.18507 196.9 9.88426 196.898 10.59V171.41C196.899 172.117 196.764 172.818 196.5 173.471C196.237 174.125 195.849 174.719 195.36 175.22L193.109 177.51C192.122 178.519 190.784 179.088 189.388 179.09H10.3798C8.98359 179.088 7.64538 178.519 6.65922 177.51L4.4073 175.22C3.42376 174.206 2.8714 172.837 2.87012 171.41V10.59C2.86972 9.16541 3.42253 7.79883 4.4073 6.78998L8.20619 2.91999Z" fill="#3E3E3E"/>
<path d="M191.687 27.92H8.34136C7.60055 27.92 7 28.5333 7 29.29V78.32C7 79.0766 7.60055 79.69 8.34136 79.69H191.687C192.428 79.69 193.028 79.0766 193.028 78.32V29.29C193.028 28.5333 192.428 27.92 191.687 27.92Z" fill="#1D1D1D"/>
<rect x="7.13525" y="14" width="80" height="13" rx="1" fill="#1D1D1D"/>
<path d="M191.687 111.92H8.34136C7.60055 111.92 7 112.533 7 113.29V162.32C7 163.077 7.60055 163.69 8.34136 163.69H191.687C192.428 163.69 193.028 163.077 193.028 162.32V113.29C193.028 112.533 192.428 111.92 191.687 111.92Z" fill="#1D1D1D"/>
<rect x="7.13525" y="98" width="80" height="13" rx="1" fill="#1D1D1D"/>
</svg>
