<svg width="49" height="49" viewBox="0 0 49 49" fill="none" xmlns="http://www.w3.org/2000/svg">
<path d="M32.3333 24.5C32.3333 22.3377 31.5684 20.4915 30.0384 18.9616C28.5085 17.4316 26.6623 16.6667 24.5 16.6667C22.3377 16.6667 20.4915 17.4316 18.9616 18.9616C17.4316 20.4915 16.6667 22.3377 16.6667 24.5C16.6667 26.6623 17.4316 28.5085 18.9616 30.0384C20.4915 31.5684 22.3377 32.3333 24.5 32.3333C26.6623 32.3333 28.5085 31.5684 30.0384 30.0384C31.5684 28.5085 32.3333 26.6623 32.3333 24.5ZM48 21.1647V27.9577C48 28.2025 47.9184 28.4371 47.7552 28.6615C47.592 28.8858 47.388 29.0184 47.1432 29.0592L41.4824 29.916C41.0948 31.0176 40.697 31.9457 40.2891 32.7005C41.003 33.7205 42.0944 35.128 43.5632 36.9232C43.7671 37.168 43.8691 37.423 43.8691 37.6881C43.8691 37.9533 43.7773 38.1879 43.5938 38.3919C43.043 39.1467 42.0332 40.2483 40.5645 41.6966C39.0957 43.145 38.1369 43.8691 37.6882 43.8691C37.4434 43.8691 37.1782 43.7773 36.8926 43.5938L32.6699 40.2891C31.7724 40.7582 30.8442 41.1458 29.8854 41.4518C29.559 44.2261 29.2632 46.1233 28.998 47.1432C28.8553 47.7144 28.4881 48 27.8965 48H21.1035C20.8179 48 20.568 47.9133 20.3538 47.7399C20.1396 47.5665 20.0224 47.3472 20.002 47.082L19.1452 41.4518C18.1456 41.1254 17.2276 40.748 16.3913 40.3197L12.0768 43.5938C11.8728 43.7773 11.6178 43.8691 11.3118 43.8691C11.0263 43.8691 10.7713 43.7569 10.5469 43.5326C7.97656 41.207 6.29362 39.4935 5.49805 38.3919C5.35525 38.1879 5.28385 37.9533 5.28385 37.6881C5.28385 37.4434 5.36545 37.2088 5.52865 36.9844C5.83464 36.556 6.35482 35.8777 7.08919 34.9495C7.82357 34.0214 8.37435 33.3023 8.74154 32.7923C8.19075 31.7724 7.77257 30.7626 7.48698 29.763L1.88737 28.9368C1.62218 28.896 1.40799 28.7686 1.24479 28.5544C1.0816 28.3402 1 28.1005 1 27.8353V21.0423C1 20.7975 1.0816 20.5629 1.24479 20.3385C1.40799 20.1142 1.60178 19.9816 1.82617 19.9408L7.51758 19.084C7.80317 18.1456 8.20096 17.2072 8.71094 16.2689C7.89497 15.1061 6.8036 13.6986 5.43685 12.0462C5.23286 11.8014 5.13086 11.5566 5.13086 11.3118C5.13086 11.1079 5.22266 10.8733 5.40625 10.6081C5.93663 9.8737 6.9413 8.77724 8.42025 7.31869C9.8992 5.86013 10.8631 5.13086 11.3118 5.13086C11.577 5.13086 11.8422 5.23286 12.1074 5.43685L16.3301 8.71094C17.2276 8.24175 18.1558 7.85417 19.1146 7.54818C19.441 4.77387 19.7368 2.87674 20.002 1.85677C20.1447 1.28559 20.5119 1 21.1035 1H27.8965C28.1821 1 28.432 1.0867 28.6462 1.26009C28.8604 1.43349 28.9776 1.65278 28.998 1.91797L29.8548 7.54818C30.8544 7.87457 31.7724 8.25195 32.6087 8.68034L36.9538 5.40625C37.1374 5.22266 37.3822 5.13086 37.6882 5.13086C37.9533 5.13086 38.2083 5.23286 38.4531 5.43685C41.0846 7.86437 42.7676 9.59831 43.502 10.6387C43.6448 10.8019 43.7161 11.0263 43.7161 11.3118C43.7161 11.5566 43.6345 11.7912 43.4714 12.0156C43.1654 12.444 42.6452 13.1223 41.9108 14.0505C41.1764 14.9786 40.6257 15.6977 40.2585 16.2077C40.7888 17.2276 41.207 18.2272 41.513 19.2064L47.1126 20.0632C47.3778 20.1039 47.592 20.2314 47.7552 20.4456C47.9184 20.6598 48 20.8995 48 21.1647Z" fill="#3D3D3D" stroke="#1D1D1D" stroke-width="2" stroke-linejoin="round"/>
</svg>