<svg width="63" height="49" viewBox="0 0 63 49" fill="none" xmlns="http://www.w3.org/2000/svg">
<path d="M2.50688 47.5901L1.47411 46.697C1.32358 46.5667 1.20423 46.412 1.12288 46.2417C1.04153 46.0715 0.999779 45.889 1 45.7048V3.29778C0.999546 3.11315 1.04118 2.93026 1.12254 2.75956C1.20389 2.58885 1.32336 2.43369 1.47411 2.30295L2.50688 1.41256C2.65739 1.28193 2.83622 1.17825 3.03313 1.10745C3.23004 1.03666 3.44116 1.00015 3.65441 1H59.3426C59.5558 1.00015 59.7669 1.03666 59.9639 1.10745C60.1608 1.17825 60.3396 1.28193 60.4901 1.41256L61.5229 2.30295C61.8282 2.56674 61.9998 2.92458 62 3.29778V45.7048C61.9993 46.0772 61.8277 46.4341 61.5229 46.697L60.4901 47.5901C60.3394 47.7203 60.1605 47.8236 59.9636 47.8939C59.7667 47.9643 59.5556 48.0003 59.3426 48H3.65441C3.44135 48.0003 3.2303 47.9643 3.03338 47.8939C2.83646 47.8236 2.65754 47.7203 2.50688 47.5901V47.5901Z" stroke="#3E3E3E" stroke-width="2" stroke-miterlimit="10"/>
<path d="M4.82391 2.75H57.5435C57.7445 2.74982 57.9436 2.78396 58.1293 2.85048C58.3151 2.917 58.4839 3.01458 58.6261 3.13767L59.2814 3.70558C59.4238 3.82861 59.5366 3.97487 59.6134 4.13593C59.6902 4.29698 59.7294 4.46962 59.7287 4.64388V44.3536C59.7291 44.5282 59.6898 44.7012 59.6131 44.8626C59.5363 45.024 59.4236 45.1708 59.2814 45.2944L58.6261 45.8599C58.3392 46.1091 57.9498 46.2494 57.5435 46.25H5.45638C5.05012 46.2494 4.66073 46.1091 4.37378 45.8599L3.71852 45.2944C3.43234 45.0441 3.27161 44.706 3.27124 44.3536V4.64388C3.27112 4.29213 3.43198 3.95469 3.71852 3.70558L4.82391 2.75Z" fill="#3E3E3E"/>
<path d="M49.4003 28.5836L49.4004 28.5836L49.4077 28.5824C49.7455 28.5261 50.016 28.3392 50.2117 28.0701C50.3936 27.8199 50.5 27.5342 50.5 27.222V21.8743C50.5 21.5543 50.3987 21.2595 50.205 21.0052C49.9984 20.7341 49.7147 20.5649 49.3775 20.513L49.3771 20.5129L45.2732 19.885C45.0646 19.2701 44.8035 18.6481 44.4906 18.0192C44.764 17.6505 45.1327 17.1727 45.5985 16.584C46.1761 15.854 46.5918 15.3123 46.8405 14.9642C47.0217 14.7144 47.1276 14.4293 47.1276 14.1178C47.1276 13.8202 47.0545 13.5224 46.8543 13.281C46.2348 12.4109 44.8756 11.0184 42.8234 9.12533C42.8172 9.11964 42.8109 9.1141 42.8045 9.10873C42.5408 8.88898 42.2303 8.75195 41.8822 8.75195C41.5469 8.75195 41.2295 8.8525 40.9788 9.08777L37.8294 11.4609C37.3086 11.2095 36.7533 10.982 36.1639 10.7782L35.5378 6.66363C35.5061 6.32131 35.3444 6.0313 35.0786 5.81613C34.8175 5.60478 34.5087 5.5 34.1738 5.5H28.8262C28.5128 5.5 28.2069 5.57658 27.9531 5.77394C27.6998 5.97099 27.5507 6.24777 27.4745 6.55088C27.2668 7.35072 27.0434 8.76896 26.8014 10.7804C26.2287 10.9777 25.6696 11.2112 25.1243 11.481L22.0505 9.0977L22.049 9.09653C21.776 8.88656 21.463 8.75195 21.1178 8.75195C20.9099 8.75195 20.7106 8.83111 20.5475 8.91531C20.3737 9.00504 20.1841 9.13095 19.9821 9.28381C19.5773 9.59006 19.0787 10.0381 18.4904 10.6183C17.325 11.7676 16.5076 12.6561 16.0634 13.2711L16.0633 13.271L16.0577 13.2792C15.8863 13.5268 15.752 13.8121 15.752 14.1178C15.752 14.4586 15.8959 14.7604 16.1081 15.0153C17.0824 16.1932 17.8737 17.2071 18.4844 18.0585C18.1888 18.6328 17.9435 19.2094 17.7493 19.7881L13.576 20.4164L13.5609 20.4189C13.2315 20.4788 12.9751 20.6731 12.7883 20.9299C12.6064 21.1801 12.5 21.4658 12.5 21.778V27.1257C12.5 27.4457 12.6013 27.7405 12.795 27.9948C13.0016 28.2659 13.2853 28.4351 13.6225 28.487L13.6256 28.4875L17.7199 29.0916C17.9202 29.7209 18.1828 30.3519 18.5066 30.9845C18.2335 31.3527 17.8657 31.8293 17.4015 32.416C16.8239 33.146 16.4082 33.6877 16.1595 34.0358C15.9783 34.2856 15.8724 34.5707 15.8724 34.8822C15.8724 35.1865 15.9562 35.4727 16.1314 35.7229L16.1314 35.723L16.1357 35.7289C16.7957 36.6428 18.1548 38.0209 20.1717 39.8462C20.4291 40.0994 20.7497 40.248 21.1178 40.248C21.4593 40.248 21.7771 40.1445 22.0371 39.9183L25.1717 37.5396C25.6921 37.7908 26.2471 38.0181 26.8361 38.2218L27.4622 42.3364C27.4939 42.6787 27.6556 42.9687 27.9214 43.1839C28.1825 43.3952 28.4913 43.5 28.8262 43.5H34.1738C34.4872 43.5 34.7931 43.4234 35.0469 43.2261C35.3002 43.029 35.4493 42.7523 35.5255 42.4492C35.7332 41.6493 35.9566 40.2311 36.1986 38.2196C36.7709 38.0225 37.3295 37.7892 37.8743 37.5197L40.9477 39.925C40.9599 39.9345 40.9725 39.9435 40.9855 39.9518C41.2609 40.1289 41.5632 40.248 41.8822 40.248C42.0895 40.248 42.2882 40.1696 42.4512 40.0858C42.6246 39.9965 42.8135 39.8714 43.0146 39.7195C43.4175 39.4151 43.9132 38.97 44.4976 38.3938C45.6442 37.2631 46.4594 36.3782 46.9213 35.7499C47.1335 35.505 47.248 35.2098 47.248 34.8822C47.248 34.5349 47.1117 34.2251 46.8929 33.9618C45.8555 32.6939 45.0641 31.6796 44.5144 30.9156C44.7634 30.4211 45.0046 29.853 45.2389 29.2134L49.4003 28.5836ZM35.5065 20.4935C36.6172 21.6043 37.1667 22.9304 37.1667 24.5C37.1667 26.0696 36.6172 27.3957 35.5065 28.5065C34.3957 29.6172 33.0696 30.1667 31.5 30.1667C29.9304 30.1667 28.6043 29.6172 27.4935 28.5065C26.3828 27.3957 25.8333 26.0696 25.8333 24.5C25.8333 22.9304 26.3828 21.6043 27.4935 20.4935C28.6043 19.3828 29.9304 18.8333 31.5 18.8333C33.0696 18.8333 34.3957 19.3828 35.5065 20.4935Z" fill="#242122" stroke="#D7D7D7" stroke-linejoin="round"/>
<path d="M8 5L6 7L6 41L8 44" stroke="#E2E2E2" stroke-linecap="round" stroke-linejoin="round"/>
<path d="M55 44L57 41.2424V6.9697L55 5" stroke="#E2E2E2" stroke-linecap="round" stroke-linejoin="round"/>
</svg>
